<svg width="388" height="32" viewBox="0 0 388 32" fill="none" xmlns="http://www.w3.org/2000/svg">
<path d="M20.0916 4.22L19.9148 4.5788L19.9189 4.58077L20.0916 4.22ZM23.7636 7.518L24.1085 7.31543L23.7636 7.518ZM24.7836 14.998L24.3913 14.9195L24.3897 14.9285L24.7836 14.998ZM22.1316 21.186L21.8116 20.946L21.8097 20.9486L22.1316 21.186ZM16.9976 25.47L17.1749 25.8286L17.1765 25.8278L16.9976 25.47ZM0.643633 27L0.249776 26.9302C0.229122 27.0467 0.261092 27.1663 0.337093 27.257C0.413094 27.3476 0.525329 27.4 0.643633 27.4V27ZM4.89363 3.03V2.63C4.69966 2.63 4.53364 2.76917 4.49978 2.96017L4.89363 3.03ZM15.5356 19.554L15.7901 19.8626L15.7933 19.86L15.5356 19.554ZM18.0176 14.998L17.6254 14.9195L17.6244 14.9248L18.0176 14.998ZM16.7596 10.034L16.4957 10.3346L16.7596 10.034ZM10.5716 8.81V8.41C10.3779 8.41 10.212 8.54881 10.1779 8.7395L10.5716 8.81ZM8.36163 21.152L7.9679 21.0815C7.94702 21.1981 7.97887 21.3179 8.05487 21.4087C8.13087 21.4995 8.24321 21.552 8.36163 21.552V21.152ZM14.3796 3.43C16.5305 3.43 18.3715 3.81799 19.9148 4.57878L20.2685 3.86122C18.5931 3.03535 16.6261 2.63 14.3796 2.63V3.43ZM19.9189 4.58077C21.4622 5.31982 22.6236 6.36665 23.4187 7.72057L24.1085 7.31543C23.2264 5.81335 21.9397 4.66151 20.2644 3.85923L19.9189 4.58077ZM23.4187 7.72057C24.2162 9.07844 24.6216 10.6724 24.6216 12.516H25.4216C25.4216 10.5516 24.9884 8.81355 24.1085 7.31543L23.4187 7.72057ZM24.6216 12.516C24.6216 13.3527 24.5446 14.1537 24.3914 14.9196L25.1759 15.0764C25.34 14.2557 25.4216 13.402 25.4216 12.516H24.6216ZM24.3897 14.9285C23.9922 17.1809 23.1326 19.1847 21.8116 20.946L22.4516 21.426C23.8507 19.5606 24.759 17.4391 25.1775 15.0675L24.3897 14.9285ZM21.8097 20.9486C20.5112 22.7093 18.8496 24.0968 16.8187 25.1122L17.1765 25.8278C19.3163 24.7579 21.0774 23.2894 22.4536 21.4234L21.8097 20.9486ZM16.8203 25.1114C14.8178 26.1017 12.59 26.6 10.1296 26.6V27.4C12.7013 27.4 15.0521 26.8783 17.1749 25.8286L16.8203 25.1114ZM10.1296 26.6H0.643633V27.4H10.1296V26.6ZM1.03749 27.0698L5.28749 3.09983L4.49978 2.96017L0.249776 26.9302L1.03749 27.0698ZM4.89363 3.43H14.3796V2.63H4.89363V3.43ZM10.6736 21.552C12.6998 21.552 14.415 20.9965 15.7901 19.8626L15.2812 19.2454C14.0723 20.2422 12.5461 20.752 10.6736 20.752V21.552ZM15.7933 19.86C17.1679 18.7024 18.0344 17.0949 18.4109 15.0712L17.6244 14.9248C17.2756 16.7998 16.4873 18.2296 15.278 19.248L15.7933 19.86ZM18.4099 15.0764C18.5063 14.5943 18.5536 14.0804 18.5536 13.536H17.7536C17.7536 14.0343 17.7103 14.4951 17.6254 14.9196L18.4099 15.0764ZM18.5536 13.536C18.5536 11.9307 18.0587 10.6423 17.0236 9.73342L16.4957 10.3346C17.3192 11.0577 17.7536 12.104 17.7536 13.536H18.5536ZM17.0236 9.73342C15.9987 8.83357 14.5892 8.41 12.8496 8.41V9.21C14.4647 9.21 15.6619 9.60243 16.4957 10.3346L17.0236 9.73342ZM12.8496 8.41H10.5716V9.21H12.8496V8.41ZM10.1779 8.7395L7.9679 21.0815L8.75537 21.2225L10.9654 8.8805L10.1779 8.7395ZM8.36163 21.552H10.6736V20.752H8.36163V21.552ZM31.9016 25.98L32.0928 25.6286L31.9016 25.98ZM28.3316 22.444L28.6817 22.2506L28.3316 22.444ZM28.8416 9.66L28.4897 9.46972L28.489 9.47101L28.8416 9.66ZM33.8396 4.492L33.6419 4.14425L33.6403 4.14516L33.8396 4.492ZM46.6236 3.914L46.4324 4.26541L46.4386 4.26863L46.6236 3.914ZM50.2276 7.416L49.8774 7.60937L49.8787 7.6116L50.2276 7.416ZM49.6836 20.166L49.3317 19.9757L49.6836 20.166ZM44.6516 25.368L44.4512 25.0218L44.6516 25.368ZM41.7616 19.996L41.5347 19.6666L41.5312 19.669L41.7616 19.996ZM44.0736 17.208L43.7104 17.0404L43.709 17.0436L44.0736 17.208ZM43.6996 10.034L43.4087 10.3088L43.4167 10.3168L43.6996 10.034ZM36.8316 9.864L37.0535 10.1969L37.0585 10.1934L36.8316 9.864ZM34.4856 12.618L34.8475 12.7883L34.4856 12.618ZM34.8596 19.826L34.569 20.1009L34.5728 20.1048L34.8596 19.826ZM37.2396 26.838C35.279 26.838 33.5672 26.4309 32.0928 25.6286L31.7104 26.3314C33.3187 27.2064 35.1656 27.638 37.2396 27.638V26.838ZM32.0928 25.6286C30.6176 24.826 29.4831 23.7018 28.6817 22.2506L27.9814 22.6374C28.8574 24.2236 30.1029 25.4567 31.7104 26.3314L32.0928 25.6286ZM28.6817 22.2506C27.88 20.7989 27.4736 19.1217 27.4736 17.208H26.6736C26.6736 19.2383 27.1058 21.0518 27.9814 22.6374L28.6817 22.2506ZM27.4736 17.208C27.4736 14.4316 28.0506 11.982 29.1941 9.84899L28.489 9.47101C27.2752 11.7353 26.6736 14.3178 26.6736 17.208H27.4736ZM29.1934 9.85028C30.3605 7.69238 31.9744 6.02477 34.0388 4.83884L33.6403 4.14516C31.4434 5.40723 29.7254 7.18495 28.4897 9.46972L29.1934 9.85028ZM34.0373 4.83975C36.1236 3.65385 38.5133 3.056 41.2176 3.056V2.256C38.3912 2.256 35.8623 2.88215 33.6419 4.14425L34.0373 4.83975ZM41.2176 3.056C43.2252 3.056 44.9593 3.46379 46.4324 4.26535L46.8148 3.56264C45.2052 2.68688 43.3353 2.256 41.2176 2.256V3.056ZM46.4386 4.26863C47.9341 5.04892 49.0774 6.16074 49.8774 7.60937L50.5777 7.22263C49.7004 5.63393 48.4411 4.41108 46.8086 3.55937L46.4386 4.26863ZM49.8787 7.6116C50.6791 9.0394 51.0856 10.7041 51.0856 12.618H51.8856C51.8856 10.5879 51.4534 8.78459 50.5765 7.2204L49.8787 7.6116ZM51.0856 12.618C51.0856 15.3699 50.498 17.8192 49.3317 19.9757L50.0354 20.3563C51.2718 18.0701 51.8856 15.4875 51.8856 12.618H51.0856ZM49.3317 19.9757C48.165 22.1331 46.5396 23.8127 44.4512 25.0218L44.852 25.7142C47.0702 24.4299 48.7995 22.6415 50.0354 20.3563L49.3317 19.9757ZM44.4512 25.0218C42.3658 26.2291 39.9659 26.838 37.2396 26.838V27.638C40.0893 27.638 42.6307 27.0002 44.852 25.7142L44.4512 25.0218ZM38.2596 21.45C39.6711 21.45 40.9207 21.0777 41.992 20.323L41.5312 19.669C40.6078 20.3196 39.5228 20.65 38.2596 20.65V21.45ZM41.9885 20.3254C43.0701 19.5803 43.8876 18.5933 44.4382 17.3724L43.709 17.0436C43.2169 18.1347 42.4931 19.0064 41.5347 19.6666L41.9885 20.3254ZM44.4368 17.3756C45.0062 16.1419 45.2896 14.8151 45.2896 13.4H44.4896C44.4896 14.7049 44.229 15.9168 43.7104 17.0404L44.4368 17.3756ZM45.2896 13.4C45.2896 11.8757 44.871 10.6397 43.9824 9.75116L43.4167 10.3168C44.1149 11.015 44.4896 12.023 44.4896 13.4H45.2896ZM43.9904 9.75935C43.1237 8.84163 41.8944 8.41 40.3676 8.41V9.21C41.7421 9.21 42.7342 9.59436 43.4088 10.3086L43.9904 9.75935ZM40.3676 8.41C38.956 8.41 37.6968 8.78225 36.6047 9.5346L37.0585 10.1934C38.0064 9.54042 39.1045 9.21 40.3676 9.21V8.41ZM36.6097 9.53118C35.5265 10.2533 34.6973 11.2287 34.1237 12.4477L34.8475 12.7883C35.3619 11.6953 36.0967 10.8347 37.0535 10.1968L36.6097 9.53118ZM34.1237 12.4477C33.5526 13.6612 33.2696 14.9894 33.2696 16.426H34.0696C34.0696 15.0973 34.3306 13.8868 34.8475 12.7883L34.1237 12.4477ZM33.2696 16.426C33.2696 17.9308 33.6897 19.1713 34.569 20.1009L35.1502 19.5511C34.4428 18.8034 34.0696 17.7772 34.0696 16.426H33.2696ZM34.5728 20.1048C35.4619 21.0193 36.7116 21.45 38.2596 21.45V20.65C36.8609 20.65 35.8439 20.2647 35.1464 19.5472L34.5728 20.1048ZM90.4193 3.03L90.7879 3.18529C90.84 3.06178 90.8267 2.92043 90.7526 2.80877C90.6784 2.69712 90.5533 2.63 90.4193 2.63V3.03ZM80.3213 27V27.4C80.4822 27.4 80.6275 27.3036 80.6899 27.1553L80.3213 27ZM72.1273 27L71.7278 27.0194C71.7381 27.2325 71.9139 27.4 72.1273 27.4V27ZM71.4133 12.278L71.8128 12.2586C71.8037 12.0712 71.6655 11.9152 71.4805 11.8837C71.2955 11.8522 71.1134 11.9535 71.0427 12.1274L71.4133 12.278ZM65.4293 27V27.4C65.5921 27.4 65.7386 27.3014 65.7999 27.1506L65.4293 27ZM57.2353 27L56.8362 27.026C56.8499 27.2364 57.0245 27.4 57.2353 27.4V27ZM55.6713 3.03V2.63C55.5607 2.63 55.455 2.6758 55.3794 2.75652C55.3038 2.83724 55.265 2.94567 55.2722 3.05604L55.6713 3.03ZM62.8793 3.03L63.2793 3.03166C63.2797 2.92529 63.2378 2.82312 63.1627 2.74774C63.0877 2.67237 62.9857 2.63 62.8793 2.63V3.03ZM62.8113 19.418L62.4113 19.4163C62.4105 19.6081 62.5459 19.7734 62.7341 19.8105C62.9222 19.8475 63.1102 19.7458 63.1821 19.568L62.8113 19.418ZM69.4413 3.03V2.63C69.2783 2.63 69.1316 2.72889 69.0705 2.87998L69.4413 3.03ZM76.7513 3.03L77.1508 3.01085C77.1406 2.79763 76.9648 2.63 76.7513 2.63V3.03ZM77.5333 19.35L77.1338 19.3691C77.1429 19.5605 77.2865 19.7185 77.4761 19.7459C77.6657 19.7733 77.8481 19.6624 77.9111 19.4814L77.5333 19.35ZM83.2113 3.03V2.63C83.0411 2.63 82.8895 2.73776 82.8335 2.89856L83.2113 3.03ZM90.0507 2.87471L79.9527 26.8447L80.6899 27.1553L90.7879 3.18529L90.0507 2.87471ZM80.3213 26.6H72.1273V27.4H80.3213V26.6ZM72.5268 26.9806L71.8128 12.2586L71.0138 12.2974L71.7278 27.0194L72.5268 26.9806ZM71.0427 12.1274L65.0587 26.8494L65.7999 27.1506L71.7839 12.4286L71.0427 12.1274ZM65.4293 26.6H57.2353V27.4H65.4293V26.6ZM57.6345 26.974L56.0705 3.00395L55.2722 3.05604L56.8362 27.026L57.6345 26.974ZM55.6713 3.43H62.8793V2.63H55.6713V3.43ZM62.4793 3.02834L62.4113 19.4163L63.2113 19.4197L63.2793 3.03166L62.4793 3.02834ZM63.1821 19.568L69.8121 3.18001L69.0705 2.87998L62.4405 19.268L63.1821 19.568ZM69.4413 3.43H76.7513V2.63H69.4413V3.43ZM76.3518 3.04914L77.1338 19.3691L77.9328 19.3309L77.1508 3.01085L76.3518 3.04914ZM77.9111 19.4814L83.5891 3.16144L82.8335 2.89856L77.1555 19.2186L77.9111 19.4814ZM83.2113 3.43H90.4193V2.63H83.2113V3.43ZM111.233 27V27.4C111.427 27.4 111.593 27.2605 111.627 27.0693L111.233 27ZM104.535 27L104.175 27.1737C104.242 27.3121 104.382 27.4 104.535 27.4V27ZM98.0751 13.604L98.4354 13.4303C98.3601 13.274 98.1925 13.1841 98.0206 13.2077C97.8487 13.2314 97.7117 13.3632 97.6813 13.534L98.0751 13.604ZM95.6952 27V27.4C95.8891 27.4 96.0551 27.2609 96.089 27.07L95.6952 27ZM88.9971 27L88.6033 26.9302C88.5826 27.0467 88.6146 27.1663 88.6906 27.257C88.7666 27.3476 88.8788 27.4 88.9971 27.4V27ZM93.2471 3.03V2.63C93.0532 2.63 92.8872 2.76917 92.8533 2.96017L93.2471 3.03ZM99.9111 3.03L100.272 2.85729C100.205 2.71839 100.065 2.63 99.9111 2.63V3.03ZM106.405 16.596L106.044 16.7687C106.119 16.9256 106.287 17.0159 106.46 16.9923C106.632 16.9686 106.769 16.8364 106.799 16.6651L106.405 16.596ZM108.785 3.03V2.63C108.591 2.63 108.425 2.76955 108.391 2.96088L108.785 3.03ZM115.449 3.03L115.843 3.09929C115.864 2.98287 115.832 2.86335 115.756 2.77282C115.68 2.68228 115.567 2.63 115.449 2.63V3.03ZM111.233 26.6H104.535V27.4H111.233V26.6ZM104.895 26.8263L98.4354 13.4303L97.7149 13.7777L104.175 27.1737L104.895 26.8263ZM97.6813 13.534L95.3013 26.93L96.089 27.07L98.469 13.674L97.6813 13.534ZM95.6952 26.6H88.9971V27.4H95.6952V26.6ZM89.391 27.0698L93.641 3.09983L92.8533 2.96017L88.6033 26.9302L89.391 27.0698ZM93.2471 3.43H99.9111V2.63H93.2471V3.43ZM99.5504 3.20271L106.044 16.7687L106.766 16.4233L100.272 2.85729L99.5504 3.20271ZM106.799 16.6651L109.179 3.09912L108.391 2.96088L106.011 16.5269L106.799 16.6651ZM108.785 3.43H115.449V2.63H108.785V3.43ZM115.055 2.96071L110.839 26.9307L111.627 27.0693L115.843 3.09929L115.055 2.96071ZM122.611 21.934L122.217 21.8653C122.197 21.9816 122.229 22.101 122.305 22.1914C122.381 22.2818 122.493 22.334 122.611 22.334V21.934ZM130.057 21.934L130.451 22.0053C130.472 21.8887 130.44 21.7686 130.364 21.6776C130.288 21.5866 130.176 21.534 130.057 21.534V21.934ZM129.139 27V27.4C129.333 27.4 129.498 27.2616 129.533 27.0713L129.139 27ZM114.995 27L114.601 26.9302C114.581 27.0467 114.613 27.1663 114.689 27.257C114.765 27.3476 114.877 27.4 114.995 27.4V27ZM119.245 3.03V2.63C119.051 2.63 118.885 2.76917 118.851 2.96017L119.245 3.03ZM125.909 3.03L126.303 3.09874C126.324 2.98239 126.291 2.86302 126.215 2.77261C126.139 2.6822 126.027 2.63 125.909 2.63V3.03ZM122.611 22.334H130.057V21.534H122.611V22.334ZM129.664 21.8627L128.746 26.9287L129.533 27.0713L130.451 22.0053L129.664 21.8627ZM129.139 26.6H114.995V27.4H129.139V26.6ZM115.389 27.0698L119.639 3.09983L118.851 2.96017L114.601 26.9302L115.389 27.0698ZM119.245 3.43H125.909V2.63H119.245V3.43ZM125.515 2.96125L122.217 21.8653L123.005 22.0027L126.303 3.09874L125.515 2.96125ZM137.952 25.98L138.144 25.6286L137.952 25.98ZM134.382 22.444L134.733 22.2506L134.382 22.444ZM134.892 9.66L134.541 9.46972L134.54 9.47101L134.892 9.66ZM139.89 4.492L139.693 4.14425L139.691 4.14516L139.89 4.492ZM152.674 3.914L152.483 4.26541L152.489 4.26863L152.674 3.914ZM156.278 7.416L155.928 7.60937L155.929 7.6116L156.278 7.416ZM155.734 20.166L155.383 19.9757L155.734 20.166ZM150.702 25.368L150.502 25.0218L150.702 25.368ZM147.812 19.996L147.585 19.6666L147.582 19.669L147.812 19.996ZM150.124 17.208L149.761 17.0404L149.76 17.0436L150.124 17.208ZM149.75 10.034L149.459 10.3088L149.468 10.3168L149.75 10.034ZM142.882 9.864L143.104 10.1969L143.109 10.1934L142.882 9.864ZM140.536 12.618L140.898 12.7883L140.536 12.618ZM140.91 19.826L140.62 20.1009L140.624 20.1048L140.91 19.826ZM143.29 26.838C141.33 26.838 139.618 26.4309 138.144 25.6286L137.761 26.3314C139.369 27.2064 141.216 27.638 143.29 27.638V26.838ZM138.144 25.6286C136.668 24.826 135.534 23.7018 134.733 22.2506L134.032 22.6374C134.908 24.2236 136.154 25.4567 137.761 26.3314L138.144 25.6286ZM134.733 22.2506C133.931 20.7989 133.524 19.1217 133.524 17.208H132.724C132.724 19.2383 133.157 21.0518 134.032 22.6374L134.733 22.2506ZM133.524 17.208C133.524 14.4316 134.101 11.982 135.245 9.84899L134.54 9.47101C133.326 11.7353 132.724 14.3178 132.724 17.208H133.524ZM135.244 9.85028C136.411 7.69238 138.025 6.02477 140.09 4.83884L139.691 4.14516C137.494 5.40723 135.776 7.18495 134.541 9.46972L135.244 9.85028ZM140.088 4.83975C142.174 3.65385 144.564 3.056 147.268 3.056V2.256C144.442 2.256 141.913 2.88215 139.693 4.14425L140.088 4.83975ZM147.268 3.056C149.276 3.056 151.01 3.46379 152.483 4.26535L152.866 3.56264C151.256 2.68688 149.386 2.256 147.268 2.256V3.056ZM152.489 4.26863C153.985 5.04892 155.128 6.16074 155.928 7.60937L156.629 7.22263C155.751 5.63393 154.492 4.41108 152.859 3.55937L152.489 4.26863ZM155.929 7.6116C156.73 9.0394 157.136 10.7041 157.136 12.618H157.936C157.936 10.5879 157.504 8.78459 156.627 7.2204L155.929 7.6116ZM157.136 12.618C157.136 15.3699 156.549 17.8192 155.383 19.9757L156.086 20.3563C157.323 18.0701 157.936 15.4875 157.936 12.618H157.136ZM155.383 19.9757C154.216 22.1331 152.59 23.8127 150.502 25.0218L150.903 25.7142C153.121 24.4299 154.85 22.6415 156.086 20.3563L155.383 19.9757ZM150.502 25.0218C148.417 26.2291 146.017 26.838 143.29 26.838V27.638C146.14 27.638 148.681 27.0002 150.903 25.7142L150.502 25.0218ZM144.31 21.45C145.722 21.45 146.971 21.0777 148.043 20.323L147.582 19.669C146.659 20.3196 145.574 20.65 144.31 20.65V21.45ZM148.039 20.3254C149.121 19.5803 149.938 18.5933 150.489 17.3724L149.76 17.0436C149.268 18.1347 148.544 19.0064 147.585 19.6666L148.039 20.3254ZM150.488 17.3756C151.057 16.1419 151.34 14.8151 151.34 13.4H150.54C150.54 14.7049 150.28 15.9168 149.761 17.0404L150.488 17.3756ZM151.34 13.4C151.34 11.8757 150.922 10.6397 150.033 9.75116L149.468 10.3168C150.166 11.015 150.54 12.023 150.54 13.4H151.34ZM150.041 9.75935C149.174 8.84163 147.945 8.41 146.418 8.41V9.21C147.793 9.21 148.785 9.59436 149.46 10.3086L150.041 9.75935ZM146.418 8.41C145.007 8.41 143.748 8.78225 142.655 9.5346L143.109 10.1934C144.057 9.54042 145.155 9.21 146.418 9.21V8.41ZM142.66 9.53118C141.577 10.2533 140.748 11.2287 140.174 12.4477L140.898 12.7883C141.413 11.6953 142.147 10.8347 143.104 10.1968L142.66 9.53118ZM140.174 12.4477C139.603 13.6612 139.32 14.9894 139.32 16.426H140.12C140.12 15.0973 140.381 13.8868 140.898 12.7883L140.174 12.4477ZM139.32 16.426C139.32 17.9308 139.74 19.1713 140.62 20.1009L141.201 19.5511C140.494 18.8034 140.12 17.7772 140.12 16.426H139.32ZM140.624 20.1048C141.513 21.0193 142.762 21.45 144.31 21.45V20.65C142.912 20.65 141.895 20.2647 141.197 19.5472L140.624 20.1048ZM174.336 23.09L174.731 23.0281C174.701 22.8335 174.533 22.69 174.336 22.69V23.09ZM165.836 23.09V22.69C165.685 22.69 165.547 22.775 165.479 22.9099L165.836 23.09ZM163.864 27V27.4C164.015 27.4 164.153 27.315 164.221 27.1801L163.864 27ZM156.86 27L156.508 26.8098C156.441 26.9338 156.444 27.0838 156.517 27.2049C156.589 27.3259 156.719 27.4 156.86 27.4V27ZM169.814 3.03V2.63C169.667 2.63 169.532 2.71056 169.462 2.83982L169.814 3.03ZM177.498 3.03L177.891 2.95638C177.856 2.76715 177.691 2.63 177.498 2.63V3.03ZM181.986 27V27.4C182.105 27.4 182.218 27.347 182.294 27.2555C182.37 27.1639 182.401 27.0433 182.379 26.9264L181.986 27ZM174.948 27L174.553 27.0619C174.583 27.2565 174.751 27.4 174.948 27.4V27ZM173.554 18.024V18.424C173.671 18.424 173.782 18.3731 173.858 18.2846C173.934 18.1961 173.967 18.0789 173.949 17.9636L173.554 18.024ZM172.364 10.238L172.759 10.1776C172.733 10.0057 172.599 9.87048 172.427 9.84302C172.256 9.81556 172.086 9.90215 172.007 10.0572L172.364 10.238ZM168.42 18.024L168.063 17.8432C168 17.9672 168.007 18.115 168.079 18.2334C168.152 18.3518 168.281 18.424 168.42 18.424V18.024ZM174.336 22.69H165.836V23.49H174.336V22.69ZM165.479 22.9099L163.507 26.8199L164.221 27.1801L166.193 23.2701L165.479 22.9099ZM163.864 26.6H156.86V27.4H163.864V26.6ZM157.212 27.1902L170.166 3.22017L169.462 2.83982L156.508 26.8098L157.212 27.1902ZM169.814 3.43H177.498V2.63H169.814V3.43ZM177.105 3.10361L181.593 27.0736L182.379 26.9264L177.891 2.95638L177.105 3.10361ZM181.986 26.6H174.948V27.4H181.986V26.6ZM175.343 26.9381L174.731 23.0281L173.941 23.1519L174.553 27.0619L175.343 26.9381ZM173.949 17.9636L172.759 10.1776L171.969 10.2984L173.159 18.0844L173.949 17.9636ZM172.007 10.0572L168.063 17.8432L168.777 18.2048L172.721 10.4188L172.007 10.0572ZM168.42 18.424H173.554V17.624H168.42V18.424ZM203.572 4.22L203.395 4.5788L203.399 4.58077L203.572 4.22ZM207.244 7.518L207.589 7.31543L207.244 7.518ZM208.264 14.998L207.872 14.9195L207.87 14.9285L208.264 14.998ZM205.612 21.186L205.292 20.946L205.29 20.9486L205.612 21.186ZM200.478 25.47L200.655 25.8286L200.657 25.8278L200.478 25.47ZM184.124 27L183.73 26.9302C183.71 27.0467 183.742 27.1663 183.818 27.257C183.894 27.3476 184.006 27.4 184.124 27.4V27ZM188.374 3.03V2.63C188.18 2.63 188.014 2.76917 187.98 2.96017L188.374 3.03ZM199.016 19.554L199.271 19.8626L199.274 19.86L199.016 19.554ZM201.498 14.998L201.106 14.9195L201.105 14.9248L201.498 14.998ZM200.24 10.034L199.976 10.3346L200.24 10.034ZM194.052 8.81V8.41C193.858 8.41 193.693 8.54881 193.658 8.7395L194.052 8.81ZM191.842 21.152L191.448 21.0815C191.427 21.1981 191.459 21.3179 191.535 21.4087C191.611 21.4995 191.724 21.552 191.842 21.552V21.152ZM197.86 3.43C200.011 3.43 201.852 3.81799 203.395 4.57878L203.749 3.86122C202.074 3.03535 200.107 2.63 197.86 2.63V3.43ZM203.399 4.58077C204.943 5.31982 206.104 6.36665 206.899 7.72057L207.589 7.31543C206.707 5.81335 205.42 4.66151 203.745 3.85923L203.399 4.58077ZM206.899 7.72057C207.697 9.07844 208.102 10.6724 208.102 12.516H208.902C208.902 10.5516 208.469 8.81355 207.589 7.31543L206.899 7.72057ZM208.102 12.516C208.102 13.3527 208.025 14.1537 207.872 14.9196L208.656 15.0764C208.82 14.2557 208.902 13.402 208.902 12.516H208.102ZM207.87 14.9285C207.473 17.1809 206.613 19.1847 205.292 20.946L205.932 21.426C207.331 19.5606 208.24 17.4391 208.658 15.0675L207.87 14.9285ZM205.29 20.9486C203.992 22.7093 202.33 24.0968 200.299 25.1122L200.657 25.8278C202.797 24.7579 204.558 23.2894 205.934 21.4234L205.29 20.9486ZM200.301 25.1114C198.298 26.1017 196.07 26.6 193.61 26.6V27.4C196.182 27.4 198.533 26.8783 200.655 25.8286L200.301 25.1114ZM193.61 26.6H184.124V27.4H193.61V26.6ZM184.518 27.0698L188.768 3.09983L187.98 2.96017L183.73 26.9302L184.518 27.0698ZM188.374 3.43H197.86V2.63H188.374V3.43ZM194.154 21.552C196.18 21.552 197.895 20.9965 199.271 19.8626L198.762 19.2454C197.553 20.2422 196.027 20.752 194.154 20.752V21.552ZM199.274 19.86C200.648 18.7024 201.515 17.0949 201.891 15.0712L201.105 14.9248C200.756 16.7998 199.968 18.2296 198.758 19.248L199.274 19.86ZM201.89 15.0764C201.987 14.5943 202.034 14.0804 202.034 13.536H201.234C201.234 14.0343 201.191 14.4951 201.106 14.9196L201.89 15.0764ZM202.034 13.536C202.034 11.9307 201.539 10.6423 200.504 9.73342L199.976 10.3346C200.8 11.0577 201.234 12.104 201.234 13.536H202.034ZM200.504 9.73342C199.479 8.83357 198.07 8.41 196.33 8.41V9.21C197.945 9.21 199.142 9.60243 199.976 10.3346L200.504 9.73342ZM196.33 8.41H194.052V9.21H196.33V8.41ZM193.658 8.7395L191.448 21.0815L192.236 21.2225L194.446 8.8805L193.658 8.7395ZM191.842 21.552H194.154V20.752H191.842V21.552ZM237.726 11.02L237.332 10.9497L237.332 10.9522L237.726 11.02ZM236.026 14.998L235.704 14.7609L235.703 14.762L236.026 14.998ZM232.524 17.854L232.696 18.2151L232.701 18.2129L232.524 17.854ZM224.092 18.908V18.508C223.898 18.508 223.732 18.6473 223.698 18.8385L224.092 18.908ZM222.664 27V27.4C222.858 27.4 223.024 27.2607 223.058 27.0695L222.664 27ZM215.966 27L215.572 26.9302C215.551 27.0467 215.583 27.1663 215.659 27.257C215.735 27.3476 215.848 27.4 215.966 27.4V27ZM220.216 3.03V2.63C220.022 2.63 219.856 2.76917 219.822 2.96017L220.216 3.03ZM235.924 4.764L235.66 5.0644L235.663 5.06696L235.924 4.764ZM230.96 11.02L231.354 11.0866L231.356 11.0766L230.96 11.02ZM230.416 8.912L230.142 9.20328C230.148 9.2088 230.154 9.21414 230.16 9.21929L230.416 8.912ZM225.962 8.368V7.968C225.767 7.968 225.601 8.10781 225.568 8.29935L225.962 8.368ZM225.044 13.638L224.65 13.5694C224.63 13.6857 224.662 13.805 224.738 13.8954C224.814 13.9858 224.926 14.038 225.044 14.038V13.638ZM237.332 10.9522C237.093 12.3408 236.551 13.609 235.704 14.7609L236.348 15.2351C237.268 13.9844 237.86 12.6005 238.12 11.0878L237.332 10.9522ZM235.703 14.762C234.884 15.8823 233.77 16.7947 232.347 17.4951L232.701 18.2129C234.225 17.4626 235.445 16.4711 236.349 15.234L235.703 14.762ZM232.352 17.493C230.942 18.1655 229.291 18.508 227.39 18.508V19.308C229.387 19.308 231.16 18.9479 232.696 18.215L232.352 17.493ZM227.39 18.508H224.092V19.308H227.39V18.508ZM223.698 18.8385L222.27 26.9305L223.058 27.0695L224.486 18.9775L223.698 18.8385ZM222.664 26.6H215.966V27.4H222.664V26.6ZM216.36 27.0698L220.61 3.09983L219.822 2.96017L215.572 26.9302L216.36 27.0698ZM220.216 3.43H230.178V2.63H220.216V3.43ZM230.178 3.43C232.639 3.43 234.444 3.99572 235.66 5.06439L236.188 4.46361C234.774 3.22028 232.749 2.63 230.178 2.63V3.43ZM235.663 5.06696C236.879 6.1154 237.496 7.52933 237.496 9.354H238.296C238.296 7.32533 237.598 5.67926 236.185 4.46103L235.663 5.06696ZM237.496 9.354C237.496 9.79982 237.443 10.3307 237.332 10.9497L238.12 11.0903C238.236 10.44 238.296 9.86018 238.296 9.354H237.496ZM227.696 14.038C228.696 14.038 229.537 13.8059 230.173 13.2955C230.813 12.7827 231.195 12.0291 231.354 11.0866L230.565 10.9534C230.43 11.7562 230.121 12.3117 229.673 12.6715C229.221 13.0338 228.577 13.238 227.696 13.238V14.038ZM231.356 11.0766C231.401 10.7588 231.428 10.5072 231.428 10.34H230.628C230.628 10.4448 230.609 10.6466 230.564 10.9634L231.356 11.0766ZM231.428 10.34C231.428 9.62949 231.186 9.03276 230.672 8.60471L230.16 9.21929C230.462 9.47124 230.628 9.82651 230.628 10.34H231.428ZM230.69 8.62072C230.199 8.15861 229.478 7.968 228.614 7.968V8.768C229.382 8.768 229.862 8.94005 230.142 9.20328L230.69 8.62072ZM228.614 7.968H225.962V8.768H228.614V7.968ZM225.568 8.29935L224.65 13.5694L225.438 13.7066L226.356 8.43664L225.568 8.29935ZM225.044 14.038H227.696V13.238H225.044V14.038ZM243.837 25.98L244.028 25.6286L243.837 25.98ZM240.267 22.444L240.617 22.2506L240.267 22.444ZM240.777 9.66L240.425 9.46972L240.425 9.47101L240.777 9.66ZM245.775 4.492L245.577 4.14425L245.576 4.14516L245.775 4.492ZM258.559 3.914L258.368 4.26541L258.374 4.26863L258.559 3.914ZM262.163 7.416L261.813 7.60937L261.814 7.6116L262.163 7.416ZM261.619 20.166L261.267 19.9757L261.619 20.166ZM256.587 25.368L256.387 25.0218L256.587 25.368ZM253.697 19.996L253.47 19.6666L253.467 19.669L253.697 19.996ZM256.009 17.208L255.646 17.0404L255.645 17.0436L256.009 17.208ZM255.635 10.034L255.344 10.3088L255.352 10.3168L255.635 10.034ZM248.767 9.864L248.989 10.1969L248.994 10.1934L248.767 9.864ZM246.421 12.618L246.783 12.7883L246.421 12.618ZM246.795 19.826L246.505 20.1009L246.508 20.1048L246.795 19.826ZM249.175 26.838C247.215 26.838 245.503 26.4309 244.028 25.6286L243.646 26.3314C245.254 27.2064 247.101 27.638 249.175 27.638V26.838ZM244.028 25.6286C242.553 24.826 241.419 23.7018 240.617 22.2506L239.917 22.6374C240.793 24.2236 242.038 25.4567 243.646 26.3314L244.028 25.6286ZM240.617 22.2506C239.816 20.7989 239.409 19.1217 239.409 17.208H238.609C238.609 19.2383 239.041 21.0518 239.917 22.6374L240.617 22.2506ZM239.409 17.208C239.409 14.4316 239.986 11.982 241.13 9.84899L240.425 9.47101C239.211 11.7353 238.609 14.3178 238.609 17.208H239.409ZM241.129 9.85028C242.296 7.69238 243.91 6.02477 245.974 4.83884L245.576 4.14516C243.379 5.40723 241.661 7.18495 240.425 9.46972L241.129 9.85028ZM245.973 4.83975C248.059 3.65385 250.449 3.056 253.153 3.056V2.256C250.327 2.256 247.798 2.88215 245.577 4.14425L245.973 4.83975ZM253.153 3.056C255.161 3.056 256.895 3.46379 258.368 4.26535L258.75 3.56264C257.141 2.68688 255.271 2.256 253.153 2.256V3.056ZM258.374 4.26863C259.87 5.04892 261.013 6.16074 261.813 7.60937L262.513 7.22263C261.636 5.63393 260.377 4.41108 258.744 3.55937L258.374 4.26863ZM261.814 7.6116C262.615 9.0394 263.021 10.7041 263.021 12.618H263.821C263.821 10.5879 263.389 8.78459 262.512 7.2204L261.814 7.6116ZM263.021 12.618C263.021 15.3699 262.434 17.8192 261.267 19.9757L261.971 20.3563C263.207 18.0701 263.821 15.4875 263.821 12.618H263.021ZM261.267 19.9757C260.101 22.1331 258.475 23.8127 256.387 25.0218L256.788 25.7142C259.006 24.4299 260.735 22.6415 261.971 20.3563L261.267 19.9757ZM256.387 25.0218C254.301 26.2291 251.901 26.838 249.175 26.838V27.638C252.025 27.638 254.566 27.0002 256.788 25.7142L256.387 25.0218ZM250.195 21.45C251.607 21.45 252.856 21.0777 253.928 20.323L253.467 19.669C252.543 20.3196 251.458 20.65 250.195 20.65V21.45ZM253.924 20.3254C255.006 19.5803 255.823 18.5933 256.374 17.3724L255.645 17.0436C255.152 18.1347 254.429 19.0064 253.47 19.6666L253.924 20.3254ZM256.372 17.3756C256.942 16.1419 257.225 14.8151 257.225 13.4H256.425C256.425 14.7049 256.165 15.9168 255.646 17.0404L256.372 17.3756ZM257.225 13.4C257.225 11.8757 256.807 10.6397 255.918 9.75116L255.352 10.3168C256.05 11.015 256.425 12.023 256.425 13.4H257.225ZM255.926 9.75935C255.059 8.84163 253.83 8.41 252.303 8.41V9.21C253.678 9.21 254.67 9.59436 255.344 10.3086L255.926 9.75935ZM252.303 8.41C250.892 8.41 249.632 8.78225 248.54 9.5346L248.994 10.1934C249.942 9.54042 251.04 9.21 252.303 9.21V8.41ZM248.545 9.53118C247.462 10.2533 246.633 11.2287 246.059 12.4477L246.783 12.7883C247.297 11.6953 248.032 10.8347 248.989 10.1968L248.545 9.53118ZM246.059 12.4477C245.488 13.6612 245.205 14.9894 245.205 16.426H246.005C246.005 15.0973 246.266 13.8868 246.783 12.7883L246.059 12.4477ZM245.205 16.426C245.205 17.9308 245.625 19.1713 246.505 20.1009L247.086 19.5511C246.378 18.8034 246.005 17.7772 246.005 16.426H245.205ZM246.508 20.1048C247.397 21.0193 248.647 21.45 250.195 21.45V20.65C248.796 20.65 247.779 20.2647 247.082 19.5472L246.508 20.1048ZM286.103 11.02L285.709 10.9497L285.709 10.9522L286.103 11.02ZM284.403 14.998L284.081 14.7609L284.08 14.762L284.403 14.998ZM280.901 17.854L281.073 18.2151L281.078 18.2129L280.901 17.854ZM272.469 18.908V18.508C272.275 18.508 272.109 18.6473 272.075 18.8385L272.469 18.908ZM271.041 27V27.4C271.235 27.4 271.401 27.2607 271.435 27.0695L271.041 27ZM264.343 27L263.949 26.9302C263.928 27.0467 263.96 27.1663 264.036 27.257C264.112 27.3476 264.225 27.4 264.343 27.4V27ZM268.593 3.03V2.63C268.399 2.63 268.233 2.76917 268.199 2.96017L268.593 3.03ZM284.301 4.764L284.037 5.0644L284.04 5.06696L284.301 4.764ZM279.337 11.02L279.731 11.0866L279.733 11.0766L279.337 11.02ZM278.793 8.912L278.519 9.20328C278.525 9.2088 278.531 9.21414 278.537 9.21929L278.793 8.912ZM274.339 8.368V7.968C274.144 7.968 273.978 8.10781 273.945 8.29935L274.339 8.368ZM273.421 13.638L273.027 13.5694C273.007 13.6857 273.039 13.805 273.115 13.8954C273.191 13.9858 273.303 14.038 273.421 14.038V13.638ZM285.709 10.9522C285.47 12.3408 284.928 13.609 284.081 14.7609L284.725 15.2351C285.645 13.9844 286.237 12.6005 286.497 11.0878L285.709 10.9522ZM284.08 14.762C283.261 15.8823 282.147 16.7947 280.724 17.4951L281.078 18.2129C282.602 17.4626 283.822 16.4711 284.726 15.234L284.08 14.762ZM280.729 17.493C279.319 18.1655 277.668 18.508 275.767 18.508V19.308C277.764 19.308 279.536 18.9479 281.073 18.215L280.729 17.493ZM275.767 18.508H272.469V19.308H275.767V18.508ZM272.075 18.8385L270.647 26.9305L271.435 27.0695L272.863 18.9775L272.075 18.8385ZM271.041 26.6H264.343V27.4H271.041V26.6ZM264.737 27.0698L268.987 3.09983L268.199 2.96017L263.949 26.9302L264.737 27.0698ZM268.593 3.43H278.555V2.63H268.593V3.43ZM278.555 3.43C281.016 3.43 282.821 3.99572 284.037 5.06439L284.565 4.46361C283.151 3.22028 281.126 2.63 278.555 2.63V3.43ZM284.04 5.06696C285.256 6.1154 285.873 7.52933 285.873 9.354H286.673C286.673 7.32533 285.975 5.67926 284.562 4.46103L284.04 5.06696ZM285.873 9.354C285.873 9.79982 285.82 10.3307 285.709 10.9497L286.497 11.0903C286.613 10.44 286.673 9.86018 286.673 9.354H285.873ZM276.073 14.038C277.073 14.038 277.914 13.8059 278.55 13.2955C279.19 12.7827 279.572 12.0291 279.731 11.0866L278.942 10.9534C278.807 11.7562 278.498 12.3117 278.05 12.6715C277.598 13.0338 276.954 13.238 276.073 13.238V14.038ZM279.733 11.0766C279.778 10.7588 279.805 10.5072 279.805 10.34H279.005C279.005 10.4448 278.986 10.6466 278.941 10.9634L279.733 11.0766ZM279.805 10.34C279.805 9.62949 279.563 9.03276 279.049 8.60471L278.537 9.21929C278.839 9.47124 279.005 9.82651 279.005 10.34H279.805ZM279.067 8.62072C278.576 8.15861 277.855 7.968 276.991 7.968V8.768C277.758 8.768 278.239 8.94005 278.519 9.20328L279.067 8.62072ZM276.991 7.968H274.339V8.768H276.991V7.968ZM273.945 8.29935L273.027 13.5694L273.815 13.7066L274.733 8.43664L273.945 8.29935ZM273.421 14.038H276.073V13.238H273.421V14.038ZM312.246 4.22L312.069 4.5788L312.073 4.58077L312.246 4.22ZM315.918 7.518L316.263 7.31543L315.918 7.518ZM316.938 14.998L316.546 14.9195L316.544 14.9285L316.938 14.998ZM314.286 21.186L313.966 20.946L313.964 20.9486L314.286 21.186ZM309.152 25.47L309.329 25.8286L309.331 25.8278L309.152 25.47ZM292.798 27L292.404 26.9302C292.383 27.0467 292.415 27.1663 292.491 27.257C292.567 27.3476 292.68 27.4 292.798 27.4V27ZM297.048 3.03V2.63C296.854 2.63 296.688 2.76917 296.654 2.96017L297.048 3.03ZM307.69 19.554L307.944 19.8626L307.948 19.86L307.69 19.554ZM310.172 14.998L309.78 14.9195L309.779 14.9248L310.172 14.998ZM308.914 10.034L308.65 10.3346L308.914 10.034ZM302.726 8.81V8.41C302.532 8.41 302.366 8.54881 302.332 8.7395L302.726 8.81ZM300.516 21.152L300.122 21.0815C300.101 21.1981 300.133 21.3179 300.209 21.4087C300.285 21.4995 300.398 21.552 300.516 21.552V21.152ZM306.534 3.43C308.685 3.43 310.526 3.81799 312.069 4.57878L312.423 3.86122C310.747 3.03535 308.78 2.63 306.534 2.63V3.43ZM312.073 4.58077C313.616 5.31982 314.778 6.36665 315.573 7.72057L316.263 7.31543C315.381 5.81335 314.094 4.66151 312.419 3.85923L312.073 4.58077ZM315.573 7.72057C316.371 9.07844 316.776 10.6724 316.776 12.516H317.576C317.576 10.5516 317.143 8.81355 316.263 7.31543L315.573 7.72057ZM316.776 12.516C316.776 13.3527 316.699 14.1537 316.546 14.9196L317.33 15.0764C317.494 14.2557 317.576 13.402 317.576 12.516H316.776ZM316.544 14.9285C316.147 17.1809 315.287 19.1847 313.966 20.946L314.606 21.426C316.005 19.5606 316.913 17.4391 317.332 15.0675L316.544 14.9285ZM313.964 20.9486C312.665 22.7093 311.004 24.0968 308.973 25.1122L309.331 25.8278C311.471 24.7579 313.232 23.2894 314.608 21.4234L313.964 20.9486ZM308.975 25.1114C306.972 26.1017 304.744 26.6 302.284 26.6V27.4C304.856 27.4 307.206 26.8783 309.329 25.8286L308.975 25.1114ZM302.284 26.6H292.798V27.4H302.284V26.6ZM293.192 27.0698L297.442 3.09983L296.654 2.96017L292.404 26.9302L293.192 27.0698ZM297.048 3.43H306.534V2.63H297.048V3.43ZM302.828 21.552C304.854 21.552 306.569 20.9965 307.944 19.8626L307.435 19.2454C306.227 20.2422 304.7 20.752 302.828 20.752V21.552ZM307.948 19.86C309.322 18.7024 310.189 17.0949 310.565 15.0712L309.779 14.9248C309.43 16.7998 308.642 18.2296 307.432 19.248L307.948 19.86ZM310.564 15.0764C310.661 14.5943 310.708 14.0804 310.708 13.536H309.908C309.908 14.0343 309.865 14.4951 309.78 14.9196L310.564 15.0764ZM310.708 13.536C310.708 11.9307 310.213 10.6423 309.178 9.73342L308.65 10.3346C309.474 11.0577 309.908 12.104 309.908 13.536H310.708ZM309.178 9.73342C308.153 8.83357 306.744 8.41 305.004 8.41V9.21C306.619 9.21 307.816 9.60243 308.65 10.3346L309.178 9.73342ZM305.004 8.41H302.726V9.21H305.004V8.41ZM302.332 8.7395L300.122 21.0815L300.91 21.2225L303.12 8.8805L302.332 8.7395ZM300.516 21.552H302.828V20.752H300.516V21.552ZM333.678 23.09L334.073 23.0281C334.043 22.8335 333.875 22.69 333.678 22.69V23.09ZM325.178 23.09V22.69C325.027 22.69 324.889 22.775 324.821 22.9099L325.178 23.09ZM323.206 27V27.4C323.357 27.4 323.495 27.315 323.563 27.1801L323.206 27ZM316.202 27L315.85 26.8098C315.783 26.9338 315.786 27.0838 315.858 27.2049C315.93 27.3259 316.061 27.4 316.202 27.4V27ZM329.156 3.03V2.63C329.009 2.63 328.874 2.71056 328.804 2.83982L329.156 3.03ZM336.84 3.03L337.233 2.95638C337.198 2.76715 337.032 2.63 336.84 2.63V3.03ZM341.328 27V27.4C341.447 27.4 341.56 27.347 341.636 27.2555C341.712 27.1639 341.743 27.0433 341.721 26.9264L341.328 27ZM334.29 27L333.895 27.0619C333.925 27.2565 334.093 27.4 334.29 27.4V27ZM332.896 18.024V18.424C333.013 18.424 333.123 18.3731 333.199 18.2846C333.275 18.1961 333.309 18.0789 333.291 17.9636L332.896 18.024ZM331.706 10.238L332.101 10.1776C332.075 10.0057 331.941 9.87048 331.769 9.84302C331.597 9.81556 331.428 9.90215 331.349 10.0572L331.706 10.238ZM327.762 18.024L327.405 17.8432C327.342 17.9672 327.348 18.115 327.421 18.2334C327.494 18.3518 327.623 18.424 327.762 18.424V18.024ZM333.678 22.69H325.178V23.49H333.678V22.69ZM324.821 22.9099L322.849 26.8199L323.563 27.1801L325.535 23.2701L324.821 22.9099ZM323.206 26.6H316.202V27.4H323.206V26.6ZM316.554 27.1902L329.508 3.22017L328.804 2.83982L315.85 26.8098L316.554 27.1902ZM329.156 3.43H336.84V2.63H329.156V3.43ZM336.447 3.10361L340.935 27.0736L341.721 26.9264L337.233 2.95638L336.447 3.10361ZM341.328 26.6H334.29V27.4H341.328V26.6ZM334.685 26.9381L334.073 23.0281L333.283 23.1519L333.895 27.0619L334.685 26.9381ZM333.291 17.9636L332.101 10.1776L331.31 10.2984L332.5 18.0844L333.291 17.9636ZM331.349 10.0572L327.405 17.8432L328.119 18.2048L332.063 10.4188L331.349 10.0572ZM327.762 18.424H332.896V17.624H327.762V18.424ZM365.226 11.02L364.832 10.9497L364.832 10.9522L365.226 11.02ZM363.526 14.998L363.204 14.7609L363.203 14.762L363.526 14.998ZM360.024 17.854L360.196 18.2151L360.201 18.2129L360.024 17.854ZM351.592 18.908V18.508C351.398 18.508 351.232 18.6473 351.198 18.8385L351.592 18.908ZM350.164 27V27.4C350.358 27.4 350.524 27.2607 350.558 27.0695L350.164 27ZM343.466 27L343.072 26.9302C343.051 27.0467 343.083 27.1663 343.159 27.257C343.235 27.3476 343.348 27.4 343.466 27.4V27ZM347.716 3.03V2.63C347.522 2.63 347.356 2.76917 347.322 2.96017L347.716 3.03ZM363.424 4.764L363.16 5.0644L363.163 5.06696L363.424 4.764ZM358.46 11.02L358.854 11.0866L358.856 11.0766L358.46 11.02ZM357.916 8.912L357.642 9.20328C357.648 9.2088 357.654 9.21414 357.66 9.21929L357.916 8.912ZM353.462 8.368V7.968C353.267 7.968 353.101 8.10781 353.068 8.29935L353.462 8.368ZM352.544 13.638L352.15 13.5694C352.13 13.6857 352.162 13.805 352.238 13.8954C352.314 13.9858 352.426 14.038 352.544 14.038V13.638ZM364.832 10.9522C364.593 12.3408 364.051 13.609 363.204 14.7609L363.848 15.2351C364.768 13.9844 365.36 12.6005 365.62 11.0878L364.832 10.9522ZM363.203 14.762C362.384 15.8823 361.27 16.7947 359.847 17.4951L360.201 18.2129C361.725 17.4626 362.945 16.4711 363.849 15.234L363.203 14.762ZM359.852 17.493C358.442 18.1655 356.791 18.508 354.89 18.508V19.308C356.887 19.308 358.66 18.9479 360.196 18.215L359.852 17.493ZM354.89 18.508H351.592V19.308H354.89V18.508ZM351.198 18.8385L349.77 26.9305L350.558 27.0695L351.986 18.9775L351.198 18.8385ZM350.164 26.6H343.466V27.4H350.164V26.6ZM343.86 27.0698L348.11 3.09983L347.322 2.96017L343.072 26.9302L343.86 27.0698ZM347.716 3.43H357.678V2.63H347.716V3.43ZM357.678 3.43C360.139 3.43 361.944 3.99572 363.16 5.06439L363.688 4.46361C362.274 3.22028 360.249 2.63 357.678 2.63V3.43ZM363.163 5.06696C364.379 6.1154 364.996 7.52933 364.996 9.354H365.796C365.796 7.32533 365.098 5.67926 363.685 4.46103L363.163 5.06696ZM364.996 9.354C364.996 9.79982 364.943 10.3307 364.832 10.9497L365.62 11.0903C365.736 10.44 365.796 9.86018 365.796 9.354H364.996ZM355.196 14.038C356.196 14.038 357.037 13.8059 357.673 13.2955C358.313 12.7827 358.695 12.0291 358.854 11.0866L358.065 10.9534C357.93 11.7562 357.621 12.3117 357.173 12.6715C356.721 13.0338 356.077 13.238 355.196 13.238V14.038ZM358.856 11.0766C358.901 10.7588 358.928 10.5072 358.928 10.34H358.128C358.128 10.4448 358.109 10.6466 358.064 10.9634L358.856 11.0766ZM358.928 10.34C358.928 9.62949 358.686 9.03276 358.172 8.60471L357.66 9.21929C357.962 9.47124 358.128 9.82651 358.128 10.34H358.928ZM358.19 8.62072C357.699 8.15861 356.978 7.968 356.114 7.968V8.768C356.882 8.768 357.362 8.94005 357.642 9.20328L358.19 8.62072ZM356.114 7.968H353.462V8.768H356.114V7.968ZM353.068 8.29935L352.15 13.5694L352.938 13.7066L353.856 8.43664L353.068 8.29935ZM352.544 14.038H355.196V13.238H352.544V14.038ZM386.841 11.02L386.447 10.9497L386.447 10.9522L386.841 11.02ZM385.141 14.998L384.819 14.7609L384.818 14.762L385.141 14.998ZM381.639 17.854L381.811 18.2151L381.816 18.2129L381.639 17.854ZM373.207 18.908V18.508C373.013 18.508 372.847 18.6473 372.813 18.8385L373.207 18.908ZM371.779 27V27.4C371.973 27.4 372.139 27.2607 372.173 27.0695L371.779 27ZM365.081 27L364.687 26.9302C364.667 27.0467 364.699 27.1663 364.775 27.257C364.851 27.3476 364.963 27.4 365.081 27.4V27ZM369.331 3.03V2.63C369.137 2.63 368.971 2.76917 368.937 2.96017L369.331 3.03ZM385.039 4.764L384.775 5.0644L384.778 5.06696L385.039 4.764ZM380.075 11.02L380.47 11.0866L380.471 11.0766L380.075 11.02ZM379.531 8.912L379.257 9.20328C379.263 9.2088 379.269 9.21414 379.275 9.21929L379.531 8.912ZM375.077 8.368V7.968C374.883 7.968 374.716 8.10781 374.683 8.29935L375.077 8.368ZM374.159 13.638L373.765 13.5694C373.745 13.6857 373.777 13.805 373.853 13.8954C373.929 13.9858 374.041 14.038 374.159 14.038V13.638ZM386.447 10.9522C386.208 12.3408 385.667 13.609 384.819 14.7609L385.463 15.2351C386.384 13.9844 386.975 12.6005 387.235 11.0878L386.447 10.9522ZM384.818 14.762C384 15.8823 382.885 16.7947 381.462 17.4951L381.816 18.2129C383.34 17.4626 384.56 16.4711 385.464 15.234L384.818 14.762ZM381.467 17.493C380.057 18.1655 378.406 18.508 376.505 18.508V19.308C378.503 19.308 380.275 18.9479 381.811 18.215L381.467 17.493ZM376.505 18.508H373.207V19.308H376.505V18.508ZM372.813 18.8385L371.385 26.9305L372.173 27.0695L373.601 18.9775L372.813 18.8385ZM371.779 26.6H365.081V27.4H371.779V26.6ZM365.475 27.0698L369.725 3.09983L368.937 2.96017L364.687 26.9302L365.475 27.0698ZM369.331 3.43H379.293V2.63H369.331V3.43ZM379.293 3.43C381.754 3.43 383.56 3.99572 384.775 5.06439L385.303 4.46361C383.889 3.22028 381.864 2.63 379.293 2.63V3.43ZM384.778 5.06696C385.994 6.1154 386.611 7.52933 386.611 9.354H387.411C387.411 7.32533 386.713 5.67926 385.3 4.46103L384.778 5.06696ZM386.611 9.354C386.611 9.79982 386.558 10.3307 386.447 10.9497L387.235 11.0903C387.351 10.44 387.411 9.86018 387.411 9.354H386.611ZM376.811 14.038C377.811 14.038 378.652 13.8059 379.288 13.2955C379.928 12.7827 380.31 12.0291 380.47 11.0866L379.681 10.9534C379.545 11.7562 379.236 12.3117 378.788 12.6715C378.336 13.0338 377.692 13.238 376.811 13.238V14.038ZM380.471 11.0766C380.517 10.7588 380.543 10.5072 380.543 10.34H379.743C379.743 10.4448 379.724 10.6466 379.679 10.9634L380.471 11.0766ZM380.543 10.34C380.543 9.62949 380.301 9.03276 379.787 8.60471L379.275 9.21929C379.577 9.47124 379.743 9.82651 379.743 10.34H380.543ZM379.805 8.62072C379.314 8.15861 378.594 7.968 377.729 7.968V8.768C378.497 8.768 378.977 8.94005 379.257 9.20328L379.805 8.62072ZM377.729 7.968H375.077V8.768H377.729V7.968ZM374.683 8.29935L373.765 13.5694L374.553 13.7066L375.471 8.43664L374.683 8.29935ZM374.159 14.038H376.811V13.238H374.159V14.038Z" fill="white"/>
<path d="M192.256 23.8644C189.7 25.5351 192.079 28.3302 187.164 30.5271C187.164 30.5271 189.54 31.8787 192.41 29.416C193.397 28.569 194.394 28.3268 194.394 28.3268C194.67 28.5759 194.231 29.5485 192.955 30.1745C192.955 30.1745 194.681 30.5578 195.977 29.6803C197.273 28.8027 198.316 27.3779 198.316 27.3779C198.802 28.8351 196.62 30.1341 196.62 30.1341C196.62 30.1341 198.463 30.0173 200.951 28.332C202.887 27.0212 204.827 23.2029 202.965 20.419C201.102 17.6352 196.878 17.2511 194.449 18.8954C193.387 19.615 192.205 20.8325 191.864 21.956C191.864 21.956 193.935 20.4347 194.386 21.3345C194.386 21.3345 191.153 22.5265 190.363 24.1039C190.363 24.1039 191.97 23.5219 192.256 23.8644Z" fill="url(#paint0_linear_5707_4286)"/>
<path d="M190.347 25.1479C187.92 25.6169 188.998 27.7963 187.841 28.5844C187.841 28.5844 189.275 28.1255 189.526 26.7284C189.731 25.5905 190.347 25.1479 190.347 25.1479Z" fill="url(#paint1_linear_5707_4286)"/>
<path d="M189.585 31.8453C190.174 31.8889 191.478 30.3937 192.745 30.932C192.745 30.932 191.22 32.4365 189.585 31.8453Z" fill="url(#paint2_linear_5707_4286)"/>
<path opacity="0.5" d="M197.357 29.8495C198.114 29.7221 199.434 29.3602 200.952 28.3322C202.652 27.1811 204.629 23.3557 202.758 20.5596C200.93 17.8266 196.849 17.5088 194.56 19.0595C193.733 19.6196 192.798 20.5169 192.32 21.4216C192.81 21.1298 193.509 20.7883 194.03 20.8397C194.297 20.8661 194.496 20.9949 194.604 21.2115L194.713 21.4289L194.43 21.5337C194.402 21.5441 191.887 22.4837 190.855 23.7328C191.428 23.568 192.207 23.4155 192.454 23.7114L192.594 23.8797L192.362 24.0319C191.408 24.6555 191.212 25.4558 190.984 26.382C190.66 27.7048 190.294 29.1949 187.695 30.4969C188.442 30.75 190.211 31.0439 192.273 29.2745C193.305 28.3886 194.34 28.1295 194.384 28.119L194.502 28.0905L194.576 28.1576C194.715 28.2817 194.746 28.4954 194.664 28.7584C194.553 29.1177 194.216 29.6037 193.595 30.0313C194.174 30.0687 195.113 30.0282 195.868 29.5169C197.105 28.6794 198.121 27.3013 198.131 27.2874L198.417 26.8973L198.543 27.2757C198.87 28.2589 198.103 29.23 197.357 29.8495Z" fill="url(#paint3_linear_5707_4286)"/>
<path d="M187.841 28.5844C188.577 28.1896 189.423 27.3028 189.526 26.7284C189.62 26.2029 189.908 25.4895 190.347 25.1479C188.643 25.5127 188.653 26.6174 188.75 27.1824C188.793 27.4296 188.541 28.0913 187.841 28.5844Z" fill="url(#paint4_radial_5707_4286)"/>
<path d="M188.758 30.3816C191.936 29.9724 193.401 26.7202 195.438 26.5044C197.476 26.2887 196.631 28.0427 195.728 28.7317C195.728 28.7317 198.765 26.6664 199.173 24.6656C199.58 22.6648 201.64 26.3149 200.493 27.7811C200.493 27.7811 205.377 24.4759 202.757 20.5592C200.136 16.6426 195.153 19.0658 195.153 19.0658C195.153 19.0658 197.646 19.4477 197.079 21.2107C197.079 21.2107 195.029 21.5644 193.292 22.4818C193.292 22.4818 194.014 22.7045 194.37 23.5627C194.37 23.5627 191.822 24.6806 191.649 26.0406C191.426 27.7866 189.775 30.2506 188.758 30.3816Z" fill="url(#paint5_linear_5707_4286)"/>
<path d="M191.354 28.1932C192.819 28.1141 194.69 25.0711 196.612 25.6353C197.674 25.947 197.24 26.8373 197.24 26.8373C197.24 26.8373 198.201 25.9087 198.657 24.4885C199.113 23.0683 201.706 24.0912 201.054 26.7951C201.054 26.7951 204.768 23.5046 201.661 20.3465C198.232 16.8622 194.674 19.6997 194.674 19.6997C194.674 19.6997 197.556 19.3222 197.554 21.5639C197.554 21.5639 195.194 21.7528 194.209 22.4199C194.209 22.4199 195.14 22.7421 195.168 23.8151C195.168 23.8151 192.646 25.0052 192.587 25.6623C192.442 27.2482 191.354 28.1932 191.354 28.1932Z" fill="url(#paint6_linear_5707_4286)"/>
<path opacity="0.5" d="M192.256 23.8644C189.7 25.5351 192.079 28.3302 187.164 30.5271C187.164 30.5271 189.54 31.8787 192.41 29.416C193.397 28.569 194.394 28.3268 194.394 28.3268C194.67 28.5759 194.231 29.5485 192.955 30.1745C192.955 30.1745 194.681 30.5578 195.977 29.6803C197.273 28.8027 198.316 27.3779 198.316 27.3779C198.802 28.8351 196.62 30.1341 196.62 30.1341C196.62 30.1341 198.463 30.0173 200.951 28.332C202.887 27.0212 204.827 23.2029 202.965 20.419C201.102 17.6352 196.878 17.2511 194.449 18.8954C193.387 19.615 192.205 20.8325 191.864 21.956C191.864 21.956 193.935 20.4347 194.386 21.3345C194.386 21.3345 191.153 22.5265 190.363 24.1039C190.363 24.1039 191.97 23.5219 192.256 23.8644Z" fill="url(#paint7_radial_5707_4286)"/>
<path opacity="0.5" d="M192.256 23.8644C189.7 25.5351 192.079 28.3302 187.164 30.5271C187.164 30.5271 189.54 31.8787 192.41 29.416C193.397 28.569 194.394 28.3268 194.394 28.3268C194.67 28.5759 194.231 29.5485 192.955 30.1745C192.955 30.1745 194.681 30.5578 195.977 29.6803C197.273 28.8027 198.316 27.3779 198.316 27.3779C198.802 28.8351 196.62 30.1341 196.62 30.1341C196.62 30.1341 198.463 30.0173 200.951 28.332C202.887 27.0212 204.827 23.2029 202.965 20.419C201.102 17.6352 196.878 17.2511 194.449 18.8954C193.387 19.615 192.205 20.8325 191.864 21.956C191.864 21.956 193.935 20.4347 194.386 21.3345C194.386 21.3345 191.153 22.5265 190.363 24.1039C190.363 24.1039 191.97 23.5219 192.256 23.8644Z" fill="url(#paint8_radial_5707_4286)"/>
<path d="M199.727 28.8035C202.255 26.9727 204.222 23.199 202.468 20.5765C200.713 17.954 196.335 19.0137 194.227 20.3215C194.227 20.3215 195.764 19.9959 196.745 20.9386C197.727 21.8814 194.281 22.4962 193.23 24.3354C193.23 24.3354 196.424 23.1681 197.176 24.0741C197.929 24.9801 196.572 27.1005 195.545 27.7959C195.545 27.7959 197.797 27.1432 199.167 25.9994C201.248 24.2604 199.727 28.8035 199.727 28.8035Z" fill="url(#paint9_radial_5707_4286)"/>
<path opacity="0.5" d="M192.256 23.8644C189.7 25.5351 192.079 28.3302 187.164 30.5271C187.164 30.5271 189.54 31.8787 192.41 29.416C193.397 28.569 194.394 28.3268 194.394 28.3268C194.67 28.5759 194.231 29.5485 192.955 30.1745C192.955 30.1745 194.681 30.5578 195.977 29.6803C197.273 28.8027 198.316 27.3779 198.316 27.3779C198.802 28.8351 196.62 30.1341 196.62 30.1341C196.62 30.1341 198.463 30.0173 200.951 28.332C202.887 27.0212 204.827 23.2029 202.965 20.419C201.102 17.6352 196.878 17.2511 194.449 18.8954C193.387 19.615 192.205 20.8325 191.864 21.956C191.864 21.956 193.935 20.4347 194.386 21.3345C194.386 21.3345 191.153 22.5265 190.363 24.1039C190.363 24.1039 191.97 23.5219 192.256 23.8644Z" fill="url(#paint10_radial_5707_4286)"/>
<path opacity="0.5" d="M190.347 25.1479C187.92 25.6169 188.998 27.7963 187.841 28.5844C187.841 28.5844 189.275 28.1255 189.526 26.7284C189.731 25.5905 190.347 25.1479 190.347 25.1479Z" fill="url(#paint11_radial_5707_4286)"/>
<path d="M189.585 31.8447C190.174 31.8883 191.251 30.8724 192.746 30.9314C192.746 30.9314 191.221 32.4359 189.585 31.8447Z" fill="url(#paint12_radial_5707_4286)"/>
<path opacity="0.5" d="M189.585 31.8453C190.174 31.8889 191.478 30.3937 192.745 30.932C192.745 30.932 191.22 32.4365 189.585 31.8453Z" fill="url(#paint13_radial_5707_4286)"/>
<path opacity="0.5" d="M192.256 23.8644C189.7 25.5351 192.079 28.3302 187.164 30.5271C187.164 30.5271 189.54 31.8787 192.41 29.416C193.397 28.569 194.394 28.3268 194.394 28.3268C194.67 28.5759 194.231 29.5485 192.955 30.1745C192.955 30.1745 194.681 30.5578 195.977 29.6803C197.273 28.8027 198.316 27.3779 198.316 27.3779C198.802 28.8351 196.62 30.1341 196.62 30.1341C196.62 30.1341 198.463 30.0173 200.951 28.332C202.887 27.0212 204.827 23.2029 202.965 20.419C201.102 17.6352 196.878 17.2511 194.449 18.8954C193.387 19.615 192.205 20.8325 191.864 21.956C191.864 21.956 193.935 20.4347 194.386 21.3345C194.386 21.3345 191.153 22.5265 190.363 24.1039C190.363 24.1039 191.97 23.5219 192.256 23.8644Z" fill="url(#paint14_radial_5707_4286)"/>
<path opacity="0.25" d="M192.256 23.8644C189.7 25.5351 192.079 28.3302 187.164 30.5271C187.164 30.5271 189.54 31.8787 192.41 29.416C193.397 28.569 194.394 28.3268 194.394 28.3268C194.67 28.5759 194.231 29.5485 192.955 30.1745C192.955 30.1745 194.681 30.5578 195.977 29.6803C197.273 28.8027 198.316 27.3779 198.316 27.3779C198.802 28.8351 196.62 30.1341 196.62 30.1341C196.62 30.1341 198.463 30.0173 200.951 28.332C202.887 27.0212 204.827 23.2029 202.965 20.419C201.102 17.6352 196.878 17.2511 194.449 18.8954C193.387 19.615 192.205 20.8325 191.864 21.956C191.864 21.956 193.935 20.4347 194.386 21.3345C194.386 21.3345 191.153 22.5265 190.363 24.1039C190.363 24.1039 191.97 23.5219 192.256 23.8644Z" fill="url(#paint15_radial_5707_4286)"/>
<path opacity="0.75" d="M192.256 23.8644C189.7 25.5351 192.079 28.3302 187.164 30.5271C187.164 30.5271 189.54 31.8787 192.41 29.416C193.397 28.569 194.394 28.3268 194.394 28.3268C194.67 28.5759 194.231 29.5485 192.955 30.1745C192.955 30.1745 194.681 30.5578 195.977 29.6803C197.273 28.8027 198.316 27.3779 198.316 27.3779C198.802 28.8351 196.62 30.1341 196.62 30.1341C196.62 30.1341 198.463 30.0173 200.951 28.332C202.887 27.0212 204.827 23.2029 202.965 20.419C201.102 17.6352 196.878 17.2511 194.449 18.8954C193.387 19.615 192.205 20.8325 191.864 21.956C191.864 21.956 193.935 20.4347 194.386 21.3345C194.386 21.3345 191.153 22.5265 190.363 24.1039C190.363 24.1039 191.97 23.5219 192.256 23.8644Z" fill="url(#paint16_radial_5707_4286)"/>
<path d="M209.988 25.1924C210.183 23.0944 211.084 21.0018 212.552 19.236L213.018 18.6765L207.047 21.1254L205.979 24.2368L203.524 25.829C203.63 27.653 203.316 29.3509 203.316 29.3509C207.235 27.9203 209.988 25.1924 209.988 25.1924Z" fill="url(#paint17_linear_5707_4286)"/>
<path d="M203.317 29.3519C203.317 29.3519 203.64 27.6297 203.525 25.8299L204.561 25.1577C204.712 25.8019 204.973 27.2273 204.816 28.7211C204.338 28.9417 203.84 29.1668 203.317 29.3519Z" fill="url(#paint18_linear_5707_4286)"/>
<path opacity="0.75" d="M209.988 25.1924C210.183 23.0944 211.084 21.0018 212.552 19.236L213.018 18.6765L207.047 21.1254L205.979 24.2368L203.524 25.829C203.63 27.653 203.316 29.3509 203.316 29.3509C207.235 27.9203 209.988 25.1924 209.988 25.1924Z" fill="url(#paint19_radial_5707_4286)"/>
<path d="M211.345 20.9796C211.689 20.3729 212.093 19.7886 212.552 19.2363L212.813 18.9226C212.772 18.886 212.731 18.8488 212.689 18.8117L207.047 21.1255L206.325 23.228C207.556 22.9855 209.358 22.3348 211.345 20.9796Z" fill="url(#paint20_linear_5707_4286)"/>
<path d="M207.171 11.8391C207.145 11.7037 207.128 11.6046 207.108 11.4686C204.953 12.0282 202.671 11.8532 200.6 11.0293C200.6 11.0293 197.014 12.501 194.342 15.8294C194.342 15.8294 196.125 16.3588 197.9 17.3841L200.264 15.6492L203.461 16.0787C204.476 14.6403 205.668 13.0993 207.171 11.8391Z" fill="url(#paint21_linear_5707_4286)"/>
<path d="M194.342 15.8302C194.342 15.8302 196.126 16.3596 197.901 17.3848L198.911 16.6434C198.311 16.1652 196.992 15.2026 195.438 14.6091C195.064 14.9845 194.695 15.3906 194.342 15.8302Z" fill="url(#paint22_linear_5707_4286)"/>
<path opacity="0.75" d="M207.171 11.8391C207.145 11.7037 207.128 11.6046 207.108 11.4686C204.953 12.0282 202.671 11.8532 200.6 11.0293C200.6 11.0293 197.014 12.501 194.342 15.8294C194.342 15.8294 196.125 16.3588 197.9 17.3841L200.264 15.6492L203.461 16.0787C204.476 14.6403 205.668 13.0993 207.171 11.8391Z" fill="url(#paint23_radial_5707_4286)"/>
<path d="M207.109 11.4686C206.224 11.9132 203.351 13.7804 202.066 15.8915L203.461 16.079C204.476 14.6406 205.887 13.1039 207.39 11.8434L207.109 11.4686Z" fill="url(#paint24_linear_5707_4286)"/>
<path d="M208.03 11.1752C208.589 12.6752 209.408 14.2111 210.384 15.6279C210.43 15.6954 210.477 15.7629 210.524 15.8298C211.352 17.0046 212.285 18.0912 213.264 18.9992C213.264 18.9997 213.263 19.0003 213.262 19.0007C213.383 18.9218 213.504 18.844 213.624 18.7623C217.086 16.4182 219.184 14.5665 221.167 12.0693C220.53 9.86798 219.174 7.8412 217.386 6.41819C214.34 7.32624 211.845 8.58445 208.383 10.9286C208.264 11.0097 208.147 11.0933 208.029 11.176C208.029 11.1754 208.03 11.1755 208.03 11.1752Z" fill="url(#paint25_linear_5707_4286)"/>
<path d="M221.167 12.0687C223.864 8.6734 224.01 6.6023 223.75 6.21394C223.49 5.82557 221.528 5.18293 217.386 6.41756C219.174 7.84057 220.53 9.86735 221.167 12.0687Z" fill="url(#paint26_linear_5707_4286)"/>
<path d="M202.788 20.4095C203.624 21.658 204.429 22.6064 204.685 22.6583C207.213 22.0881 210.332 20.9135 213.266 18.9986C212.288 18.0906 211.354 17.004 210.526 15.8292C210.479 15.7623 210.432 15.6951 210.386 15.6273C209.411 14.2105 208.591 12.6746 208.032 11.1746C205.159 13.1934 202.903 15.6711 201.43 17.8185C201.415 18.1142 201.976 19.1953 202.788 20.4095Z" fill="url(#paint27_linear_5707_4286)"/>
<path opacity="0.75" d="M202.788 20.4095C203.624 21.658 204.429 22.6064 204.685 22.6583C207.213 22.0881 210.332 20.9135 213.266 18.9986C212.288 18.0906 211.354 17.004 210.526 15.8292C210.479 15.7623 210.432 15.6951 210.386 15.6273C209.411 14.2105 208.591 12.6746 208.032 11.1746C205.159 13.1934 202.903 15.6711 201.43 17.8185C201.415 18.1142 201.976 19.1953 202.788 20.4095Z" fill="url(#paint28_radial_5707_4286)"/>
<path opacity="0.5" d="M210.525 15.8292C210.477 15.7623 210.431 15.6951 210.384 15.6273C209.409 14.2105 208.59 12.6746 208.03 11.1746C207.958 11.2256 207.888 11.278 207.816 11.3294C208.867 14.8337 213.373 18.8477 209.169 19.6897C206.409 20.2425 205.022 21.2628 204.191 22.2525C204.414 22.4928 204.588 22.6386 204.684 22.658C207.211 22.0878 210.33 20.9132 213.265 18.9984C212.286 18.0906 211.352 17.0041 210.525 15.8292Z" fill="url(#paint29_radial_5707_4286)"/>
<path d="M202.787 20.4098C201.975 19.1954 201.413 18.1145 201.428 17.8188L199.873 18.1716C199.67 18.3085 200.375 19.717 201.446 21.3179C202.517 22.9188 203.549 24.1056 203.751 23.9689L204.684 22.6586C204.428 22.6067 203.622 21.6583 202.787 20.4098Z" fill="url(#paint30_linear_5707_4286)"/>
<path d="M202.787 20.4098C201.975 19.1954 201.413 18.1145 201.428 17.8188L199.873 18.1716C199.67 18.3085 200.375 19.717 201.446 21.3179C202.517 22.9188 203.549 24.1056 203.751 23.9689L204.684 22.6586C204.428 22.6067 203.622 21.6583 202.787 20.4098Z" fill="url(#paint31_linear_5707_4286)"/>
<path d="M220.628 12.7278C220.647 12.7039 221.147 12.0929 221.166 12.0689C220.529 9.86758 219.173 7.84081 217.386 6.41779C217.356 6.42652 217.328 6.43611 217.298 6.44489C219.028 7.94138 220.746 10.8815 220.628 12.7278Z" fill="url(#paint32_linear_5707_4286)"/>
<path opacity="0.75" d="M223.751 6.21479C223.491 5.82642 221.529 5.18378 217.387 6.41841C214.341 7.32646 211.846 8.58466 208.384 10.9288C208.264 11.0099 208.147 11.0935 208.03 11.1762C208.03 11.176 208.03 11.1757 208.031 11.1755C205.157 13.1945 202.902 15.6719 201.428 17.8193C201.414 18.115 201.975 19.1959 202.787 20.4103C203.623 21.6589 204.428 22.6072 204.684 22.6592C207.212 22.089 210.331 20.9144 213.265 18.9995C213.265 19 213.264 19.0005 213.263 19.001C213.384 18.9221 213.505 18.8442 213.625 18.7626C217.087 16.4184 219.185 14.5667 221.168 12.0696C223.864 8.67394 224.01 6.60315 223.751 6.21479Z" fill="url(#paint33_radial_5707_4286)"/>
<path d="M199.648 24.6873C203.215 22.7919 206.174 20.472 206.251 20.4115L205.864 19.8336C205.864 19.8336 202.813 22.1036 199.292 24.1638L199.648 24.6873Z" fill="url(#paint34_linear_5707_4286)"/>
<path d="M205.864 19.8336C206.633 18.8711 207.843 17.7102 209.337 16.4982C209.313 16.4648 209.288 16.4322 209.265 16.3985C207.707 17.3943 206.188 18.2753 204.821 19.0478L203.074 20.7846L200.635 22.4075C200.105 23.2424 199.292 24.1638 199.292 24.1638C202.813 22.1036 205.864 19.8336 205.864 19.8336Z" fill="url(#paint35_linear_5707_4286)"/>
<path d="M200.546 23.4102C200.549 23.4074 201.519 22.2449 201.536 21.8084L200.635 22.4079C200.104 23.2429 199.291 24.1642 199.291 24.1642C199.718 23.9145 200.138 23.6615 200.546 23.4102Z" fill="url(#paint36_linear_5707_4286)"/>
<path d="M206.255 20.4089C206.897 19.2537 208.08 18.0458 209.534 16.7657C209.468 16.678 209.403 16.5882 209.338 16.4984C207.844 17.7104 206.633 18.8713 205.864 19.8338C205.864 19.8338 202.813 22.1039 199.292 24.164L199.648 24.6875C203.262 22.7671 206.255 20.4089 206.255 20.4089Z" fill="url(#paint37_linear_5707_4286)"/>
<path d="M199.648 24.6873C203.215 22.7919 206.174 20.472 206.251 20.4115L205.864 19.8336C205.864 19.8336 202.813 22.1036 199.292 24.1638L199.648 24.6873Z" fill="url(#paint38_linear_5707_4286)"/>
<path opacity="0.75" d="M205.864 19.8336C206.633 18.8711 207.843 17.7102 209.337 16.4982C209.313 16.4648 209.288 16.4322 209.265 16.3985C207.707 17.3943 206.188 18.2753 204.821 19.0478L203.074 20.7846L200.635 22.4075C200.105 23.2424 199.292 24.1638 199.292 24.1638C202.813 22.1036 205.864 19.8336 205.864 19.8336Z" fill="url(#paint39_radial_5707_4286)"/>
<path opacity="0.75" d="M223.751 6.21479C223.491 5.82642 221.529 5.18378 217.387 6.41841C214.341 7.32646 211.846 8.58466 208.384 10.9288C208.264 11.0099 208.147 11.0935 208.03 11.1762C208.03 11.176 208.03 11.1757 208.031 11.1755C205.157 13.1945 202.902 15.6719 201.428 17.8193C201.414 18.115 201.975 19.1959 202.787 20.4103C203.623 21.6589 204.428 22.6072 204.684 22.6592C207.212 22.089 210.331 20.9144 213.265 18.9995C213.265 19 213.264 19.0005 213.263 19.001C213.384 18.9221 213.505 18.8442 213.625 18.7626C217.087 16.4184 219.185 14.5667 221.168 12.0696C223.864 8.67394 224.01 6.60315 223.751 6.21479Z" fill="url(#paint40_radial_5707_4286)"/>
<g opacity="0.16">
<path opacity="0.16" d="M220.06 13.3993C220.053 13.3979 220.046 13.3931 220.043 13.3861C219.867 12.996 219.683 12.6188 219.479 12.2328C219.473 12.2213 219.478 12.207 219.489 12.2012C219.5 12.195 219.514 12.1994 219.52 12.2109C219.724 12.5979 219.909 12.9762 220.085 13.3669C220.091 13.3786 220.085 13.3927 220.074 13.3982C220.069 13.3996 220.064 13.4002 220.06 13.3993Z" fill="black"/>
<path opacity="0.16" d="M220.809 10.9352C220.818 10.9257 220.817 10.9108 220.808 10.9018C220.799 10.8933 220.784 10.8932 220.775 10.9028C220.7 10.9823 220.623 11.063 220.544 11.1447C218.538 13.2268 216.564 14.8619 213.513 16.9693C212.814 16.2179 212.144 15.3824 211.541 14.4814C211.141 13.8831 210.781 13.2666 210.454 12.6472C213.582 10.5549 215.871 9.21242 218.426 7.97547C218.566 7.90719 218.704 7.84128 218.839 7.77793C218.85 7.77247 218.855 7.75829 218.85 7.74659C218.845 7.73459 218.831 7.72958 218.819 7.73535C218.684 7.79901 218.547 7.86498 218.405 7.93314C215.85 9.17059 213.559 10.5134 210.432 12.6063C210.018 11.8174 209.662 11.0237 209.392 10.2495C209.388 10.2371 209.374 10.2306 209.362 10.2353C209.35 10.2396 209.343 10.2529 209.348 10.2654C209.619 11.043 209.977 11.8406 210.393 12.6329C210.193 12.7669 210.001 12.8938 209.794 13.0343C209.699 13.098 209.606 13.1624 209.513 13.2267L209.437 13.279C209.436 13.2795 209.436 13.2797 209.436 13.2803C209.321 13.3588 209.208 13.4379 209.095 13.5171C209.084 13.5244 209.081 13.539 209.089 13.5498C209.093 13.5551 209.098 13.5584 209.104 13.5595C209.11 13.5606 209.116 13.5593 209.122 13.5556C209.235 13.4759 209.35 13.3967 209.465 13.3172C209.465 13.317 209.466 13.3165 209.466 13.3162L209.539 13.2658C209.632 13.2014 209.726 13.1374 209.82 13.0735C210.026 12.9339 210.217 12.8077 210.416 12.6744C210.743 13.2939 211.103 13.9107 211.502 14.509C212.109 15.4145 212.783 16.2546 213.485 17.0093C213.485 17.0132 213.481 17.0162 213.483 17.0199C213.487 17.0251 213.492 17.0285 213.498 17.0296C213.5 17.0299 213.501 17.0286 213.503 17.0286C213.863 17.4143 214.228 17.7846 214.601 18.1156C214.604 18.1185 214.608 18.1202 214.612 18.121C214.619 18.1225 214.628 18.12 214.634 18.1134C214.642 18.1034 214.641 18.0888 214.632 18.0801C214.263 17.7527 213.902 17.3865 213.545 17.005C216.597 14.8975 218.571 13.2614 220.578 11.1778C220.657 11.0957 220.734 11.015 220.809 10.9352Z" fill="black"/>
</g>
<path opacity="0.75" d="M204.163 21.8799C206.519 21.054 209.498 19.6692 212.421 17.738C212.421 17.7385 212.42 17.739 212.419 17.7395" fill="url(#paint41_radial_5707_4286)"/>
<path d="M215.724 12.9416C214.332 13.8031 212.589 13.4714 211.83 12.2007C211.07 10.9299 211.583 9.20151 212.975 8.34004C214.366 7.47857 216.109 7.81018 216.869 9.08094C217.628 10.3517 217.115 12.0801 215.724 12.9416Z" fill="url(#paint42_linear_5707_4286)"/>
<path d="M215.335 12.233C214.194 12.9394 212.765 12.6675 212.142 11.6257C211.52 10.5841 211.94 9.16687 213.081 8.46079C214.221 7.75441 215.651 8.02632 216.273 9.06818C216.896 10.1097 216.476 11.5267 215.335 12.233Z" fill="url(#paint43_linear_5707_4286)"/>
<path d="M215.16 11.9492C214.143 12.5791 212.869 12.3365 212.313 11.4078C211.758 10.479 212.133 9.21544 213.15 8.58581C214.167 7.95617 215.442 8.19847 215.997 9.12721C216.552 10.056 216.178 11.3193 215.16 11.9492Z" fill="url(#paint44_radial_5707_4286)"/>
<path opacity="0.5" d="M215.16 11.9492C214.143 12.5791 212.869 12.3365 212.313 11.4078C211.758 10.479 212.133 9.21544 213.15 8.58581C214.167 7.95617 215.442 8.19847 215.997 9.12721C216.552 10.056 216.178 11.3193 215.16 11.9492Z" fill="url(#paint45_radial_5707_4286)"/>
<path opacity="0.5" d="M215.711 9.67773C215.965 10.1034 216.052 10.5885 215.994 11.0664C216.325 10.452 216.352 9.72143 215.997 9.12708C215.442 8.19834 214.168 7.95578 213.15 8.58567C213.048 8.6489 212.954 8.7199 212.866 8.79479C213.952 8.39386 215.147 8.73408 215.711 9.67773Z" fill="black"/>
<path d="M215.997 9.12686C215.442 8.19812 214.168 7.95557 213.15 8.58546C212.133 9.21534 211.759 10.4787 212.314 11.4074C212.371 11.5039 212.431 11.5788 212.395 11.5282C211.885 10.7655 212.335 9.49476 213.315 8.83138C214.093 8.30439 215.41 8.30595 216 9.13262" fill="url(#paint46_linear_5707_4286)"/>
<path opacity="0.5" d="M215.998 9.12683L216.001 9.13259C215.411 8.30592 214.094 8.30436 213.316 8.83135C212.379 9.46569 211.928 10.6539 212.336 11.4236C212.413 11.4834 212.429 11.5745 212.396 11.5284C212.373 11.495 212.355 11.4592 212.336 11.4236C212.329 11.418 212.322 11.4124 212.314 11.4073C212.869 12.3361 214.143 12.5786 215.161 11.9487C216.178 11.3192 216.553 10.0559 215.998 9.12683Z" fill="url(#paint47_radial_5707_4286)"/>
<path d="M221.178 12.0811C221.166 12.0787 221.155 12.0695 221.151 12.0565C220.514 9.85349 219.179 7.85768 217.395 6.43715C217.379 6.42513 217.377 6.40305 217.389 6.38766C217.401 6.37227 217.423 6.36985 217.438 6.38181C219.234 7.81165 220.577 9.81975 221.219 12.0368C221.224 12.0556 221.213 12.0751 221.195 12.0805C221.189 12.082 221.184 12.0822 221.178 12.0811Z" fill="#008EE6"/>
<path d="M213.257 19.0331C213.251 19.0319 213.245 19.0292 213.24 19.0244C212.281 18.1346 211.332 17.0366 210.495 15.8494C210.448 15.7825 210.401 15.7149 210.354 15.6472C209.363 14.2069 208.548 12.6647 207.997 11.1869C207.99 11.1688 207.999 11.1484 208.017 11.1416C208.035 11.1348 208.056 11.144 208.063 11.1621C208.611 12.6345 209.424 14.1714 210.412 15.6069C210.459 15.6743 210.506 15.7415 210.553 15.8084C211.386 16.9915 212.332 18.0856 213.288 18.972C213.302 18.9852 213.303 19.0076 213.29 19.0218C213.281 19.0317 213.269 19.0354 213.257 19.0331Z" fill="#008EE6"/>
<defs>
<linearGradient id="paint0_linear_5707_4286" x1="202.688" y1="19.1075" x2="184.201" y2="35.5477" gradientUnits="userSpaceOnUse">
<stop stop-color="#FF0000"/>
<stop offset="0.2317" stop-color="#FF1500"/>
<stop offset="0.7367" stop-color="#FF3D00"/>
<stop offset="0.9987" stop-color="#FF4C00"/>
</linearGradient>
<linearGradient id="paint1_linear_5707_4286" x1="200.238" y1="16.7343" x2="181.974" y2="32.9764" gradientUnits="userSpaceOnUse">
<stop stop-color="#FF0000"/>
<stop offset="0.2317" stop-color="#FF1500"/>
<stop offset="0.7367" stop-color="#FF3D00"/>
<stop offset="0.9987" stop-color="#FF4C00"/>
</linearGradient>
<linearGradient id="paint2_linear_5707_4286" x1="203.89" y1="19.9506" x2="185.154" y2="36.6113" gradientUnits="userSpaceOnUse">
<stop stop-color="#FF0000"/>
<stop offset="0.2317" stop-color="#FF1500"/>
<stop offset="0.7367" stop-color="#FF3D00"/>
<stop offset="0.9987" stop-color="#FF4C00"/>
</linearGradient>
<linearGradient id="paint3_linear_5707_4286" x1="199.2" y1="21.5824" x2="185.874" y2="39.3419" gradientUnits="userSpaceOnUse">
<stop stop-color="#FF8000"/>
<stop offset="0.6388" stop-color="#FF5B00"/>
<stop offset="0.9987" stop-color="#FF4C00"/>
</linearGradient>
<radialGradient id="paint4_radial_5707_4286" cx="0" cy="0" r="1" gradientUnits="userSpaceOnUse" gradientTransform="translate(183.792 29.2204) rotate(-123.784) scale(7.75296 9.84488)">
<stop offset="0.00134333" stop-color="#FFED1C" stop-opacity="0.6"/>
<stop offset="0.9477" stop-color="#FFED1C" stop-opacity="0.0264782"/>
<stop offset="0.9914" stop-color="#FFED1C" stop-opacity="0"/>
</radialGradient>
<linearGradient id="paint5_linear_5707_4286" x1="189.282" y1="31.7996" x2="200.219" y2="21.2741" gradientUnits="userSpaceOnUse">
<stop stop-color="#FF8000"/>
<stop offset="0.022669" stop-color="#FE7F02" stop-opacity="0.9773"/>
<stop offset="0.6663" stop-color="#ED582A" stop-opacity="0.3337"/>
<stop offset="1" stop-color="#E74939" stop-opacity="0"/>
</linearGradient>
<linearGradient id="paint6_linear_5707_4286" x1="201.512" y1="21.0447" x2="192.453" y2="26.4114" gradientUnits="userSpaceOnUse">
<stop stop-color="#FFBC47"/>
<stop offset="0.1869" stop-color="#FFB137" stop-opacity="0.8131"/>
<stop offset="0.7223" stop-color="#FF940F" stop-opacity="0.2777"/>
<stop offset="1" stop-color="#FF8900" stop-opacity="0"/>
</linearGradient>
<radialGradient id="paint7_radial_5707_4286" cx="0" cy="0" r="1" gradientUnits="userSpaceOnUse" gradientTransform="translate(199.205 22.6854) rotate(-123.784) scale(5.99734 6.18168)">
<stop offset="0.00134333" stop-color="#FFBC47"/>
<stop offset="0.2941" stop-color="#FFBF4B" stop-opacity="0.7068"/>
<stop offset="0.5624" stop-color="#FEC656" stop-opacity="0.4382"/>
<stop offset="0.8201" stop-color="#FCD368" stop-opacity="0.1801"/>
<stop offset="1" stop-color="#FBE07A" stop-opacity="0"/>
</radialGradient>
<radialGradient id="paint8_radial_5707_4286" cx="0" cy="0" r="1" gradientUnits="userSpaceOnUse" gradientTransform="translate(198.946 22.8609) rotate(-123.784) scale(5.81253 5.99119)">
<stop offset="0.00134333" stop-color="white"/>
<stop offset="1" stop-color="white" stop-opacity="0"/>
</radialGradient>
<radialGradient id="paint9_radial_5707_4286" cx="0" cy="0" r="1" gradientUnits="userSpaceOnUse" gradientTransform="translate(201.492 24.2141) rotate(-123.784) scale(7.14029 10.558)">
<stop offset="0.00134333" stop-color="#FFED1C" stop-opacity="0.6"/>
<stop offset="0.9477" stop-color="#FFED1C" stop-opacity="0.0264782"/>
<stop offset="0.9914" stop-color="#FFED1C" stop-opacity="0"/>
</radialGradient>
<radialGradient id="paint10_radial_5707_4286" cx="0" cy="0" r="1" gradientUnits="userSpaceOnUse" gradientTransform="translate(198.95 22.8596) rotate(-31.8307) scale(2.86452 1.83326)">
<stop offset="0.00134333" stop-color="white"/>
<stop offset="1" stop-color="white" stop-opacity="0"/>
</radialGradient>
<radialGradient id="paint11_radial_5707_4286" cx="0" cy="0" r="1" gradientUnits="userSpaceOnUse" gradientTransform="translate(187.97 28.7863) rotate(-123.784) scale(2.56151 3.25266)">
<stop offset="0.00134333" stop-color="#FFED1C"/>
<stop offset="0.1997" stop-color="#FFEE2B" stop-opacity="0.8013"/>
<stop offset="0.5839" stop-color="#FFF254" stop-opacity="0.4167"/>
<stop offset="1" stop-color="#FFF686" stop-opacity="0"/>
</radialGradient>
<radialGradient id="paint12_radial_5707_4286" cx="0" cy="0" r="1" gradientUnits="userSpaceOnUse" gradientTransform="translate(191.616 31.4188) rotate(173.563) scale(2.47153 0.502377)">
<stop offset="0.00134333" stop-color="#FFED1C" stop-opacity="0.6"/>
<stop offset="0.9477" stop-color="#FFED1C" stop-opacity="0.0264782"/>
<stop offset="0.9914" stop-color="#FFED1C" stop-opacity="0"/>
</radialGradient>
<radialGradient id="paint13_radial_5707_4286" cx="0" cy="0" r="1" gradientUnits="userSpaceOnUse" gradientTransform="translate(189.676 32.236) rotate(-30.1216) scale(2.36349 0.751497)">
<stop offset="0.00134333" stop-color="#FFED1C"/>
<stop offset="0.1997" stop-color="#FFEE2B" stop-opacity="0.8013"/>
<stop offset="0.5839" stop-color="#FFF254" stop-opacity="0.4167"/>
<stop offset="1" stop-color="#FFF686" stop-opacity="0"/>
</radialGradient>
<radialGradient id="paint14_radial_5707_4286" cx="0" cy="0" r="1" gradientUnits="userSpaceOnUse" gradientTransform="translate(187.941 29.4932) rotate(-123.784) scale(7.99266 10.1493)">
<stop offset="0.00134333" stop-color="#FF4C00"/>
<stop offset="0.135" stop-color="#FF5B0C" stop-opacity="0.8661"/>
<stop offset="0.3941" stop-color="#FF842C" stop-opacity="0.6067"/>
<stop offset="0.7491" stop-color="#FFC45F" stop-opacity="0.2512"/>
<stop offset="1" stop-color="#FFF686" stop-opacity="0"/>
</radialGradient>
<radialGradient id="paint15_radial_5707_4286" cx="0" cy="0" r="1" gradientUnits="userSpaceOnUse" gradientTransform="translate(192.728 21.8614) rotate(-123.784) scale(4.24237 5.38705)">
<stop offset="0.00134333" stop-color="#FFED1C"/>
<stop offset="0.1997" stop-color="#FFEE2B" stop-opacity="0.8013"/>
<stop offset="0.5839" stop-color="#FFF254" stop-opacity="0.4167"/>
<stop offset="1" stop-color="#FFF686" stop-opacity="0"/>
</radialGradient>
<radialGradient id="paint16_radial_5707_4286" cx="0" cy="0" r="1" gradientUnits="userSpaceOnUse" gradientTransform="translate(198.86 23.2593) rotate(-123.784) scale(8.87134 11.265)">
<stop offset="0.00134333" stop-color="#FFED1C"/>
<stop offset="0.1997" stop-color="#FFEE2B" stop-opacity="0.8013"/>
<stop offset="0.5839" stop-color="#FFF254" stop-opacity="0.4167"/>
<stop offset="1" stop-color="#FFF686" stop-opacity="0"/>
</radialGradient>
<linearGradient id="paint17_linear_5707_4286" x1="199.878" y1="29.5838" x2="211.327" y2="21.2825" gradientUnits="userSpaceOnUse">
<stop stop-color="#BD2719"/>
<stop offset="0.2151" stop-color="#D41A10"/>
<stop offset="0.5049" stop-color="#EC0C07"/>
<stop offset="0.774" stop-color="#FA0302"/>
<stop offset="1" stop-color="#FF0000"/>
</linearGradient>
<linearGradient id="paint18_linear_5707_4286" x1="206.282" y1="25.8727" x2="202.748" y2="28.1915" gradientUnits="userSpaceOnUse">
<stop stop-color="#FC8D41"/>
<stop offset="0.0900324" stop-color="#FC7837"/>
<stop offset="0.294" stop-color="#FD4D24"/>
<stop offset="0.4922" stop-color="#FE2C14"/>
<stop offset="0.6802" stop-color="#FF1409"/>
<stop offset="0.854" stop-color="#FF0502"/>
<stop offset="1" stop-color="#FF0000"/>
</linearGradient>
<radialGradient id="paint19_radial_5707_4286" cx="0" cy="0" r="1" gradientUnits="userSpaceOnUse" gradientTransform="translate(198.773 28.03) rotate(56.2165) scale(13.0063 13.0061)">
<stop offset="0.00134333" stop-color="#FFED1C"/>
<stop offset="0.1997" stop-color="#FFEE2B" stop-opacity="0.8013"/>
<stop offset="0.5839" stop-color="#FFF254" stop-opacity="0.4167"/>
<stop offset="1" stop-color="#FFF686" stop-opacity="0"/>
</radialGradient>
<linearGradient id="paint20_linear_5707_4286" x1="207.134" y1="22.6818" x2="225.116" y2="8.63361" gradientUnits="userSpaceOnUse">
<stop stop-color="#BD2719"/>
<stop offset="0.2151" stop-color="#D41A10"/>
<stop offset="0.5049" stop-color="#EC0C07"/>
<stop offset="0.774" stop-color="#FA0302"/>
<stop offset="1" stop-color="#FF0000"/>
</linearGradient>
<linearGradient id="paint21_linear_5707_4286" x1="193.141" y1="15.9711" x2="202.895" y2="13.3653" gradientUnits="userSpaceOnUse">
<stop stop-color="#BD2719"/>
<stop offset="0.2151" stop-color="#D41A10"/>
<stop offset="0.5049" stop-color="#EC0C07"/>
<stop offset="0.774" stop-color="#FA0302"/>
<stop offset="1" stop-color="#FF0000"/>
</linearGradient>
<linearGradient id="paint22_linear_5707_4286" x1="198.719" y1="14.3741" x2="195.258" y2="17.1485" gradientUnits="userSpaceOnUse">
<stop stop-color="#FC8D41"/>
<stop offset="0.0900324" stop-color="#FC7837"/>
<stop offset="0.294" stop-color="#FD4D24"/>
<stop offset="0.4922" stop-color="#FE2C14"/>
<stop offset="0.6802" stop-color="#FF1409"/>
<stop offset="0.854" stop-color="#FF0502"/>
<stop offset="1" stop-color="#FF0000"/>
</linearGradient>
<radialGradient id="paint23_radial_5707_4286" cx="0" cy="0" r="1" gradientUnits="userSpaceOnUse" gradientTransform="translate(198.502 22.6946) rotate(56.2166) scale(13.9896 13.9894)">
<stop offset="0.00134333" stop-color="#FFED1C"/>
<stop offset="0.1997" stop-color="#FFEE2B" stop-opacity="0.8013"/>
<stop offset="0.5839" stop-color="#FFF254" stop-opacity="0.4167"/>
<stop offset="1" stop-color="#FFF686" stop-opacity="0"/>
</radialGradient>
<linearGradient id="paint24_linear_5707_4286" x1="206.296" y1="13.9311" x2="191.835" y2="11.7973" gradientUnits="userSpaceOnUse">
<stop stop-color="#BD2719"/>
<stop offset="0.2151" stop-color="#D41A10"/>
<stop offset="0.5049" stop-color="#EC0C07"/>
<stop offset="0.774" stop-color="#FA0302"/>
<stop offset="1" stop-color="#FF0000"/>
</linearGradient>
<linearGradient id="paint25_linear_5707_4286" x1="212.688" y1="8.76649" x2="217.36" y2="15.6664" gradientUnits="userSpaceOnUse">
<stop stop-color="#BBCACC"/>
<stop offset="0.3717" stop-color="white"/>
<stop offset="1" stop-color="#99AFB3"/>
</linearGradient>
<linearGradient id="paint26_linear_5707_4286" x1="222.54" y1="10.2838" x2="220.176" y2="5.586" gradientUnits="userSpaceOnUse">
<stop stop-color="#008EE6"/>
<stop offset="0.688" stop-color="#80DAFE"/>
<stop offset="0.7325" stop-color="#76D5FB"/>
<stop offset="0.8071" stop-color="#5CC8F3"/>
<stop offset="0.9026" stop-color="#32B2E6"/>
<stop offset="1" stop-color="#0099D6"/>
</linearGradient>
<linearGradient id="paint27_linear_5707_4286" x1="208.965" y1="21.0747" x2="203.649" y2="13.2688" gradientUnits="userSpaceOnUse">
<stop stop-color="#008EE6"/>
<stop offset="0.688" stop-color="#80DAFE"/>
<stop offset="0.7325" stop-color="#76D5FB"/>
<stop offset="0.8071" stop-color="#5CC8F3"/>
<stop offset="0.9026" stop-color="#32B2E6"/>
<stop offset="1" stop-color="#0099D6"/>
</linearGradient>
<radialGradient id="paint28_radial_5707_4286" cx="0" cy="0" r="1" gradientUnits="userSpaceOnUse" gradientTransform="translate(204.09 22.3799) rotate(56.2165) scale(6.37154 11.6616)">
<stop stop-opacity="0.75"/>
<stop offset="1" stop-opacity="0"/>
</radialGradient>
<radialGradient id="paint29_radial_5707_4286" cx="0" cy="0" r="1" gradientUnits="userSpaceOnUse" gradientTransform="translate(211.644 22.3227) rotate(56.2164) scale(6.37155 11.6616)">
<stop stop-opacity="0.75"/>
<stop offset="1" stop-opacity="0"/>
</radialGradient>
<linearGradient id="paint30_linear_5707_4286" x1="200.825" y1="17.6429" x2="203.908" y2="23.8571" gradientUnits="userSpaceOnUse">
<stop/>
<stop offset="0.1962" stop-color="#4D4D4C"/>
<stop offset="0.7655"/>
</linearGradient>
<linearGradient id="paint31_linear_5707_4286" x1="200.825" y1="17.6429" x2="203.908" y2="23.8571" gradientUnits="userSpaceOnUse">
<stop stop-opacity="0"/>
<stop offset="0.1975" stop-color="#CFDCDE" stop-opacity="0.5"/>
<stop offset="0.7655" stop-opacity="0"/>
</linearGradient>
<linearGradient id="paint32_linear_5707_4286" x1="211.951" y1="6.43353" x2="220.964" y2="10.418" gradientUnits="userSpaceOnUse">
<stop stop-color="#BBCACC"/>
<stop offset="0.3717" stop-color="white"/>
<stop offset="1" stop-color="#99AFB3"/>
</linearGradient>
<radialGradient id="paint33_radial_5707_4286" cx="0" cy="0" r="1" gradientUnits="userSpaceOnUse" gradientTransform="translate(212.431 18.8588) rotate(55.4506) scale(4.11064 13.3133)">
<stop stop-color="#440063" stop-opacity="0.75"/>
<stop offset="1" stop-color="#420061" stop-opacity="0"/>
</radialGradient>
<linearGradient id="paint34_linear_5707_4286" x1="199.117" y1="23.7232" x2="211.346" y2="18.8788" gradientUnits="userSpaceOnUse">
<stop stop-color="#BD2719"/>
<stop offset="0.2151" stop-color="#D41A10"/>
<stop offset="0.5049" stop-color="#EC0C07"/>
<stop offset="0.774" stop-color="#FA0302"/>
<stop offset="1" stop-color="#FF0000"/>
</linearGradient>
<linearGradient id="paint35_linear_5707_4286" x1="197.285" y1="23.7498" x2="203.725" y2="20.5988" gradientUnits="userSpaceOnUse">
<stop stop-color="#BD2719"/>
<stop offset="0.2151" stop-color="#D41A10"/>
<stop offset="0.5049" stop-color="#EC0C07"/>
<stop offset="0.774" stop-color="#FA0302"/>
<stop offset="1" stop-color="#FF0000"/>
</linearGradient>
<linearGradient id="paint36_linear_5707_4286" x1="203.303" y1="21.1875" x2="199.505" y2="23.5451" gradientUnits="userSpaceOnUse">
<stop stop-color="#FC8D41"/>
<stop offset="0.0900324" stop-color="#FC7837"/>
<stop offset="0.294" stop-color="#FD4D24"/>
<stop offset="0.4922" stop-color="#FE2C14"/>
<stop offset="0.6802" stop-color="#FF1409"/>
<stop offset="0.854" stop-color="#FF0502"/>
<stop offset="1" stop-color="#FF0000"/>
</linearGradient>
<linearGradient id="paint37_linear_5707_4286" x1="202.792" y1="23.2484" x2="208.748" y2="13.1041" gradientUnits="userSpaceOnUse">
<stop stop-color="#BD2719"/>
<stop offset="0.2151" stop-color="#D41A10"/>
<stop offset="0.5049" stop-color="#EC0C07"/>
<stop offset="0.774" stop-color="#FA0302"/>
<stop offset="1" stop-color="#FF0000"/>
</linearGradient>
<linearGradient id="paint38_linear_5707_4286" x1="199.117" y1="23.7232" x2="211.346" y2="18.8788" gradientUnits="userSpaceOnUse">
<stop stop-color="#BD2719"/>
<stop offset="0.2151" stop-color="#D41A10"/>
<stop offset="0.5049" stop-color="#EC0C07"/>
<stop offset="0.774" stop-color="#FA0302"/>
<stop offset="1" stop-color="#FF0000"/>
</linearGradient>
<radialGradient id="paint39_radial_5707_4286" cx="0" cy="0" r="1" gradientUnits="userSpaceOnUse" gradientTransform="translate(199.219 22.7614) rotate(-28.1506) scale(9.79653 3.28894)">
<stop offset="0.00134333" stop-color="#FFED1C"/>
<stop offset="0.1997" stop-color="#FFEE2B" stop-opacity="0.8013"/>
<stop offset="0.5839" stop-color="#FFF254" stop-opacity="0.4167"/>
<stop offset="1" stop-color="#FFF686" stop-opacity="0"/>
</radialGradient>
<radialGradient id="paint40_radial_5707_4286" cx="0" cy="0" r="1" gradientUnits="userSpaceOnUse" gradientTransform="translate(210.937 11.7182) rotate(55.4506) scale(4.11064 13.3133)">
<stop stop-color="white" stop-opacity="0.5"/>
<stop offset="1" stop-color="white" stop-opacity="0"/>
</radialGradient>
<radialGradient id="paint41_radial_5707_4286" cx="0" cy="0" r="1" gradientUnits="userSpaceOnUse" gradientTransform="translate(208.236 20.8008) rotate(55.0809) scale(0.998034 4.79314)">
<stop stop-color="#440063" stop-opacity="0.75"/>
<stop offset="1" stop-color="#420061" stop-opacity="0"/>
</radialGradient>
<linearGradient id="paint42_linear_5707_4286" x1="212.189" y1="13.6314" x2="216.519" y2="7.6905" gradientUnits="userSpaceOnUse">
<stop stop-color="#BD2719"/>
<stop offset="0.2151" stop-color="#D41A10"/>
<stop offset="0.5049" stop-color="#EC0C07"/>
<stop offset="0.774" stop-color="#FA0302"/>
<stop offset="1" stop-color="#FF0000"/>
</linearGradient>
<linearGradient id="paint43_linear_5707_4286" x1="215.577" y1="7.74373" x2="212.839" y2="12.9128" gradientUnits="userSpaceOnUse">
<stop stop-color="#FC8D41"/>
<stop offset="0.0900324" stop-color="#FC7837"/>
<stop offset="0.294" stop-color="#FD4D24"/>
<stop offset="0.4922" stop-color="#FE2C14"/>
<stop offset="0.6802" stop-color="#FF1409"/>
<stop offset="0.854" stop-color="#FF0502"/>
<stop offset="1" stop-color="#FF0000"/>
</linearGradient>
<radialGradient id="paint44_radial_5707_4286" cx="0" cy="0" r="1" gradientUnits="userSpaceOnUse" gradientTransform="translate(213.376 10.1924) rotate(56.2127) scale(5.43591 5.43545)">
<stop stop-color="#512D00"/>
<stop offset="1"/>
</radialGradient>
<radialGradient id="paint45_radial_5707_4286" cx="0" cy="0" r="1" gradientUnits="userSpaceOnUse" gradientTransform="translate(214.605 9.34529) rotate(11.0563) scale(4.75571 4.78241)">
<stop offset="0.4873" stop-color="#F5CBC0" stop-opacity="0"/>
<stop offset="1" stop-color="#E67E62"/>
</radialGradient>
<linearGradient id="paint46_linear_5707_4286" x1="214.301" y1="8.60066" x2="215.195" y2="5.09185" gradientUnits="userSpaceOnUse">
<stop stop-color="#BD2719"/>
<stop offset="0.0422031" stop-color="#B42717"/>
<stop offset="0.257" stop-color="#89250F"/>
<stop offset="0.4654" stop-color="#682408"/>
<stop offset="0.6634" stop-color="#502304"/>
<stop offset="0.8464" stop-color="#412201"/>
<stop offset="1" stop-color="#3C2200"/>
</linearGradient>
<radialGradient id="paint47_radial_5707_4286" cx="0" cy="0" r="1" gradientUnits="userSpaceOnUse" gradientTransform="translate(208.245 6.90908) rotate(11.0563) scale(6.44892 6.48508)">
<stop stop-color="white" stop-opacity="0.5"/>
<stop offset="1" stop-color="white" stop-opacity="0"/>
</radialGradient>
</defs>
</svg>
