<svg width="29" height="30" viewBox="0 0 29 30" fill="none" xmlns="http://www.w3.org/2000/svg">
<path d="M3.37448 29.2397L21.3023 20.9275L8.49217 8.11768L0.179901 26.0372C0.0607 26.3233 -0.392263 27.4755 0.839478 28.5721C2.17453 29.7562 3.0884 29.3589 3.37448 29.2397Z" fill="url(#paint0_linear_5707_4214)"/>
<path d="M6.69619 11.9873L5.36115 14.8878C4.93202 15.9288 12.545 23.6131 16.8442 22.9933L21.3023 20.9272C16.0177 23.3668 6.04456 13.4018 6.69619 11.9873Z" fill="url(#paint1_linear_5707_4214)"/>
<path d="M3.99464 17.8364L3.68472 18.496L2.63575 20.7528C2.62781 21.6428 7.21306 26.2201 10.0818 26.1247L13.7214 24.44C9.77985 25.1234 3.54168 18.798 3.99464 17.8364Z" fill="url(#paint2_linear_5707_4214)"/>
<path d="M0.267578 25.8621C0.649021 26.625 2.5165 28.4845 4.06611 28.9215L7.91232 27.1415L7.93616 27.1256C5.56804 28.2143 1.56289 24.1774 1.49137 23.2397L0.267578 25.8621Z" fill="url(#paint3_linear_5707_4214)"/>
<path opacity="0.75" d="M3.37448 29.2397L21.3023 20.9275L8.49217 8.11768L0.179901 26.0372C0.0607 26.3233 -0.392263 27.4755 0.839478 28.5721C2.17453 29.7562 3.0884 29.3589 3.37448 29.2397Z" fill="url(#paint4_radial_5707_4214)"/>
<path opacity="0.75" d="M3.37448 29.2397L21.3023 20.9275L8.49217 8.11768L0.179901 26.0372C0.0607 26.3233 -0.392263 27.4755 0.839478 28.5721C2.17453 29.7562 3.0884 29.3589 3.37448 29.2397Z" fill="url(#paint5_radial_5707_4214)"/>
<path d="M14.6195 8.18085C14.4049 8.61791 13.9838 8.68148 13.6738 8.58612L14.1824 7.57691C14.1824 7.57691 14.7546 7.70406 14.7705 7.33057L14.7943 7.85504L14.6195 8.18085Z" fill="url(#paint6_linear_5707_4214)"/>
<path d="M16.0416 2.61852C16.0416 2.61852 16.4071 2.45165 16.6376 1.97485C16.868 1.49806 15.7317 0.600098 15.7317 0.600098L15.1992 1.52985C15.1992 1.52985 16.0972 2.11789 15.8191 2.31656C15.533 2.51522 16.0416 2.61852 16.0416 2.61852Z" fill="url(#paint7_linear_5707_4214)"/>
<path d="M25.339 10.2627C25.5059 8.80057 24.5205 8.31583 24.1629 8.35556C24.1629 8.35556 24.0993 7.87877 24.7351 7.72778C25.1562 7.63242 26.229 8.58601 25.9509 9.66674L25.339 10.2627Z" fill="url(#paint8_linear_5707_4214)"/>
<path d="M21.4534 20.8159C20.5633 21.7059 16.9714 19.5445 13.4192 16.0003C9.875 12.4561 7.7135 8.85633 8.60353 7.96632C9.49356 7.0763 13.0855 9.23777 16.6377 12.7819C20.1819 16.3341 22.3355 19.9259 21.4534 20.8159Z" fill="url(#paint9_linear_5707_4214)"/>
<path d="M21.1519 20.2276C20.4764 20.9031 17.25 18.7734 13.9521 15.4676C10.6542 12.1619 8.51658 8.94351 9.19205 8.26805C9.86752 7.5926 13.0939 9.72227 16.3918 13.028C19.6897 16.3338 21.8273 19.5522 21.1519 20.2276Z" fill="url(#paint10_linear_5707_4214)"/>
<path d="M16.6301 1.97461C16.6301 1.97461 16.2168 2.85668 16.1612 2.95204C15.9546 3.30169 15.3745 3.42089 14.3335 3.27785C13.2924 3.13481 12.9905 3.19044 12.9428 3.19838C12.8951 3.21428 12.2832 2.72159 12.2832 2.72159L12.3388 2.22095C12.3388 2.22095 12.4819 2.03024 12.9587 2.09381C13.809 2.22095 16.3122 2.64212 16.6301 1.97461Z" fill="url(#paint11_linear_5707_4214)"/>
<path d="M18.6956 16.7316C19.53 15.7781 20.3088 16.525 20.8015 15.8416L19.9591 14.9834C19.4664 15.6589 18.7512 15.0231 17.8691 15.9529L18.6956 16.7316Z" fill="url(#paint12_linear_5707_4214)"/>
<path d="M9.64453 5.16122C10.7968 5.84462 9.77168 6.78232 10.4233 7.31474L11.3213 6.51214C10.6697 5.97972 11.6074 5.05792 10.4551 4.37451L9.64453 5.16122Z" fill="url(#paint13_linear_5707_4214)"/>
<path d="M21.8422 8.69779C21.874 8.68984 21.8899 8.49913 22.3587 8.16537C22.8276 7.83161 23.8845 8.34814 24.0196 8.42761C24.1626 8.50707 24.0434 9.81826 24.0434 9.81826C24.0434 9.81826 22.7243 8.41171 22.0647 8.73752C21.4051 9.05538 21.8422 8.69779 21.8422 8.69779Z" fill="url(#paint14_linear_5707_4214)"/>
<path d="M22.0177 11.964C22.0177 11.964 21.9701 12.4805 21.7317 12.7189C21.3025 13.1401 20.6191 12.5043 19.7529 12.7348C19.7529 12.7348 20.1503 11.7256 20.19 11.6461C20.19 11.6461 20.5397 11.4315 20.8973 11.6382C21.2628 11.8368 21.5807 11.9004 21.8032 11.7812C22.0257 11.662 22.0177 11.964 22.0177 11.964Z" fill="url(#paint15_linear_5707_4214)"/>
<path d="M24.3459 9.69089C24.3459 9.69089 23.4956 10.0803 23.3843 10.1359C23.2731 10.1915 23.0188 8.21284 23.6307 8.01417C24.2505 7.81551 24.6717 7.74399 24.7353 7.73604C24.7989 7.72015 23.6704 7.83935 24.3459 9.69089Z" fill="#FFBF00"/>
<path d="M21.7309 12.7106C22.0806 12.3451 22.5574 11.8047 22.5336 11.6537C22.4223 10.6842 21.6356 8.54661 22.3587 8.15723C22.3587 8.15723 21.6833 8.63402 21.4766 8.77706C21.27 8.9201 21.119 9.30153 21.1349 9.92931C21.1747 11.0259 22.0488 12.3848 21.7309 12.7106Z" fill="#FFBF00"/>
<path d="M19.3154 4.86768C18.7353 8.94427 14.6904 12.8381 14.6904 12.8381L15.2388 13.6725C15.2388 13.6725 19.6412 9.0873 20.2054 4.99482L19.3154 4.86768Z" fill="url(#paint16_linear_5707_4214)"/>
<path d="M11.8532 3.1667C11.7578 3.34152 12.036 3.63554 12.7035 4.44609C13.371 5.25664 15.1034 7.40222 14.6107 8.18098L15.1431 7.08436C15.1431 7.08436 15.1511 6.21023 14.6266 5.35995C13.8001 4.02493 12.2187 2.5866 12.3379 2.229L11.8532 3.1667Z" fill="url(#paint17_linear_5707_4214)"/>
<path d="M15.3981 15.5715C15.578 15.5715 15.7239 15.4257 15.7239 15.2457C15.7239 15.0658 15.578 14.9199 15.3981 14.9199C15.2181 14.9199 15.0723 15.0658 15.0723 15.2457C15.0723 15.4257 15.2181 15.5715 15.3981 15.5715Z" fill="url(#paint18_linear_5707_4214)"/>
<path d="M19.9352 2.03053C20.1151 2.03053 20.261 1.88465 20.261 1.70471C20.261 1.52477 20.1151 1.37891 19.9352 1.37891C19.7552 1.37891 19.6094 1.52477 19.6094 1.70471C19.6094 1.88465 19.7552 2.03053 19.9352 2.03053Z" fill="url(#paint19_linear_5707_4214)"/>
<path d="M16.8756 6.75904C17.0556 6.75904 17.2014 6.61317 17.2014 6.43323C17.2014 6.25329 17.0556 6.10742 16.8756 6.10742C16.6957 6.10742 16.5498 6.25329 16.5498 6.43323C16.5498 6.61317 16.6957 6.75904 16.8756 6.75904Z" fill="url(#paint20_linear_5707_4214)"/>
<path d="M18.8073 12.7263C18.9872 12.7263 19.1331 12.5805 19.1331 12.4005C19.1331 12.2206 18.9872 12.0747 18.8073 12.0747C18.6273 12.0747 18.4814 12.2206 18.4814 12.4005C18.4814 12.5805 18.6273 12.7263 18.8073 12.7263Z" fill="url(#paint21_linear_5707_4214)"/>
<path d="M27.1823 11.9319C27.3622 11.9319 27.5081 11.786 27.5081 11.6061C27.5081 11.4261 27.3622 11.2803 27.1823 11.2803C27.0023 11.2803 26.8564 11.4261 26.8564 11.6061C26.8564 11.786 27.0023 11.9319 27.1823 11.9319Z" fill="url(#paint22_linear_5707_4214)"/>
<path d="M25.109 18.8054C25.289 18.8054 25.4348 18.6596 25.4348 18.4796C25.4348 18.2997 25.289 18.1538 25.109 18.1538C24.9291 18.1538 24.7832 18.2997 24.7832 18.4796C24.7832 18.6596 24.9291 18.8054 25.109 18.8054Z" fill="url(#paint23_linear_5707_4214)"/>
<path d="M23.7496 14.6096C23.9296 14.6096 24.0755 14.4638 24.0755 14.2838C24.0755 14.1039 23.9296 13.958 23.7496 13.958C23.5697 13.958 23.4238 14.1039 23.4238 14.2838C23.4238 14.4638 23.5697 14.6096 23.7496 14.6096Z" fill="url(#paint24_linear_5707_4214)"/>
<path d="M25.5377 5.75708C25.7177 5.75708 25.8635 5.61122 25.8635 5.43128C25.8635 5.25134 25.7177 5.10547 25.5377 5.10547C25.3578 5.10547 25.2119 5.25134 25.2119 5.43128C25.2119 5.61122 25.3578 5.75708 25.5377 5.75708Z" fill="url(#paint25_linear_5707_4214)"/>
<path d="M21.8825 6.82203C22.0624 6.82203 22.2083 6.67616 22.2083 6.49622C22.2083 6.31628 22.0624 6.17041 21.8825 6.17041C21.7025 6.17041 21.5566 6.31628 21.5566 6.49622C21.5566 6.67616 21.7025 6.82203 21.8825 6.82203Z" fill="url(#paint26_linear_5707_4214)"/>
<path d="M19.093 19.6953C22.4148 16.9697 28.041 16.4055 28.041 16.4055L28.2238 15.1499C28.2238 15.1499 21.5645 15.9446 18.0361 19.004C18.4176 19.2662 18.7672 19.4967 19.093 19.6953Z" fill="url(#paint27_linear_5707_4214)"/>
<path d="M10.7568 11.8447C10.9793 12.1467 11.2257 12.4486 11.4879 12.7665C12.1952 11.209 12.0442 9.98519 12.0442 9.98519L11.178 9.44482C11.2654 10.4064 10.9714 11.3282 10.7568 11.8447Z" fill="url(#paint28_linear_5707_4214)"/>
<defs>
<linearGradient id="paint0_linear_5707_4214" x1="-0.872142" y1="10.6211" x2="13.3106" y2="27.4287" gradientUnits="userSpaceOnUse">
<stop offset="0.2544" stop-color="#FBE07A"/>
<stop offset="1" stop-color="#FF40BF"/>
</linearGradient>
<linearGradient id="paint1_linear_5707_4214" x1="6.83581" y1="11.8508" x2="18.6055" y2="23.6207" gradientUnits="userSpaceOnUse">
<stop offset="0.2544" stop-color="#9F00E8"/>
<stop offset="1" stop-color="#7000A3"/>
</linearGradient>
<linearGradient id="paint2_linear_5707_4214" x1="3.57377" y1="18.2588" x2="11.7365" y2="26.4217" gradientUnits="userSpaceOnUse">
<stop offset="0.2544" stop-color="#9F00E8"/>
<stop offset="1" stop-color="#7000A3"/>
</linearGradient>
<linearGradient id="paint3_linear_5707_4214" x1="1.10619" y1="23.6139" x2="6.27203" y2="28.7799" gradientUnits="userSpaceOnUse">
<stop offset="0.2544" stop-color="#9F00E8"/>
<stop offset="1" stop-color="#7000A3"/>
</linearGradient>
<radialGradient id="paint4_radial_5707_4214" cx="0" cy="0" r="1" gradientUnits="userSpaceOnUse" gradientTransform="translate(6.81305 16.2449) rotate(119.598) scale(8.14201 2.49269)">
<stop stop-color="white" stop-opacity="0.5"/>
<stop offset="1" stop-color="white" stop-opacity="0"/>
</radialGradient>
<radialGradient id="paint5_radial_5707_4214" cx="0" cy="0" r="1" gradientUnits="userSpaceOnUse" gradientTransform="translate(12.5347 23.5436) rotate(151.7) scale(12.9068 4.02544)">
<stop stop-color="#440063" stop-opacity="0.75"/>
<stop offset="1" stop-color="#420061" stop-opacity="0"/>
</radialGradient>
<linearGradient id="paint6_linear_5707_4214" x1="14.6797" y1="7.88402" x2="16.6303" y2="7.26105" gradientUnits="userSpaceOnUse">
<stop stop-color="#BD2719"/>
<stop offset="1" stop-color="#FF4E0D"/>
</linearGradient>
<linearGradient id="paint7_linear_5707_4214" x1="16.4929" y1="3.04446" x2="15.6196" y2="0.874757" gradientUnits="userSpaceOnUse">
<stop stop-color="#BD2719"/>
<stop offset="1" stop-color="#FF4E0D"/>
</linearGradient>
<linearGradient id="paint8_linear_5707_4214" x1="26.2063" y1="9.67064" x2="22.9533" y2="7.58625" gradientUnits="userSpaceOnUse">
<stop stop-color="#FFCB4B"/>
<stop offset="1" stop-color="#E81CA2"/>
</linearGradient>
<linearGradient id="paint9_linear_5707_4214" x1="17.8721" y1="5.41988" x2="10.6042" y2="28.3344" gradientUnits="userSpaceOnUse">
<stop offset="0.2544" stop-color="#FBE07A"/>
<stop offset="1" stop-color="#E81CA2"/>
</linearGradient>
<linearGradient id="paint10_linear_5707_4214" x1="20.2587" y1="10.6797" x2="9.10425" y2="18.5031" gradientUnits="userSpaceOnUse">
<stop stop-color="#FBE07A"/>
<stop offset="1" stop-color="white"/>
</linearGradient>
<linearGradient id="paint11_linear_5707_4214" x1="11.2799" y1="2.72869" x2="14.8825" y2="2.67411" gradientUnits="userSpaceOnUse">
<stop stop-color="#BD2719"/>
<stop offset="1" stop-color="#FF4E0D"/>
</linearGradient>
<linearGradient id="paint12_linear_5707_4214" x1="19.7598" y1="15.1524" x2="18.8935" y2="16.7068" gradientUnits="userSpaceOnUse">
<stop stop-color="#FF9214"/>
<stop offset="1" stop-color="#FF4E0D"/>
</linearGradient>
<linearGradient id="paint13_linear_5707_4214" x1="9.63938" y1="3.20335" x2="10.9494" y2="6.95143" gradientUnits="userSpaceOnUse">
<stop stop-color="#80DAFE"/>
<stop offset="1" stop-color="#008EE6"/>
</linearGradient>
<linearGradient id="paint14_linear_5707_4214" x1="23.0261" y1="10.487" x2="22.7263" y2="6.70611" gradientUnits="userSpaceOnUse">
<stop stop-color="#FFCB4B"/>
<stop offset="1" stop-color="#E81CA2"/>
</linearGradient>
<linearGradient id="paint15_linear_5707_4214" x1="19.8515" y1="12.0807" x2="21.9406" y2="12.4191" gradientUnits="userSpaceOnUse">
<stop stop-color="#FFCB4B"/>
<stop offset="1" stop-color="#E81CA2"/>
</linearGradient>
<linearGradient id="paint16_linear_5707_4214" x1="18.4153" y1="5.01437" x2="15.3163" y2="17.768" gradientUnits="userSpaceOnUse">
<stop offset="0.2544" stop-color="#E100FF"/>
<stop offset="1" stop-color="#7000A3"/>
</linearGradient>
<linearGradient id="paint17_linear_5707_4214" x1="12.3197" y1="2.92417" x2="14.6122" y2="6.74504" gradientUnits="userSpaceOnUse">
<stop stop-color="#FF9214"/>
<stop offset="1" stop-color="#FF4E0D"/>
</linearGradient>
<linearGradient id="paint18_linear_5707_4214" x1="14.7749" y1="13.4119" x2="16.0121" y2="17.0508" gradientUnits="userSpaceOnUse">
<stop stop-color="#FFCB4B"/>
<stop offset="1" stop-color="#E81CA2"/>
</linearGradient>
<linearGradient id="paint19_linear_5707_4214" x1="18.9412" y1="0.0752066" x2="20.9789" y2="3.42302" gradientUnits="userSpaceOnUse">
<stop stop-color="#FBE07A"/>
<stop offset="1" stop-color="#E81CA2"/>
</linearGradient>
<linearGradient id="paint20_linear_5707_4214" x1="16.827" y1="6.25293" x2="17.3364" y2="8.18154" gradientUnits="userSpaceOnUse">
<stop stop-color="#80DAFE"/>
<stop offset="1" stop-color="#008EE6"/>
</linearGradient>
<linearGradient id="paint21_linear_5707_4214" x1="18.5877" y1="11.7818" x2="18.8986" y2="12.6714" gradientUnits="userSpaceOnUse">
<stop stop-color="#80DAFE"/>
<stop offset="1" stop-color="#008EE6"/>
</linearGradient>
<linearGradient id="paint22_linear_5707_4214" x1="27.4186" y1="10.8455" x2="26.8364" y2="12.7013" gradientUnits="userSpaceOnUse">
<stop stop-color="#FFCB4B"/>
<stop offset="1" stop-color="#E81CA2"/>
</linearGradient>
<linearGradient id="paint23_linear_5707_4214" x1="25.013" y1="16.3978" x2="25.195" y2="20.3643" gradientUnits="userSpaceOnUse">
<stop stop-color="#FFCB4B"/>
<stop offset="1" stop-color="#E81CA2"/>
</linearGradient>
<linearGradient id="paint24_linear_5707_4214" x1="23.5362" y1="13.6681" x2="23.8471" y2="14.5577" gradientUnits="userSpaceOnUse">
<stop offset="0.2544" stop-color="#9F00E8"/>
<stop offset="1" stop-color="#7000A3"/>
</linearGradient>
<linearGradient id="paint25_linear_5707_4214" x1="26.1703" y1="4.34554" x2="24.9695" y2="6.41974" gradientUnits="userSpaceOnUse">
<stop stop-color="#80DAFE"/>
<stop offset="1" stop-color="#008EE6"/>
</linearGradient>
<linearGradient id="paint26_linear_5707_4214" x1="21.7984" y1="6.03393" x2="22.1987" y2="8.25366" gradientUnits="userSpaceOnUse">
<stop stop-color="#FF9214"/>
<stop offset="1" stop-color="#FF4E0D"/>
</linearGradient>
<linearGradient id="paint27_linear_5707_4214" x1="15.7841" y1="17.258" x2="27.3863" y2="17.4964" gradientUnits="userSpaceOnUse">
<stop stop-color="#80DAFE"/>
<stop offset="1" stop-color="#008EE6"/>
</linearGradient>
<linearGradient id="paint28_linear_5707_4214" x1="9.37462" y1="15.9681" x2="12.1559" y2="9.05456" gradientUnits="userSpaceOnUse">
<stop stop-color="#FBE07A"/>
<stop offset="1" stop-color="#E81CA2"/>
</linearGradient>
</defs>
</svg>
