<svg width="21" height="20" viewBox="0 0 21 20" fill="none" xmlns="http://www.w3.org/2000/svg">
<path fill-rule="evenodd" clip-rule="evenodd" d="M10.546 11.9613L8.59326 9.99888L10.546 8.03638L12.4987 9.99888L10.546 11.9613Z" fill="#F4BB0B"/>
<path fill-rule="evenodd" clip-rule="evenodd" d="M14.9837 9.99896L14.9754 10.0072L16.7866 11.8273L18.6058 9.99896L16.774 8.15796L14.9629 9.97806L14.9837 9.99896Z" fill="#F4BB0B"/>
<path fill-rule="evenodd" clip-rule="evenodd" d="M7.40724 8.69342L10.5458 5.53913L13.7306 8.73982L15.5417 6.91972L10.5458 1.89893L5.59619 6.87332L7.40724 8.69342Z" fill="#F4BB0B"/>
<path fill-rule="evenodd" clip-rule="evenodd" d="M13.7432 11.2454L10.5459 14.4587L7.37696 11.2738L5.56592 13.0939L10.5459 18.0989L15.5543 13.0655L13.7432 11.2454Z" fill="#F4BB0B"/>
<path fill-rule="evenodd" clip-rule="evenodd" d="M6.10842 9.99897L6.17528 9.93177L4.36424 8.11157L2.48633 9.99897L4.33389 11.8558L6.14494 10.0357L6.10842 9.99897Z" fill="#F4BB0B"/>
</svg>
