<svg width="21" height="20" viewBox="0 0 21 20" fill="none" xmlns="http://www.w3.org/2000/svg">
<path d="M7.16667 5.83341H10.5M7.16667 9.16675H13.8333M7.16667 12.5001H13.8333M4.66667 1.66675H16.3333C17.2538 1.66675 18 2.41294 18 3.33341V15.962C18 17.1164 16.8549 17.9212 15.7688 17.5302L14.4673 17.0617C14.0607 16.9152 13.613 16.9326 13.2189 17.1099L11.1839 18.0256C10.749 18.2214 10.251 18.2214 9.81606 18.0256L7.78115 17.1099C7.38699 16.9326 6.93934 16.9152 6.53267 17.0617L5.2312 17.5302C4.1451 17.9212 3 17.1164 3 15.962V3.33342C3 2.41294 3.74619 1.66675 4.66667 1.66675Z" stroke="#A6A6A6" stroke-width="1.5" stroke-linecap="round"/>
</svg>
