<svg width="21" height="20" viewBox="0 0 21 20" fill="none" xmlns="http://www.w3.org/2000/svg">
<g clip-path="url(#clip0_6183_1584)">
<path d="M6.33333 18.3334C7.88957 18.3334 9.19672 17.2669 9.56381 15.825C9.67736 15.379 10.0398 15.0001 10.5 15.0001H16.3333M6.33333 18.3334C4.49238 18.3334 3 16.841 3 15.0001V4.16675C3 2.78604 4.11929 1.66675 5.5 1.66675H13.8333C15.214 1.66675 16.3333 2.78604 16.3333 4.16675V15.0001M6.33333 18.3334H16.3333C17.8896 18.3334 19.1967 17.2669 19.5638 15.825C19.6774 15.379 19.2936 15.0001 18.8333 15.0001H16.3333M13 5.83341H6.33333M9.66667 10.0001H6.33333" stroke="#A6A6A6" stroke-width="1.5" stroke-linecap="round"/>
</g>
<defs>
<clipPath id="clip0_6183_1584">
<rect width="20" height="20" fill="white" transform="translate(0.5)"/>
</clipPath>
</defs>
</svg>
