<svg width="18" height="15" viewBox="0 0 18 15" fill="none" xmlns="http://www.w3.org/2000/svg">
<path d="M6.82559 9.61624L6.79409 9.58788L13.8616 3.59442C13.953 3.51692 13.8556 3.37352 13.7499 3.42993L4.61153 8.30596L0.207635 7.08313C0.123557 7.00716 0.0615247 6.90992 0.0280745 6.80165C-0.00537559 6.69339 -0.00900568 6.5781 0.0175663 6.46794C0.0441383 6.35778 0.099929 6.25683 0.179061 6.17572C0.258192 6.09461 0.357736 6.03634 0.467203 6.00706L17.2086 0.0210084C17.3162 -0.00747987 17.4293 -0.00698644 17.5366 0.0224385C17.6439 0.0518634 17.7415 0.109171 17.8194 0.188534C17.8974 0.267897 17.9529 0.366487 17.9804 0.47428C18.0079 0.582073 18.0064 0.695226 17.976 0.802235L14.5289 13.901C14.4995 14.0039 14.4443 14.0975 14.3687 14.1732C14.293 14.2489 14.1993 14.3041 14.0964 14.3335C13.9936 14.3629 13.8849 14.3657 13.7806 14.3415C13.6764 14.3173 13.5801 14.2669 13.5007 14.1952L9.8127 12.2621L7.63461 13.9744C7.30656 14.2323 6.82559 13.9986 6.82559 13.5813V9.61624Z" fill="black"/>
</svg>
