<svg width="16" height="12" viewBox="0 0 16 12" fill="none" xmlns="http://www.w3.org/2000/svg">
<path d="M13.3535 1.01348C13.3492 1.005 13.3419 0.998354 13.3331 0.994733C12.3119 0.526213 11.2343 0.192122 10.1272 0.000819476C10.1171 -0.00105046 10.1067 0.000298533 10.0975 0.00467461C10.0882 0.00905069 10.0806 0.0162311 10.0757 0.0251945C9.92895 0.291523 9.79574 0.565086 9.67658 0.84484C8.48318 0.663683 7.26927 0.663683 6.07587 0.84484C5.95592 0.564375 5.82058 0.290744 5.67047 0.0251945C5.66532 0.0164258 5.65765 0.00941086 5.64846 0.0050632C5.63927 0.000715549 5.62898 -0.000763251 5.61893 0.000819476C4.51171 0.19172 3.43402 0.525837 2.41299 0.99476C2.40425 0.998465 2.39688 1.00479 2.39189 1.01287C0.350033 4.06211 -0.209308 7.03638 0.0650858 9.97381C0.0658577 9.98101 0.0680695 9.98798 0.0715897 9.99431C0.0751099 10.0006 0.0798666 10.0062 0.0855769 10.0106C1.27453 10.891 2.60439 11.5629 4.0184 11.9979C4.02836 12.0008 4.03899 12.0007 4.04887 11.9975C4.05875 11.9942 4.0674 11.988 4.07366 11.9797C4.37736 11.5665 4.64646 11.1289 4.87822 10.6715C4.88141 10.6652 4.88323 10.6583 4.88356 10.6513C4.88389 10.6443 4.88273 10.6372 4.88015 10.6307C4.87757 10.6241 4.87363 10.6182 4.8686 10.6133C4.86356 10.6084 4.85754 10.6046 4.85093 10.6022C4.42658 10.4398 4.01576 10.2441 3.62232 10.0168C3.61517 10.0126 3.60917 10.0067 3.60484 9.99963C3.60051 9.99256 3.59799 9.98454 3.5975 9.97626C3.59701 9.96798 3.59857 9.95972 3.60203 9.95218C3.6055 9.94465 3.61076 9.93809 3.61736 9.93307C3.70015 9.87123 3.7815 9.80749 3.86136 9.7419C3.86836 9.73613 3.87683 9.73244 3.88583 9.73122C3.89482 9.73001 3.90397 9.73134 3.91225 9.73504C6.48982 10.9114 9.28039 10.9114 11.8275 9.73504C11.8357 9.7311 11.845 9.72959 11.8541 9.7307C11.8632 9.7318 11.8719 9.73547 11.879 9.74129C11.9589 9.80722 12.0405 9.87117 12.1236 9.93307C12.1302 9.93804 12.1355 9.94456 12.1391 9.95206C12.1426 9.95956 12.1442 9.96782 12.1438 9.9761C12.1433 9.98437 12.1409 9.99242 12.1366 9.99952C12.1323 10.0066 12.1264 10.0126 12.1193 10.0168C11.7267 10.246 11.3155 10.4416 10.8901 10.6015C10.8834 10.6041 10.8774 10.6079 10.8724 10.6129C10.8674 10.6179 10.8635 10.6239 10.861 10.6305C10.8585 10.6371 10.8574 10.6442 10.8578 10.6512C10.8582 10.6583 10.86 10.6652 10.8633 10.6715C11.0989 11.1264 11.3676 11.5634 11.6672 11.979C11.6733 11.9875 11.6819 11.9939 11.6918 11.9973C11.7017 12.0007 11.7125 12.0008 11.7225 11.9978C13.139 11.5643 14.4712 10.8923 15.6616 10.0106C15.6674 10.0064 15.6723 10.001 15.6758 9.99475C15.6793 9.9885 15.6815 9.98158 15.6821 9.97443C16.0106 6.57845 15.1322 3.62855 13.3535 1.01348ZM5.26316 8.18522C4.48713 8.18522 3.84769 7.47307 3.84769 6.59846C3.84769 5.72385 4.47472 5.01164 5.26316 5.01164C6.05776 5.01164 6.69101 5.73003 6.67861 6.5984C6.67861 7.47306 6.05155 8.18522 5.26316 8.18522ZM10.4966 8.18522C9.72056 8.18522 9.08113 7.47307 9.08113 6.59846C9.08113 5.72385 9.70816 5.01164 10.4966 5.01164C11.2912 5.01164 11.9244 5.73003 11.912 6.5984C11.912 7.47306 11.2912 8.18522 10.4966 8.18522Z" fill="black"/>
</svg>
