<svg width="12" height="13" viewBox="0 0 12 13" fill="none" xmlns="http://www.w3.org/2000/svg">
<path d="M1.44979 3.34146C2.09637 3.34146 2.62053 2.8173 2.62053 2.17073C2.62053 1.52415 2.09637 1 1.44979 1C0.803212 1 0.279053 1.52415 0.279053 2.17073C0.279053 2.8173 0.803212 3.34146 1.44979 3.34146Z" fill="black"/>
<path d="M1.44979 3.34146C2.09637 3.34146 2.62053 2.8173 2.62053 2.17073C2.62053 1.52415 2.09637 1 1.44979 1C0.803212 1 0.279053 1.52415 0.279053 2.17073C0.279053 2.8173 0.803212 3.34146 1.44979 3.34146Z" fill="black" stroke="black" stroke-width="0.5"/>
<path d="M2.62077 5.09741H0.279297V12.4145H2.62077V5.09741Z" fill="black"/>
<path d="M0 12.4145V5.09739C0 5.061 0.00708066 5.026 0.0212471 4.99238C0.0354135 4.95877 0.0555919 4.92909 0.0817681 4.90336C0.107944 4.87764 0.138127 4.85781 0.172328 4.84388C0.206529 4.82996 0.242141 4.823 0.27916 4.823H2.62064C2.65765 4.823 2.69326 4.82996 2.72747 4.84388C2.76167 4.85781 2.79185 4.87764 2.81803 4.90336C2.84421 4.92909 2.86438 4.95877 2.87855 4.99238C2.89271 5.026 2.8998 5.061 2.8998 5.09739V12.4145C2.8998 12.4508 2.89271 12.4858 2.87855 12.5195C2.86438 12.5531 2.84421 12.5827 2.81803 12.6085C2.79185 12.6342 2.76167 12.654 2.72747 12.668C2.69326 12.6819 2.65765 12.6888 2.62064 12.6888H0.27916C0.242141 12.6888 0.206529 12.6819 0.172328 12.668C0.138127 12.654 0.107944 12.6342 0.0817681 12.6085C0.0555919 12.5827 0.0354135 12.5531 0.0212471 12.5195C0.00708066 12.4858 0 12.4508 0 12.4145ZM0.55832 5.37178V12.1401H2.34148V5.37178H0.55832Z" fill="black"/>
<path d="M4.96191 7.87789V12.4145H7.0107V8.31691C7.0107 7.58522 7.44973 6.99984 8.18144 6.99984C8.91314 6.99984 9.35216 7.73155 9.35216 8.31691V12.4145H11.401V7.87789C11.401 6.99984 10.3766 5.09741 8.18144 5.09741C5.98631 5.09741 4.96191 6.99984 4.96191 7.87789Z" fill="black"/>
<path fill-rule="evenodd" clip-rule="evenodd" d="M10.8229 5.97585C10.1264 5.20728 9.24595 4.823 8.18155 4.823C7.11714 4.823 6.23668 5.20728 5.54016 5.97585C4.96863 6.6065 4.68286 7.24051 4.68286 7.87787V12.4145C4.68286 12.4508 4.68994 12.4858 4.70411 12.5195C4.71827 12.5531 4.73845 12.5827 4.76463 12.6085C4.79081 12.6342 4.82099 12.654 4.85519 12.668C4.88939 12.6819 4.925 12.6888 4.96202 12.6888H7.01081C7.04782 12.6888 7.08343 12.6819 7.11764 12.668C7.15184 12.654 7.18203 12.6342 7.2082 12.6085C7.23437 12.5827 7.25455 12.5531 7.26872 12.5195C7.28289 12.4858 7.28997 12.4508 7.28997 12.4145V8.31689C7.28997 8.00608 7.37211 7.75359 7.53641 7.55942C7.6973 7.36928 7.91235 7.27421 8.18155 7.27421C8.43333 7.27421 8.64626 7.38499 8.82036 7.60656C8.98886 7.82102 9.07311 8.0578 9.07311 8.31689V12.4145C9.07311 12.4508 9.0802 12.4858 9.09437 12.5195C9.10854 12.5531 9.1287 12.5827 9.15487 12.6085C9.18106 12.6342 9.21125 12.654 9.24545 12.668C9.27965 12.6819 9.31525 12.6888 9.35227 12.6888H11.4011C11.4381 12.6888 11.4737 12.6819 11.5079 12.668C11.5421 12.654 11.5723 12.6342 11.5984 12.6085C11.6246 12.5827 11.6448 12.5531 11.659 12.5195C11.6731 12.4858 11.6802 12.4508 11.6802 12.4145V7.87787C11.6802 7.24051 11.3945 6.6065 10.8229 5.97585ZM5.95706 6.34087C6.54256 5.69481 7.28406 5.37178 8.18155 5.37178C9.07903 5.37178 9.82054 5.69481 10.406 6.34087C10.8833 6.86749 11.1219 7.37982 11.1219 7.87787V12.1401H9.63143V8.31689C9.63143 7.93297 9.50836 7.58439 9.26224 7.27114C8.97639 6.90733 8.61616 6.72543 8.18155 6.72543C7.73779 6.72543 7.37967 6.88646 7.10716 7.20851C6.85682 7.50437 6.73164 7.87383 6.73165 8.31689V12.1401H5.24118V7.87787C5.24118 7.37982 5.4798 6.86749 5.95706 6.34087Z" fill="black"/>
</svg>
