<svg width="16" height="16" viewBox="0 0 16 16" fill="none" xmlns="http://www.w3.org/2000/svg">
<path fill-rule="evenodd" clip-rule="evenodd" d="M4.66683 1.33398C2.82588 1.33398 1.3335 2.82637 1.3335 4.66732V11.334C1.3335 13.1749 2.82588 14.6673 4.66683 14.6673H11.3335C13.1744 14.6673 14.6668 13.1749 14.6668 11.334V4.66732C14.6668 2.82637 13.1744 1.33398 11.3335 1.33398H4.66683ZM12.0002 4.66732C12.3684 4.66732 12.6668 4.36884 12.6668 4.00065C12.6668 3.63246 12.3684 3.33398 12.0002 3.33398C11.632 3.33398 11.3335 3.63246 11.3335 4.00065C11.3335 4.36884 11.632 4.66732 12.0002 4.66732ZM11.3335 8.00033C11.3335 9.84127 9.84115 11.3337 8.0002 11.3337C6.15925 11.3337 4.66687 9.84127 4.66687 8.00033C4.66687 6.15938 6.15925 4.66699 8.0002 4.66699C9.84115 4.66699 11.3335 6.15938 11.3335 8.00033ZM8.00012 10C9.10469 10 10.0001 9.10457 10.0001 8C10.0001 6.89543 9.10469 6 8.00012 6C6.89555 6 6.00012 6.89543 6.00012 8C6.00012 9.10457 6.89555 10 8.00012 10Z" fill="black"/>
</svg>
