<svg width="14" height="14" viewBox="0 0 14 14" fill="none" xmlns="http://www.w3.org/2000/svg">
<path d="M1.73175 3.0482C2.45915 3.0482 3.04883 2.45853 3.04883 1.73113C3.04883 1.00373 2.45915 0.414062 1.73175 0.414062C1.00435 0.414062 0.414673 1.00373 0.414673 1.73113C0.414673 2.45853 1.00435 3.0482 1.73175 3.0482Z" fill="#BFBFBF"/>
<path d="M1.73175 3.0482C2.45915 3.0482 3.04883 2.45853 3.04883 1.73113C3.04883 1.00373 2.45915 0.414062 1.73175 0.414062C1.00435 0.414062 0.414673 1.00373 0.414673 1.73113C0.414673 2.45853 1.00435 3.0482 1.73175 3.0482Z" fill="#BFBFBF" stroke="#BFBFBF" stroke-width="0.5"/>
<path d="M3.04883 5.02441H0.414673V13.2561H3.04883V5.02441Z" fill="#BFBFBF"/>
<path d="M0.100586 13.2562V5.02451C0.100586 4.98357 0.108552 4.9442 0.124489 4.90638C0.140426 4.86856 0.163127 4.83518 0.192575 4.80623C0.222023 4.77729 0.255979 4.75498 0.294455 4.73932C0.332931 4.72365 0.372995 4.71582 0.414641 4.71582H3.0488C3.09044 4.71582 3.1305 4.72365 3.16899 4.73932C3.20746 4.75498 3.24142 4.77729 3.27087 4.80623C3.30032 4.83518 3.32302 4.86856 3.33895 4.90638C3.35489 4.9442 3.36286 4.98357 3.36286 5.02451V13.2562C3.36286 13.2971 3.35489 13.3365 3.33895 13.3743C3.32302 13.4122 3.30032 13.4455 3.27087 13.4745C3.24142 13.5034 3.20746 13.5257 3.16899 13.5414C3.1305 13.5571 3.09044 13.5649 3.0488 13.5649H0.414641C0.372995 13.5649 0.332931 13.5571 0.294455 13.5414C0.255979 13.5257 0.222023 13.5034 0.192575 13.4745C0.163127 13.4455 0.140426 13.4122 0.124489 13.3743C0.108552 13.3365 0.100586 13.2971 0.100586 13.2562ZM0.728696 5.3332V12.9475H2.73475V5.3332H0.728696Z" fill="#BFBFBF"/>
<path d="M5.68286 8.15245V13.2561H7.98775V8.64635C7.98775 7.82319 8.48165 7.16465 9.30483 7.16465C10.128 7.16465 10.6219 7.98782 10.6219 8.64635V13.2561H12.9268V8.15245C12.9268 7.16465 11.7743 5.02441 9.30483 5.02441C6.83531 5.02441 5.68286 7.16465 5.68286 8.15245Z" fill="#BFBFBF"/>
<path fill-rule="evenodd" clip-rule="evenodd" d="M12.2763 6.01278C11.4928 5.14814 10.5022 4.71582 9.30479 4.71582C8.10734 4.71582 7.11682 5.14814 6.33323 6.01278C5.69026 6.72226 5.36877 7.43552 5.36877 8.15255V13.2562C5.36877 13.2971 5.37674 13.3365 5.39268 13.3743C5.40861 13.4122 5.43132 13.4455 5.46076 13.4745C5.49021 13.5034 5.52417 13.5257 5.56264 13.5414C5.60112 13.5571 5.64118 13.5649 5.68283 13.5649H7.98771C8.02935 13.5649 8.06942 13.5571 8.1079 13.5414C8.14637 13.5257 8.18033 13.5034 8.20978 13.4745C8.23923 13.4455 8.26193 13.4122 8.27787 13.3743C8.2938 13.3365 8.30177 13.2971 8.30177 13.2562V8.64645C8.30177 8.29679 8.39418 8.01274 8.57902 7.7943C8.76002 7.58039 9.00194 7.47343 9.30479 7.47343C9.58806 7.47343 9.8276 7.59806 10.0235 7.84733C10.213 8.0886 10.3078 8.35497 10.3078 8.64645V13.2562C10.3078 13.2971 10.3158 13.3365 10.3317 13.3743C10.3477 13.4122 10.3703 13.4455 10.3998 13.4745C10.4292 13.5034 10.4632 13.5257 10.5017 13.5414C10.5402 13.5571 10.5802 13.5649 10.6219 13.5649H12.9268C12.9684 13.5649 13.0084 13.5571 13.0469 13.5414C13.0854 13.5257 13.1194 13.5034 13.1488 13.4745C13.1783 13.4455 13.2009 13.4122 13.2169 13.3743C13.2328 13.3365 13.2408 13.2971 13.2408 13.2562V8.15255C13.2408 7.43552 12.9193 6.72226 12.2763 6.01278ZM6.80224 6.42342C7.46093 5.69661 8.29512 5.3332 9.30479 5.3332C10.3145 5.3332 11.1487 5.69661 11.8073 6.42342C12.3443 7.01588 12.6127 7.59225 12.6127 8.15255V12.9475H10.9359V8.64645C10.9359 8.21454 10.7975 7.82238 10.5206 7.46998C10.199 7.0607 9.79374 6.85606 9.30479 6.85606C8.80557 6.85606 8.40268 7.03721 8.09611 7.39952C7.81448 7.73236 7.67365 8.148 7.67366 8.64645V12.9475H5.99688V8.15255C5.99688 7.59225 6.26534 7.01588 6.80224 6.42342Z" fill="#BFBFBF"/>
</svg>
