<svg width="17" height="16" viewBox="0 0 17 16" fill="none" xmlns="http://www.w3.org/2000/svg">
<path fill-rule="evenodd" clip-rule="evenodd" d="M5.16671 1.33398C3.32576 1.33398 1.83337 2.82637 1.83337 4.66732V11.334C1.83337 13.1749 3.32576 14.6673 5.16671 14.6673H11.8334C13.6743 14.6673 15.1667 13.1749 15.1667 11.334V4.66732C15.1667 2.82637 13.6743 1.33398 11.8334 1.33398H5.16671ZM12.5 4.66732C12.8682 4.66732 13.1667 4.36884 13.1667 4.00065C13.1667 3.63246 12.8682 3.33398 12.5 3.33398C12.1319 3.33398 11.8334 3.63246 11.8334 4.00065C11.8334 4.36884 12.1319 4.66732 12.5 4.66732ZM11.8334 8.00033C11.8334 9.84127 10.341 11.3337 8.50008 11.3337C6.65913 11.3337 5.16675 9.84127 5.16675 8.00033C5.16675 6.15938 6.65913 4.66699 8.50008 4.66699C10.341 4.66699 11.8334 6.15938 11.8334 8.00033ZM8.5 10C9.60457 10 10.5 9.10457 10.5 8C10.5 6.89543 9.60457 6 8.5 6C7.39543 6 6.5 6.89543 6.5 8C6.5 9.10457 7.39543 10 8.5 10Z" fill="#BFBFBF"/>
</svg>
