<svg width="24" height="24" viewBox="0 0 24 24" fill="none" xmlns="http://www.w3.org/2000/svg">
<path d="M9 17.9998C9 16.3429 10.3431 14.9998 12 14.9998C13.6569 14.9998 15 16.3429 15 17.9998V21.9998H9V17.9998Z" stroke="white" stroke-width="1.5"/>
<path d="M2 7.99979C2 6.89522 2.89543 5.99979 4 5.99979H6.29844C6.75258 5.99979 7.1932 5.84522 7.54783 5.56152L10.7506 2.9993C11.481 2.41495 12.519 2.41495 13.2494 2.9993L16.4522 5.56152C16.8068 5.84522 17.2474 5.99979 17.7016 5.99979H20C21.1046 5.99979 22 6.89522 22 7.99979V19.9998C22 21.1044 21.1046 21.9998 20 21.9998H4C2.89543 21.9998 2 21.1044 2 19.9998V7.99979Z" stroke="white" stroke-width="1.5"/>
<path d="M14 9.99979C14 8.89522 13.1046 7.99979 12 7.99979C10.8954 7.99979 10 8.89522 10 9.99979C10 11.1044 10.8954 11.9998 12 11.9998C13.1046 11.9998 14 11.1044 14 9.99979Z" stroke="white" stroke-width="1.5"/>
</svg>
