<svg width="100" height="36" viewBox="0 0 100 36" fill="none" xmlns="http://www.w3.org/2000/svg">
<path fill-rule="evenodd" clip-rule="evenodd" d="M97.8124 15.93V0H99.9991V15.93H97.8124ZM0.000976562 15.93V0.232084H6.80612V2.26283H2.28441V6.59507H6.03208V8.62582H2.28441V15.93H0.000976562ZM11.0601 16.1014L11.0011 16.1014C10.2466 16.1016 9.73184 16.1018 9.15335 15.7624C8.55991 15.4014 8.42946 15.2078 8.09404 14.576C7.83598 14.0602 7.85742 13.2101 7.8763 12.4616C7.88101 12.2747 7.88557 12.0941 7.88557 11.9266V4.17753H10.0722V11.7332C10.0722 12.2102 10.0855 12.5845 10.2126 13.0506C10.3398 13.5167 10.4245 13.8219 10.6787 14.1507C10.7732 14.2032 10.8549 14.2584 10.9328 14.3111L10.9328 14.3111C11.1422 14.4528 11.3242 14.576 11.6533 14.576C12.0022 14.576 12.1803 14.4524 12.395 14.3035L12.395 14.3035C12.4661 14.2542 12.5412 14.202 12.6279 14.1507C12.6733 14.1022 12.7175 14.0588 12.7599 14.0172C12.954 13.8266 13.1114 13.6721 13.1911 13.2201V11.6365V4.17753H15.3584V15.93H13.2879V14.6475C13.1853 14.8176 13.0681 14.9574 12.8958 15.1632L12.8958 15.1633C12.7983 15.2796 12.6832 15.4171 12.5431 15.5929C12.2768 15.9273 11.8212 16.1014 11.0601 16.1014ZM82.8847 15.1177C83.491 15.7366 84.3425 16.0461 85.4391 16.0461C85.6068 16.0461 85.8003 16.0332 86.0196 16.0074C86.2389 15.9816 86.4389 15.9558 86.6195 15.93V14.054C86.5034 14.0669 86.3808 14.0798 86.2518 14.0927C86.1228 14.1056 86.0067 14.112 85.9035 14.112C85.4907 14.112 85.1552 14.0476 84.8972 13.9186C84.6392 13.7768 84.4521 13.5834 84.336 13.3384C84.2199 13.0806 84.1619 12.7711 84.1619 12.4101V6.15025H86.5421V4.17753H84.1619V1.77932H81.9752V2.59161C81.9752 3.08157 81.8397 3.46838 81.5688 3.75204C81.2979 4.0357 80.9173 4.17753 80.4271 4.17753H80.1368V6.15025H81.9752V12.5068C81.9752 13.6285 82.2784 14.4988 82.8847 15.1177ZM32.6119 20.2172V35.2704H39.8363V33.2397H34.8953V20.2172H32.6119ZM44.3338 35.9151C43.6242 35.9151 43.1985 35.8377 42.6567 35.5927C42.1277 35.3349 41.5279 34.6193 41.2311 34.1809C41.1086 33.981 41.1086 33.3364 41.1086 33.014C41.1086 32.4467 41.2311 31.9374 41.4763 31.4861C41.6924 31.1081 42.0249 30.8455 42.4203 30.5332C42.4969 30.4728 42.5758 30.4104 42.6567 30.3451C43.0815 30.0017 43.4946 29.7609 43.8719 29.541L43.8719 29.541L43.8724 29.5407L43.8726 29.5406L43.8731 29.5403C44.0314 29.448 44.1834 29.3594 44.3273 29.2684C45.3013 28.8236 46.5914 28.3917 46.5914 28.3917V26.2449C46.2713 25.4656 45.9335 25.2779 45.3013 25.2779C44.7208 25.2779 44.2231 25.5124 43.9209 26.0515V27.5342H41.4311C41.4311 26.5672 41.6633 25.3359 42.1019 24.9491C42.5406 24.5494 43.0502 24.2399 43.6307 24.0207C44.2241 23.8015 44.8498 23.692 45.5077 23.692C46.3334 23.692 47.0623 23.8467 47.6944 24.1561C48.3384 24.4651 48.5002 24.7226 48.8473 25.2751L48.849 25.2779C49.0929 25.6434 49.1016 26.0648 49.1172 26.8216V26.8217C49.1247 27.186 49.1338 27.628 49.1716 28.1789V35.5541H46.9139V34.8483C46.8311 34.8921 46.7457 34.9313 46.6525 34.9741L46.6524 34.9741L46.6524 34.9741L46.6522 34.9742C46.4653 35.06 46.2466 35.1604 45.9528 35.3413C45.5445 35.5927 44.9272 35.9151 44.3338 35.9151ZM46.5914 30.113C46.5914 30.113 45.5086 30.3451 44.753 30.9511C44.415 31.2797 44.3185 31.4107 44.1951 31.6943C44.0377 32.0557 44.0113 32.6199 44.0113 33.014C44.0113 33.3364 44.0988 33.5233 44.1951 33.7167C44.395 33.9101 44.6305 33.981 44.9788 33.981C45.5722 33.981 46.2431 33.4846 46.2431 33.4846C46.2431 33.4846 46.5914 33.014 46.5914 32.3693V31.1896V30.113ZM68.9827 6.2287V10.593H63.9404V14.0252C64.9913 15.076 65.8754 14.463 66.1862 14.0252V12.5421H68.9404C68.9545 12.9094 68.9743 13.7455 68.9404 14.1523C68.898 14.6607 67.4573 16.1861 64.9574 16.2709C62.9574 16.3387 61.6665 14.802 61.271 14.0252C61.2569 11.8077 61.2371 7.14394 61.271 6.2287C61.3134 5.08466 62.5845 3.77112 65.5082 3.89824C67.8472 3.99993 68.7991 5.49425 68.9827 6.2287ZM66.1861 9.02528H63.7709V6.44058C63.7709 6.18635 64.1523 5.63551 65.1268 5.63551C65.9065 5.63551 66.1579 6.25697 66.1861 6.5677V9.02528ZM65.3811 27.6266H67.7115V25.8893C67.4856 24.8159 66.3133 23.0504 62.3727 23.8131C58.1409 25.7751 62.4665 29.9725 63.965 31.4265L63.9651 31.4266C64.117 31.574 64.2399 31.6933 64.3218 31.7791C65.6161 33.135 65.593 34.618 63.9828 34.3214C62.6947 34.0841 62.7399 32.7254 62.9235 32.0757H60.7202V34.1519C61.3981 35.1406 63.4489 36.8044 66.2285 35.5502C69.9149 33.3468 65.9743 29.5333 65.0421 28.813C64.1099 28.0927 62.3727 26.5673 63.3472 25.5504C64.0676 24.9148 65.2116 25.2961 65.3811 25.7622C65.5167 26.1351 65.4376 27.1605 65.3811 27.6266ZM38.2433 15.6295C38.7851 15.8745 39.2108 15.9519 39.9204 15.9519C40.5138 15.9519 41.1312 15.6295 41.5394 15.3781C41.8333 15.1971 42.0521 15.0967 42.2391 15.0109C42.3323 14.968 42.4177 14.9289 42.5005 14.8851V15.5908H44.7582V8.21571C44.7204 7.66479 44.7113 7.22276 44.7038 6.85846V6.85838C44.6882 6.10158 44.6795 5.68021 44.4357 5.31465L44.4339 5.31188C44.0868 4.75937 43.925 4.50184 43.281 4.19291C42.6489 3.88346 41.92 3.72874 41.0944 3.72874C40.4364 3.72874 39.8107 3.83833 39.2173 4.05753C38.6368 4.27672 38.1272 4.58616 37.6886 4.98587C37.2499 5.37267 37.0177 6.60401 37.0177 7.57103H39.5076V6.08827C39.8097 5.54924 40.3074 5.31465 40.8879 5.31465C41.5201 5.31465 41.8579 5.50241 42.178 6.28167V8.42846C42.178 8.42846 40.8879 8.86039 39.9139 9.30522C39.7697 9.39645 39.6173 9.48528 39.4585 9.5778C39.0812 9.79768 38.6681 10.0384 38.2433 10.3818C38.1624 10.4472 38.0835 10.5095 38.0069 10.57C37.6115 10.8823 37.279 11.1449 37.0629 11.5229C36.8178 11.9742 36.6952 12.4835 36.6952 13.0508C36.6952 13.3732 36.6952 14.0178 36.8178 14.2177C37.1145 14.6561 37.7144 15.3717 38.2433 15.6295ZM40.3397 10.9878C41.0952 10.3818 42.178 10.1498 42.178 10.1498V11.2264V12.4061C42.178 13.0508 41.8297 13.5214 41.8297 13.5214C41.8297 13.5214 41.1589 14.0178 40.5654 14.0178C40.2171 14.0178 39.9816 13.9469 39.7817 13.7535C39.6854 13.5601 39.5979 13.3732 39.5979 13.0508C39.5979 12.6567 39.6244 12.0925 39.7817 11.7311C39.9052 11.4474 40.0017 11.3165 40.3397 10.9878ZM91.2754 15.9519C90.5658 15.9519 90.1401 15.8745 89.5983 15.6295C89.0693 15.3717 88.4694 14.6561 88.1727 14.2177C88.0502 14.0178 88.0502 13.3732 88.0502 13.0508C88.0502 12.4835 88.1727 11.9742 88.4178 11.5229C88.634 11.1449 88.9665 10.8823 89.3619 10.57C89.4384 10.5096 89.5174 10.4472 89.5983 10.3818C90.0231 10.0384 90.4362 9.79768 90.8134 9.5778C90.9722 9.48528 91.1246 9.39645 91.2689 9.30522C92.2429 8.86039 93.533 8.42846 93.533 8.42846V6.28167C93.2129 5.50241 92.875 5.31465 92.2429 5.31465C91.6624 5.31465 91.1647 5.54924 90.8625 6.08827V7.57103H88.3727C88.3727 6.60401 88.6049 5.37267 89.0435 4.98587C89.4821 4.58616 89.9917 4.27672 90.5723 4.05753C91.1657 3.83833 91.7914 3.72874 92.4493 3.72874C93.275 3.72874 94.0039 3.88346 94.636 4.19291C95.28 4.50183 95.4417 4.75936 95.7889 5.31185L95.7906 5.31465C96.0344 5.68021 96.0431 6.10157 96.0588 6.85835C96.0663 7.22267 96.0754 7.66473 96.1131 8.21571V15.5908H93.8555V14.8851C93.7728 14.9288 93.6876 14.9679 93.5945 15.0106L93.5941 15.0108L93.594 15.0109C93.407 15.0967 93.1883 15.1971 92.8944 15.3781C92.4861 15.6295 91.8688 15.9519 91.2754 15.9519ZM93.533 10.1498C93.533 10.1498 92.4502 10.3818 91.6946 10.9878C91.3566 11.3165 91.2601 11.4474 91.1366 11.7311C90.9793 12.0925 90.9528 12.6567 90.9528 13.0508C90.9528 13.3732 91.0404 13.5601 91.1366 13.7535C91.3366 13.9469 91.5721 14.0178 91.9204 14.0178C92.5138 14.0178 93.1847 13.5214 93.1847 13.5214C93.1847 13.5214 93.533 13.0508 93.533 12.4061V11.2264V10.1498ZM17.543 3.89826V15.9319H20.0597V8.29453C20.0597 7.99824 20.0767 7.6939 20.0916 7.42678L20.0916 7.42673V7.42669V7.42666C20.1032 7.21775 20.1136 7.03161 20.1136 6.8899C20.1136 6.56698 20.2843 6.12321 20.4687 5.99738C20.7783 5.78615 20.9876 5.72091 21.3472 5.72014C21.7092 5.71936 21.9521 5.76694 22.2322 5.99738C22.5334 6.24508 22.6842 6.8899 22.6842 6.8899C22.6842 6.8899 22.7546 7.75325 22.7546 8.29453V15.9319H25.2547V7.70044C25.2547 6.90832 25.111 6.20861 24.8235 5.60132C24.7652 5.47808 24.7163 5.36567 24.6712 5.2619L24.6711 5.26172L24.671 5.26148L24.671 5.26139C24.4939 4.8541 24.3747 4.57995 23.9695 4.30646C23.4609 3.96321 22.9614 3.89823 22.298 3.89823C21.6568 3.89823 20.8037 4.04627 20.4349 4.30648L20.3534 4.36379C20.0005 4.6115 19.6004 4.89234 19.3341 5.28523V3.89826H17.543ZM70.6776 15.9319V3.89826H72.4687V5.28524C72.735 4.89234 73.1351 4.6115 73.488 4.36379L73.5695 4.30648C73.9383 4.04627 74.7914 3.89823 75.4326 3.89823C76.096 3.89823 76.5955 3.96321 77.104 4.30646C77.5093 4.57995 77.6285 4.8541 77.8056 5.26139C77.8508 5.3653 77.8997 5.47788 77.9581 5.60132C78.2456 6.20861 78.3893 6.90832 78.3893 7.70044V15.9319H75.8892V8.29453C75.8892 7.75325 75.8188 6.8899 75.8188 6.8899C75.8188 6.8899 75.668 6.24508 75.3668 5.99738C75.0866 5.76694 74.8438 5.71936 74.4818 5.72014C74.1222 5.72091 73.9129 5.78615 73.6033 5.99738C73.4189 6.12321 73.2482 6.56698 73.2482 6.8899C73.2482 7.03161 73.2378 7.21775 73.2262 7.42666C73.2113 7.6938 73.1943 7.99819 73.1943 8.29453V15.9319H70.6776ZM46.6103 15.8472V3.81351H48.4014V5.20049C48.6677 4.8076 49.0678 4.52675 49.4206 4.27905L49.5022 4.22173C49.8709 3.96153 50.724 3.81349 51.3653 3.81349C52.0287 3.81349 52.5281 3.87847 53.0367 4.22172C53.375 4.45005 53.514 4.67885 53.6537 4.98521C53.9049 4.70056 54.2205 4.47902 54.5053 4.27906L54.5868 4.22174C54.9556 3.96154 55.8087 3.8135 56.45 3.8135C57.1133 3.8135 57.6128 3.87848 58.1214 4.22173C58.5266 4.49521 58.6458 4.76936 58.8229 5.17666C58.8681 5.28057 58.9171 5.39314 58.9755 5.51658C59.2629 6.12388 59.4067 6.82358 59.4067 7.61571V15.8472H56.9066V8.2098C56.9066 7.66852 56.8361 6.80517 56.8361 6.80517C56.8361 6.80517 56.6853 6.16035 56.3842 5.91264C56.104 5.68221 55.8611 5.63463 55.4991 5.6354C55.1395 5.63617 54.9303 5.70141 54.6207 5.91264C54.4386 6.03687 54.2699 6.47092 54.2656 6.79269C54.3032 7.05494 54.322 7.32928 54.322 7.6157V15.8472L54.2116 15.8472H51.695V6.60962C51.6261 6.39907 51.4942 6.07282 51.2995 5.91263C51.0193 5.68219 50.7765 5.63462 50.4144 5.63539C50.0549 5.63616 49.8456 5.7014 49.536 5.91263C49.3516 6.03847 49.1808 6.48223 49.1808 6.80516C49.1808 6.94682 49.1705 7.13286 49.1588 7.34167L49.1588 7.34191C49.1439 7.60906 49.1269 7.91344 49.1269 8.20979V15.8472H46.6103ZM53.9806 24.3216C54.9482 23.6765 56.2481 23.366 57.8389 24.025C58.2415 24.1552 58.644 24.6182 58.8982 25.3809C58.8982 25.9881 58.904 26.7155 58.9103 27.4939L58.9103 27.4994L58.9103 27.5017V27.5017C58.9332 30.361 58.9616 33.9041 58.7287 34.7027C57.5846 35.6059 55.7868 36.2614 53.9806 35.3987C53.6581 34.9654 53.3355 34.9654 53.3355 35.933H51.0777V19.806H53.9806V24.3216ZM56.3983 26.0165V33.6011C56.0757 34.0311 55.0614 34.5447 53.7712 33.7706C53.1261 31.8353 53.4746 26.3131 53.7712 25.7622C55.0847 24.8301 56.3983 26.0165 56.3983 26.0165ZM28.1207 4.55792C29.7115 3.89891 31.0115 4.20943 31.9791 4.85451V0.338977H34.882V16.4659H32.6242C32.6241 15.4983 32.3016 15.4983 31.9791 15.9316C30.1728 16.7943 28.375 16.1389 27.2309 15.2357C26.998 14.437 27.0264 10.8939 27.0493 8.03462C27.0556 7.25333 27.0614 6.52308 27.0614 5.91383C27.3157 5.15113 27.7181 4.68818 28.1207 4.55792ZM29.5613 14.134V6.5494C29.5613 6.5494 30.8748 5.36298 32.1883 6.29517C32.485 6.84601 32.8334 12.3683 32.1883 14.3035C30.8982 15.0776 29.8838 14.5641 29.5613 14.134Z" fill="#D9D9D9" fill-opacity="0.8"/>
</svg>
