<svg xmlns="http://www.w3.org/2000/svg" xmlns:xlink="http://www.w3.org/1999/xlink" viewBox="0 0 380 400" width="380" height="400" preserveAspectRatio="xMidYMid meet" style="width: 100%; height: 100%; transform: translate3d(0px, 0px, 0px); content-visibility: visible;"><defs><clipPath id="__lottie_element_97"><rect width="380" height="400" x="0" y="0"></rect></clipPath><clipPath id="__lottie_element_99"><path d="M0,0 L406,0 L406,373 L0,373z"></path></clipPath></defs><g clip-path="url(#__lottie_element_97)"><g clip-path="url(#__lottie_element_99)" transform="matrix(1,0,0,1,-13,13.5)" opacity="1" style="display: block;"><g transform="matrix(2,0,0,2,63.72900390625,44.902000427246094)" opacity="1" style="display: block;"><g opacity="1" transform="matrix(1,0,0,1,26.059999465942383,87.80500030517578)"><path fill="rgb(174,196,212)" fill-opacity="1" d=" M-25.809999465942383,42.362998962402344 C-25.809999465942383,48.31700134277344 -20.985000610351562,53.143001556396484 -15.032999992370605,53.143001556396484 C-15.032999992370605,53.143001556396484 25.809999465942383,53.143001556396484 25.809999465942383,53.143001556396484 C25.809999465942383,53.143001556396484 104.05999755859375,53.07400131225586 104.05999755859375,53.07400131225586 C104.05999755859375,53.07400131225586 107.58999633789062,51.435001373291016 108.96600341796875,50.10900115966797 C110.28299713134766,48.84000015258789 111.1780014038086,44.99100112915039 111.1780014038086,44.99100112915039 C111.1780014038086,44.99100112915039 111.93499755859375,-53.393001556396484 111.93499755859375,-53.393001556396484 C111.93499755859375,-53.393001556396484 -25.809999465942383,-53.143001556396484 -25.809999465942383,-53.143001556396484 C-25.809999465942383,-53.143001556396484 -25.809999465942383,42.362998962402344 -25.809999465942383,42.362998962402344z"></path></g></g><g transform="matrix(2,0,0,2,63.72999572753906,44.9019775390625)" opacity="1" style="display: block;"><g opacity="1" transform="matrix(1,0,0,1,73.99700164794922,70.5989990234375)"><path fill="rgb(255,255,255)" fill-opacity="1" d=" M-53.516998291015625,59.569000244140625 C-53.516998291015625,65.52300262451172 -58.34299850463867,70.3479995727539 -64.29499816894531,70.3479995727539 C-64.29499816894531,70.3479995727539 53.51499938964844,70.3479995727539 53.51499938964844,70.3479995727539 C59.46799850463867,70.3479995727539 64.29499816894531,65.52300262451172 64.29499816894531,59.569000244140625 C64.29499816894531,59.569000244140625 64.29499816894531,-70.3479995727539 64.29499816894531,-70.3479995727539 C64.29499816894531,-70.3479995727539 -53.327999114990234,-70.16000366210938 -53.327999114990234,-70.16000366210938 C-53.327999114990234,-70.16000366210938 -53.516998291015625,59.569000244140625 -53.516998291015625,59.569000244140625z"></path></g></g><g transform="matrix(2,0,0,2,63.72900390625,44.901004791259766)" opacity="1" style="display: block;"><g opacity="1" transform="matrix(1,0,0,1,58.319000244140625,13.736000061035156)"><path fill="rgb(39,31,98)" fill-opacity="1" d=" M3.4660000801086426,1.1089999675750732 C3.4660000801086426,1.9110000133514404 3.5280001163482666,2.7980000972747803 3.6510000228881836,3.7750000953674316 C3.6510000228881836,3.7750000953674316 -2.7009999752044678,-6.829999923706055 -2.7009999752044678,-6.829999923706055 C-2.7009999752044678,-6.829999923706055 -6.138000011444092,-6.829999923706055 -6.138000011444092,-6.829999923706055 C-6.138000011444092,-6.829999923706055 -6.138000011444092,6.829999923706055 -6.138000011444092,6.829999923706055 C-6.138000011444092,6.829999923706055 -3.4660000801086426,6.829999923706055 -3.4660000801086426,6.829999923706055 C-3.4660000801086426,6.829999923706055 -3.4660000801086426,-1.2269999980926514 -3.4660000801086426,-1.2269999980926514 C-3.4660000801086426,-1.8480000495910645 -3.5260000228881836,-2.6679999828338623 -3.6500000953674316,-3.690999984741211 C-3.6500000953674316,-3.690999984741211 2.6110000610351562,6.829999923706055 2.6110000610351562,6.829999923706055 C2.6110000610351562,6.829999923706055 6.138000011444092,6.829999923706055 6.138000011444092,6.829999923706055 C6.138000011444092,6.829999923706055 6.138000011444092,-6.829999923706055 6.138000011444092,-6.829999923706055 C6.138000011444092,-6.829999923706055 3.4660000801086426,-6.829999923706055 3.4660000801086426,-6.829999923706055 C3.4660000801086426,-6.829999923706055 3.4660000801086426,1.1089999675750732 3.4660000801086426,1.1089999675750732z"></path></g></g><g transform="matrix(2,0,0,2,63.72898864746094,44.901004791259766)" opacity="1" style="display: block;"><g opacity="1" transform="matrix(1,0,0,1,73.11900329589844,13.736000061035156)"><path fill="rgb(39,31,98)" fill-opacity="1" d=" M-2.8480000495910645,1.0219999551773071 C-2.8480000495910645,1.0219999551773071 4.816999912261963,1.0219999551773071 4.816999912261963,1.0219999551773071 C4.816999912261963,1.0219999551773071 4.816999912261963,-1.1890000104904175 4.816999912261963,-1.1890000104904175 C4.816999912261963,-1.1890000104904175 -2.8480000495910645,-1.1890000104904175 -2.8480000495910645,-1.1890000104904175 C-2.8480000495910645,-1.1890000104904175 -2.8480000495910645,-4.620999813079834 -2.8480000495910645,-4.620999813079834 C-2.8480000495910645,-4.620999813079834 5.440000057220459,-4.620999813079834 5.440000057220459,-4.620999813079834 C5.440000057220459,-4.620999813079834 5.440000057220459,-6.830999851226807 5.440000057220459,-6.830999851226807 C5.440000057220459,-6.830999851226807 -5.857999801635742,-6.830999851226807 -5.857999801635742,-6.830999851226807 C-5.857999801635742,-6.830999851226807 -5.857999801635742,6.830999851226807 -5.857999801635742,6.830999851226807 C-5.857999801635742,6.830999851226807 5.857999801635742,6.830999851226807 5.857999801635742,6.830999851226807 C5.857999801635742,6.830999851226807 5.857999801635742,4.619999885559082 5.857999801635742,4.619999885559082 C5.857999801635742,4.619999885559082 -2.8480000495910645,4.619999885559082 -2.8480000495910645,4.619999885559082 C-2.8480000495910645,4.619999885559082 -2.8480000495910645,1.0219999551773071 -2.8480000495910645,1.0219999551773071z"></path></g></g><g transform="matrix(2,0,0,2,63.72898864746094,44.901004791259766)" opacity="1" style="display: block;"><g opacity="1" transform="matrix(1,0,0,1,89.64900207519531,13.736000061035156)"><path fill="rgb(39,31,98)" fill-opacity="1" d=" M5.051000118255615,0.7699999809265137 C5.051000118255615,0.7699999809265137 4.51200008392334,3 4.51200008392334,3 C4.51200008392334,3 4.255000114440918,4.125 4.255000114440918,4.125 C3.9149999618530273,2.2109999656677246 3.674999952316284,0.984000027179718 3.5320000648498535,0.4399999976158142 C3.5320000648498535,0.4399999976158142 1.715999960899353,-6.830999851226807 1.715999960899353,-6.830999851226807 C1.715999960899353,-6.830999851226807 -1.6469999551773071,-6.830999851226807 -1.6469999551773071,-6.830999851226807 C-2.822999954223633,-2.061000108718872 -3.502000093460083,0.7329999804496765 -3.680999994277954,1.5509999990463257 C-3.861999988555908,2.368000030517578 -4.048999786376953,3.2269999980926514 -4.23799991607666,4.125 C-4.23799991607666,4.125 -4.705999851226807,1.9930000305175781 -4.705999851226807,1.9930000305175781 C-4.705999851226807,1.9930000305175781 -6.785999774932861,-6.830999851226807 -6.785999774932861,-6.830999851226807 C-6.785999774932861,-6.830999851226807 -9.833999633789062,-6.830999851226807 -9.833999633789062,-6.830999851226807 C-9.833999633789062,-6.830999851226807 -6.135000228881836,6.830999851226807 -6.135000228881836,6.830999851226807 C-6.135000228881836,6.830999851226807 -2.565000057220459,6.830999851226807 -2.565000057220459,6.830999851226807 C-1.218999981880188,1.3489999771118164 -0.4950000047683716,-1.6130000352859497 -0.3930000066757202,-2.055999994277954 C-0.29100000858306885,-2.5 -0.1589999943971634,-3.1419999599456787 0.004000000189989805,-3.990000009536743 C0.16699999570846558,-2.9760000705718994 0.367000013589859,-2.000999927520752 0.6060000061988831,-1.0720000267028809 C0.6060000061988831,-1.0720000267028809 2.553999900817871,6.830999851226807 2.553999900817871,6.830999851226807 C2.553999900817871,6.830999851226807 6.120999813079834,6.830999851226807 6.120999813079834,6.830999851226807 C6.120999813079834,6.830999851226807 9.833999633789062,-6.830999851226807 9.833999633789062,-6.830999851226807 C9.833999633789062,-6.830999851226807 6.783999919891357,-6.830999851226807 6.783999919891357,-6.830999851226807 C6.783999919891357,-6.830999851226807 5.051000118255615,0.7699999809265137 5.051000118255615,0.7699999809265137z"></path></g></g><g transform="matrix(2,0,0,2,63.72999572753906,44.90199661254883)" opacity="1" style="display: block;"><g opacity="1" transform="matrix(1,0,0,1,106.35900115966797,13.730999946594238)"><path fill="rgb(39,31,98)" fill-opacity="1" d=" M5.184999942779541,0.2669999897480011 C4.836999893188477,-0.04699999839067459 4.36899995803833,-0.32199999690055847 3.7739999294281006,-0.5590000152587891 C3.177000045776367,-0.7940000295639038 2.190000057220459,-1.0499999523162842 0.8109999895095825,-1.3279999494552612 C-0.3529999852180481,-1.565999984741211 -1.125,-1.7649999856948853 -1.503999948501587,-1.9229999780654907 C-1.8860000371932983,-2.0820000171661377 -2.171999931335449,-2.2750000953674316 -2.365999937057495,-2.5 C-2.559000015258789,-2.7269999980926514 -2.6549999713897705,-3.0190000534057617 -2.6549999713897705,-3.375 C-2.6549999713897705,-4.460999965667725 -1.7450000047683716,-5.002999782562256 0.07699999958276749,-5.002999782562256 C0.9330000281333923,-5.002999782562256 1.590000033378601,-4.853000164031982 2.0480000972747803,-4.556000232696533 C2.507999897003174,-4.258999824523926 2.813999891281128,-3.815999984741211 2.9619998931884766,-3.2279999256134033 C2.9619998931884766,-3.2279999256134033 5.879000186920166,-3.6080000400543213 5.879000186920166,-3.6080000400543213 C5.619999885559082,-4.828999996185303 5.045000076293945,-5.703000068664551 4.1519999504089355,-6.234000205993652 C3.25600004196167,-6.763000011444092 1.9179999828338623,-7.03000020980835 0.13699999451637268,-7.03000020980835 C-1.7239999771118164,-7.03000020980835 -3.1449999809265137,-6.701000213623047 -4.120999813079834,-6.044000148773193 C-5.09499979019165,-5.388000011444092 -5.581999778747559,-4.443999767303467 -5.581999778747559,-3.2100000381469727 C-5.581999778747559,-2.7249999046325684 -5.514999866485596,-2.2960000038146973 -5.383999824523926,-1.9210000038146973 C-5.25,-1.5449999570846558 -5.065000057220459,-1.2170000076293945 -4.828000068664551,-0.9399999976158142 C-4.590000152587891,-0.6620000004768372 -4.301000118255615,-0.4230000078678131 -3.9619998931884766,-0.2280000001192093 C-3.621000051498413,-0.029999999329447746 -3.242000102996826,0.14100000262260437 -2.819000005722046,0.2879999876022339 C-2.3980000019073486,0.4320000112056732 -1.6519999504089355,0.6230000257492065 -0.5770000219345093,0.8629999756813049 C0.6669999957084656,1.1009999513626099 1.5080000162124634,1.305999994277954 1.9490000009536743,1.4739999771118164 C2.385999917984009,1.6430000066757202 2.7249999046325684,1.8519999980926514 2.9670000076293945,2.1040000915527344 C3.2079999446868896,2.3559999465942383 3.3289999961853027,2.6760001182556152 3.3289999961853027,3.062999963760376 C3.3289999961853027,4.28000020980835 2.2780001163482666,4.88700008392334 0.17800000309944153,4.88700008392334 C-0.8349999785423279,4.88700008392334 -1.6260000467300415,4.7220001220703125 -2.197000026702881,4.396999835968018 C-2.7679998874664307,4.070000171661377 -3.1530001163482666,3.5460000038146973 -3.3480000495910645,2.822000026702881 C-3.3480000495910645,2.822000026702881 -6.254000186920166,3.2769999504089355 -6.254000186920166,3.2769999504089355 C-5.955999851226807,4.5370001792907715 -5.284999847412109,5.479000091552734 -4.23799991607666,6.098999977111816 C-3.190000057220459,6.718999862670898 -1.74399995803833,7.03000020980835 0.09700000286102295,7.03000020980835 C2.115999937057495,7.03000020980835 3.6470000743865967,6.675000190734863 4.690999984741211,5.9670000076293945 C5.735000133514404,5.258999824523926 6.254000186920166,4.236999988555908 6.254000186920166,2.9000000953674316 C6.254000186920166,2.3310000896453857 6.164000034332275,1.8289999961853027 5.980000019073486,1.3919999599456787 C5.796999931335449,0.9549999833106995 5.5329999923706055,0.5789999961853027 5.184999942779541,0.2669999897480011z"></path></g></g><g transform="matrix(0.58744215965271,0,0,2,121.72156524658203,44.901004791259766)" opacity="1" style="display: block;"><g opacity="1" transform="matrix(1,0,0,1,81.427001953125,24.969999313354492)"><path fill="rgb(39,31,98)" fill-opacity="1" d=" M-40.37200164794922,1.2300000190734863 C-40.37200164794922,1.2300000190734863 40.37200164794922,1.2300000190734863 40.37200164794922,1.2300000190734863 C40.37200164794922,1.2300000190734863 40.37200164794922,-1.2300000190734863 40.37200164794922,-1.2300000190734863 C40.37200164794922,-1.2300000190734863 -40.37200164794922,-1.2300000190734863 -40.37200164794922,-1.2300000190734863 C-40.37200164794922,-1.2300000190734863 -40.37200164794922,1.2300000190734863 -40.37200164794922,1.2300000190734863z"></path></g></g><g transform="matrix(2,0,0,2,63.727996826171875,44.902008056640625)" opacity="1" style="display: block;"><g opacity="1" transform="matrix(1,0,0,1,111.72200012207031,75.4749984741211)"><path fill="rgb(210,224,234)" fill-opacity="1" d=" M-19.878999710083008,24.280000686645508 C-19.878999710083008,24.280000686645508 19.878999710083008,24.280000686645508 19.878999710083008,24.280000686645508 C19.878999710083008,24.280000686645508 19.878999710083008,-24.280000686645508 19.878999710083008,-24.280000686645508 C19.878999710083008,-24.280000686645508 -19.878999710083008,-24.280000686645508 -19.878999710083008,-24.280000686645508 C-19.878999710083008,-24.280000686645508 -19.878999710083008,24.280000686645508 -19.878999710083008,24.280000686645508z"></path></g></g><g transform="matrix(2,0,0,2,63.729000091552734,44.9010009765625)" opacity="1" style="display: block;"><g opacity="1" transform="matrix(1,0,0,1,80.91999816894531,37.9739990234375)"><path fill="rgb(210,224,234)" fill-opacity="1" d=" M-50.68000030517578,6.307000160217285 C-50.68000030517578,6.307000160217285 50.68000030517578,6.307000160217285 50.68000030517578,6.307000160217285 C50.68000030517578,6.307000160217285 50.68000030517578,-6.307000160217285 50.68000030517578,-6.307000160217285 C50.68000030517578,-6.307000160217285 -50.68000030517578,-6.307000160217285 -50.68000030517578,-6.307000160217285 C-50.68000030517578,-6.307000160217285 -50.68000030517578,6.307000160217285 -50.68000030517578,6.307000160217285z"></path></g></g><g transform="matrix(0.729595959186554,0,0,1,33.58661651611328,0)" opacity="1" style="display: block;"><g opacity="1" transform="matrix(2,0,0,2,63.727996826171875,44.9010009765625)"><g opacity="1" transform="matrix(1,0,0,1,57.47100067138672,81.36599731445312)"><path fill="rgb(210,224,234)" fill-opacity="1" d=" M-27.229999542236328,1.8550000190734863 C-27.229999542236328,1.8550000190734863 27.229999542236328,1.8550000190734863 27.229999542236328,1.8550000190734863 C27.229999542236328,1.8550000190734863 27.229999542236328,-1.8550000190734863 27.229999542236328,-1.8550000190734863 C27.229999542236328,-1.8550000190734863 -27.229999542236328,-1.8550000190734863 -27.229999542236328,-1.8550000190734863 C-27.229999542236328,-1.8550000190734863 -27.229999542236328,1.8550000190734863 -27.229999542236328,1.8550000190734863z"></path></g></g><g opacity="1" transform="matrix(2,0,0,2,63.727996826171875,44.9010009765625)"><g opacity="1" transform="matrix(1,0,0,1,57.47100067138672,89.52999877929688)"><path fill="rgb(210,224,234)" fill-opacity="1" d=" M-27.229999542236328,1.8550000190734863 C-27.229999542236328,1.8550000190734863 27.229999542236328,1.8550000190734863 27.229999542236328,1.8550000190734863 C27.229999542236328,1.8550000190734863 27.229999542236328,-1.8550000190734863 27.229999542236328,-1.8550000190734863 C27.229999542236328,-1.8550000190734863 -27.229999542236328,-1.8550000190734863 -27.229999542236328,-1.8550000190734863 C-27.229999542236328,-1.8550000190734863 -27.229999542236328,1.8550000190734863 -27.229999542236328,1.8550000190734863z"></path></g></g><g opacity="1" transform="matrix(2,0,0,2,63.727996826171875,44.9010009765625)"><g opacity="1" transform="matrix(1,0,0,1,57.47100067138672,97.69400024414062)"><path fill="rgb(210,224,234)" fill-opacity="1" d=" M-27.229999542236328,1.8550000190734863 C-27.229999542236328,1.8550000190734863 27.229999542236328,1.8550000190734863 27.229999542236328,1.8550000190734863 C27.229999542236328,1.8550000190734863 27.229999542236328,-1.8550000190734863 27.229999542236328,-1.8550000190734863 C27.229999542236328,-1.8550000190734863 -27.229999542236328,-1.8550000190734863 -27.229999542236328,-1.8550000190734863 C-27.229999542236328,-1.8550000190734863 -27.229999542236328,1.8550000190734863 -27.229999542236328,1.8550000190734863z"></path></g></g></g><g transform="matrix(0,0,0,1,124.20899963378906,0)" opacity="1" style="display: block;"><g opacity="1" transform="matrix(2,0,0,2,63.729000091552734,44.9010009765625)"><g opacity="1" transform="matrix(1,0,0,1,39.9900016784668,52.415000915527344)"><path fill="rgb(210,224,234)" fill-opacity="1" d=" M-9.75,1.8550000190734863 C-9.75,1.8550000190734863 9.75,1.8550000190734863 9.75,1.8550000190734863 C9.75,1.8550000190734863 9.75,-1.8550000190734863 9.75,-1.8550000190734863 C9.75,-1.8550000190734863 -9.75,-1.8550000190734863 -9.75,-1.8550000190734863 C-9.75,-1.8550000190734863 -9.75,1.8550000190734863 -9.75,1.8550000190734863z"></path></g></g><g opacity="1" transform="matrix(2,0,0,2,63.729000091552734,44.90100860595703)"><g opacity="1" transform="matrix(1,0,0,1,39.9900016784668,60.57899856567383)"><path fill="rgb(210,224,234)" fill-opacity="1" d=" M-9.75,1.8550000190734863 C-9.75,1.8550000190734863 9.75,1.8550000190734863 9.75,1.8550000190734863 C9.75,1.8550000190734863 9.75,-1.8550000190734863 9.75,-1.8550000190734863 C9.75,-1.8550000190734863 -9.75,-1.8550000190734863 -9.75,-1.8550000190734863 C-9.75,-1.8550000190734863 -9.75,1.8550000190734863 -9.75,1.8550000190734863z"></path></g></g><g opacity="1" transform="matrix(2,0,0,2,63.729000091552734,44.9010009765625)"><g opacity="1" transform="matrix(1,0,0,1,39.9900016784668,68.74299621582031)"><path fill="rgb(210,224,234)" fill-opacity="1" d=" M-9.75,1.8550000190734863 C-9.75,1.8550000190734863 9.75,1.8550000190734863 9.75,1.8550000190734863 C9.75,1.8550000190734863 9.75,-1.8550000190734863 9.75,-1.8550000190734863 C9.75,-1.8550000190734863 -9.75,-1.8550000190734863 -9.75,-1.8550000190734863 C-9.75,-1.8550000190734863 -9.75,1.8550000190734863 -9.75,1.8550000190734863z"></path></g></g></g><g transform="matrix(0,0,0,1,189.8730010986328,0)" opacity="1" style="display: block;"><g opacity="1" transform="matrix(2,0,0,2,63.727996826171875,44.9010009765625)"><g opacity="1" transform="matrix(1,0,0,1,73.88700103759766,52.415000915527344)"><path fill="rgb(210,224,234)" fill-opacity="1" d=" M-10.8149995803833,1.8550000190734863 C-10.8149995803833,1.8550000190734863 10.8149995803833,1.8550000190734863 10.8149995803833,1.8550000190734863 C10.8149995803833,1.8550000190734863 10.8149995803833,-1.8550000190734863 10.8149995803833,-1.8550000190734863 C10.8149995803833,-1.8550000190734863 -10.8149995803833,-1.8550000190734863 -10.8149995803833,-1.8550000190734863 C-10.8149995803833,-1.8550000190734863 -10.8149995803833,1.8550000190734863 -10.8149995803833,1.8550000190734863z"></path></g></g><g opacity="1" transform="matrix(2,0,0,2,63.727996826171875,44.90100860595703)"><g opacity="1" transform="matrix(1,0,0,1,73.88700103759766,60.57899856567383)"><path fill="rgb(210,224,234)" fill-opacity="1" d=" M-10.8149995803833,1.8550000190734863 C-10.8149995803833,1.8550000190734863 10.8149995803833,1.8550000190734863 10.8149995803833,1.8550000190734863 C10.8149995803833,1.8550000190734863 10.8149995803833,-1.8550000190734863 10.8149995803833,-1.8550000190734863 C10.8149995803833,-1.8550000190734863 -10.8149995803833,-1.8550000190734863 -10.8149995803833,-1.8550000190734863 C-10.8149995803833,-1.8550000190734863 -10.8149995803833,1.8550000190734863 -10.8149995803833,1.8550000190734863z"></path></g></g><g opacity="1" transform="matrix(2,0,0,2,63.727996826171875,44.9010009765625)"><g opacity="1" transform="matrix(1,0,0,1,73.88700103759766,68.74299621582031)"><path fill="rgb(210,224,234)" fill-opacity="1" d=" M-10.8149995803833,1.8550000190734863 C-10.8149995803833,1.8550000190734863 10.8149995803833,1.8550000190734863 10.8149995803833,1.8550000190734863 C10.8149995803833,1.8550000190734863 10.8149995803833,-1.8550000190734863 10.8149995803833,-1.8550000190734863 C10.8149995803833,-1.8550000190734863 -10.8149995803833,-1.8550000190734863 -10.8149995803833,-1.8550000190734863 C-10.8149995803833,-1.8550000190734863 -10.8149995803833,1.8550000190734863 -10.8149995803833,1.8550000190734863z"></path></g></g></g><g transform="matrix(0.2502567172050476,0,0,1,136.193115234375,0)" opacity="1" style="display: block;"><g opacity="1" transform="matrix(2,0,0,2,63.72898864746094,44.90101623535156)"><g opacity="1" transform="matrix(1,0,0,1,94.7030029296875,107.83899688720703)"><path fill="rgb(210,224,234)" fill-opacity="1" d=" M-35.74100112915039,1.8550000190734863 C-35.74100112915039,1.8550000190734863 35.74100112915039,1.8550000190734863 35.74100112915039,1.8550000190734863 C35.74100112915039,1.8550000190734863 35.74100112915039,-1.8550000190734863 35.74100112915039,-1.8550000190734863 C35.74100112915039,-1.8550000190734863 -35.74100112915039,-1.8550000190734863 -35.74100112915039,-1.8550000190734863 C-35.74100112915039,-1.8550000190734863 -35.74100112915039,1.8550000190734863 -35.74100112915039,1.8550000190734863z"></path></g></g><g opacity="1" transform="matrix(2,0,0,2,63.72898864746094,44.90101623535156)"><g opacity="1" transform="matrix(1,0,0,1,94.7030029296875,116.00299835205078)"><path fill="rgb(210,224,234)" fill-opacity="1" d=" M-35.74100112915039,1.8550000190734863 C-35.74100112915039,1.8550000190734863 35.74100112915039,1.8550000190734863 35.74100112915039,1.8550000190734863 C35.74100112915039,1.8550000190734863 35.74100112915039,-1.8550000190734863 35.74100112915039,-1.8550000190734863 C35.74100112915039,-1.8550000190734863 -35.74100112915039,-1.8550000190734863 -35.74100112915039,-1.8550000190734863 C-35.74100112915039,-1.8550000190734863 -35.74100112915039,1.8550000190734863 -35.74100112915039,1.8550000190734863z"></path></g></g><g opacity="1" transform="matrix(2,0,0,2,63.72898864746094,44.90098571777344)"><g opacity="1" transform="matrix(1,0,0,1,94.7030029296875,124.16699981689453)"><path fill="rgb(210,224,234)" fill-opacity="1" d=" M-35.74100112915039,1.8550000190734863 C-35.74100112915039,1.8550000190734863 35.74100112915039,1.8550000190734863 35.74100112915039,1.8550000190734863 C35.74100112915039,1.8550000190734863 35.74100112915039,-1.8550000190734863 35.74100112915039,-1.8550000190734863 C35.74100112915039,-1.8550000190734863 -35.74100112915039,-1.8550000190734863 -35.74100112915039,-1.8550000190734863 C-35.74100112915039,-1.8550000190734863 -35.74100112915039,1.8550000190734863 -35.74100112915039,1.8550000190734863z"></path></g></g><g opacity="1" transform="matrix(2,0,0,2,63.72898864746094,44.902008056640625)"><g opacity="1" transform="matrix(1,0,0,1,94.7030029296875,132.33099365234375)"><path fill="rgb(210,224,234)" fill-opacity="1" d=" M-35.74100112915039,1.8559999465942383 C-35.74100112915039,1.8559999465942383 35.74100112915039,1.8559999465942383 35.74100112915039,1.8559999465942383 C35.74100112915039,1.8559999465942383 35.74100112915039,-1.8559999465942383 35.74100112915039,-1.8559999465942383 C35.74100112915039,-1.8559999465942383 -35.74100112915039,-1.8559999465942383 -35.74100112915039,-1.8559999465942383 C-35.74100112915039,-1.8559999465942383 -35.74100112915039,1.8559999465942383 -35.74100112915039,1.8559999465942383z"></path></g></g></g><g transform="matrix(2,0,0,2,63.727996826171875,44.902008056640625)" opacity="1" style="display: block;"><g opacity="1" transform="matrix(1,0,0,1,41.055999755859375,119.5780029296875)"><path fill="rgb(210,224,234)" fill-opacity="1" d=" M-10.8149995803833,14.609000205993652 C-10.8149995803833,14.609000205993652 10.8149995803833,14.609000205993652 10.8149995803833,14.609000205993652 C10.8149995803833,14.609000205993652 10.8149995803833,-14.609000205993652 10.8149995803833,-14.609000205993652 C10.8149995803833,-14.609000205993652 -10.8149995803833,-14.609000205993652 -10.8149995803833,-14.609000205993652 C-10.8149995803833,-14.609000205993652 -10.8149995803833,14.609000205993652 -10.8149995803833,14.609000205993652z"></path></g></g></g></g></svg>