<svg width="50" height="46" viewBox="0 0 50 46" fill="none" xmlns="http://www.w3.org/2000/svg">
<path fill-rule="evenodd" clip-rule="evenodd" d="M37.3401 5.86575C37.3401 8.59186 35.1301 10.8018 32.404 10.8018C29.6779 10.8018 27.468 8.59186 27.468 5.86575C27.468 3.13964 29.6779 0.929688 32.404 0.929688C35.1301 0.929688 37.3401 3.13964 37.3401 5.86575ZM13.3998 10.3078C11.5077 8.99149 9.45132 5.86579 12.4129 2.41055C17.5958 -1.53834 21.2976 3.89108 20.804 6.35897C20.5572 8.82714 23.2719 10.8014 24.7527 11.295C26.2335 11.7886 28.7017 15.4906 25.9869 18.9459C24.6375 20.0499 23.8979 20.3613 23.3134 20.6074C22.7219 20.8564 22.2892 21.0386 21.5444 21.9075C20.9875 22.7986 20.948 23.6533 20.9068 24.5436C20.8568 25.6259 20.8044 26.7608 19.8168 28.0776C18.336 30.052 13.1531 31.7796 11.1787 26.35C10.437 22.6412 12.0638 21.5797 13.9656 20.339C14.5949 19.9284 15.2543 19.4982 15.8679 18.9459C18.0891 16.7247 17.1019 13.2694 16.3615 12.2822C15.9753 11.7673 15.1135 11.2944 14.3781 10.8907C13.9855 10.6753 13.6289 10.4796 13.3998 10.3078ZM44.2506 19.6867C46.9767 19.6867 49.1866 17.4768 49.1866 14.7507C49.1866 12.0245 46.9767 9.8146 44.2506 9.8146C41.5245 9.8146 39.3145 12.0245 39.3145 14.7507C39.3145 17.4768 41.5245 19.6867 44.2506 19.6867ZM32.404 30.0525C35.1301 30.0525 37.3401 27.8425 37.3401 25.1164C37.3401 22.3903 35.1301 20.1803 32.404 20.1803C29.6779 20.1803 27.468 22.3903 27.468 25.1164C27.468 27.8425 29.6779 30.0525 32.404 30.0525ZM10.6854 14.7507C10.6854 17.4768 8.47541 19.6867 5.74929 19.6867C3.02318 19.6867 0.813232 17.4768 0.813232 14.7507C0.813232 12.0245 3.02318 9.8146 5.74929 9.8146C8.47541 9.8146 10.6854 12.0245 10.6854 14.7507ZM4.51528 42.3161L6.03559 45.0013H7.63487L5.98623 42.2075C6.50616 42.0693 6.89775 41.8192 7.16101 41.4572C7.42426 41.0886 7.55589 40.6773 7.55589 40.2232C7.55589 39.8283 7.46046 39.4729 7.2696 39.157C7.08532 38.8345 6.80561 38.5811 6.43047 38.3969C6.05533 38.206 5.60121 38.1106 5.06812 38.1106H2.48162V45.0013H3.86372V42.3161H4.51528ZM5.01876 41.2795H3.86372V39.2557H5.01876C5.3939 39.2557 5.67361 39.3446 5.85789 39.5223C6.04217 39.6934 6.13431 39.9369 6.13431 40.2528C6.13431 40.5753 6.04217 40.8287 5.85789 41.013C5.67361 41.1907 5.3939 41.2795 5.01876 41.2795ZM10.188 40.9537V39.2261H12.8042V38.1007H8.80595V45.0013H12.8042V43.8759H10.188V42.0495H12.508V40.9537H10.188ZM17.7128 43.9055H15.4423V38.1106H14.0602V45.0013H17.7128V43.9055ZM19.618 45.0013L20.0721 43.6883H22.8166L23.2707 45.0013H24.7318L22.2539 38.1007H20.6447L18.1668 45.0013H19.618ZM21.4443 39.7L22.4414 42.5826H20.4473L21.4443 39.7ZM30.3472 39.2261V38.1106H25.2927V39.2261H27.1289V45.0013H28.511V39.2261H30.3472ZM32.7377 45.0013V38.1106H31.3557V45.0013H32.7377ZM35.5248 44.6163C36.0645 44.919 36.6569 45.0704 37.3018 45.0704C37.9468 45.0704 38.5391 44.919 39.0788 44.6163C39.6185 44.3135 40.043 43.8956 40.3523 43.3625C40.6682 42.8229 40.8262 42.2141 40.8262 41.5362C40.8262 40.8649 40.6682 40.2627 40.3523 39.7296C40.043 39.1899 39.6185 38.7687 39.0788 38.466C38.5457 38.1632 37.9534 38.0118 37.3018 38.0118C36.6569 38.0118 36.0645 38.1632 35.5248 38.466C34.9852 38.7687 34.5574 39.1899 34.2415 39.7296C33.9256 40.2627 33.7676 40.8649 33.7676 41.5362C33.7676 42.2141 33.9256 42.8229 34.2415 43.3625C34.5574 43.8956 34.9852 44.3135 35.5248 44.6163ZM38.3976 43.56C38.0817 43.7443 37.7165 43.8364 37.3018 43.8364C36.8872 43.8364 36.5186 43.7443 36.1962 43.56C35.8802 43.3691 35.6334 43.0993 35.4557 42.7505C35.278 42.4016 35.1892 41.9969 35.1892 41.5362C35.1892 41.0755 35.278 40.674 35.4557 40.3318C35.6334 39.983 35.8802 39.7164 36.1962 39.5321C36.5186 39.3479 36.8872 39.2557 37.3018 39.2557C37.7165 39.2557 38.0817 39.3479 38.3976 39.5321C38.7135 39.7164 38.9604 39.983 39.138 40.3318C39.3157 40.674 39.4046 41.0755 39.4046 41.5362C39.4046 41.9969 39.3157 42.4016 39.138 42.7505C38.9604 43.0993 38.7135 43.3691 38.3976 43.56ZM46.366 45.0013H47.7481V38.1007H46.366V42.8393L43.2365 38.1007H41.8544V45.0013H43.2365V40.2726L46.366 45.0013Z" fill="#ADADAD"/>
</svg>
