<svg width="140" height="36" viewBox="0 0 140 36" fill="none" xmlns="http://www.w3.org/2000/svg">
<path fill-rule="evenodd" clip-rule="evenodd" d="M0.75 5.84729V14.8473L3 17.0973L0 18.5973V26.0973L6 32.0973C12.25 32.5973 26.1 32.8473 31.5 29.8473V20.8473L29.2498 18.5973L30.75 17.0973V9.59729C30.75 9.59729 27.5442 5.37868 24.75 3.59729C15 6.59747 0.75 5.84729 0.75 5.84729ZM9.74996 14.0975V17.8475H20.25C17.25 20.8475 12.7502 23.8475 9 25.3475C9.0001 26.8475 9.00015 29.0975 9 29.8475C14.75 30.0975 21.75 29.8475 29.25 27.5975V23.0975C26.5 24.0975 18 25.3475 17.25 25.3475C20.25 23.8475 26.25 19.3475 28.5 15.5975C28.5001 14.5186 28.5001 13.4398 28.5 12.64C28.5 12.3278 28.5 12.0581 28.5 11.8475C24.7502 14.0975 9.74996 14.0975 9.74996 14.0975Z" fill="#B8B8B9"/>
<path d="M52.1719 15.8857H45.6094V13.4834H62.0303L54.9404 25.5977H61.459V28.0146H44.5254L52.1719 15.8857ZM64.1689 20.6611C64.1689 19.8213 64.3008 19.0547 64.5645 18.3613C64.8281 17.668 65.1895 17.0479 65.6484 16.501C66.1172 15.9443 66.6689 15.4609 67.3037 15.0508C67.9385 14.6406 68.627 14.2988 69.3691 14.0254C70.1113 13.752 70.8877 13.5469 71.6982 13.4102C72.5088 13.2734 73.3291 13.2051 74.1592 13.2051C75.2529 13.2051 76.2441 13.3174 77.1328 13.542C78.0312 13.7568 78.8271 14.0547 79.5205 14.4355C80.2236 14.8164 80.8291 15.2607 81.3369 15.7686C81.8545 16.2764 82.2793 16.8184 82.6113 17.3945C82.9531 17.9609 83.2021 18.5469 83.3584 19.1523C83.5244 19.7578 83.6074 20.3486 83.6074 20.9248L72.5332 22.2578C72.748 23.3418 73.1777 24.1816 73.8223 24.7773C74.4668 25.373 75.3701 25.6709 76.5322 25.6709C77.167 25.6709 77.7578 25.5928 78.3047 25.4365C78.8613 25.2803 79.2959 25.0898 79.6084 24.8652L80.7803 26.916C80.4189 27.1016 80.0234 27.2773 79.5938 27.4434C79.1738 27.6094 78.7051 27.7559 78.1875 27.8828C77.6797 28 77.1133 28.0928 76.4883 28.1611C75.873 28.2393 75.1943 28.2783 74.4521 28.2783C72.6748 28.2783 71.1416 28.0732 69.8525 27.6631C68.5635 27.2432 67.4941 26.6865 66.6445 25.9932C65.8047 25.29 65.1797 24.4795 64.7695 23.5615C64.3691 22.6436 64.1689 21.6768 64.1689 20.6611ZM76.5029 19.4307C76.5029 18.1611 76.3418 17.2383 76.0195 16.6621C75.707 16.0859 75.2383 15.7979 74.6133 15.7979C74.291 15.7979 73.9932 15.876 73.7197 16.0322C73.4463 16.1885 73.2119 16.4326 73.0166 16.7646C72.8213 17.0967 72.665 17.5264 72.5479 18.0537C72.4307 18.5713 72.3672 19.2012 72.3574 19.9434L76.5029 19.4307ZM85.4092 23.4297C85.4092 22.7266 85.5654 22.0723 85.8779 21.4668C86.1904 20.8613 86.6396 20.334 87.2256 19.8848C87.8115 19.4355 88.5195 19.084 89.3496 18.8301C90.1797 18.5664 91.1074 18.4346 92.1328 18.4346C93.1582 18.4346 94.1152 18.5566 95.0039 18.8008C95.9023 19.0352 96.6543 19.3379 97.2598 19.709V19.5918C97.2598 18.9082 97.1816 18.3271 97.0254 17.8486C96.8789 17.3701 96.6494 16.9795 96.3369 16.6768C96.0244 16.374 95.624 16.1543 95.1357 16.0176C94.6572 15.8809 94.0908 15.8125 93.4365 15.8125C92.8408 15.8125 92.2256 15.8662 91.5908 15.9736C90.9561 16.0713 90.3701 16.2178 89.833 16.4131L88.7637 14.4355C89.8281 13.9961 90.9268 13.6836 92.0596 13.498C93.2021 13.3027 94.3789 13.2051 95.5898 13.2051C97.1426 13.2051 98.5146 13.3564 99.7061 13.6592C100.907 13.9521 101.913 14.3965 102.724 14.9922C103.544 15.5781 104.164 16.3203 104.584 17.2188C105.004 18.1074 105.214 19.1523 105.214 20.3535V28H97.7871L97.2891 26.5938C96.9961 26.8184 96.6494 27.0332 96.249 27.2383C95.8486 27.4434 95.4092 27.624 94.9307 27.7803C94.4521 27.9365 93.9443 28.0586 93.4072 28.1465C92.8701 28.2344 92.3086 28.2783 91.7227 28.2783C90.7656 28.2783 89.8965 28.1562 89.1152 27.9121C88.3438 27.6582 87.6846 27.3164 87.1377 26.8867C86.5908 26.457 86.166 25.9492 85.8633 25.3633C85.5605 24.7676 85.4092 24.123 85.4092 23.4297ZM93.6123 23.1221C93.6123 23.6494 93.7832 24.0791 94.125 24.4111C94.4668 24.7334 94.9258 24.8945 95.502 24.8945C95.8145 24.8945 96.1221 24.8457 96.4248 24.748C96.7275 24.6406 97.0059 24.4844 97.2598 24.2793V21.8037C96.7715 21.5107 96.2344 21.3643 95.6484 21.3643C94.9844 21.3643 94.4766 21.5303 94.125 21.8623C93.7832 22.1846 93.6123 22.6045 93.6123 23.1221ZM109.184 3.81543H117.138V28H109.184V3.81543ZM119.247 13.4834H127.567L131.083 22.4775L134.599 13.4834H138.51L132.27 28.293C131.869 29.2305 131.439 30.0605 130.98 30.7832C130.521 31.5059 129.989 32.1406 129.384 32.6875C128.788 33.2441 128.104 33.7275 127.333 34.1377C126.562 34.5479 125.673 34.9141 124.667 35.2363L123.642 32.834C124.423 32.5605 125.102 32.248 125.678 31.8965C126.254 31.5547 126.742 31.1934 127.143 30.8125C127.543 30.4414 127.865 30.0654 128.109 29.6846C128.363 29.3037 128.559 28.9424 128.695 28.6006L128.93 27.9854H125.385L119.247 13.4834Z" fill="#B8B8B9"/>
</svg>
