<svg width="116" height="36" viewBox="0 0 116 36" fill="none" xmlns="http://www.w3.org/2000/svg">
<circle cx="58.3005" cy="18.216" r="14.1166" fill="#222327"/>
<mask id="mask0_2719_10516" style="mask-type:alpha" maskUnits="userSpaceOnUse" x="44" y="4" width="29" height="29">
<circle cx="58.3005" cy="18.216" r="14.1166" fill="#ADADAD"/>
</mask>
<g mask="url(#mask0_2719_10516)">
<path d="M43.3772 19.4261L57.8972 1.67944L74.0305 20.6361C73.896 21.7116 74.1918 23.8627 73.2238 27.0894C72.0138 31.1227 70.4005 33.1394 66.3671 36.366C62.3338 39.5927 59.5105 38.786 47.4105 35.9627C37.7305 33.704 40.8228 24.1316 43.3772 19.4261Z" fill="#ADADAD"/>
</g>
<rect x="57.9167" y="6.53406" width="0.749133" height="3.24624" fill="#222327"/>
<rect x="57.9167" y="12.9434" width="0.749133" height="4.07861" fill="#222327"/>
<rect x="57.9167" y="21.0173" width="0.749133" height="5.66012" fill="#222327"/>
<path fill-rule="evenodd" clip-rule="evenodd" d="M52.2566 0.624277C53.4635 1.83121 55.4612 2.91329 55.919 0C57.6254 2.28902 58.8323 2.08088 59.8728 0C60.4555 2.08088 61.2878 2.62192 63.5768 0.873948C63.5768 3.45429 64.3676 3.70401 66.7815 2.49707C66.7815 3.82886 67.1977 5.82655 69.9445 4.82775C69.3618 6.70054 69.9445 7.90747 72.3583 7.44971C71.2763 9.82192 72.1503 10.8269 74.2312 10.5711C72.6913 12.4023 73.4404 14.1368 75.4797 14.1919C73.5237 15.0659 73.9398 17.563 75.8959 17.9375C73.9398 18.6867 73.815 20.6844 75.4797 21.6416C73.1907 22.0994 72.941 23.3479 74.3977 25.2208C71.5676 24.5549 71.6092 27.5919 72.4 28.3005C69.8196 28.0508 69.5283 29.2993 70.0277 31.1722C67.7803 30.4231 66.9896 31.2554 66.9896 33.4196C65.0751 31.9213 63.8266 33.045 63.6601 35.1676C61.9537 33.1283 60.3722 33.4196 59.7063 36C58.541 33.378 57.4173 33.9607 56.5433 36C55.4612 33.9607 54.0878 33.6277 52.2566 35.1676C52.2566 33.2531 51.882 31.963 49.1352 33.7526C49.1352 30.9641 47.8867 30.3398 45.9306 31.5468C46.6381 29.1745 45.7225 27.982 43.4751 28.5503C44.7653 26.6774 43.8913 24.8462 41.852 25.1792C43.4751 23.7641 42.393 21.8328 40.6034 21.8913C41.852 21.2254 42.1433 18.4369 40.1873 18.0208C41.6855 17.23 42.393 15.1491 40.3953 14.4C42.8508 13.9422 43.1006 12.1941 41.4774 10.6543C43.6832 10.7792 44.5156 9.69707 43.5168 7.49129C45.6393 7.69938 46.5549 7.15834 45.8058 4.74447C47.6786 5.20227 49.4266 5.24389 48.8439 2.28902C51.2162 3.66243 52.4231 3.37111 52.2566 0.624277ZM57.8335 33.6693C66.5679 33.6693 73.6485 26.5887 73.6485 17.8543C73.6485 9.11989 66.5679 2.03927 57.8335 2.03927C49.0991 2.03927 42.0185 9.11989 42.0185 17.8543C42.0185 26.5887 49.0991 33.6693 57.8335 33.6693Z" fill="#ADADAD"/>
<path fill-rule="evenodd" clip-rule="evenodd" d="M84.3861 13.401H86.4254V11.653C86.0925 10.89 85.0021 9.37231 83.304 9.40561C81.1815 9.44723 79.8497 10.9039 79.8497 12.1524V23.223C80.1271 24.0969 81.1232 25.8699 82.8878 25.9698C85.0936 26.0946 86.4254 24.1386 86.4254 23.6808V21.8079H84.3861V23.223C84.289 23.4588 83.9366 23.9388 83.304 23.9721C82.5133 24.0137 81.9306 23.2646 81.9306 22.8068V12.5686C82.0555 12.1802 82.4467 11.4033 83.0127 11.4033C83.7202 11.4033 84.178 11.653 84.2196 12.0276C84.2529 12.3272 84.3445 13.068 84.3861 13.401ZM99.3271 13.401H101.366V11.653C101.034 10.89 99.9431 9.37231 98.2451 9.40561C96.1225 9.44723 94.7907 10.9039 94.7907 12.1524V23.223C95.0682 24.0969 96.0643 25.8699 97.8289 25.9698C100.035 26.0946 101.366 24.1386 101.366 23.6808V21.8079H99.3271V23.223C99.23 23.4588 98.8777 23.9388 98.2451 23.9721C97.4543 24.0137 96.8717 23.2646 96.8717 22.8068V12.5686C96.9965 12.1802 97.3877 11.4033 97.9537 11.4033C98.6612 11.4033 99.119 11.653 99.1607 12.0276C99.194 12.3272 99.2855 13.068 99.3271 13.401ZM89.2555 17.9374L86.5919 10.1548H88.8393L90.7121 15.149L91.6693 10.1548H94.0416L91.6693 17.9374V25.3871H89.2555V17.9374ZM102.906 10.0299V22.6403C102.976 23.4865 103.431 25.2456 104.696 25.512C105.961 25.7783 107.526 25.623 108.15 25.512V23.3062H106.277C105.847 23.3478 104.996 23.1397 105.029 21.9744C105.062 20.8091 105.043 13.5258 105.029 9.98828L102.906 10.0299ZM23.4566 9.8218H28.9503V11.986H25.6208V16.1062H28.0763V18.3952H25.6208V23.3478H28.9503V25.5536H23.4566V9.8218ZM115.184 9.8218H109.69V25.5536H115.184V23.3478H111.854V18.3952H114.31V16.1062H111.854V11.986H115.184V9.8218ZM30.4902 25.4287V9.8218H34.4023C35.7618 10.4461 37.9565 12.9432 35.8589 17.9374C36.5769 21.3642 36.8854 22.9739 37.1457 24.3319L37.1457 24.332L37.1459 24.333C37.2175 24.7064 37.2854 25.0608 37.3572 25.4287H34.7769L33.7364 19.0611H32.6959V25.4287H30.4902ZM32.6126 11.9859V16.8136C33.3617 16.772 34.8683 16.3142 34.9016 14.8159C34.9432 12.9431 34.4854 12.4437 34.0276 12.194C33.6614 11.9942 32.8901 11.9026 32.6126 11.9859ZM3.31327 9.44724H0.816162V25.6785H3.31327V9.44724ZM5.3942 25.5536H7.47512V17.1467L10.43 25.5536H12.3445V9.61371H10.43V18.4368L7.47512 9.61371H5.3942V25.5536ZM16.548 25.5536H14.467V9.61371H16.548L19.5029 18.4368V9.61371H21.4173V25.5536H19.5029L16.548 17.1467V25.5536Z" fill="#ADADAD"/>
</svg>
