<svg width="78" height="36" viewBox="0 0 78 36" fill="none" xmlns="http://www.w3.org/2000/svg">
<path d="M13.816 17.0443L22.9421 13.6055C23.3835 13.4392 23.8046 13.8917 23.6069 14.3199L19.6666 22.8573C19.3933 23.4493 18.5313 23.3828 18.3521 22.7558L17.765 20.7007C17.5776 20.045 17.0848 19.5203 16.4421 19.2923L13.8288 18.3649C13.2112 18.1458 13.2027 17.2754 13.816 17.0443Z" fill="#909092"/>
<path d="M17.9926 0.280823L17.1146 4.12242V4.12242C16.964 4.78096 16.2975 5.1175 15.6416 5.2793C11.0086 6.42231 7.12174 9.98485 5.79883 14.922C5.72644 15.1922 5.66275 15.4627 5.6076 15.7331C5.49714 16.2748 5.11533 16.7299 4.58549 16.8877L1.27291 17.8744C0.588994 18.0781 0.608463 19.0534 1.29996 19.2296L4.09101 19.9411C4.92102 20.1526 5.52569 20.8495 5.73243 21.6807C6.88219 26.3035 10.4424 30.1788 15.3695 31.499C15.5215 31.5397 15.6735 31.5776 15.8255 31.6129C16.3498 31.7343 16.7858 32.1111 16.9394 32.6269L17.7945 35.4976C17.9983 36.1815 18.9735 36.162 19.1497 35.4705L19.8106 32.878C19.9581 32.2993 20.4565 31.884 21.046 31.7878C24.0444 31.2982 26.7972 29.8067 28.8434 27.582C29.4349 26.9389 29.393 25.9381 28.75 25.3466C28.1069 24.7552 27.1061 24.797 26.5146 25.4401C23.9816 28.1941 20.0463 29.4765 16.1885 28.4428C10.6559 26.9603 7.3726 21.2735 8.85505 15.7409C9.87802 11.9232 12.9046 9.17426 16.5016 8.32628C17.751 8.03173 19.461 8.59646 20.1346 7.5037C20.7795 6.45728 20.1479 4.30073 19.7515 3.13236C19.6101 2.71529 19.4689 2.31268 19.3325 1.92345C19.1284 1.34128 18.9348 0.788811 18.7662 0.262902C18.6515 -0.0952091 18.0764 -0.0857745 17.9926 0.280823Z" fill="#909092"/>
<path d="M58.6191 12.0026C58.6488 11.4902 58.8124 11.0775 59.1098 10.7644C59.422 10.4513 59.8606 10.3659 60.4256 10.5082C60.6933 10.5794 60.8865 10.6861 61.0055 10.8285C61.1393 10.9708 61.2285 11.1416 61.2731 11.3408C61.3326 11.5258 61.3623 11.7322 61.3623 11.9599C61.3623 12.1734 61.3623 12.3869 61.3623 12.6003C61.3623 13.0627 61.3623 13.5217 61.3623 13.9821C61.3623 14.1762 61.5201 14.3337 61.7129 14.3567C62.0667 14.399 62.4185 14.4845 62.8155 14.4845C63.6944 14.4845 64.3286 14.4261 64.9085 14.6538C65.5032 14.8816 65.979 15.2018 66.3358 15.6145C66.7076 16.013 66.9752 16.4969 67.1387 17.0662C67.3172 17.6212 67.3989 18.2332 67.3841 21.0115C67.3692 21.8084 67.2354 22.4916 66.9826 23.0609C66.7299 23.6301 66.373 24.0998 65.9121 24.4698C65.4512 24.8399 64.8936 25.1174 64.2394 25.3024C63.6 25.4732 62.8789 25.5586 62.076 25.5586V25.5586C60.2068 25.5586 58.7756 23.8818 58.6511 22.0167C58.6313 21.7208 58.6191 21.4601 58.6191 21.2676C58.6191 20.1575 58.6191 19.0617 58.6191 17.98C58.634 16.8984 58.634 15.8097 58.6191 14.7138C58.6191 14.5715 58.6117 14.422 58.5968 14.2655C58.5968 14.1089 58.5968 13.931 58.5968 13.7318C58.5968 13.5325 58.5968 13.2977 58.5968 13.0273C58.5968 12.7427 58.6042 12.4011 58.6191 12.0026ZM63.3429 23.4492C64.2736 23.3562 64.7747 22.7461 64.8639 21.7586C64.9531 21.4598 64.9902 19.0515 64.9754 18.7527C64.9605 18.4538 64.8936 18.1692 64.7747 17.8987C64.6706 17.6141 64.4996 17.3793 64.2617 17.1943C64.0535 17.0235 63.8454 16.9025 63.6372 16.8313C63.4291 16.746 63.2135 16.6961 62.9904 16.6819C62.7674 16.6534 62.5295 16.6463 62.2767 16.6606V16.6606C61.6932 16.6606 61.2335 17.1419 61.2335 17.7254V21.2676C61.1988 22.6469 61.5851 23.625 63.3429 23.4492Z" fill="#909092"/>
<path d="M40.4036 11.4962C39.7725 11.4962 39.261 12.0078 39.261 12.6388C39.261 13.2698 39.7725 13.7814 40.4036 13.7814H42.1719C42.5602 13.7814 42.875 14.0962 42.875 14.4845V24.1805C42.875 24.3117 42.8947 24.4365 42.9341 24.5546C42.9472 24.6858 42.9932 24.8236 43.0719 24.968C43.1244 25.0861 43.2097 25.2043 43.3278 25.3224C43.446 25.4142 43.6166 25.4733 43.8397 25.4995C44.1941 25.5783 44.5156 25.5455 44.8044 25.4011C44.9881 25.283 45.1128 25.1583 45.1784 25.027L45.2375 24.9089C45.2375 24.8827 45.2638 24.8433 45.3162 24.7908C45.3425 24.7252 45.3622 24.6661 45.3753 24.6136C45.3837 24.5718 45.3894 24.5299 45.3924 24.4881C45.3941 24.4643 45.395 24.4406 45.395 24.4168C45.4081 24.2593 45.4278 24.1215 45.4541 24.0034C45.4672 23.9377 45.4737 23.8852 45.4737 23.8459V23.6884C45.4606 23.6227 45.4541 23.5243 45.4541 23.393V19.0618C45.4672 18.248 45.4737 17.5327 45.4737 16.9159C45.4869 16.299 45.4934 15.7609 45.4934 15.3016C45.4934 15.0365 45.4886 14.7893 45.4792 14.559C45.4623 14.1424 45.7878 13.7814 46.2048 13.7814H47.6105C48.2415 13.7814 48.7531 13.2698 48.7531 12.6388C48.7531 12.0078 48.2415 11.4962 47.6105 11.4962H40.4036Z" fill="#909092"/>
<circle cx="75.6474" cy="12.3751" r="1.58202" fill="#909092"/>
<path d="M73.0107 15.5391C71.6045 16.7695 70.0225 20.1093 70.5498 24.5038" stroke="#909092" stroke-width="2.46092" stroke-linecap="round"/>
<path fill-rule="evenodd" clip-rule="evenodd" d="M50.8286 16.8962C51.2608 16.7597 52.0043 16.6452 52.7145 16.7004C53.4675 16.7588 53.885 16.9795 54.0472 17.2067C54.2196 17.448 54.3539 17.9282 54.4026 18.6389C54.412 18.777 54.4179 18.9162 54.421 19.0551C53.8589 18.8259 53.239 18.7031 52.6203 18.7031C50.6058 18.7031 48.5774 20.0056 48.5774 22.0429C48.5774 24.0802 50.6058 25.5585 52.6203 25.5585C54.6348 25.5585 56.6633 24.0802 56.6633 22.0429C56.6633 21.6436 56.6633 21.4296 56.6633 20.9882C56.6633 20.1093 56.5587 19.2503 56.507 18.4947C56.4531 17.7083 56.2944 16.7237 55.7637 15.9806C55.047 14.9774 53.8239 14.6708 52.8777 14.5973C51.8887 14.5206 50.8744 14.6697 50.1934 14.8848C49.6379 15.0602 49.3298 15.6527 49.5052 16.2081C49.6807 16.7635 50.2731 17.0716 50.8286 16.8962ZM54.3781 21.8671C54.4026 22.5702 53.9437 23.6249 52.6203 23.6249C51.3899 23.6249 50.8625 22.7239 50.8625 22.0429C50.8625 21.3619 51.1399 20.6367 52.6203 20.6367C53.488 20.6367 54.3456 20.9305 54.3781 21.8671Z" fill="#909092"/>
</svg>
