<svg xmlns="http://www.w3.org/2000/svg" xmlns:xlink="http://www.w3.org/1999/xlink" viewBox="0 0 200 200" width="200" height="200" preserveAspectRatio="xMidYMid meet" style="width: 100%; height: 100%; transform: translate3d(0px, 0px, 0px); content-visibility: visible;"><defs><clipPath id="__lottie_element_144"><rect width="200" height="200" x="0" y="0"></rect></clipPath></defs><g clip-path="url(#__lottie_element_144)"><g transform="matrix(0,0,0,0,99.08100128173828,103.51000213623047)" opacity="0.3" style="display: block;"><g opacity="1" transform="matrix(1,0,0,1,0.9860000014305115,-3.572000026702881)"><path fill="rgb(254,218,100)" fill-opacity="1" d=" M0,-49.242000579833984 C27.176660537719727,-49.242000579833984 49.242000579833984,-27.176660537719727 49.242000579833984,0 C49.242000579833984,27.176660537719727 27.176660537719727,49.242000579833984 0,49.242000579833984 C-27.176660537719727,49.242000579833984 -49.242000579833984,27.176660537719727 -49.242000579833984,0 C-49.242000579833984,-27.176660537719727 -27.176660537719727,-49.242000579833984 0,-49.242000579833984z"></path></g></g><g transform="matrix(0,0,0,0,71.5,119.25)" opacity="1" style="display: block;"><g opacity="1" transform="matrix(1,0,0,1,-48.547000885009766,32.952999114990234)"><path fill="rgb(254,218,100)" fill-opacity="1" d=" M0,-3.453000068664551 C1.9057106971740723,-3.453000068664551 3.453000068664551,-1.9057106971740723 3.453000068664551,0 C3.453000068664551,1.9057106971740723 1.9057106971740723,3.453000068664551 0,3.453000068664551 C-1.9057106971740723,3.453000068664551 -3.453000068664551,1.9057106971740723 -3.453000068664551,0 C-3.453000068664551,-1.9057106971740723 -1.9057106971740723,-3.453000068664551 0,-3.453000068664551z"></path></g></g><g transform="matrix(0,0,0,0,95.5,134.75)" opacity="1" style="display: block;"><g opacity="1" transform="matrix(1,0,0,1,-48.547000885009766,32.952999114990234)"><path fill="rgb(254,218,100)" fill-opacity="1" d=" M0,-3.453000068664551 C1.9057106971740723,-3.453000068664551 3.453000068664551,-1.9057106971740723 3.453000068664551,0 C3.453000068664551,1.9057106971740723 1.9057106971740723,3.453000068664551 0,3.453000068664551 C-1.9057106971740723,3.453000068664551 -3.453000068664551,1.9057106971740723 -3.453000068664551,0 C-3.453000068664551,-1.9057106971740723 -1.9057106971740723,-3.453000068664551 0,-3.453000068664551z"></path></g></g><g transform="matrix(0,0,0,0,124.5,121.25)" opacity="1" style="display: block;"><g opacity="1" transform="matrix(1,0,0,1,-48.547000885009766,32.952999114990234)"><path fill="rgb(254,218,100)" fill-opacity="1" d=" M0,-3.453000068664551 C1.9057106971740723,-3.453000068664551 3.453000068664551,-1.9057106971740723 3.453000068664551,0 C3.453000068664551,1.9057106971740723 1.9057106971740723,3.453000068664551 0,3.453000068664551 C-1.9057106971740723,3.453000068664551 -3.453000068664551,1.9057106971740723 -3.453000068664551,0 C-3.453000068664551,-1.9057106971740723 -1.9057106971740723,-3.453000068664551 0,-3.453000068664551z"></path></g></g><g transform="matrix(0,0,0,0,122,70.75)" opacity="1" style="display: block;"><g opacity="1" transform="matrix(1,0,0,1,-48.547000885009766,32.952999114990234)"><path fill="rgb(254,218,100)" fill-opacity="1" d=" M0,-3.453000068664551 C1.9057106971740723,-3.453000068664551 3.453000068664551,-1.9057106971740723 3.453000068664551,0 C3.453000068664551,1.9057106971740723 1.9057106971740723,3.453000068664551 0,3.453000068664551 C-1.9057106971740723,3.453000068664551 -3.453000068664551,1.9057106971740723 -3.453000068664551,0 C-3.453000068664551,-1.9057106971740723 -1.9057106971740723,-3.453000068664551 0,-3.453000068664551z"></path></g></g><g transform="matrix(0,0,0,0,81,69.25)" opacity="1" style="display: block;"><g opacity="1" transform="matrix(1,0,0,1,-48.547000885009766,32.952999114990234)"><path fill="rgb(254,218,100)" fill-opacity="1" d=" M0,-3.453000068664551 C1.9057106971740723,-3.453000068664551 3.453000068664551,-1.9057106971740723 3.453000068664551,0 C3.453000068664551,1.9057106971740723 1.9057106971740723,3.453000068664551 0,3.453000068664551 C-1.9057106971740723,3.453000068664551 -3.453000068664551,1.9057106971740723 -3.453000068664551,0 C-3.453000068664551,-1.9057106971740723 -1.9057106971740723,-3.453000068664551 0,-3.453000068664551z"></path></g></g><g transform="matrix(0,0,0,0,75.5,100.75)" opacity="1" style="display: block;"><g opacity="1" transform="matrix(1,0,0,1,-48.547000885009766,32.952999114990234)"><path fill="rgb(254,218,100)" fill-opacity="1" d=" M0,-3.453000068664551 C1.9057106971740723,-3.453000068664551 3.453000068664551,-1.9057106971740723 3.453000068664551,0 C3.453000068664551,1.9057106971740723 1.9057106971740723,3.453000068664551 0,3.453000068664551 C-1.9057106971740723,3.453000068664551 -3.453000068664551,1.9057106971740723 -3.453000068664551,0 C-3.453000068664551,-1.9057106971740723 -1.9057106971740723,-3.453000068664551 0,-3.453000068664551z"></path></g></g><g transform="matrix(0,0,0,0,114,64.75)" opacity="1" style="display: block;"><g opacity="1" transform="matrix(1,0,0,1,-48.547000885009766,32.952999114990234)"><path fill="rgb(254,218,100)" fill-opacity="1" d=" M0,-3.453000068664551 C1.9057106971740723,-3.453000068664551 3.453000068664551,-1.9057106971740723 3.453000068664551,0 C3.453000068664551,1.9057106971740723 1.9057106971740723,3.453000068664551 0,3.453000068664551 C-1.9057106971740723,3.453000068664551 -3.453000068664551,1.9057106971740723 -3.453000068664551,0 C-3.453000068664551,-1.9057106971740723 -1.9057106971740723,-3.453000068664551 0,-3.453000068664551z"></path></g></g><g transform="matrix(0,0,0,0,123,99.75)" opacity="1" style="display: block;"><g opacity="1" transform="matrix(1,0,0,1,-48.547000885009766,32.952999114990234)"><path fill="rgb(254,218,100)" fill-opacity="1" d=" M0,-3.453000068664551 C1.9057106971740723,-3.453000068664551 3.453000068664551,-1.9057106971740723 3.453000068664551,0 C3.453000068664551,1.9057106971740723 1.9057106971740723,3.453000068664551 0,3.453000068664551 C-1.9057106971740723,3.453000068664551 -3.453000068664551,1.9057106971740723 -3.453000068664551,0 C-3.453000068664551,-1.9057106971740723 -1.9057106971740723,-3.453000068664551 0,-3.453000068664551z"></path></g></g><g transform="matrix(2.261690139770508,0,0,2.261690139770508,53.635353088378906,54.766197204589844)" opacity="1" style="display: block;"><g opacity="1" transform="matrix(1,0,0,1,20.39900016784668,19.531999588012695)"><path fill="rgb(190,189,182)" fill-opacity="1" d=" M20.29800033569336,-4.73799991607666 C20.04199981689453,-5.715000152587891 19.259000778198242,-6.415999889373779 18.20599937438965,-6.611999988555908 C17.885000228881836,-6.671999931335449 17.583999633789062,-6.696000099182129 17.31800079345703,-6.718999862670898 C17.31800079345703,-6.718999862670898 17.14900016784668,-6.734000205993652 17.14900016784668,-6.734000205993652 C16.582000732421875,-6.784999847412109 16.011999130249023,-6.835000038146973 15.444999694824219,-6.883999824523926 C14.5600004196167,-6.961999893188477 13.673999786376953,-7.039999961853027 12.789999961853027,-7.122000217437744 C12.013999938964844,-7.192999839782715 11.23799991607666,-7.267000198364258 10.463000297546387,-7.339000225067139 C9.291999816894531,-7.451000213623047 8.086000442504883,-7.565999984741211 6.888000011444092,-7.671999931335449 C6.659999847412109,-8.208000183105469 6.427999973297119,-8.739999771118164 6.202000141143799,-9.260000228881836 C6.202000141143799,-9.260000228881836 6.099999904632568,-9.489999771118164 6.099999904632568,-9.489999771118164 C5.663000106811523,-10.494000434875488 5.2230000495910645,-11.496999740600586 4.7829999923706055,-12.5 C4.7829999923706055,-12.5 4.256999969482422,-13.699999809265137 4.256999969482422,-13.699999809265137 C4.255000114440918,-13.706999778747559 4.251999855041504,-13.71399974822998 4.250999927520752,-13.720000267028809 C4.214000225067139,-13.845000267028809 4.165999889373779,-14.017000198364258 4.084000110626221,-14.206999778747559 C3.9000000953674316,-14.63700008392334 3.7119998931884766,-15.067000389099121 3.5280001163482666,-15.498000144958496 C3.2290000915527344,-16.18600082397461 2.9200000762939453,-16.89900016784668 2.625999927520752,-17.597999572753906 C2.0869998931884766,-18.881000518798828 1.2089999914169312,-19.531999588012695 0.014999999664723873,-19.531999588012695 C0.014999999664723873,-19.531999588012695 -0.01600000075995922,-19.531999588012695 -0.01600000075995922,-19.531999588012695 C-1.184999942779541,-19.518999099731445 -2.0490000247955322,-18.8799991607666 -2.5840001106262207,-17.628999710083008 C-3.3959999084472656,-15.737000465393066 -4.209000110626221,-13.845999717712402 -5.02400016784668,-11.954000473022461 C-5.635000228881836,-10.532999992370605 -6.247000217437744,-9.111000061035156 -6.857999801635742,-7.689000129699707 C-6.938000202178955,-7.682000160217285 -7.374000072479248,-7.64300012588501 -7.374000072479248,-7.64300012588501 C-7.374000072479248,-7.64300012588501 -8.548999786376953,-7.539999961853027 -8.548999786376953,-7.539999961853027 C-9.61400032043457,-7.445000171661377 -10.677000045776367,-7.3520002365112305 -11.741000175476074,-7.25600004196167 C-13.446000099182129,-7.099999904632568 -15.11400032043457,-6.940999984741211 -16.378000259399414,-6.820000171661377 C-16.652999877929688,-6.794000148773193 -16.926000595092773,-6.763000011444092 -17.201000213623047,-6.732999801635742 C-17.451000213623047,-6.705999851226807 -17.701000213623047,-6.677000045776367 -17.950000762939453,-6.6529998779296875 C-19.027000427246094,-6.547999858856201 -19.881999969482422,-5.88700008392334 -20.23699951171875,-4.881999969482422 C-20.611000061035156,-3.822000026702881 -20.329999923706055,-2.73799991607666 -19.483999252319336,-1.9809999465942383 C-18.822999954223633,-1.3890000581741333 -18.14699935913086,-0.7960000038146973 -17.493999481201172,-0.22100000083446503 C-17.493999481201172,-0.22100000083446503 -17.134000778198242,0.09399999678134918 -17.134000778198242,0.09399999678134918 C-16.645999908447266,0.5230000019073486 -16.158000946044922,0.9520000219345093 -15.670000076293945,1.3830000162124634 C-14.175999641418457,2.6989998817443848 -12.635000228881836,4.057000160217285 -11.100000381469727,5.386000156402588 C-11.656000137329102,7.796000003814697 -12.206999778747559,10.23900032043457 -12.739999771118164,12.605999946594238 C-13.01099967956543,13.8100004196167 -13.281999588012695,15.013999938964844 -13.555999755859375,16.218000411987305 C-13.788000106811523,17.242000579833984 -13.456000328063965,18.219999313354492 -12.647000312805176,18.90399932861328 C-12.157999992370605,19.31399917602539 -11.57699966430664,19.531999588012695 -10.96399974822998,19.531999588012695 C-10.553999900817871,19.531999588012695 -10.151000022888184,19.43400001525879 -9.769000053405762,19.240999221801758 C-9.270000457763672,18.98900032043457 -8.70199966430664,18.690000534057617 -8.156999588012695,18.28700065612793 C-8.086999893188477,18.253999710083008 -8.006999969482422,18.214000701904297 -7.919000148773193,18.16200065612793 C-7.919000148773193,18.16200065612793 -7.078000068664551,17.66200065612793 -7.078000068664551,17.66200065612793 C-4.750999927520752,16.283000946044922 -2.3510000705718994,14.859000205993652 0.017000000923871994,13.446999549865723 C1.8830000162124634,14.567000389099121 3.7739999294281006,15.689000129699707 5.607999801635742,16.77899932861328 C5.607999801635742,16.77899932861328 6.74399995803833,17.45199966430664 6.74399995803833,17.45199966430664 C6.960999965667725,17.582000732421875 7.177999973297119,17.71299934387207 7.396999835968018,17.841999053955078 C8.107000350952148,18.26799964904785 8.842000007629395,18.707000732421875 9.586000442504883,19.124000549316406 C9.807999610900879,19.249000549316406 10.041999816894531,19.344999313354492 10.279999732971191,19.409000396728516 C10.517000198364258,19.472999572753906 10.760000228881836,19.506000518798828 11.00100040435791,19.506000518798828 C12.244000434875488,19.506000518798828 13.27400016784668,18.667999267578125 13.565999984741211,17.422000885009766 C13.708999633789062,16.812999725341797 13.592000007629395,16.30699920654297 13.52299976348877,16.0049991607666 C13.52299976348877,16.0049991607666 13.510000228881836,15.951000213623047 13.510000228881836,15.951000213623047 C13.343999862670898,15.208999633789062 13.180000305175781,14.467000007629395 13.015000343322754,13.725000381469727 C12.434000015258789,11.109999656677246 11.833999633789062,8.406999588012695 11.180999755859375,5.751999855041504 C11.13700008392334,5.572000026702881 11.11299991607666,5.447000026702881 11.100000381469727,5.361999988555908 C11.217000007629395,5.291999816894531 11.326000213623047,5.209000110626221 11.425999641418457,5.113999843597412 C11.425999641418457,5.113999843597412 13.086000442504883,3.6589999198913574 13.086000442504883,3.6589999198913574 C14.380000114440918,2.5260000228881836 15.673999786376953,1.3919999599456787 16.966999053955078,0.257999986410141 C17.42099952697754,-0.14000000059604645 17.87299919128418,-0.5400000214576721 18.326000213623047,-0.9390000104904175 C18.709999084472656,-1.277999997138977 19.0939998626709,-1.6180000305175781 19.479999542236328,-1.9559999704360962 C20.277999877929688,-2.6589999198913574 20.576000213623047,-3.671999931335449 20.29800033569336,-4.73799991607666z M18.354999542236328,-3.234999895095825 C17.517000198364258,-2.499000072479248 16.683000564575195,-1.7569999694824219 15.843999862670898,-1.0219999551773071 C13.986000061035156,0.609000027179718 12.12600040435791,2.23799991607666 10.265000343322754,3.867000102996826 C10.253999710083008,3.875999927520752 10.244999885559082,3.890000104904175 10.232999801635742,3.8970000743865967 C9.248000144958496,4.420000076293945 9.288000106811523,5.179999828338623 9.527999877929688,6.158999919891357 C10.357999801635742,9.532999992370605 11.08899974822998,12.932000160217285 11.850000381469727,16.322999954223633 C11.901000022888184,16.551000595092773 11.96500015258789,16.785999298095703 11.907999992370605,17.03499984741211 C11.748000144958496,17.72100067138672 11.083999633789062,18.013999938964844 10.418999671936035,17.639999389648438 C9.473999977111816,17.108999252319336 8.54699993133545,16.54400062561035 7.613999843597412,15.989999771118164 C5.190000057220459,14.550000190734863 2.765000104904175,13.11299991607666 0.3490000069141388,11.66100025177002 C0.06199999898672104,11.487000465393066 -0.13899999856948853,11.557999610900879 -0.39100000262260437,11.708000183105469 C-3.186000108718872,13.37600040435791 -5.986999988555908,15.03600025177002 -8.788000106811523,16.698999404907227 C-8.864999771118164,16.743999481201172 -8.951000213623047,16.775999069213867 -9.031999588012695,16.81399917602539 C-9.031999588012695,16.81399917602539 -9.031999588012695,16.812999725341797 -9.031999588012695,16.812999725341797 C-9.494999885559082,17.180999755859375 -10.01200008392334,17.457000732421875 -10.53600025177002,17.72100067138672 C-10.88599967956543,17.89900016784668 -11.244000434875488,17.858999252319336 -11.548999786376953,17.601999282836914 C-11.859999656677246,17.339000701904297 -11.989999771118164,17.010000228881836 -11.895000457763672,16.594999313354492 C-11.045000076293945,12.843999862670898 -10.208000183105469,9.09000015258789 -9.343000411987305,5.3420000076293945 C-9.241000175476074,4.89900016784668 -9.345000267028809,4.6529998779296875 -9.682000160217285,4.361000061035156 C-11.803999900817871,2.5280001163482666 -13.904000282287598,0.6679999828338623 -16.010000228881836,-1.184000015258789 C-16.791000366210938,-1.871999979019165 -17.575000762939453,-2.556999921798706 -18.349000930786133,-3.250999927520752 C-18.67099952697754,-3.5390000343322754 -18.777000427246094,-3.9059998989105225 -18.631999969482422,-4.315000057220459 C-18.493999481201172,-4.706999778747559 -18.204999923706055,-4.918000221252441 -17.78700065612793,-4.959000110626221 C-17.261999130249023,-5.007999897003174 -16.739999771118164,-5.076000213623047 -16.215999603271484,-5.125999927520752 C-14.67199993133545,-5.2729997634887695 -13.130000114440918,-5.420000076293945 -11.586000442504883,-5.559999942779541 C-10.133000373840332,-5.692999839782715 -8.678999900817871,-5.817999839782715 -7.223999977111816,-5.946000099182129 C-6.834000110626221,-5.980999946594238 -6.446000099182129,-6.020999908447266 -6.054999828338623,-6.044000148773193 C-5.77400016784668,-6.060999870300293 -5.63700008392334,-6.216000080108643 -5.5320000648498535,-6.461999893188477 C-4.031000137329102,-9.961999893188477 -2.5199999809265137,-13.458000183105469 -1.0210000276565552,-16.958999633789062 C-0.8190000057220459,-17.43000030517578 -0.5820000171661377,-17.823999404907227 0.0010000000474974513,-17.829999923706055 C0.6100000143051147,-17.836999893188477 0.8529999852180481,-17.423999786376953 1.0570000410079956,-16.937999725341797 C1.534999966621399,-15.800999641418457 2.0329999923706055,-14.67199993133545 2.5190000534057617,-13.53600025177002 C2.578000068664551,-13.399999618530273 2.611999988555908,-13.253000259399414 2.6579999923706055,-13.109000205993652 C3.2850000858306885,-11.675999641418457 3.9149999618530273,-10.244000434875488 4.539999961853027,-8.809000015258789 C4.888999938964844,-8.008000373840332 5.242000102996826,-7.208000183105469 5.574999809265137,-6.400000095367432 C5.682000160217285,-6.142000198364258 5.834000110626221,-6.056000232696533 6.113999843597412,-6.0320000648498535 C8.288999557495117,-5.841000080108643 10.460000038146973,-5.627999782562256 12.633000373840332,-5.426000118255615 C14.086000442504883,-5.293000221252441 15.541999816894531,-5.169000148773193 16.996999740600586,-5.038000106811523 C17.29599952697754,-5.011000156402588 17.599000930786133,-4.993000030517578 17.893999099731445,-4.938000202178955 C18.2549991607666,-4.872000217437744 18.552000045776367,-4.679999828338623 18.649999618530273,-4.307000160217285 C18.7549991607666,-3.9049999713897705 18.690000534057617,-3.5290000438690186 18.354999542236328,-3.234999895095825z"></path></g></g><g transform="matrix(0,0,0,0,100,100)" opacity="1" style="display: block;"><g opacity="1" transform="matrix(1,0,0,1,20.399999618530273,19.530000686645508)"><path fill="rgb(254,221,107)" fill-opacity="1" d=" M20.302000045776367,-4.741000175476074 C20.04199981689453,-5.71999979019165 19.26300048828125,-6.421000003814697 18.20199966430664,-6.611000061035156 C17.881999969482422,-6.671000003814697 17.582000732421875,-6.701000213623047 17.322999954223633,-6.71999979019165 C17.322999954223633,-6.71999979019165 17.152999877929688,-6.730000019073486 17.152999877929688,-6.730000019073486 C16.582000732421875,-6.781000137329102 16.01300048828125,-6.830999851226807 15.442999839782715,-6.88100004196167 C14.562999725341797,-6.960999965667725 13.67199993133545,-7.040999889373779 12.791999816894531,-7.120999813079834 C12.012999534606934,-7.190999984741211 11.241999626159668,-7.269999980926514 10.461999893188477,-7.341000080108643 C9.291999816894531,-7.451000213623047 8.081999778747559,-7.571000099182129 6.89300012588501,-7.671000003814697 C6.6620001792907715,-8.211000442504883 6.433000087738037,-8.741000175476074 6.202000141143799,-9.26099967956543 C6.202000141143799,-9.26099967956543 6.103000164031982,-9.491000175476074 6.103000164031982,-9.491000175476074 C5.6620001792907715,-10.491000175476074 5.2230000495910645,-11.50100040435791 4.7820000648498535,-12.50100040435791 C4.7820000648498535,-12.50100040435791 4.263000011444092,-13.701000213623047 4.263000011444092,-13.701000213623047 C4.251999855041504,-13.711000442504883 4.251999855041504,-13.711000442504883 4.251999855041504,-13.720999717712402 C4.211999893188477,-13.840999603271484 4.1620001792907715,-14.020000457763672 4.081999778747559,-14.211000442504883 C3.9030001163482666,-14.640000343322754 3.7119998931884766,-15.071000099182129 3.5320000648498535,-15.50100040435791 C3.2330000400543213,-16.19099998474121 2.921999931335449,-16.900999069213867 2.621999979019165,-17.600000381469727 C2.0920000076293945,-18.881000518798828 1.2120000123977661,-19.5310001373291 0.013000000268220901,-19.5310001373291 C0.013000000268220901,-19.5310001373291 -0.017000000923871994,-19.5310001373291 -0.017000000923871994,-19.5310001373291 C-1.187000036239624,-19.520000457763672 -2.0480000972747803,-18.881000518798828 -2.5880000591278076,-17.631000518798828 C-3.3970000743865967,-15.741000175476074 -4.208000183105469,-13.850000381469727 -5.0269999504089355,-11.951000213623047 C-5.63700008392334,-10.531000137329102 -6.248000144958496,-9.111000061035156 -6.85699987411499,-7.690999984741211 C-6.936999797821045,-7.679999828338623 -7.377999782562256,-7.639999866485596 -7.377999782562256,-7.639999866485596 C-7.377999782562256,-7.639999866485596 -8.54800033569336,-7.540999889373779 -8.54800033569336,-7.540999889373779 C-9.618000030517578,-7.451000213623047 -10.677000045776367,-7.349999904632568 -11.737000465393066,-7.261000156402588 C-13.447999954223633,-7.099999904632568 -15.118000030517578,-6.940999984741211 -16.378000259399414,-6.821000099182129 C-16.658000946044922,-6.790999889373779 -16.927000045776367,-6.761000156402588 -17.197999954223633,-6.730000019073486 C-17.447999954223633,-6.710999965667725 -17.697999954223633,-6.679999828338623 -17.947999954223633,-6.651000022888184 C-19.027000427246094,-6.551000118255615 -19.878000259399414,-5.889999866485596 -20.23699951171875,-4.88100004196167 C-20.60700035095215,-3.821000099182129 -20.327999114990234,-2.740999937057495 -19.48699951171875,-1.9800000190734863 C-18.827999114990234,-1.3899999856948853 -18.14699935913086,-0.8009999990463257 -17.49799919128418,-0.2199999988079071 C-17.49799919128418,-0.2199999988079071 -17.136999130249023,0.08900000154972076 -17.136999130249023,0.08900000154972076 C-17.136999130249023,0.08900000154972076 -15.668000221252441,1.378999948501587 -15.668000221252441,1.378999948501587 C-14.177000045776367,2.6989998817443848 -12.63700008392334,4.059000015258789 -11.097000122070312,5.388999938964844 C-11.657999992370605,7.798999786376953 -12.208000183105469,10.23900032043457 -12.737000465393066,12.609999656677246 C-13.008000373840332,13.809000015258789 -13.277000427246094,15.008999824523926 -13.557000160217285,16.2189998626709 C-13.788000106811523,17.23900032043457 -13.458000183105469,18.2189998626709 -12.647000312805176,18.899999618530273 C-12.157999992370605,19.30900001525879 -11.57800006866455,19.530000686645508 -10.968000411987305,19.530000686645508 C-10.557000160217285,19.530000686645508 -10.147000312805176,19.429000854492188 -9.767000198364258,19.23900032043457 C-9.267000198364258,18.98900032043457 -8.697999954223633,18.690000534057617 -8.157999992370605,18.288999557495117 C-8.088000297546387,18.249000549316406 -8.008000373840332,18.208999633789062 -7.918000221252441,18.159000396728516 C-7.918000221252441,18.159000396728516 -7.078000068664551,17.659000396728516 -7.078000068664551,17.659000396728516 C-4.748000144958496,16.280000686645508 -2.3469998836517334,14.859999656677246 0.023000000044703484,13.449000358581543 C1.8819999694824219,14.569999694824219 3.7730000019073486,15.6899995803833 5.61299991607666,16.780000686645508 C5.61299991607666,16.780000686645508 6.742000102996826,17.448999404907227 6.742000102996826,17.448999404907227 C6.961999893188477,17.57900047302246 7.183000087738037,17.708999633789062 7.39300012588501,17.839000701904297 C8.102999687194824,18.270000457763672 8.842000007629395,18.708999633789062 9.581999778747559,19.118999481201172 C9.812999725341797,19.249000549316406 10.041999816894531,19.339000701904297 10.281999588012695,19.409000396728516 C10.52299976348877,19.4689998626709 10.762999534606934,19.509000778198242 11.001999855041504,19.509000778198242 C12.241999626159668,19.509000778198242 13.27299976348877,18.66900062561035 13.562999725341797,17.41900062561035 C13.711999893188477,16.80900001525879 13.592000007629395,16.30900001525879 13.52299976348877,15.99899959564209 C13.52299976348877,15.99899959564209 13.512999534606934,15.949000358581543 13.512999534606934,15.949000358581543 C13.342000007629395,15.208999633789062 13.182999610900879,14.468999862670898 13.012999534606934,13.718999862670898 C12.432999610900879,11.109999656677246 11.831999778747559,8.409000396728516 11.182999610900879,5.749000072479248 C11.131999969482422,5.570000171661377 11.11299991607666,5.448999881744385 11.102999687194824,5.360000133514404 C11.222999572753906,5.289000034332275 11.322999954223633,5.209000110626221 11.42199993133545,5.110000133514404 C11.42199993133545,5.110000133514404 13.081999778747559,3.6589999198913574 13.081999778747559,3.6589999198913574 C14.381999969482422,2.5299999713897705 15.67199993133545,1.3890000581741333 16.961999893188477,0.2590000033378601 C17.422000885009766,-0.14000000059604645 17.871999740600586,-0.5410000085830688 18.322999954223633,-0.9409999847412109 C18.711999893188477,-1.281000018119812 19.091999053955078,-1.621000051498413 19.482999801635742,-1.9609999656677246 C20.281999588012695,-2.6610000133514404 20.572999954223633,-3.6710000038146973 20.302000045776367,-4.741000175476074z"></path></g><g opacity="1" transform="matrix(1,0,0,1,12.03499984741211,19.5310001373291)"><path fill="rgb(254,202,88)" fill-opacity="1" d=" M12.03499984741211,-15.170000076293945 C11.244999885559082,-14.119999885559082 10.595999717712402,-12.979999542236328 9.914999961853027,-11.859000205993652 C8.586000442504883,-9.65999984741211 7.375999927520752,-7.39900016784668 6.264999866485596,-5.090000152587891 C4.875999927520752,-2.200000047683716 3.6449999809265137,0.7599999904632568 2.555999994277954,3.7799999713897705 C1.3550000190734863,7.110000133514404 0.38600000739097595,10.510000228881836 -0.42500001192092896,13.949999809265137 C-0.8349999785423279,15.710000038146973 -1.1640000343322754,17.479999542236328 -1.444000005722046,19.260000228881836 C-1.815000057220459,19.440000534057617 -2.2039999961853027,19.530000686645508 -2.6050000190734863,19.530000686645508 C-3.2149999141693115,19.530000686645508 -3.7950000762939453,19.309999465942383 -4.283999919891357,18.899999618530273 C-4.434999942779541,18.770000457763672 -4.565000057220459,18.641000747680664 -4.675000190734863,18.489999771118164 C-5.193999767303467,17.860000610351562 -5.385000228881836,17.049999237060547 -5.193999767303467,16.219999313354492 C-4.914000034332275,15.010000228881836 -4.644999980926514,13.8100004196167 -4.374000072479248,12.609999656677246 C-3.8450000286102295,10.239999771118164 -3.2950000762939453,7.800000190734863 -2.734999895095825,5.390999794006348 C-4.275000095367432,4.059999942779541 -5.815000057220459,2.700000047683716 -7.304999828338623,1.3799999952316284 C-7.304999828338623,1.3799999952316284 -8.774999618530273,0.09000000357627869 -8.774999618530273,0.09000000357627869 C-8.774999618530273,0.09000000357627869 -9.135000228881836,-0.2199999988079071 -9.135000228881836,-0.2199999988079071 C-9.784000396728516,-0.800000011920929 -10.46500015258789,-1.3899999856948853 -11.12399959564209,-1.9800000190734863 C-11.545000076293945,-2.3499999046325684 -11.8149995803833,-2.799999952316284 -11.944000244140625,-3.2899999618530273 C-12.085000038146973,-3.799999952316284 -12.0649995803833,-4.340000152587891 -11.87399959564209,-4.880000114440918 C-11.725000381469727,-5.309999942779541 -11.484999656677246,-5.670000076293945 -11.175000190734863,-5.949999809265137 C-10.755000114440918,-6.349999904632568 -10.204000473022461,-6.590000152587891 -9.585000038146973,-6.64900016784668 C-9.335000038146973,-6.679999828338623 -9.085000038146973,-6.710000038146973 -8.835000038146973,-6.730000019073486 C-8.5649995803833,-6.760000228881836 -8.295000076293945,-6.789999961853027 -8.015000343322754,-6.820000171661377 C-6.755000114440918,-6.940000057220459 -5.085000038146973,-7.099999904632568 -3.374000072479248,-7.260000228881836 C-2.315000057220459,-7.349999904632568 -1.2549999952316284,-7.449999809265137 -0.1850000023841858,-7.539999961853027 C-0.1850000023841858,-7.539999961853027 0.9850000143051147,-7.639999866485596 0.9850000143051147,-7.639999866485596 C0.9850000143051147,-7.639999866485596 1.4259999990463257,-7.679999828338623 1.50600004196167,-7.690000057220459 C2.115000009536743,-9.109000205993652 2.7249999046325684,-10.529999732971191 3.3359999656677246,-11.949999809265137 C4.15500020980835,-13.850000381469727 4.966000080108643,-15.739999771118164 5.775000095367432,-17.6299991607666 C6.204999923706055,-18.6200008392334 6.824999809265137,-19.229999542236328 7.65500020980835,-19.43000030517578 C7.864999771118164,-19.5 8.104999542236328,-19.530000686645508 8.345999717712402,-19.530000686645508 C8.345999717712402,-19.530000686645508 8.37600040435791,-19.530000686645508 8.37600040435791,-19.530000686645508 C9.574999809265137,-19.530000686645508 10.454999923706055,-18.8799991607666 10.984999656677246,-17.600000381469727 C11.28499984741211,-16.89900016784668 11.595999717712402,-16.190000534057617 11.895000457763672,-15.5 C11.944999694824219,-15.390000343322754 11.984999656677246,-15.279999732971191 12.03499984741211,-15.170000076293945z"></path></g></g></g></svg>