<svg width="233" height="36" viewBox="0 0 233 36" fill="none" xmlns="http://www.w3.org/2000/svg">
<path d="M9.31116 6.80034L18.1992 1.81055L27.0873 6.80034L23.3839 8.5824L18.1992 5.37468L12.6442 8.5824L9.31116 6.80034Z" fill="#BBBBBB"/>
<path d="M13.2093 31.6347L4.44403 26.4324L4.32128 16.2402L7.71628 18.5563L7.53066 24.6503L13.0862 27.8572L13.2093 31.6347Z" fill="#BBBBBB"/>
<path d="M23.5518 31.2182L32.3171 26.0158L32.4398 15.8237L29.0448 18.1398L29.2304 24.2338L23.675 27.4407L23.5518 31.2182Z" fill="#BBBBBB"/>
<path d="M15.0249 9.85136L18.1992 7.94678L21.3735 9.85136L18.1992 11.5443L15.0249 9.85136Z" fill="#BBBBBB"/>
<path d="M12.8655 24.6573L9.62891 22.8606L9.69118 19.1593L12.7445 21.0618L12.8655 24.6573Z" fill="#BBBBBB"/>
<path d="M9.52283 12.8174L12.6971 11.3361L17.9876 14.2987L23.4898 11.3361L26.2408 12.8174V16.6266L20.9503 19.5893V25.9379L17.9876 28.0541L15.025 25.9379V19.5893L9.52283 16.6266V12.8174Z" fill="#BBBBBB"/>
<path d="M4.44409 10.0669L7.6184 8.16235L10.5811 9.6437L7.19516 11.7599V15.3575L4.44409 13.6645V10.0669Z" fill="#BBBBBB"/>
<path d="M31.9547 10.0669L28.7804 8.16235L25.8177 9.6437L29.2036 11.7599V15.3575L31.9547 13.6645V10.0669Z" fill="#BBBBBB"/>
<path d="M15.0249 32.285V28.6875L17.9876 30.5921L20.7387 28.6875V32.285L17.9876 34.1896L15.0249 32.285Z" fill="#BBBBBB"/>
<path d="M26.8322 19.2675L23.5956 21.0642L23.6579 24.7655L26.7112 22.863L26.8322 19.2675Z" fill="#BBBBBB"/>
<path d="M54.4892 17.432C55.3852 17.592 56.1452 18.064 56.7692 18.848C57.3932 19.632 57.7052 20.52 57.7052 21.512C57.7052 22.36 57.4812 23.128 57.0332 23.816C56.6012 24.488 55.9692 25.024 55.1372 25.424C54.3052 25.808 53.3372 26 52.2332 26H45.5612V9.32H51.9212C53.0572 9.32 54.0332 9.512 54.8492 9.896C55.6652 10.28 56.2812 10.8 56.6972 11.456C57.1132 12.096 57.3212 12.816 57.3212 13.616C57.3212 14.576 57.0652 15.376 56.5532 16.016C56.0412 16.656 55.3532 17.128 54.4892 17.432ZM48.2972 16.328H51.6812C52.5772 16.328 53.2732 16.128 53.7692 15.728C54.2812 15.312 54.5372 14.72 54.5372 13.952C54.5372 13.2 54.2812 12.616 53.7692 12.2C53.2732 11.768 52.5772 11.552 51.6812 11.552H48.2972V16.328ZM51.9932 23.768C52.9212 23.768 53.6492 23.544 54.1772 23.096C54.7052 22.648 54.9692 22.024 54.9692 21.224C54.9692 20.408 54.6892 19.76 54.1292 19.28C53.5692 18.8 52.8252 18.56 51.8972 18.56H48.2972V23.768H51.9932ZM74.3824 26H71.6464L63.4144 13.544V26H60.6784V9.296H63.4144L71.6464 21.728V9.296H74.3824V26ZM86.9033 17.432C87.7993 17.592 88.5593 18.064 89.1833 18.848C89.8073 19.632 90.1193 20.52 90.1193 21.512C90.1193 22.36 89.8953 23.128 89.4473 23.816C89.0153 24.488 88.3833 25.024 87.5513 25.424C86.7193 25.808 85.7513 26 84.6473 26H77.9753V9.32H84.3353C85.4713 9.32 86.4473 9.512 87.2633 9.896C88.0793 10.28 88.6953 10.8 89.1113 11.456C89.5273 12.096 89.7353 12.816 89.7353 13.616C89.7353 14.576 89.4793 15.376 88.9673 16.016C88.4553 16.656 87.7673 17.128 86.9033 17.432ZM80.7113 16.328H84.0953C84.9913 16.328 85.6873 16.128 86.1833 15.728C86.6953 15.312 86.9513 14.72 86.9513 13.952C86.9513 13.2 86.6953 12.616 86.1833 12.2C85.6873 11.768 84.9913 11.552 84.0953 11.552H80.7113V16.328ZM84.4073 23.768C85.3353 23.768 86.0633 23.544 86.5913 23.096C87.1193 22.648 87.3833 22.024 87.3833 21.224C87.3833 20.408 87.1033 19.76 86.5433 19.28C85.9833 18.8 85.2393 18.56 84.3113 18.56H80.7113V23.768H84.4073ZM111.399 14.12C110.967 13.288 110.367 12.664 109.599 12.248C108.831 11.816 107.943 11.6 106.935 11.6C105.831 11.6 104.847 11.848 103.983 12.344C103.119 12.84 102.439 13.544 101.943 14.456C101.463 15.368 101.223 16.424 101.223 17.624C101.223 18.824 101.463 19.888 101.943 20.816C102.439 21.728 103.119 22.432 103.983 22.928C104.847 23.424 105.831 23.672 106.935 23.672C108.423 23.672 109.631 23.256 110.559 22.424C111.487 21.592 112.055 20.464 112.263 19.04H105.999V16.856H115.191V18.992C115.015 20.288 114.551 21.48 113.799 22.568C113.063 23.656 112.095 24.528 110.895 25.184C109.711 25.824 108.391 26.144 106.935 26.144C105.367 26.144 103.935 25.784 102.639 25.064C101.343 24.328 100.311 23.312 99.5429 22.016C98.7909 20.72 98.4149 19.256 98.4149 17.624C98.4149 15.992 98.7909 14.528 99.5429 13.232C100.311 11.936 101.343 10.928 102.639 10.208C103.951 9.472 105.383 9.104 106.935 9.104C108.711 9.104 110.287 9.544 111.663 10.424C113.055 11.288 114.063 12.52 114.687 14.12H111.399ZM126.553 26L122.713 19.328H120.625V26H117.889V9.32H123.649C124.929 9.32 126.009 9.544 126.889 9.992C127.785 10.44 128.449 11.04 128.881 11.792C129.329 12.544 129.553 13.384 129.553 14.312C129.553 15.4 129.233 16.392 128.593 17.288C127.969 18.168 127.001 18.768 125.689 19.088L129.817 26H126.553ZM120.625 17.144H123.649C124.673 17.144 125.441 16.888 125.953 16.376C126.481 15.864 126.745 15.176 126.745 14.312C126.745 13.448 126.489 12.776 125.977 12.296C125.465 11.8 124.689 11.552 123.649 11.552H120.625V17.144ZM135.789 11.528V16.424H141.549V18.656H135.789V23.768H142.269V26H133.053V9.296H142.269V11.528H135.789ZM148.375 11.528V16.424H154.135V18.656H148.375V23.768H154.855V26H145.639V9.296H154.855V11.528H148.375ZM171.929 26H169.193L160.961 13.544V26H158.225V9.296H160.961L169.193 21.728V9.296H171.929V26ZM185.338 9.32V11.552H178.258V16.472H183.778V18.704H178.258V26H175.522V9.32H185.338ZM190.61 9.32V26H187.874V9.32H190.61ZM196.938 11.528V16.424H202.698V18.656H196.938V23.768H203.418V26H194.202V9.296H203.418V11.528H196.938ZM209.524 23.792H215.164V26H206.788V9.32H209.524V23.792ZM222.9 9.32C224.676 9.32 226.228 9.664 227.556 10.352C228.9 11.024 229.932 12 230.652 13.28C231.388 14.544 231.756 16.024 231.756 17.72C231.756 19.416 231.388 20.888 230.652 22.136C229.932 23.384 228.9 24.344 227.556 25.016C226.228 25.672 224.676 26 222.9 26H217.452V9.32H222.9ZM222.9 23.768C224.852 23.768 226.348 23.24 227.388 22.184C228.428 21.128 228.948 19.64 228.948 17.72C228.948 15.784 228.428 14.272 227.388 13.184C226.348 12.096 224.852 11.552 222.9 11.552H220.188V23.768H222.9Z" fill="#ADADAD"/>
</svg>
