<svg width="172" height="36" viewBox="0 0 172 36" fill="none" xmlns="http://www.w3.org/2000/svg">
<path fill-rule="evenodd" clip-rule="evenodd" d="M4.20086 3.91237L10.5197 1.19987C10.7984 1.19987 11.4429 1.00816 12.1246 0.805443C12.7249 0.626893 13.354 0.439798 13.7871 0.367623C15.1433 -0.298173 17.414 0.0902078 18.3798 0.367623C21.1022 1.3179 23.5251 2.26818 26.1297 3.28978C26.6511 3.49426 27.1797 3.7016 27.7195 3.91237C30.1607 3.91237 30.8121 5.33026 30.8327 6.03921L27.5345 7.98112C27.3028 7.32459 27.2162 7.11563 27.0702 6.76318C26.9832 6.55301 26.875 6.29181 26.7023 5.85427C24.2364 6.62487 21.7704 9.92302 19.9827 12.543C18.719 12.6908 17.831 12.1394 16.9187 11.5729C16.1175 11.0755 15.2975 10.5663 14.1878 10.5087C11.9993 10.5087 11.1876 12.1423 10.7972 13.2212C9.9853 13.7282 8.82333 14.2696 7.74101 14.7739C6.98785 15.1249 6.27326 15.4578 5.74205 15.7487C5.50183 15.6311 5.33026 15.5328 5.19544 15.4556L5.19543 15.4556C4.81129 15.2356 4.72563 15.1865 4.20085 15.348C2.99872 15.7179 2.47472 16.9817 3.43026 17.5057C4.1947 17.9249 5.28997 16.7556 5.74205 16.1186C6.38935 15.9028 8.07233 15.3172 9.62585 14.7007C11.5678 13.9301 13.0165 14.7007 13.448 16.1186C13.9412 18.4304 15.1433 20.2182 16.3146 21.2354C16.8435 21.6947 17.7054 21.8837 18.5514 22.0693C19.5791 22.2947 20.5832 22.5149 20.9382 23.2081C21.264 23.8442 20.9786 24.399 20.4076 25.5085L20.4076 25.5086C20.3699 25.5818 20.331 25.6574 20.2909 25.7357C22.0479 25.15 25.3152 23.1465 25.3152 22.2834C25.3152 21.4938 24.696 20.4463 23.8826 19.0699C23.8069 18.9418 23.7295 18.8109 23.6507 18.677C26.918 18.3071 29.425 16.8173 30.5861 15.4097C30.6331 15.5272 30.6227 15.7022 30.5495 16.9387C30.5267 17.3232 30.4979 17.8104 30.4628 18.4304C30.2982 21.3373 28.7186 23.7074 27.9597 24.8461L27.9596 24.8463L27.9595 24.8464L27.9594 24.8465C27.8654 24.9876 27.784 25.1097 27.7195 25.2116C27.2509 25.9514 20.106 32.5786 15.8214 36C11.5745 33.1333 6.95271 28.1089 4.45974 25.3988L4.45967 25.3987C4.05768 24.9617 3.71104 24.5848 3.43026 24.2869C0.50198 21.7594 0.933529 8.4743 1.026 6.03921C1.09998 4.09114 3.1734 3.80962 4.20086 3.91237ZM67.8829 13.9301H80.644L79.596 15.9645H72.1366V23.7629H80.644L79.596 25.9514H67.8829V13.9301ZM52.6868 25.6432V13.7144H65.417V20.958H56.9096V23.6396H66.0335L64.9855 25.6432H52.6868ZM56.9713 15.7796H61.1017V18.9852H56.9713V15.7796ZM82.6476 8.84419H86.8704V17.8756L91.1241 13.8377H96.4875L91.494 19.0777L96.4875 25.9514H91.494L86.8704 19.3859V25.9514H82.401L82.6476 8.84419ZM114.304 8.84419H98.3677V18.2455H109.033V23.7629H98.3677V25.9514H113.656V16.3344H102.776V11.0943H113.656L114.304 8.84419ZM120.499 8.84419H116.246V25.9514H120.499V16.3344H124.506V25.9514H128.914V14.0226H120.499V8.84419ZM130.949 8.84419V12.5122H135.171V8.84419H130.949ZM135.171 14.0226H130.949V25.9514H135.171V14.0226ZM137.052 14.0226V25.9514H149.196L150.183 24.0712H141.244V21.6053H149.628V14.0226H137.052ZM145.313 16.211H141.182V19.4167H145.313V16.211ZM156.347 8.87501H151.97V26.3213H156.347V8.87501ZM158.351 14.2384V26.1364H171.05V9.2449H166.951V14.2384H158.351ZM166.889 16.3344H162.635V24.102H166.889V16.3344ZM36.7817 25.7357V8.50513H50.8682V18.8928H41.0662V25.7357H36.7817ZM41.1277 10.7244H46.4294V16.8276H41.1277V10.7244Z" fill="#D9D9D9" fill-opacity="0.6"/>
</svg>
