<svg width="218" height="52" viewBox="0 0 218 52" fill="none" xmlns="http://www.w3.org/2000/svg">
<path d="M31.9873 37.5573L22.944 41.5002V41.1023C21.2077 41.5363 19.2543 41.7896 17.4457 41.8981C8.90882 41.8257 2.18061 37.3403 2.07209 32.059V30.1056C4.85742 34.157 10.5728 36.9062 17.4457 36.7977C19.7608 36.9062 22.1482 36.5445 24.1377 36.0019L24.9335 34.0485C22.5823 34.772 19.9778 35.2422 17.4457 35.2422C8.90882 35.2422 2.18061 30.7929 2.07209 25.4031V23.8115C4.85742 27.5735 10.5728 30.2865 17.4457 30.1056C20.5566 30.2865 23.559 29.6354 26.1272 28.514L26.5251 26.5607C24.0292 27.8629 20.8098 28.6225 17.4819 28.514C8.94499 28.6225 2.21678 24.1732 2.10826 18.6749V17.0833C4.8936 20.9176 10.609 23.6668 17.4819 23.7753C21.3886 23.6668 25.0782 22.6178 28.1168 21.0262L28.5147 18.6749C25.7655 20.7006 21.7503 22.039 17.4819 22.2199C8.94499 22.039 2.21678 17.5535 2.10826 11.9829C2.18061 6.66541 8.94499 2.21612 17.4819 2.14377C22.5461 2.21612 27.2848 3.9886 30.0701 6.88246L30.3595 7.3527H32.349L32.0596 6.88246C29.2743 3.08428 23.6675 0.588323 17.4819 0.588323C8.00449 0.55215 0.480469 5.72492 0.480469 11.9467V12.3446V32.4207C0.806027 38.4978 8.14918 43.4535 17.4095 43.4535C23.5228 43.4897 29.0573 41.0661 31.9873 37.5573Z" fill="#B8B9BA"/>
<path d="M28.298 51.4117L31.4813 37.883L22.3295 41.862L27.9001 18.4218H17.1929L19.9782 6.88257H54.1619L51.3765 18.4218H40.2352L37.8478 24.7883L50.1828 19.6155L28.298 51.4117ZM33.8687 35.1338L32.2771 43.0919L45.4079 23.2328L34.6645 28.0077L39.4394 16.8664H50.1828L52.1723 8.51036H21.1357L19.1462 16.8664H29.8897L24.7169 39.1129L33.8687 35.1338Z" fill="#B8B8B9"/>
<path d="M76.8428 14.6602C76.8789 15.9263 76.481 16.903 75.6852 17.6264C74.8894 18.3499 73.8042 18.7116 72.3935 18.7116C70.9827 18.7116 69.8252 18.2414 68.957 17.3371C68.0889 16.4327 67.6548 15.239 67.6548 13.7921V11.4408C67.6548 9.9939 68.0889 8.80019 68.9208 7.89586C69.789 6.99153 70.9104 6.52128 72.285 6.52128C73.7319 6.52128 74.8532 6.88301 75.6852 7.5703C76.5172 8.29377 76.9151 9.27043 76.8789 10.5365V10.5727H74.5639C74.5639 9.81303 74.383 9.23427 74.0213 8.87254C73.6595 8.51081 73.0808 8.32994 72.3211 8.32994C71.5977 8.32994 71.0551 8.61932 70.6572 9.1981C70.2593 9.77687 70.0422 10.5003 70.0422 11.4047V13.7921C70.0422 14.6964 70.2593 15.4561 70.6572 16.0348C71.0912 16.6136 71.67 16.903 72.4296 16.903C73.1531 16.903 73.6595 16.7221 74.0213 16.3604C74.383 15.9986 74.5639 15.4199 74.5639 14.6602H76.8428ZM89.9375 13.6836C89.9375 15.1305 89.4672 16.3604 88.5629 17.3009C87.6585 18.2414 86.4648 18.7116 84.9817 18.7116C83.4986 18.7116 82.3411 18.2414 81.4006 17.3009C80.4963 16.3604 80.026 15.1305 80.026 13.6836V11.5494C80.026 10.1024 80.4963 8.90871 81.4006 7.93203C82.3049 6.99153 83.4986 6.48511 84.9456 6.48511C86.4287 6.48511 87.6224 6.95536 88.5267 7.93203C89.4672 8.87254 89.9013 10.1024 89.9013 11.5494V13.6836H89.9375ZM87.55 11.5132C87.55 10.5727 87.333 9.84921 86.8627 9.23427C86.3925 8.6555 85.7775 8.32994 84.9456 8.32994C84.1498 8.32994 83.4986 8.61933 83.0646 9.23427C82.6305 9.81304 82.3773 10.5727 82.3773 11.5132V13.6474C82.3773 14.5879 82.5943 15.3475 83.0646 15.9625C83.4986 16.5412 84.1498 16.8668 84.9456 16.8668C85.7775 16.8668 86.3925 16.5774 86.8627 15.9625C87.333 15.3837 87.55 14.5879 87.55 13.6474V11.5132ZM96.0869 18.5308H93.6995V6.66597H96.0869V18.5308ZM109.797 18.5308H107.409L102.634 10.5365H102.598V18.5308H100.211V6.66597H102.598L107.373 14.6602H107.409V6.66597H109.797V18.5308ZM121.77 8.51081H118.37V18.5308H115.982V8.51081H112.654V6.66597H121.77V8.51081ZM131.609 13.3218H127.196V16.7221H132.441V18.5308H124.845V6.66597H132.441V8.51081H127.232V11.477H131.645V13.3218H131.609ZM138.229 16.7221H143.546V18.5308H135.841V6.66597H138.229V16.7221ZM153.675 13.3218H149.261V16.7221H154.507V18.5308H146.91V6.66597H154.507V8.51081H149.298V11.477H153.711V13.3218H153.675ZM167.022 16.9392C166.661 17.4094 166.118 17.8435 165.359 18.2052C164.635 18.5669 163.695 18.7478 162.537 18.7478C161.09 18.7478 159.933 18.3137 159.028 17.4094C158.124 16.5051 157.654 15.3475 157.654 13.9006V11.4047C157.654 9.95773 158.088 8.80019 158.992 7.89586C159.86 6.99153 161.018 6.52128 162.392 6.52128C163.839 6.52128 164.961 6.88301 165.72 7.5703C166.48 8.25759 166.878 9.16192 166.842 10.3195V10.3556H164.599C164.599 9.74069 164.418 9.23427 164.056 8.87254C163.695 8.51081 163.152 8.32994 162.465 8.32994C161.741 8.32994 161.162 8.61932 160.692 9.16192C160.258 9.74069 160.041 10.4642 160.041 11.3323V13.8283C160.041 14.7326 160.258 15.4561 160.728 16.0348C161.199 16.6136 161.814 16.8668 162.573 16.8668C163.152 16.8668 163.586 16.7945 163.912 16.6859C164.237 16.5774 164.49 16.4327 164.671 16.2519V13.9368H162.392V12.2728H167.059V16.9392H167.022ZM173.172 13.7921V18.5308H170.784V6.66597H174.908C176.247 6.66597 177.332 6.99153 178.091 7.60648C178.851 8.22142 179.249 9.08957 179.249 10.1748C179.249 10.7897 179.104 11.2961 178.779 11.7664C178.453 12.2005 177.983 12.5622 177.368 12.8516C178.055 13.0686 178.562 13.3942 178.887 13.9006C179.177 14.3709 179.358 14.9858 179.358 15.7093V16.5774C179.358 16.903 179.394 17.2647 179.502 17.6264C179.575 17.9882 179.755 18.2414 179.972 18.4223V18.6031H177.513C177.296 18.4223 177.151 18.1329 177.079 17.735C177.006 17.3371 176.97 16.9392 176.97 16.5774V15.7454C176.97 15.1667 176.825 14.6964 176.5 14.3709C176.174 14.0453 175.704 13.8644 175.125 13.8644H173.172V13.7921ZM173.172 11.9834H174.872C175.523 11.9834 176.03 11.8387 176.355 11.5494C176.681 11.26 176.862 10.8621 176.862 10.2833C176.862 9.74069 176.681 9.30661 176.355 8.98105C176.03 8.6555 175.559 8.51081 174.908 8.51081H173.172V11.9834ZM189.341 15.9986H185.507L184.711 18.5669H182.215L186.23 6.70215H188.654L192.633 18.5669H190.137L189.341 15.9986ZM186.086 14.1176H188.763L187.46 9.92156H187.424L186.086 14.1176ZM197.914 14.2262V18.5308H195.527V6.66597H200.085C201.459 6.66597 202.508 7.0277 203.304 7.71499C204.1 8.40228 204.462 9.34279 204.462 10.4642C204.462 11.5855 204.064 12.526 203.304 13.2133C202.508 13.9006 201.459 14.2623 200.085 14.2623H197.914V14.2262ZM197.914 12.4175H200.085C200.736 12.4175 201.242 12.2366 201.604 11.8749C201.93 11.5132 202.11 11.0429 202.11 10.5003C202.11 9.92156 201.93 9.4513 201.604 9.08957C201.278 8.72784 200.772 8.54697 200.085 8.54697H197.914V12.4175ZM217.52 18.5308H215.133V13.6112H210.286V18.5308H207.898V6.66597H210.286V11.7664H215.133V6.66597H217.52V18.5308Z" fill="#B7B7B9"/>
<path d="M71.9954 37.9195H70.5123V30.1061H67.8354V28.8401H74.6722V30.1061H71.9954V37.9195ZM81.943 37.9195H80.4599V33.6873C80.4599 33.1447 80.3514 32.7468 80.1343 32.4936C79.9173 32.2404 79.5917 32.0957 79.1215 32.0957C78.5065 32.0957 78.0725 32.2765 77.7831 32.6383C77.4937 33 77.349 33.6149 77.349 34.4831V37.8834H75.9021V28.2251H77.349V30.6849C77.349 31.0828 77.3128 31.4807 77.2766 31.951H77.3852C77.566 31.6254 77.8554 31.3722 78.2171 31.1913C78.5789 31.0105 78.9768 30.902 79.447 30.902C81.111 30.902 81.943 31.7339 81.943 33.4341V37.9195ZM86.9711 38.0281C85.8859 38.0281 85.0539 37.7025 84.4751 37.0876C83.8602 36.4726 83.5708 35.6045 83.5708 34.5193C83.5708 33.3979 83.8602 32.5297 84.4028 31.8786C84.9454 31.2275 85.7412 30.902 86.7178 30.902C87.6222 30.902 88.3456 31.1913 88.8521 31.7339C89.3947 32.2765 89.6479 33.0362 89.6479 34.0128V34.8087H85.0539C85.0901 35.4598 85.2709 36.0024 85.5965 36.3279C85.922 36.6897 86.4285 36.8705 87.0434 36.8705C87.4413 36.8705 87.8392 36.8343 88.1648 36.762C88.5265 36.6897 88.8882 36.545 89.2861 36.3641V37.5578C88.9244 37.7387 88.5627 37.8472 88.2009 37.9195C87.8754 37.9919 87.4413 38.0281 86.9711 38.0281ZM86.7178 32.0233C86.2476 32.0233 85.8859 32.168 85.5965 32.4574C85.3071 32.7468 85.1624 33.1809 85.0901 33.7596H88.2009C88.2009 33.1809 88.0563 32.7468 87.803 32.4574C87.5498 32.168 87.1881 32.0233 86.7178 32.0233ZM98.04 32.1318H96.3761V37.9195H94.893V32.1318H93.7716V31.4446L94.893 31.0105V30.5764C94.893 29.7806 95.0738 29.1656 95.4717 28.7677C95.8697 28.3698 96.4484 28.189 97.2081 28.189C97.7145 28.189 98.2209 28.2613 98.7273 28.4422L98.3294 29.5635C97.9677 29.455 97.6421 29.3827 97.2804 29.3827C96.9548 29.3827 96.7016 29.4912 96.5569 29.6721C96.4123 29.8891 96.3399 30.1785 96.3399 30.5764V31.0105H98.0039V32.1318H98.04ZM104.081 37.9195L103.864 37.0152H103.792C103.575 37.3408 103.285 37.594 102.923 37.7749C102.562 37.9557 102.128 38.0642 101.657 38.0642C100.825 38.0642 100.21 37.8472 99.7764 37.4493C99.3423 37.0514 99.1614 36.4003 99.1614 35.5683V31.0466H100.645V35.2789C100.645 35.8215 100.753 36.1832 100.97 36.4726C101.187 36.7258 101.513 36.8705 101.983 36.8705C102.598 36.8705 103.032 36.6897 103.321 36.3279C103.611 35.9662 103.755 35.3513 103.755 34.4831V31.0466H105.239V37.9195H104.081ZM109.869 36.8344C110.23 36.8344 110.592 36.762 110.954 36.6535V37.7387C110.809 37.811 110.592 37.8834 110.339 37.9195C110.086 37.9557 109.833 37.9919 109.543 37.9919C108.169 37.9919 107.481 37.2684 107.481 35.8215V32.1318H106.541V31.4807L107.554 30.9381L108.06 29.4912H108.964V31.0105H110.918V32.1318H108.964V35.8215C108.964 36.1832 109.037 36.4364 109.218 36.6173C109.326 36.762 109.579 36.8344 109.869 36.8344ZM117.139 37.9195L116.922 37.0152H116.85C116.633 37.3408 116.344 37.594 115.982 37.7749C115.62 37.9557 115.186 38.0642 114.716 38.0642C113.884 38.0642 113.269 37.8472 112.835 37.4493C112.437 37.0514 112.22 36.4003 112.22 35.5683V31.0466H113.703V35.2789C113.703 35.8215 113.812 36.1832 114.029 36.4726C114.246 36.7258 114.571 36.8705 115.041 36.8705C115.656 36.8705 116.09 36.6897 116.38 36.3279C116.669 35.9662 116.814 35.3513 116.814 34.4831V31.0466H118.297V37.9195H117.139ZM123.868 30.902C124.157 30.902 124.41 30.9381 124.591 30.9743L124.446 32.3489C124.229 32.3127 124.012 32.2765 123.795 32.2765C123.217 32.2765 122.746 32.4574 122.385 32.8553C122.023 33.2532 121.842 33.7235 121.842 34.3384V37.9195H120.395V31.0466H121.553L121.733 32.2404H121.806C122.023 31.8424 122.348 31.5169 122.71 31.2637C123.036 31.0466 123.434 30.902 123.868 30.902ZM128.606 38.0281C127.521 38.0281 126.689 37.7025 126.11 37.0876C125.495 36.4726 125.206 35.6045 125.206 34.5193C125.206 33.3979 125.495 32.5297 126.038 31.8786C126.581 31.2275 127.376 30.902 128.353 30.902C129.257 30.902 129.981 31.1913 130.487 31.7339C131.03 32.2765 131.283 33.0362 131.283 34.0128V34.8087H126.689C126.725 35.4598 126.906 36.0024 127.232 36.3279C127.557 36.6897 128.064 36.8705 128.679 36.8705C129.077 36.8705 129.475 36.8343 129.8 36.762C130.162 36.6897 130.524 36.545 130.921 36.3641V37.5578C130.56 37.7387 130.198 37.8472 129.836 37.9195C129.475 37.9919 129.077 38.0281 128.606 38.0281ZM128.353 32.0233C127.883 32.0233 127.521 32.168 127.232 32.4574C126.942 32.7468 126.798 33.1809 126.725 33.7596H129.836C129.836 33.1809 129.692 32.7468 129.438 32.4574C129.149 32.168 128.787 32.0233 128.353 32.0233ZM142.316 34.4469C142.316 35.5683 142.027 36.4365 141.448 37.0876C140.869 37.7025 140.073 38.0281 139.06 38.0281C138.409 38.0281 137.867 37.8834 137.36 37.594C136.854 37.3046 136.492 36.8705 136.239 36.3279C135.986 35.7853 135.841 35.1704 135.841 34.4469C135.841 33.3256 136.13 32.4574 136.709 31.8425C137.288 31.2275 138.084 30.902 139.133 30.902C140.109 30.902 140.905 31.2275 141.484 31.8786C142.063 32.5297 142.316 33.3617 142.316 34.4469ZM137.324 34.4469C137.324 36.0385 137.903 36.8344 139.097 36.8344C140.254 36.8344 140.833 36.0385 140.833 34.4469C140.833 32.8915 140.254 32.0957 139.097 32.0957C138.482 32.0957 138.048 32.3127 137.758 32.7106C137.469 33.1085 137.324 33.6873 137.324 34.4469ZM147.453 32.1318H145.789V37.9195H144.306V32.1318H143.184V31.4446L144.306 31.0105V30.5764C144.306 29.7806 144.486 29.1656 144.884 28.7677C145.282 28.3698 145.861 28.189 146.621 28.189C147.127 28.189 147.633 28.2613 148.14 28.4422L147.742 29.5635C147.38 29.455 147.055 29.3827 146.693 29.3827C146.367 29.3827 146.114 29.4912 145.969 29.6721C145.825 29.8529 145.752 30.1785 145.752 30.5764V31.0105H147.416V32.1318H147.453ZM157.726 37.9195H156.243V33.6873C156.243 33.1447 156.134 32.783 155.953 32.4936C155.772 32.2404 155.447 32.0957 155.013 32.0957C154.434 32.0957 154.036 32.2765 153.783 32.6383C153.53 33 153.385 33.6149 153.385 34.4831V37.9195H151.938V31.0466H153.096L153.313 31.951H153.385C153.566 31.6254 153.855 31.3722 154.217 31.1913C154.579 31.0105 154.977 30.9381 155.411 30.9381C156.46 30.9381 157.183 31.2999 157.509 32.0233H157.617C157.834 31.6978 158.124 31.4084 158.485 31.2275C158.847 31.0466 159.281 30.9381 159.751 30.9381C160.583 30.9381 161.162 31.1552 161.56 31.5531C161.922 31.951 162.139 32.6021 162.139 33.4341V37.9195H160.692V33.6873C160.692 33.1447 160.583 32.783 160.403 32.4936C160.186 32.2404 159.896 32.0957 159.462 32.0957C158.883 32.0957 158.485 32.2765 158.232 32.6383C157.979 33 157.834 33.5426 157.834 34.2661V37.9195H157.726ZM170.169 34.4469C170.169 35.5683 169.88 36.4365 169.301 37.0876C168.722 37.7025 167.927 38.0281 166.914 38.0281C166.263 38.0281 165.72 37.8834 165.214 37.594C164.707 37.3046 164.345 36.8705 164.092 36.3279C163.839 35.7853 163.694 35.1704 163.694 34.4469C163.694 33.3256 163.984 32.4574 164.563 31.8425C165.141 31.2275 165.937 30.902 166.986 30.902C167.963 30.902 168.759 31.2275 169.337 31.8786C169.88 32.5297 170.169 33.3617 170.169 34.4469ZM165.177 34.4469C165.177 36.0385 165.756 36.8344 166.95 36.8344C168.107 36.8344 168.686 36.0385 168.686 34.4469C168.686 32.8915 168.107 32.0957 166.95 32.0957C166.335 32.0957 165.901 32.3127 165.612 32.7106C165.322 33.1085 165.177 33.6873 165.177 34.4469ZM177.91 37.9195H176.427V33.6873C176.427 33.1447 176.319 32.7468 176.102 32.4936C175.885 32.2404 175.559 32.0957 175.089 32.0957C174.474 32.0957 174.004 32.2765 173.75 32.6383C173.497 33 173.316 33.6149 173.316 34.4831V37.9195H171.869V31.0466H173.027L173.244 31.951H173.316C173.533 31.6254 173.823 31.3722 174.185 31.1913C174.546 31.0105 174.98 30.9381 175.451 30.9381C177.115 30.9381 177.91 31.7701 177.91 33.4702V37.9195ZM182.938 38.0281C181.853 38.0281 181.021 37.7025 180.443 37.0876C179.828 36.4726 179.538 35.6045 179.538 34.5193C179.538 33.3979 179.828 32.5297 180.37 31.8786C180.913 31.2275 181.709 30.902 182.685 30.902C183.59 30.902 184.313 31.1913 184.819 31.7339C185.362 32.2765 185.615 33.0362 185.615 34.0128V34.8087H181.021C181.057 35.4598 181.238 36.0024 181.564 36.3279C181.889 36.6897 182.396 36.8705 183.011 36.8705C183.409 36.8705 183.807 36.8343 184.132 36.762C184.458 36.6897 184.856 36.545 185.254 36.3641V37.5578C184.892 37.7387 184.53 37.8472 184.168 37.9195C183.807 37.9919 183.409 38.0281 182.938 38.0281ZM182.649 32.0233C182.179 32.0233 181.817 32.168 181.528 32.4574C181.238 32.7468 181.094 33.1809 181.021 33.7596H184.132C184.132 33.1809 183.987 32.7468 183.734 32.4574C183.481 32.168 183.119 32.0233 182.649 32.0233ZM185.977 31.0466H187.569L188.979 34.9533C189.196 35.4959 189.341 36.0385 189.413 36.5088H189.45C189.486 36.2918 189.558 36.0024 189.667 35.6768C189.775 35.3512 190.282 33.7958 191.258 31.0466H192.85L189.92 38.8239C189.377 40.2346 188.509 40.9581 187.243 40.9581C186.918 40.9581 186.592 40.9219 186.303 40.8496V39.692C186.52 39.7282 186.773 39.7644 187.062 39.7644C187.75 39.7644 188.256 39.3665 188.545 38.5345L188.799 37.8834L185.977 31.0466Z" fill="#B8B8B9"/>
</svg>
