<svg width="172" height="54" viewBox="0 0 172 54" fill="none" xmlns="http://www.w3.org/2000/svg">
<g clip-path="url(#clip0_5066_6131)">
<path d="M59.0474 26.6681C58.9975 25.4353 59.1915 24.2047 59.6181 23.0475C60.0447 21.8902 60.6955 20.8292 61.5329 19.9255C62.3703 19.0219 63.3778 18.2936 64.4972 17.7827C65.6166 17.2717 66.8257 16.9882 68.0549 16.9485H68.4368C73.1874 16.9485 75.9912 19.7522 76.8202 23.0326L73.8674 24.0233C73.6021 22.8008 72.9076 21.7149 71.9107 20.9634C70.9138 20.2119 69.6809 19.8451 68.4368 19.9298C65.3629 19.9298 62.2796 22.1821 62.2796 26.7242C62.2796 31.2662 65.2884 33.4345 68.4741 33.4345C69.7243 33.4687 70.9499 33.0813 71.9547 32.3341C72.9595 31.5869 73.6855 30.5231 74.0164 29.313L76.9134 30.2476C76.4133 32.0935 75.3011 33.7133 73.7601 34.8398C72.2191 35.9662 70.3414 36.532 68.4368 36.4438C65.99 36.4889 63.6256 35.5573 61.8631 33.8538C60.1007 32.1504 59.0845 29.8145 59.038 27.3597C59.0287 27.1354 59.038 26.9018 59.0474 26.6681Z" fill="#B7B7B9"/>
<path d="M82.6608 36.0141H79.6055V16.8926H82.6608V24.3692C83.1043 23.8414 83.6621 23.4222 84.2917 23.1436C84.9213 22.865 85.606 22.7344 86.2936 22.7617C89.4513 22.7617 90.951 25.0328 90.951 27.8645V36.0141H88.0075V28.4066C88.0957 27.7581 87.9264 27.1008 87.5361 26.5763C87.1458 26.0519 86.5658 25.7023 85.921 25.6029C85.7383 25.584 85.5541 25.584 85.3714 25.6029C84.6649 25.6029 83.9872 25.8845 83.4876 26.3857C82.988 26.887 82.7073 27.5669 82.7073 28.2758C82.7027 28.3536 82.7027 28.4316 82.7073 28.5094L82.6608 36.0141Z" fill="#B7B7B9"/>
<path d="M97.8065 28.6495L101.085 28.1355C101.831 28.042 102.017 27.6588 102.017 27.2009C102.017 26.1168 101.29 25.2476 99.5949 25.2476C98.9547 25.1957 98.3198 25.3991 97.8281 25.8138C97.3363 26.2284 97.0273 26.8208 96.9681 27.4626V27.6028L94.1736 26.9766C94.4065 24.7523 96.4185 22.771 99.567 22.771C103.517 22.771 105.016 25.014 105.016 27.6308V34.014C105.013 34.7056 105.066 35.3964 105.175 36.0794H102.38C102.279 35.5373 102.239 34.9856 102.259 34.4345C101.835 35.0895 101.247 35.6214 100.554 35.9773C99.8609 36.3331 99.087 36.5005 98.3095 36.4626C97.2474 36.5506 96.194 36.2123 95.3802 35.522C94.5665 34.8317 94.0588 33.8457 93.9687 32.7803C93.9687 32.7149 93.9687 32.6495 93.9687 32.5934C93.9221 30.2289 95.6081 28.9579 97.8065 28.6495ZM102.035 30.7149V30.1261L98.6914 30.6308C98.2374 30.6453 97.8066 30.8352 97.4889 31.1609C97.1713 31.4865 96.9913 31.9228 96.9868 32.3785C96.9903 32.6043 97.0387 32.8271 97.129 33.0339C97.2193 33.2408 97.3498 33.4275 97.5128 33.5832C97.6758 33.739 97.8681 33.8605 98.0785 33.9409C98.2888 34.0213 98.513 34.0588 98.738 34.0514H98.8777C99.259 34.0914 99.6444 34.0554 100.012 33.9453C100.379 33.8353 100.721 33.6534 101.018 33.4101C101.315 33.1669 101.561 32.8671 101.742 32.5281C101.923 32.189 102.035 31.8174 102.073 31.4345C102.086 31.1937 102.07 30.9521 102.026 30.7149H102.035Z" fill="#B7B7B9"/>
<path d="M110.214 16.6308C110.477 16.627 110.737 16.6754 110.981 16.7731C111.225 16.8708 111.447 17.0158 111.635 17.2C111.823 17.3841 111.973 17.6036 112.076 17.8459C112.179 18.0883 112.233 18.3486 112.235 18.6121C112.235 19.0064 112.119 19.392 111.901 19.7202C111.683 20.0485 111.374 20.3048 111.011 20.457C110.648 20.6092 110.249 20.6504 109.863 20.5754C109.477 20.5005 109.122 20.3128 108.842 20.0359C108.562 19.759 108.37 19.4052 108.29 19.0191C108.21 18.633 108.246 18.2318 108.392 17.8659C108.539 17.5 108.79 17.1858 109.114 16.9627C109.438 16.7396 109.821 16.6176 110.214 16.6121V16.6308ZM108.724 36.07V23.1541H111.779V36.0139L108.724 36.07Z" fill="#B7B7B9"/>
<path d="M118.737 36.0139H115.691V23.1541H118.663V24.8644C119.05 24.2077 119.607 23.6676 120.274 23.3009C120.941 22.9342 121.694 22.7544 122.454 22.7803C125.584 22.7803 127.112 25.0513 127.112 27.8831V36.0139H124.066V28.4064C124.066 26.827 123.348 25.5466 121.429 25.5466C121.075 25.5491 120.724 25.6216 120.397 25.7601C120.07 25.8985 119.774 26.1002 119.525 26.3537C119.276 26.6071 119.079 26.9072 118.945 27.237C118.812 27.5668 118.744 27.9197 118.747 28.2756C118.747 28.3784 118.747 28.4812 118.747 28.584L118.737 36.0139Z" fill="#B7B7B9"/>
<path d="M130.8 36.0141V16.8926H133.856V36.0141H130.8Z" fill="#B7B7B9"/>
<path d="M139.305 16.6309C139.698 16.629 140.083 16.7444 140.411 16.9625C140.738 17.1805 140.994 17.4913 141.145 17.8554C141.297 18.2195 141.337 18.6206 141.261 19.0076C141.184 19.3946 140.995 19.7502 140.717 20.0291C140.439 20.3081 140.085 20.4979 139.699 20.5744C139.313 20.6509 138.914 20.6107 138.551 20.4588C138.188 20.307 137.878 20.0504 137.661 19.7216C137.443 19.3929 137.328 19.0067 137.33 18.6122C137.335 18.0882 137.545 17.5871 137.914 17.2166C138.283 16.8461 138.783 16.6358 139.305 16.6309ZM137.805 36.0701V23.1542H140.833V36.0141L137.805 36.0701Z" fill="#B7B7B9"/>
<path d="M147.837 36.014H144.782V23.1542H147.753V24.8645C148.141 24.2084 148.698 23.6689 149.365 23.3023C150.032 22.9357 150.784 22.7555 151.544 22.7803C154.674 22.7803 156.202 25.0514 156.202 27.8831V36.014H153.147V28.4065C153.235 27.758 153.065 27.1007 152.675 26.5762C152.285 26.0518 151.705 25.7022 151.06 25.6028C150.874 25.584 150.687 25.584 150.501 25.6028C149.79 25.6102 149.11 25.899 148.609 26.4064C148.108 26.9139 147.828 27.5991 147.828 28.3131C147.818 28.4219 147.818 28.5313 147.828 28.6402L147.837 36.014Z" fill="#B7B7B9"/>
<path d="M166.625 28.5842L172 36.0608H168.274L164.548 30.7617L162.974 32.4253V36.0141H159.946V16.8926H162.974V28.3505L167.892 23.1543H171.944L166.625 28.5842Z" fill="#B7B7B9"/>
<path d="M22.8774 11.715L36.086 19.3224V34.6121L22.9147 42.2664L9.71546 34.6776V19.3972L22.8774 11.715ZM22.8774 0.5L18.0337 3.30374L4.84376 10.986L0 13.7897V40.3037L4.84376 43.1075L18.0523 50.715L22.8961 53.5187L27.7398 50.715L40.9018 43.0514L45.7456 40.2477V13.6963L40.9018 10.8925L27.7026 3.30374L22.8588 0.5H22.8774Z" fill="#B7B7B9"/>
</g>
<defs>
<clipPath id="clip0_5066_6131">
<rect width="172" height="53" fill="white" transform="translate(0 0.5)"/>
</clipPath>
</defs>
</svg>
