<svg width="208" height="31" viewBox="0 0 208 31" fill="none" xmlns="http://www.w3.org/2000/svg">
<g clip-path="url(#clip0_2772_3299)">
<path d="M48.9761 21.5632C48.7648 22.7853 48.1582 23.8949 47.2574 24.7071C46.3566 25.5193 45.2161 25.9849 44.026 26.0263C43.5039 26.0431 42.9853 25.9332 42.5109 25.7052C42.0365 25.4772 41.6194 25.1375 41.2924 24.7127C40.9655 24.288 40.7376 23.7898 40.6267 23.2575C40.5158 22.7253 40.525 22.1734 40.6535 21.6454C40.8565 20.4267 41.4554 19.3179 42.3496 18.5052C43.2438 17.6925 44.3789 17.2254 45.5643 17.1823C46.0933 17.1453 46.6231 17.2412 47.1093 17.4621C47.5954 17.6829 48.0236 18.0222 48.3579 18.4514C48.6921 18.8807 48.9228 19.3873 49.0304 19.9288C49.1379 20.4703 49.1194 21.0308 48.9761 21.5632ZM50.5539 12.9248L50.1989 14.7347C49.7649 13.9082 49.1013 13.2379 48.2952 12.8121C47.4891 12.3863 46.5783 12.2248 45.6826 12.3489C43.2497 12.4508 40.9258 13.4286 39.1064 15.1161C37.287 16.8035 36.0844 19.0963 35.7034 21.6043C34.8356 26.5611 37.1233 30.9009 42.3891 30.9009C43.3954 30.9398 44.3969 30.7375 45.3166 30.3096C46.2363 29.8818 47.0497 29.2397 47.6942 28.4328L47.3787 30.2838H52.2894L55.3857 12.9865H50.5539V12.9248ZM58.2454 12.9454H62.88L62.5645 14.7553C63.0689 13.9628 63.7648 13.3231 64.5819 12.9006C65.3991 12.4781 66.3086 12.2878 67.2188 12.3489L66.3116 17.5525C63.9844 17.5525 62.3672 18.0873 61.8347 20.7405L60.1387 30.2427H55.1491L58.2454 12.9454Z" fill="#ADADAD"/>
<path d="M70.5519 6.15808L66.2722 30.2427H71.2618L72.741 21.8923H72.8199L76.0148 30.2427H81.6355L77.2967 20.5348L84.8896 12.9454H79.0322L73.2932 19.2185H73.2143L75.5415 6.15808H70.5519Z" fill="#ADADAD"/>
<path d="M87.8281 19.6709C88.1867 18.7874 88.7884 18.0344 89.5571 17.5073C90.3259 16.9801 91.2272 16.7024 92.1472 16.7092C92.5492 16.66 92.9566 16.6998 93.3429 16.826C93.7291 16.9521 94.0855 17.1617 94.3889 17.4412C94.6922 17.7207 94.9357 18.0637 95.1033 18.4479C95.2709 18.8321 95.359 19.2488 95.3618 19.6709H87.8281ZM92.8572 12.3489C90.3846 12.4867 88.0266 13.4794 86.1552 15.1703C84.2839 16.8612 83.0058 19.1539 82.5229 21.6866C82.2637 22.7995 82.2549 23.96 82.4972 25.0771C82.7395 26.1942 83.2263 27.2377 83.9195 28.126C84.6128 29.0143 85.4937 29.7233 86.4934 30.1975C87.493 30.6718 88.5843 30.8984 89.682 30.8597C91.4541 30.8457 93.1854 30.3033 94.6716 29.2966C96.3787 28.192 97.806 26.6753 98.8329 24.8745H93.7644C93.3568 25.3819 92.8466 25.7889 92.2703 26.0663C91.694 26.3437 91.066 26.4845 90.4314 26.4788C90.0003 26.5311 89.5635 26.4839 89.1519 26.3404C88.7403 26.197 88.364 25.9608 88.0496 25.6487C87.7353 25.3366 87.4907 24.9563 87.3331 24.5346C87.1756 24.1128 87.1089 23.6602 87.1378 23.2086H99.5823C99.7499 22.7717 99.869 22.3162 99.9373 21.8511C100.884 16.4624 97.9257 12.3489 92.8572 12.3489Z" fill="#ADADAD"/>
<path d="M29.0966 6.15808L20.3401 19.8767H20.2612V6.15808H16.0211L0.5 30.2427H6.51515L15.2322 16.5241H15.3111V30.2427H19.5907L28.3077 16.5241H28.3866V30.2427H33.3762V6.15808H29.0966ZM112.54 12.9454H109.404L110.311 7.82406H105.952L105.597 9.88082C105.494 10.7786 105.068 11.6022 104.406 12.186C103.744 12.7698 102.894 13.0705 102.028 13.0277L101.278 16.8532H103.744L101.357 30.2427H106.307L108.694 16.8532H111.869L112.54 12.9454Z" fill="#ADADAD"/>
<path d="M194.03 6.1787H198.98L197.481 14.7554C197.994 13.947 198.706 13.2971 199.542 12.8737C200.378 12.4504 201.308 12.2692 202.234 12.349C203.031 12.3037 203.827 12.4552 204.557 12.7911C205.287 13.1271 205.93 13.638 206.435 14.2823C207.5 15.9689 207.382 17.5114 206.83 20.5966L205.133 30.2633H200.183L201.84 20.8434C201.998 20.0207 202.471 17.2029 199.868 17.2029C198.991 17.2108 198.15 17.562 197.511 18.1869C196.871 18.8118 196.481 19.6646 196.416 20.576L194.701 30.2428H189.829L194.03 6.1787ZM173.164 12.9454H170.108L170.956 7.82411H166.597L166.163 9.7986C166.059 10.6964 165.634 11.52 164.972 12.1038C164.309 12.6876 163.46 12.9883 162.594 12.9454L161.923 16.8533H164.368L162.002 30.2428H166.952L169.319 16.8533H172.494L173.164 12.9454ZM149.281 26.0264C150.489 26.0084 151.652 25.5533 152.573 24.7391C153.494 23.925 154.115 22.8023 154.33 21.5633C154.473 21.0308 154.492 20.4703 154.384 19.9289C154.277 19.3874 154.046 18.8808 153.712 18.4515C153.378 18.0223 152.949 17.683 152.463 17.4621C151.977 17.2413 151.447 17.1454 150.918 17.1824C149.733 17.2255 148.598 17.6926 147.704 18.5053C146.809 19.318 146.21 20.4268 146.007 21.6455C145.879 22.1735 145.87 22.7253 145.981 23.2576C146.092 23.7899 146.319 24.2881 146.646 24.7128C146.973 25.1376 147.39 25.4773 147.865 25.7053C148.339 25.9332 148.858 26.0432 149.38 26.0264M157.742 30.1399H152.733L153.048 28.2889C152.405 29.1259 151.584 29.7944 150.649 30.2409C149.714 30.6873 148.692 30.8993 147.664 30.8598C142.398 30.8598 140.091 26.52 140.978 21.5633C141.367 19.0661 142.57 16.7855 144.385 15.1066C146.2 13.4278 148.514 12.4537 150.938 12.349C151.825 12.2459 152.722 12.4219 153.513 12.8544C154.303 13.2869 154.952 13.9561 155.375 14.776L155.73 12.966H160.641L157.742 30.1399ZM148.216 0.00842285L138.553 6.1787H141.294L132.537 19.8767V6.1787H128.179L119.423 19.8767V6.1787H114.354V30.2428H118.673L127.43 16.4625V30.2428H131.709L147.27 6.1787H149.715L148.216 0.00842285ZM189.356 23.6817C188.524 25.7476 187.142 27.5217 185.374 28.7938C183.605 30.066 181.524 30.7829 179.377 30.8598C178.252 30.9248 177.128 30.7113 176.098 30.2368C175.067 29.7622 174.159 29.0401 173.448 28.1294C172.736 27.2187 172.241 26.1453 172.003 24.997C171.765 23.8486 171.792 22.6579 172.08 21.5221C172.57 18.9819 173.874 16.6909 175.777 15.0243C177.679 13.3577 180.068 12.4144 182.552 12.349C183.508 12.2844 184.467 12.4246 185.369 12.761C186.271 13.0973 187.098 13.6227 187.798 14.3048C188.498 14.9868 189.057 15.8112 189.44 16.727C189.824 17.6428 190.023 18.6307 190.027 19.6299H184.998C184.854 18.8836 184.45 18.2195 183.863 17.7671C183.276 17.3147 182.548 17.1062 181.822 17.1824C180.663 17.2016 179.55 17.6547 178.685 18.4589C177.819 19.2631 177.26 20.3649 177.109 21.5633C176.942 22.0784 176.898 22.6281 176.98 23.165C177.063 23.7019 177.269 24.2098 177.581 24.645C177.894 25.0802 178.303 25.4296 178.774 25.6631C179.245 25.8966 179.763 26.0072 180.284 25.9853C181.074 25.9749 181.848 25.7587 182.537 25.3563C183.226 24.954 183.807 24.3783 184.228 23.6817H189.297H189.356Z" fill="#ADADAD"/>
</g>
<defs>
<clipPath id="clip0_2772_3299">
<rect width="207" height="31" fill="white" transform="translate(0.5)"/>
</clipPath>
</defs>
</svg>
