<svg width="186" height="25" viewBox="0 0 186 25" fill="none" xmlns="http://www.w3.org/2000/svg">
<g clip-path="url(#clip0_2773_3325)">
<path d="M26.7266 25H44.5706V20.3328H32.1192V14.6085H42.4427V9.93735H32.1192V4.66719H44.6456V0H26.7266V25Z" fill="#ADADAD"/>
<path d="M66.0544 15.7361L54.365 0H46.3154L48.8223 3.16366V25.0783H54.211V8.66092L66.2833 25H71.447V0H66.0544V15.7361Z" fill="#ADADAD"/>
<path d="M18.602 12.1378C20.9706 11.6875 22.9445 9.50274 22.9445 6.41738C22.9287 3.08536 20.5009 0 15.6411 0H0L2.42789 3.08536V25.0117H16.1859C21.0496 25.0117 23.5525 22.0008 23.5525 18.2341C23.4617 15.137 21.3181 12.502 18.602 12.1378ZM7.82057 4.69851H14.5792C16.4031 4.69851 17.54 5.75568 17.54 7.33359C17.54 8.91151 16.4031 9.96868 14.5792 9.96868H7.82057V4.69851ZM14.8042 20.3602H7.82057V14.6085H14.8042C16.8571 14.6085 17.994 15.8888 17.994 17.4706C17.994 19.2756 16.7781 20.3328 14.8042 20.3328V20.3602Z" fill="#ADADAD"/>
<path d="M150.336 15.7361H153.147V18.6766C151.693 19.8704 149.87 20.5337 147.983 20.556C143.502 20.556 140.316 17.1691 140.316 12.5764C140.316 7.98356 143.502 4.5928 147.983 4.5928C149.134 4.60225 150.265 4.89653 151.273 5.44896C152.281 6.00139 153.134 6.79452 153.754 7.75646L158.006 5.4072C156.186 2.56069 152.993 0 147.908 0C140.77 0 134.849 4.89428 134.849 12.502C134.849 20.1096 140.695 25 147.908 25C149.856 25.0321 151.787 24.6447 153.57 23.8646C155.352 23.0846 156.942 21.9303 158.231 20.4816V11.2216H146.692L150.336 15.7361Z" fill="#ADADAD"/>
<path d="M126.041 15.7361L114.348 0H106.298L108.805 3.16366V25.0783H114.198V8.66092L126.27 25H131.43V0H126.041V15.7361Z" fill="#ADADAD"/>
<path d="M176.071 0H165.673L168.176 3.16366L167.722 4.3657L159.672 25.0783H165.748L167.327 20.8575H178.203L179.782 25.0783H185.854L176.071 0ZM168.713 16.1159L172.66 5.34456L176.608 16.1159H168.713Z" fill="#ADADAD"/>
<path d="M103.187 0H97.7946V25.0783H103.187V0Z" fill="#ADADAD"/>
<path d="M93.4678 4.29131V0H74.4829V4.66719H86.4052L74.4829 20.7087V25H93.6968V20.3328H81.4705L93.4678 4.29131Z" fill="#ADADAD"/>
</g>
<defs>
<clipPath id="clip0_2773_3325">
<rect width="186" height="25" fill="white"/>
</clipPath>
</defs>
</svg>
