<svg width="414" height="48" viewBox="0 0 414 48" fill="none" xmlns="http://www.w3.org/2000/svg">
<rect x="309" y="4" width="79" height="40" rx="20" fill="#FF61FF"/>
<path d="M6.29096 35.38L6.06709 35.7115L6.06908 35.7128L6.29096 35.38ZM3.59096 28.828V28.428C3.38546 28.428 3.21339 28.5837 3.19295 28.7882L3.59096 28.828ZM12.087 28.828L12.4851 28.8665C12.496 28.7543 12.4589 28.6426 12.3831 28.5591C12.3073 28.4756 12.1997 28.428 12.087 28.428V28.828ZM12.411 30.484L12.0986 30.7339C12.1019 30.738 12.1052 30.742 12.1087 30.746L12.411 30.484ZM15.003 30.7L15.243 31.02V31.02L15.003 30.7ZM14.571 28.324L14.3425 28.6524L14.3491 28.6568L14.571 28.324ZM11.871 26.956L12.0268 26.5876L12.0262 26.5873L11.871 26.956ZM8.48696 25.3L8.27837 25.6413L8.28253 25.6438L8.48696 25.3ZM6.21896 23.14L6.54503 22.9083L6.21896 23.14ZM6.57896 15.076L6.24987 14.8486L6.24899 14.8499L6.57896 15.076ZM10.359 12.088L10.2047 11.7189L10.359 12.088ZM20.799 11.944L20.6504 12.3154L20.6525 12.3162L20.799 11.944ZM24.219 14.464L23.8972 14.7018L23.9032 14.7096L24.219 14.464ZM25.407 19.324V19.724C25.6125 19.724 25.7845 19.5683 25.805 19.3638L25.407 19.324ZM16.803 19.324L16.4084 19.2582C16.3891 19.3742 16.4218 19.4928 16.4978 19.5825C16.5738 19.6723 16.6854 19.724 16.803 19.724V19.324ZM16.479 17.704L16.1961 17.9868C16.2006 17.9913 16.2052 17.9957 16.2099 18L16.479 17.704ZM14.391 17.668L14.66 17.964H14.66L14.391 17.668ZM14.823 20.008L14.5851 20.3298L14.5945 20.3364L14.823 20.008ZM17.451 21.448L17.2779 21.8086L17.2797 21.8095L17.451 21.448ZM20.835 23.284L20.6173 23.6196L20.6214 23.6222L20.835 23.284ZM23.175 25.588L22.8434 25.8118L22.8461 25.8157L23.175 25.588ZM22.887 33.256L22.5551 33.0326L22.5522 33.0371L22.887 33.256ZM19.323 36.208L19.486 36.5733L19.4906 36.5712L19.323 36.208ZM13.779 36.852C10.7084 36.852 8.29825 36.2375 6.51284 35.0472L6.06908 35.7128C8.02767 37.0185 10.6095 37.652 13.779 37.652V36.852ZM6.51482 35.0485C4.78655 33.8814 3.91896 32.1871 3.91896 29.908H3.11896C3.11896 32.4289 4.09938 34.3826 6.0671 35.7115L6.51482 35.0485ZM3.91896 29.908C3.91896 29.6887 3.94126 29.345 3.98898 28.8678L3.19295 28.7882C3.14466 29.271 3.11896 29.6473 3.11896 29.908H3.91896ZM3.59096 29.228H12.087V28.428H3.59096V29.228ZM11.6888 28.7895C11.6127 29.5757 11.7152 30.2546 12.0986 30.7339L12.7233 30.2341C12.5307 29.9934 12.4172 29.5683 12.4851 28.8665L11.6888 28.7895ZM12.1087 30.746C12.5263 31.2279 13.1656 31.424 13.923 31.424V30.624C13.2883 30.624 12.9196 30.4601 12.7132 30.222L12.1087 30.746ZM13.923 31.424C14.4237 31.424 14.8727 31.2977 15.243 31.02L14.763 30.38C14.5572 30.5343 14.2862 30.624 13.923 30.624V31.424ZM15.243 31.02C15.6461 30.7176 15.835 30.2787 15.835 29.764H15.035C15.035 30.0653 14.9358 30.2504 14.763 30.38L15.243 31.02ZM15.835 29.764C15.835 29.026 15.4543 28.4322 14.7928 27.9912L14.3491 28.6568C14.8396 28.9838 15.035 29.35 15.035 29.764H15.835ZM14.7994 27.9956C14.2118 27.5869 13.2801 27.1179 12.0268 26.5876L11.7151 27.3244C12.9578 27.8501 13.8261 28.2931 14.3425 28.6524L14.7994 27.9956ZM12.0262 26.5873C10.6685 26.0157 9.5584 25.4717 8.69139 24.9562L8.28253 25.6438C9.19152 26.1843 10.3374 26.7443 11.7157 27.3247L12.0262 26.5873ZM8.69554 24.9587C7.88235 24.4617 7.16499 23.7808 6.54503 22.9083L5.89289 23.3717C6.56893 24.3232 7.36358 25.0823 8.27838 25.6413L8.69554 24.9587ZM6.54503 22.9083C5.95497 22.0779 5.64696 21.0238 5.64696 19.72H4.84696C4.84696 21.1522 5.18695 22.3781 5.89289 23.3717L6.54503 22.9083ZM5.64696 19.72C5.64696 17.9886 6.07296 16.5222 6.90893 15.3021L6.24899 14.8499C5.30896 16.2218 4.84696 17.8514 4.84696 19.72H5.64696ZM6.90805 15.3034C7.77278 14.0518 8.9695 13.1022 10.5132 12.4571L10.2047 11.7189C8.53242 12.4178 7.20914 13.4602 6.24987 14.8486L6.90805 15.3034ZM10.5132 12.4571C12.0642 11.8089 13.8463 11.48 15.867 11.48V10.68C13.7596 10.68 11.8697 11.0231 10.2047 11.7189L10.5132 12.4571ZM15.867 11.48C17.6736 11.48 19.2658 11.7615 20.6504 12.3154L20.9475 11.5726C19.4522 10.9745 17.7563 10.68 15.867 10.68V11.48ZM20.6525 12.3162C22.0571 12.8688 23.1321 13.6666 23.8973 14.7018L24.5406 14.2262C23.6738 13.0534 22.4688 12.1712 20.9454 11.5718L20.6525 12.3162ZM23.9032 14.7096C24.6837 15.7131 25.079 16.9087 25.079 18.316H25.879C25.879 16.7473 25.4342 15.3749 24.5347 14.2184L23.9032 14.7096ZM25.079 18.316C25.079 18.4857 25.057 18.8036 25.0089 19.2842L25.805 19.3638C25.8529 18.8844 25.879 18.5303 25.879 18.316H25.079ZM25.407 18.924H16.803V19.724H25.407V18.924ZM17.1975 19.3898C17.2445 19.1076 17.275 18.8827 17.275 18.748H16.475C16.475 18.8053 16.4574 18.9644 16.4084 19.2582L17.1975 19.3898ZM17.275 18.748C17.275 18.2127 17.1173 17.7437 16.748 17.408L16.2099 18C16.3687 18.1443 16.475 18.3713 16.475 18.748H17.275ZM16.7618 17.4212C16.4068 17.0661 15.9361 16.908 15.399 16.908V17.708C15.7739 17.708 16.0231 17.8139 16.1961 17.9868L16.7618 17.4212ZM15.399 16.908C14.9067 16.908 14.4701 17.0555 14.1219 17.372L14.66 17.964C14.8398 17.8005 15.0752 17.708 15.399 17.708V16.908ZM14.1219 17.372C13.7676 17.6941 13.595 18.117 13.595 18.604H14.395C14.395 18.323 14.4863 18.1219 14.66 17.964L14.1219 17.372ZM13.595 18.604C13.595 19.2955 13.9648 19.8711 14.5852 20.3297L15.0607 19.6863C14.5772 19.3289 14.395 18.9684 14.395 18.604H13.595ZM14.5945 20.3364C15.1738 20.7393 16.0734 21.2305 17.2779 21.8086L17.6241 21.0874C16.4285 20.5135 15.5761 20.0447 15.0514 19.6796L14.5945 20.3364ZM17.2797 21.8095C18.6379 22.4528 19.749 23.0564 20.6173 23.6196L21.0526 22.9484C20.1449 22.3596 19 21.7392 17.6222 21.0865L17.2797 21.8095ZM20.6214 23.6222C21.4832 24.1665 22.2241 24.8942 22.8434 25.8118L23.5065 25.3642C22.8298 24.3618 22.0107 23.5535 21.0486 22.9458L20.6214 23.6222ZM22.8461 25.8157C23.4391 26.6723 23.747 27.7406 23.747 29.044H24.547C24.547 27.6113 24.2068 26.3757 23.5038 25.3603L22.8461 25.8157ZM23.747 29.044C23.747 30.5275 23.349 31.8532 22.5551 33.0326L23.2188 33.4794C24.1049 32.1628 24.547 30.6805 24.547 29.044H23.747ZM22.5522 33.0371C21.7832 34.2132 20.6578 35.1514 19.1553 35.8448L19.4906 36.5712C21.1081 35.8246 22.3587 34.7948 23.2218 33.4749L22.5522 33.0371ZM19.16 35.8427C17.6624 36.5109 15.8724 36.852 13.779 36.852V37.652C15.9575 37.652 17.8635 37.2971 19.4859 36.5733L19.16 35.8427ZM50.4486 11.512L50.8426 11.5814C50.8631 11.465 50.831 11.3454 50.755 11.2549C50.679 11.1643 50.5668 11.112 50.4486 11.112V11.512ZM49.3326 17.848V18.248C49.5268 18.248 49.6929 18.1086 49.7266 17.9174L49.3326 17.848ZM42.5646 17.848V17.448C42.3706 17.448 42.2045 17.5873 42.1707 17.7784L42.5646 17.848ZM39.1806 37V37.4C39.3747 37.4 39.5407 37.2607 39.5745 37.0696L39.1806 37ZM31.1886 37L30.7947 36.9304C30.7741 37.0469 30.8062 37.1665 30.8822 37.2571C30.9582 37.3477 31.0704 37.4 31.1886 37.4V37ZM34.5726 17.848L34.9665 17.9176C34.9871 17.8011 34.9551 17.6815 34.8791 17.5909C34.8031 17.5003 34.6909 17.448 34.5726 17.448V17.848ZM27.8766 17.848L27.4827 17.7786C27.4622 17.895 27.4942 18.0146 27.5702 18.1051C27.6462 18.1957 27.7584 18.248 27.8766 18.248V17.848ZM28.9926 11.512V11.112C28.7985 11.112 28.6324 11.2514 28.5987 11.4426L28.9926 11.512ZM50.0547 11.4426L48.9387 17.7786L49.7266 17.9174L50.8426 11.5814L50.0547 11.4426ZM49.3326 17.448H42.5646V18.248H49.3326V17.448ZM42.1707 17.7784L38.7867 36.9304L39.5745 37.0696L42.9585 17.9176L42.1707 17.7784ZM39.1806 36.6H31.1886V37.4H39.1806V36.6ZM31.5825 37.0696L34.9665 17.9176L34.1787 17.7784L30.7947 36.9304L31.5825 37.0696ZM34.5726 17.448H27.8766V18.248H34.5726V17.448ZM28.2706 17.9174L29.3866 11.5814L28.5987 11.4426L27.4827 17.7786L28.2706 17.9174ZM28.9926 11.912H50.4486V11.112H28.9926V11.912ZM65.1442 33.148L65.5398 33.0888C65.5105 32.893 65.3423 32.748 65.1442 32.748V33.148ZM56.6482 33.148V32.748C56.4972 32.748 56.3591 32.833 56.2911 32.9678L56.6482 33.148ZM54.7042 37V37.4C54.8552 37.4 54.9933 37.315 55.0613 37.1802L54.7042 37ZM46.3162 37L45.9646 36.8093C45.8974 36.9332 45.9004 37.0834 45.9725 37.2046C46.0446 37.3258 46.1752 37.4 46.3162 37.4V37ZM60.1402 11.512V11.112C59.9935 11.112 59.8585 11.1923 59.7886 11.3213L60.1402 11.512ZM69.3562 11.512L69.7493 11.4382C69.7138 11.249 69.5486 11.112 69.3562 11.112V11.512ZM74.1442 37V37.4C74.2632 37.4 74.3761 37.347 74.4521 37.2554C74.5281 37.1638 74.5593 37.0431 74.5373 36.9262L74.1442 37ZM65.7202 37L65.3246 37.0592C65.3539 37.255 65.5221 37.4 65.7202 37.4V37ZM64.2802 27.136V27.536C64.3965 27.536 64.507 27.4854 64.583 27.3974C64.6589 27.3094 64.6929 27.1928 64.6759 27.0777L64.2802 27.136ZM63.2362 20.044L63.6319 19.9857C63.6065 19.8131 63.4721 19.6769 63.2998 19.6491C63.1276 19.6213 62.9572 19.7085 62.8788 19.8644L63.2362 20.044ZM59.6722 27.136L59.3148 26.9564C59.2525 27.0804 59.2589 27.2278 59.3317 27.3459C59.4046 27.4641 59.5334 27.536 59.6722 27.536V27.136ZM65.1442 32.748H56.6482V33.548H65.1442V32.748ZM56.2911 32.9678L54.3471 36.8198L55.0613 37.1802L57.0053 33.3282L56.2911 32.9678ZM54.7042 36.6H46.3162V37.4H54.7042V36.6ZM46.6678 37.1907L60.4918 11.7027L59.7886 11.3213L45.9646 36.8093L46.6678 37.1907ZM60.1402 11.912H69.3562V11.112H60.1402V11.912ZM68.9631 11.5858L73.7511 37.0738L74.5373 36.9262L69.7493 11.4382L68.9631 11.5858ZM74.1442 36.6H65.7202V37.4H74.1442V36.6ZM66.1158 36.9408L65.5398 33.0888L64.7486 33.2072L65.3246 37.0592L66.1158 36.9408ZM64.6759 27.0777L63.6319 19.9857L62.8405 20.1023L63.8845 27.1943L64.6759 27.0777ZM62.8788 19.8644L59.3148 26.9564L60.0296 27.3156L63.5936 20.2236L62.8788 19.8644ZM59.6722 27.536H64.2802V26.736H59.6722V27.536ZM100.548 19.864L100.156 19.7855L100.154 19.7929L100.548 19.864ZM98.316 24.436L98.6122 24.7048L98.6146 24.7021L98.316 24.436ZM93.744 27.244L93.6263 26.8617C93.52 26.8944 93.4321 26.9699 93.3837 27.0701C93.3354 27.1703 93.3309 27.2861 93.3714 27.3897L93.744 27.244ZM97.56 37V37.4C97.6921 37.4 97.8158 37.3347 97.8903 37.2255C97.9649 37.1163 97.9806 36.9774 97.9325 36.8543L97.56 37ZM88.776 37L88.3985 37.1323C88.4547 37.2926 88.606 37.4 88.776 37.4V37ZM85.572 27.856L85.9495 27.7237C85.8893 27.5521 85.7209 27.4426 85.5397 27.4573C85.3584 27.472 85.2098 27.6071 85.1781 27.7862L85.572 27.856ZM83.952 37V37.4C84.146 37.4 84.312 37.2608 84.3458 37.0698L83.952 37ZM75.96 37L75.5661 36.9305C75.5455 37.0469 75.5775 37.1665 75.6535 37.2571C75.7295 37.3477 75.8417 37.4 75.96 37.4V37ZM80.46 11.512V11.112C80.2659 11.112 80.0998 11.2513 80.0661 11.4425L80.46 11.512ZM86.508 22.528L86.114 22.459C86.0936 22.5754 86.1257 22.6949 86.2017 22.7853C86.2777 22.8758 86.3898 22.928 86.508 22.928V22.528ZM91.476 22.024L91.7215 22.3397L91.7238 22.338L91.476 22.024ZM92.376 20.368L91.9837 20.2896L91.9833 20.292L92.376 20.368ZM91.908 18.676L91.6358 18.9691C91.6397 18.9727 91.6436 18.9763 91.6476 18.9797L91.908 18.676ZM87.264 18.208V17.808C87.0696 17.808 86.9034 17.9476 86.8699 18.139L87.264 18.208ZM92.34 11.912C95.0233 11.912 96.9902 12.5129 98.3064 13.6506L98.8295 13.0454C97.3137 11.7351 95.1287 11.112 92.34 11.112V11.912ZM98.3064 13.6506C99.6259 14.7912 100.292 16.3084 100.292 18.244H101.092C101.092 16.0996 100.342 14.3528 98.8295 13.0454L98.3064 13.6506ZM100.292 18.244C100.292 18.8233 100.246 19.3364 100.156 19.7856L100.94 19.9424C101.042 19.4316 101.092 18.8647 101.092 18.244H100.292ZM100.154 19.7929C99.8555 21.4479 99.1446 22.9045 98.0173 24.1699L98.6146 24.7021C99.8393 23.3275 100.616 21.7361 100.942 19.9351L100.154 19.7929ZM98.0197 24.1672C96.8976 25.4039 95.4381 26.3042 93.6263 26.8617L93.8616 27.6263C95.7939 27.0318 97.3824 26.0601 98.6122 24.7048L98.0197 24.1672ZM93.3714 27.3897L97.1874 37.1457L97.9325 36.8543L94.1165 27.0983L93.3714 27.3897ZM97.56 36.6H88.776V37.4H97.56V36.6ZM89.1535 36.8677L85.9495 27.7237L85.1945 27.9883L88.3985 37.1323L89.1535 36.8677ZM85.1781 27.7862L83.5581 36.9302L84.3458 37.0698L85.9658 27.9258L85.1781 27.7862ZM83.952 36.6H75.96V37.4H83.952V36.6ZM76.3539 37.0695L80.8539 11.5815L80.0661 11.4425L75.5661 36.9305L76.3539 37.0695ZM80.46 11.912H92.34V11.112H80.46V11.912ZM86.508 22.928H89.676V22.128H86.508V22.928ZM89.676 22.928C90.4978 22.928 91.1959 22.7486 91.7215 22.3397L91.2304 21.7083C90.892 21.9714 90.3901 22.128 89.676 22.128V22.928ZM91.7238 22.338C92.2755 21.9024 92.6121 21.2529 92.7687 20.444L91.9833 20.292C91.8518 20.9711 91.5884 21.4256 91.2281 21.71L91.7238 22.338ZM92.7682 20.4464C92.7994 20.2904 92.812 20.1053 92.812 19.9H92.012C92.012 20.0787 92.0005 20.2056 91.9837 20.2896L92.7682 20.4464ZM92.812 19.9C92.812 19.28 92.6102 18.7511 92.1683 18.3723L91.6476 18.9797C91.8777 19.1769 92.012 19.464 92.012 19.9H92.812ZM92.1801 18.3829C91.7444 17.9783 91.1392 17.808 90.432 17.808V18.608C91.0207 18.608 91.3995 18.7497 91.6358 18.9691L92.1801 18.3829ZM90.432 17.808H87.264V18.608H90.432V17.808ZM86.8699 18.139L86.114 22.459L86.902 22.597L87.658 18.277L86.8699 18.139ZM124.593 11.512L124.987 11.5814C125.008 11.465 124.976 11.3454 124.9 11.2549C124.824 11.1643 124.711 11.112 124.593 11.112V11.512ZM123.477 17.848V18.248C123.671 18.248 123.837 18.1086 123.871 17.9174L123.477 17.848ZM116.709 17.848V17.448C116.515 17.448 116.349 17.5873 116.315 17.7784L116.709 17.848ZM113.325 37V37.4C113.519 37.4 113.685 37.2607 113.719 37.0696L113.325 37ZM105.333 37L104.939 36.9304C104.919 37.0469 104.951 37.1665 105.027 37.2571C105.103 37.3477 105.215 37.4 105.333 37.4V37ZM108.717 17.848L109.111 17.9176C109.132 17.8011 109.1 17.6815 109.024 17.5909C108.948 17.5003 108.835 17.448 108.717 17.448V17.848ZM102.021 17.848L101.627 17.7786C101.607 17.895 101.639 18.0146 101.715 18.1051C101.791 18.1957 101.903 18.248 102.021 18.248V17.848ZM103.137 11.512V11.112C102.943 11.112 102.777 11.2514 102.743 11.4426L103.137 11.512ZM124.199 11.4426L123.083 17.7786L123.871 17.9174L124.987 11.5814L124.199 11.4426ZM123.477 17.448H116.709V18.248H123.477V17.448ZM116.315 17.7784L112.931 36.9304L113.719 37.0696L117.103 17.9176L116.315 17.7784ZM113.325 36.6H105.333V37.4H113.325V36.6ZM105.727 37.0696L109.111 17.9176L108.323 17.7784L104.939 36.9304L105.727 37.0696ZM108.717 17.448H102.021V18.248H108.717V17.448ZM102.415 17.9174L103.531 11.5814L102.743 11.4426L101.627 17.7786L102.415 17.9174ZM103.137 11.912H124.593V11.112H103.137V11.912ZM139.754 17.848V17.448C139.559 17.448 139.392 17.5886 139.36 17.7808L139.754 17.848ZM139.214 21.016L138.82 20.9488C138.8 21.0649 138.832 21.1839 138.908 21.274C138.984 21.364 139.096 21.416 139.214 21.416V21.016ZM147.134 21.016L147.528 21.0867C147.549 20.9701 147.517 20.8502 147.441 20.7594C147.365 20.6685 147.252 20.616 147.134 20.616V21.016ZM146.054 27.028V27.428C146.248 27.428 146.413 27.2893 146.448 27.0987L146.054 27.028ZM138.134 27.028V26.628C137.94 26.628 137.775 26.7666 137.74 26.9571L138.134 27.028ZM137.486 30.628L137.092 30.5571C137.071 30.6737 137.103 30.7937 137.179 30.8846C137.255 30.9755 137.367 31.028 137.486 31.028V30.628ZM146.486 30.628L146.88 30.697C146.9 30.5806 146.868 30.4612 146.792 30.3707C146.716 30.2802 146.604 30.228 146.486 30.228V30.628ZM145.37 37V37.4C145.564 37.4 145.73 37.2604 145.764 37.069L145.37 37ZM128.378 37L127.984 36.9305C127.963 37.0469 127.995 37.1665 128.071 37.2571C128.147 37.3477 128.26 37.4 128.378 37.4V37ZM132.878 11.512V11.112C132.684 11.112 132.518 11.2513 132.484 11.4425L132.878 11.512ZM149.87 11.512L150.264 11.5814C150.284 11.465 150.252 11.3454 150.176 11.2549C150.1 11.1643 149.988 11.112 149.87 11.112V11.512ZM148.754 17.848V18.248C148.948 18.248 149.114 18.1086 149.148 17.9174L148.754 17.848ZM139.36 17.7808L138.82 20.9488L139.608 21.0832L140.148 17.9152L139.36 17.7808ZM139.214 21.416H147.134V20.616H139.214V21.416ZM146.74 20.9453L145.66 26.9573L146.448 27.0987L147.528 21.0867L146.74 20.9453ZM146.054 26.628H138.134V27.428H146.054V26.628ZM137.74 26.9571L137.092 30.5571L137.88 30.6989L138.528 27.0989L137.74 26.9571ZM137.486 31.028H146.486V30.228H137.486V31.028ZM146.092 30.559L144.976 36.931L145.764 37.069L146.88 30.697L146.092 30.559ZM145.37 36.6H128.378V37.4H145.37V36.6ZM128.772 37.0695L133.272 11.5815L132.484 11.4425L127.984 36.9305L128.772 37.0695ZM132.878 11.912H149.87V11.112H132.878V11.912ZM149.476 11.4426L148.36 17.7786L149.148 17.9174L150.264 11.5814L149.476 11.4426ZM148.754 17.448H139.754V18.248H148.754V17.448ZM165.41 33.148L165.805 33.0888C165.776 32.893 165.608 32.748 165.41 32.748V33.148ZM156.914 33.148V32.748C156.763 32.748 156.625 32.833 156.557 32.9678L156.914 33.148ZM154.97 37V37.4C155.121 37.4 155.259 37.315 155.327 37.1802L154.97 37ZM146.582 37L146.23 36.8093C146.163 36.9332 146.166 37.0834 146.238 37.2046C146.31 37.3258 146.441 37.4 146.582 37.4V37ZM160.406 11.512V11.112C160.259 11.112 160.124 11.1923 160.054 11.3213L160.406 11.512ZM169.622 11.512L170.015 11.4382C169.979 11.249 169.814 11.112 169.622 11.112V11.512ZM174.41 37V37.4C174.529 37.4 174.642 37.347 174.718 37.2554C174.794 37.1638 174.825 37.0431 174.803 36.9262L174.41 37ZM165.986 37L165.59 37.0592C165.62 37.255 165.788 37.4 165.986 37.4V37ZM164.546 27.136V27.536C164.662 27.536 164.773 27.4854 164.849 27.3974C164.925 27.3094 164.958 27.1928 164.942 27.0777L164.546 27.136ZM163.502 20.044L163.898 19.9857C163.872 19.8131 163.738 19.6769 163.565 19.6491C163.393 19.6213 163.223 19.7085 163.144 19.8644L163.502 20.044ZM159.938 27.136L159.58 26.9564C159.518 27.0804 159.525 27.2278 159.597 27.3459C159.67 27.4641 159.799 27.536 159.938 27.536V27.136ZM165.41 32.748H156.914V33.548H165.41V32.748ZM156.557 32.9678L154.613 36.8198L155.327 37.1802L157.271 33.3282L156.557 32.9678ZM154.97 36.6H146.582V37.4H154.97V36.6ZM146.933 37.1907L160.757 11.7027L160.054 11.3213L146.23 36.8093L146.933 37.1907ZM160.406 11.912H169.622V11.112H160.406V11.912ZM169.229 11.5858L174.017 37.0738L174.803 36.9262L170.015 11.4382L169.229 11.5858ZM174.41 36.6H165.986V37.4H174.41V36.6ZM166.381 36.9408L165.805 33.0888L165.014 33.2072L165.59 37.0592L166.381 36.9408ZM164.942 27.0777L163.898 19.9857L163.106 20.1023L164.15 27.1943L164.942 27.0777ZM163.144 19.8644L159.58 26.9564L160.295 27.3156L163.859 20.2236L163.144 19.8644ZM159.938 27.536H164.546V26.736H159.938V27.536ZM200.814 19.864L200.421 19.7855L200.42 19.7929L200.814 19.864ZM198.582 24.436L198.878 24.7048L198.88 24.7021L198.582 24.436ZM194.01 27.244L193.892 26.8617C193.786 26.8944 193.698 26.9699 193.649 27.0701C193.601 27.1703 193.597 27.2861 193.637 27.3897L194.01 27.244ZM197.826 37V37.4C197.958 37.4 198.081 37.3347 198.156 37.2255C198.23 37.1163 198.246 36.9774 198.198 36.8543L197.826 37ZM189.042 37L188.664 37.1323C188.72 37.2926 188.872 37.4 189.042 37.4V37ZM185.838 27.856L186.215 27.7237C186.155 27.5521 185.987 27.4426 185.805 27.4573C185.624 27.472 185.475 27.6071 185.444 27.7862L185.838 27.856ZM184.218 37V37.4C184.412 37.4 184.578 37.2608 184.611 37.0698L184.218 37ZM176.226 37L175.832 36.9305C175.811 37.0469 175.843 37.1665 175.919 37.2571C175.995 37.3477 176.107 37.4 176.226 37.4V37ZM180.726 11.512V11.112C180.531 11.112 180.365 11.2513 180.332 11.4425L180.726 11.512ZM186.774 22.528L186.38 22.459C186.359 22.5754 186.391 22.6949 186.467 22.7853C186.543 22.8758 186.655 22.928 186.774 22.928V22.528ZM191.742 22.024L191.987 22.3397L191.989 22.338L191.742 22.024ZM192.642 20.368L192.249 20.2896L192.249 20.292L192.642 20.368ZM192.174 18.676L191.901 18.9691C191.905 18.9727 191.909 18.9763 191.913 18.9797L192.174 18.676ZM187.53 18.208V17.808C187.335 17.808 187.169 17.9476 187.136 18.139L187.53 18.208ZM192.606 11.912C195.289 11.912 197.256 12.5129 198.572 13.6506L199.095 13.0454C197.579 11.7351 195.394 11.112 192.606 11.112V11.912ZM198.572 13.6506C199.892 14.7912 200.558 16.3084 200.558 18.244H201.358C201.358 16.0996 200.608 14.3528 199.095 13.0454L198.572 13.6506ZM200.558 18.244C200.558 18.8233 200.511 19.3364 200.421 19.7856L201.206 19.9424C201.308 19.4316 201.358 18.8647 201.358 18.244H200.558ZM200.42 19.7929C200.121 21.4479 199.41 22.9045 198.283 24.1699L198.88 24.7021C200.105 23.3275 200.882 21.7361 201.207 19.9351L200.42 19.7929ZM198.285 24.1672C197.163 25.4039 195.704 26.3042 193.892 26.8617L194.127 27.6263C196.059 27.0318 197.648 26.0601 198.878 24.7048L198.285 24.1672ZM193.637 27.3897L197.453 37.1457L198.198 36.8543L194.382 27.0983L193.637 27.3897ZM197.826 36.6H189.042V37.4H197.826V36.6ZM189.419 36.8677L186.215 27.7237L185.46 27.9883L188.664 37.1323L189.419 36.8677ZM185.444 27.7862L183.824 36.9302L184.611 37.0698L186.231 27.9258L185.444 27.7862ZM184.218 36.6H176.226V37.4H184.218V36.6ZM176.619 37.0695L181.119 11.5815L180.332 11.4425L175.832 36.9305L176.619 37.0695ZM180.726 11.912H192.606V11.112H180.726V11.912ZM186.774 22.928H189.942V22.128H186.774V22.928ZM189.942 22.928C190.763 22.928 191.462 22.7486 191.987 22.3397L191.496 21.7083C191.158 21.9714 190.656 22.128 189.942 22.128V22.928ZM191.989 22.338C192.541 21.9024 192.878 21.2529 193.034 20.444L192.249 20.292C192.117 20.9711 191.854 21.4256 191.494 21.71L191.989 22.338ZM193.034 20.4464C193.065 20.2904 193.078 20.1053 193.078 19.9H192.278C192.278 20.0787 192.266 20.2056 192.249 20.2896L193.034 20.4464ZM193.078 19.9C193.078 19.28 192.876 18.7511 192.434 18.3723L191.913 18.9797C192.143 19.1769 192.278 19.464 192.278 19.9H193.078ZM192.446 18.3829C192.01 17.9783 191.405 17.808 190.698 17.808V18.608C191.286 18.608 191.665 18.7497 191.901 18.9691L192.446 18.3829ZM190.698 17.808H187.53V18.608H190.698V17.808ZM187.136 18.139L186.38 22.459L187.168 22.597L187.924 18.277L187.136 18.139ZM224.787 37V37.4C224.981 37.4 225.147 37.2607 225.181 37.0695L224.787 37ZM216.795 37L216.435 37.174C216.501 37.3122 216.641 37.4 216.795 37.4V37ZM210.603 24.184L210.963 24.01C210.887 23.8537 210.72 23.764 210.548 23.7878C210.376 23.8116 210.239 23.9434 210.209 24.1143L210.603 24.184ZM208.335 37V37.4C208.529 37.4 208.695 37.2608 208.729 37.0697L208.335 37ZM200.343 37L199.949 36.9305C199.928 37.0469 199.96 37.1665 200.036 37.2571C200.112 37.3477 200.225 37.4 200.343 37.4V37ZM204.843 11.512V11.112C204.649 11.112 204.483 11.2513 204.449 11.4425L204.843 11.512ZM212.835 11.512L213.196 11.3412C213.13 11.2012 212.99 11.112 212.835 11.112V11.512ZM218.991 24.544L218.629 24.7148C218.703 24.8723 218.871 24.9636 219.044 24.9405C219.217 24.9173 219.354 24.7852 219.385 24.6136L218.991 24.544ZM221.295 11.512V11.112C221.101 11.112 220.935 11.2513 220.901 11.4424L221.295 11.512ZM229.287 11.512L229.681 11.5815C229.701 11.4651 229.669 11.3455 229.593 11.2549C229.517 11.1643 229.405 11.112 229.287 11.112V11.512ZM224.787 36.6H216.795V37.4H224.787V36.6ZM217.155 36.826L210.963 24.01L210.243 24.358L216.435 37.174L217.155 36.826ZM210.209 24.1143L207.941 36.9303L208.729 37.0697L210.997 24.2537L210.209 24.1143ZM208.335 36.6H200.343V37.4H208.335V36.6ZM200.737 37.0695L205.237 11.5815L204.449 11.4425L199.949 36.9305L200.737 37.0695ZM204.843 11.912H212.835V11.112H204.843V11.912ZM212.473 11.6828L218.629 24.7148L219.352 24.3732L213.196 11.3412L212.473 11.6828ZM219.385 24.6136L221.689 11.5816L220.901 11.4424L218.597 24.4744L219.385 24.6136ZM221.295 11.912H229.287V11.112H221.295V11.912ZM228.893 11.4425L224.393 36.9305L225.181 37.0695L229.681 11.5815L228.893 11.4425ZM240.889 11.512L241.283 11.5815C241.304 11.4651 241.272 11.3455 241.196 11.2549C241.12 11.1643 241.008 11.112 240.889 11.112V11.512ZM236.389 37V37.4C236.584 37.4 236.75 37.2607 236.783 37.0695L236.389 37ZM228.397 37L228.004 36.9305C227.983 37.0469 228.015 37.1665 228.091 37.2571C228.167 37.3477 228.279 37.4 228.397 37.4V37ZM232.897 11.512V11.112C232.703 11.112 232.537 11.2513 232.504 11.4425L232.897 11.512ZM240.496 11.4425L235.996 36.9305L236.783 37.0695L241.283 11.5815L240.496 11.4425ZM236.389 36.6H228.397V37.4H236.389V36.6ZM228.791 37.0695L233.291 11.5815L232.504 11.4425L228.004 36.9305L228.791 37.0695ZM232.897 11.912H240.889V11.112H232.897V11.912ZM264.443 37V37.4C264.637 37.4 264.803 37.2607 264.837 37.0695L264.443 37ZM256.451 37L256.091 37.174C256.158 37.3122 256.298 37.4 256.451 37.4V37ZM250.259 24.184L250.619 24.01C250.544 23.8537 250.376 23.764 250.204 23.7878C250.032 23.8116 249.895 23.9434 249.865 24.1143L250.259 24.184ZM247.991 37V37.4C248.185 37.4 248.351 37.2608 248.385 37.0697L247.991 37ZM239.999 37L239.605 36.9305C239.585 37.0469 239.617 37.1665 239.693 37.2571C239.769 37.3477 239.881 37.4 239.999 37.4V37ZM244.499 11.512V11.112C244.305 11.112 244.139 11.2513 244.105 11.4425L244.499 11.512ZM252.491 11.512L252.853 11.3412C252.787 11.2012 252.646 11.112 252.491 11.112V11.512ZM258.647 24.544L258.285 24.7148C258.36 24.8723 258.527 24.9636 258.7 24.9405C258.873 24.9173 259.011 24.7852 259.041 24.6136L258.647 24.544ZM260.951 11.512V11.112C260.757 11.112 260.591 11.2513 260.557 11.4424L260.951 11.512ZM268.943 11.512L269.337 11.5815C269.357 11.4651 269.325 11.3455 269.249 11.2549C269.173 11.1643 269.061 11.112 268.943 11.112V11.512ZM264.443 36.6H256.451V37.4H264.443V36.6ZM256.811 36.826L250.619 24.01L249.899 24.358L256.091 37.174L256.811 36.826ZM249.865 24.1143L247.597 36.9303L248.385 37.0697L250.653 24.2537L249.865 24.1143ZM247.991 36.6H239.999V37.4H247.991V36.6ZM240.393 37.0695L244.893 11.5815L244.105 11.4425L239.605 36.9305L240.393 37.0695ZM244.499 11.912H252.491V11.112H244.499V11.912ZM252.129 11.6828L258.285 24.7148L259.009 24.3732L252.853 11.3412L252.129 11.6828ZM259.041 24.6136L261.345 11.5816L260.557 11.4424L258.253 24.4744L259.041 24.6136ZM260.951 11.912H268.943V11.112H260.951V11.912ZM268.549 11.4425L264.049 36.9305L264.837 37.0695L269.337 11.5815L268.549 11.4425ZM269.602 24.22L269.995 24.2925L269.996 24.2876L269.602 24.22ZM272.338 17.488L272.011 17.257L272.338 17.488ZM277.63 12.916L277.81 13.273L277.813 13.2713L277.63 12.916ZM290.446 12.376L290.273 12.7371L290.28 12.7401L290.446 12.376ZM293.974 15.472L293.626 15.6705L293.629 15.6751L293.974 15.472ZM295.054 20.224V20.624C295.268 20.624 295.445 20.4544 295.453 20.2398L295.054 20.224ZM286.63 20.224L286.262 20.3816C286.325 20.5286 286.47 20.624 286.63 20.624V20.224ZM285.514 19.072L285.322 19.4232C285.326 19.4254 285.331 19.4276 285.335 19.4298L285.514 19.072ZM279.646 20.152L279.366 19.8658L279.363 19.8692L279.646 20.152ZM277.702 24.22L277.307 24.1533L277.307 24.1542L277.702 24.22ZM287.242 27.928L287.534 28.2013C287.643 28.0849 287.672 27.915 287.609 27.7688C287.545 27.6226 287.401 27.528 287.242 27.528V27.928ZM280.87 27.928L280.475 27.8602C280.456 27.9764 280.488 28.0956 280.564 28.1858C280.64 28.2759 280.752 28.328 280.87 28.328V27.928ZM281.842 22.276V21.876C281.647 21.876 281.48 22.0163 281.448 22.2082L281.842 22.276ZM294.838 22.276L295.232 22.3452C295.252 22.2288 295.22 22.1093 295.144 22.0188C295.068 21.9283 294.956 21.876 294.838 21.876V22.276ZM293.434 30.268L293.752 30.5099C293.791 30.4592 293.817 30.4 293.828 30.3372L293.434 30.268ZM287.998 35.164L288.207 35.5047L288.21 35.503L287.998 35.164ZM274.354 35.92L274.171 36.2757L274.354 35.92ZM270.61 32.392L270.259 32.584L270.262 32.5905L270.61 32.392ZM269.996 24.2876C270.418 21.8228 271.309 19.6353 272.664 17.719L272.011 17.257C270.583 19.2767 269.649 21.5772 269.207 24.1524L269.996 24.2876ZM272.664 17.719C274.019 15.8039 275.733 14.3233 277.81 13.273L277.449 12.559C275.255 13.6687 273.441 15.2361 272.011 17.257L272.664 17.719ZM277.813 13.2713C279.888 12.1992 282.2 11.66 284.758 11.66V10.86C282.084 10.86 279.644 11.4248 277.446 12.5607L277.813 13.2713ZM284.758 11.66C286.947 11.66 288.781 12.025 290.274 12.737L290.618 12.015C288.991 11.239 287.033 10.86 284.758 10.86V11.66ZM290.28 12.7401C291.798 13.4299 292.905 14.4083 293.626 15.6705L294.321 15.2735C293.506 13.8477 292.262 12.7621 290.611 12.0119L290.28 12.7401ZM293.629 15.6751C294.376 16.9423 294.724 18.4476 294.654 20.2082L295.453 20.2398C295.528 18.3524 295.156 16.6897 294.318 15.2689L293.629 15.6751ZM295.054 19.824H286.63V20.624H295.054V19.824ZM286.997 20.0664C286.741 19.4686 286.298 19.017 285.693 18.7142L285.335 19.4298C285.785 19.655 286.086 19.9714 286.262 20.3816L286.997 20.0664ZM285.705 18.7208C285.101 18.3914 284.358 18.24 283.498 18.24V19.04C284.27 19.04 284.87 19.1766 285.322 19.4232L285.705 18.7208ZM283.498 18.24C281.865 18.24 280.478 18.7798 279.366 19.8658L279.925 20.4381C280.877 19.5082 282.059 19.04 283.498 19.04V18.24ZM279.363 19.8692C278.285 20.9474 277.606 22.3852 277.307 24.1533L278.096 24.2867C278.373 22.6468 278.991 21.3726 279.929 20.4348L279.363 19.8692ZM277.307 24.1542C277.185 24.8847 277.122 25.4969 277.122 25.984H277.922C277.922 25.5591 277.978 24.9953 278.096 24.2858L277.307 24.1542ZM277.122 25.984C277.122 27.4548 277.552 28.6258 278.476 29.4194C279.388 30.203 280.714 30.56 282.382 30.56V29.76C280.81 29.76 279.705 29.421 278.997 28.8126C278.301 28.2142 277.922 27.2972 277.922 25.984H277.122ZM282.382 30.56C284.352 30.56 286.075 29.7609 287.534 28.2013L286.95 27.6547C285.625 29.0711 284.107 29.76 282.382 29.76V30.56ZM287.242 27.528H280.87V28.328H287.242V27.528ZM281.264 27.9958L282.236 22.3438L281.448 22.2082L280.475 27.8602L281.264 27.9958ZM281.842 22.676H294.838V21.876H281.842V22.676ZM294.444 22.2068L293.04 30.1988L293.828 30.3372L295.232 22.3452L294.444 22.2068ZM293.115 30.0261C291.707 31.8805 289.932 33.4806 287.785 34.825L288.21 35.503C290.432 34.1114 292.281 32.4475 293.752 30.5099L293.115 30.0261ZM287.788 34.8233C285.677 36.1227 283.172 36.78 280.258 36.78V37.58C283.296 37.58 285.951 36.8933 288.207 35.5047L287.788 34.8233ZM280.258 36.78C278.001 36.78 276.1 36.3687 274.537 35.5643L274.171 36.2757C275.872 37.1513 277.906 37.58 280.258 37.58V36.78ZM274.537 35.5643C272.97 34.7577 271.78 33.6346 270.957 32.1935L270.262 32.5905C271.167 34.1734 272.474 35.4023 274.171 36.2757L274.537 35.5643ZM270.961 32.2001C270.158 30.732 269.75 29.0121 269.75 27.028H268.95C268.95 29.1239 269.382 30.98 270.259 32.5839L270.961 32.2001ZM269.75 27.028C269.75 26.0915 269.832 25.1797 269.995 24.2925L269.208 24.1475C269.036 25.0843 268.95 26.0445 268.95 27.028H269.75ZM316.469 19.324L316.071 19.2917C316.061 19.403 316.099 19.5131 316.175 19.5952C316.251 19.6773 316.358 19.724 316.469 19.724V19.324ZM315.893 17.452L316.141 17.138C316.03 17.0507 315.882 17.028 315.75 17.0784C315.619 17.1288 315.523 17.2447 315.499 17.3836L315.893 17.452ZM315.281 20.98L314.887 20.9116C314.853 21.1066 314.967 21.2969 315.155 21.3595L315.281 20.98ZM316.361 21.34L316.235 21.7195L316.24 21.7212L316.361 21.34ZM320.141 22.78L319.969 23.1412L319.976 23.1444L320.141 22.78ZM322.733 24.76L322.426 25.0161L322.43 25.021L322.733 24.76ZM323.705 29.476L324.099 29.5481C324.1 29.543 324.1 29.5378 324.101 29.5326L323.705 29.476ZM317.945 36.136L318.104 36.5031L317.945 36.136ZM312.401 37.252L312.392 36.8521C312.201 36.8565 312.04 36.9951 312.007 37.183L312.401 37.252ZM311.897 40.132V40.532C312.092 40.532 312.258 40.3924 312.291 40.201L311.897 40.132ZM309.665 40.132L309.271 40.0647C309.251 40.1809 309.283 40.2999 309.359 40.3899C309.435 40.48 309.547 40.532 309.665 40.532V40.132ZM310.169 37.18L310.564 37.2473C310.582 37.1377 310.554 37.0252 310.487 36.9369C310.419 36.8485 310.318 36.7923 310.207 36.7818L310.169 37.18ZM304.157 34.984L303.901 35.2909L303.903 35.2929L304.157 34.984ZM302.033 28.828V28.428C301.828 28.428 301.656 28.5837 301.635 28.7882L302.033 28.828ZM310.529 28.828L310.927 28.8668C310.938 28.7545 310.901 28.6428 310.825 28.5592C310.75 28.4757 310.642 28.428 310.529 28.428V28.828ZM311.285 30.844L311.079 31.187C311.192 31.2545 311.33 31.2625 311.45 31.2085C311.569 31.1545 311.655 31.0453 311.679 30.9163L311.285 30.844ZM311.933 27.316L312.327 27.3883C312.364 27.1849 312.24 26.9866 312.041 26.9308L311.933 27.316ZM307.649 25.948L307.495 26.3171L307.505 26.3211L307.649 25.948ZM304.841 23.968L304.547 24.239L304.551 24.2429L304.841 23.968ZM303.725 18.856L304.117 18.9345L304.119 18.9286L303.725 18.856ZM305.741 14.824L306.033 15.0974L306.036 15.0943L305.741 14.824ZM309.701 12.16L309.555 11.7878V11.7878L309.701 12.16ZM314.777 11.116L314.793 11.5157C314.982 11.5081 315.139 11.37 315.171 11.1841L314.777 11.116ZM315.281 8.2V7.8C315.087 7.8 314.92 7.94009 314.887 8.13187L315.281 8.2ZM317.513 8.2L317.907 8.26813C317.927 8.15185 317.895 8.03263 317.819 7.94237C317.743 7.8521 317.631 7.8 317.513 7.8V8.2ZM317.009 11.116L316.615 11.0479C316.596 11.1591 316.624 11.2732 316.694 11.3621C316.763 11.4511 316.867 11.5066 316.98 11.5149L317.009 11.116ZM325.073 19.324V19.724C325.28 19.724 325.453 19.5662 325.472 19.3602L325.073 19.324ZM313.193 20.08L312.971 20.4128C313.084 20.4878 313.227 20.5009 313.351 20.4477C313.475 20.3944 313.564 20.2821 313.587 20.149L313.193 20.08ZM313.697 17.2L314.091 17.269C314.114 17.1411 314.073 17.0104 313.981 16.9183C313.89 16.8262 313.759 16.7841 313.631 16.8054L313.697 17.2ZM312.689 17.704L312.985 17.9731V17.9731L312.689 17.704ZM314.021 28.072L314.209 27.7188C314.096 27.6586 313.961 27.6564 313.845 27.7127C313.73 27.769 313.649 27.877 313.627 28.0033L314.021 28.072ZM313.481 31.168L313.087 31.0993C313.065 31.2254 313.105 31.3545 313.194 31.4465C313.283 31.5384 313.411 31.5821 313.538 31.564L313.481 31.168ZM314.705 30.592L314.422 30.3092L314.705 30.592ZM316.868 19.3563C316.945 18.4096 316.75 17.6186 316.141 17.138L315.645 17.766C315.949 18.0054 316.138 18.4624 316.071 19.2917L316.868 19.3563ZM315.499 17.3836L314.887 20.9116L315.675 21.0484L316.287 17.5204L315.499 17.3836ZM315.155 21.3595L316.235 21.7195L316.488 20.9605L315.408 20.6005L315.155 21.3595ZM316.24 21.7212C317.741 22.1978 318.983 22.6715 319.969 23.1411L320.313 22.4189C319.283 21.9285 318.005 21.4422 316.482 20.9587L316.24 21.7212ZM319.976 23.1444C320.928 23.5751 321.744 24.1977 322.426 25.0161L323.04 24.5039C322.282 23.5943 321.37 22.8969 320.306 22.4156L319.976 23.1444ZM322.43 25.021C323.101 25.7998 323.449 26.8058 323.449 28.072H324.249C324.249 26.6502 323.854 25.4482 323.036 24.499L322.43 25.021ZM323.449 28.072C323.449 28.304 323.405 28.746 323.309 29.4194L324.101 29.5326C324.197 28.862 324.249 28.368 324.249 28.072H323.449ZM323.312 29.4039C323.061 30.7721 322.469 32.0038 321.529 33.1042L322.137 33.6238C323.165 32.4202 323.822 31.0599 324.099 29.5481L323.312 29.4039ZM321.529 33.1042C320.59 34.2031 319.347 35.0933 317.786 35.7689L318.104 36.5031C319.759 35.7867 321.108 34.8289 322.137 33.6238L321.529 33.1042ZM317.786 35.7689C316.234 36.4409 314.438 36.8051 312.392 36.8521L312.41 37.6519C314.54 37.6029 316.441 37.2231 318.104 36.5031L317.786 35.7689ZM312.007 37.183L311.503 40.063L312.291 40.201L312.795 37.321L312.007 37.183ZM311.897 39.732H309.665V40.532H311.897V39.732ZM310.06 40.1993L310.564 37.2473L309.775 37.1127L309.271 40.0647L310.06 40.1993ZM310.207 36.7818C307.742 36.547 305.821 35.8348 304.411 34.6751L303.903 35.2929C305.469 36.5812 307.556 37.333 310.131 37.5782L310.207 36.7818ZM304.414 34.6771C303.053 33.5397 302.361 31.9671 302.361 29.908H301.561C301.561 32.1689 302.333 33.9803 303.901 35.2909L304.414 34.6771ZM302.361 29.908C302.361 29.6887 302.384 29.345 302.431 28.8678L301.635 28.7882C301.587 29.271 301.561 29.6473 301.561 29.908H302.361ZM302.033 29.228H310.529V28.428H302.033V29.228ZM310.131 28.7892C310.027 29.8536 310.294 30.7156 311.079 31.187L311.491 30.501C311.077 30.2524 310.839 29.7704 310.927 28.8668L310.131 28.7892ZM311.679 30.9163L312.327 27.3883L311.54 27.2437L310.892 30.7717L311.679 30.9163ZM312.041 26.9308C310.247 26.4284 308.832 25.9763 307.793 25.5749L307.505 26.3211C308.578 26.7357 310.02 27.1956 311.825 27.7012L312.041 26.9308ZM307.804 25.579C306.828 25.1705 305.937 24.5444 305.132 23.6931L304.551 24.2429C305.425 25.1676 306.407 25.8615 307.495 26.317L307.804 25.579ZM305.135 23.697C304.378 22.8743 303.981 21.7668 303.981 20.332H303.181C303.181 21.9212 303.625 23.2377 304.547 24.239L305.135 23.697ZM303.981 20.332C303.981 19.8536 304.027 19.3879 304.117 18.9344L303.333 18.7776C303.232 19.2841 303.181 19.8024 303.181 20.332H303.981ZM304.119 18.9286C304.393 17.4417 305.031 16.168 306.033 15.0974L305.449 14.5506C304.339 15.736 303.633 17.1503 303.332 18.7834L304.119 18.9286ZM306.036 15.0943C307.047 13.991 308.315 13.1359 309.848 12.5322L309.555 11.7878C307.919 12.4321 306.547 13.353 305.446 14.5537L306.036 15.0943ZM309.848 12.5322C311.388 11.9255 313.035 11.586 314.793 11.5157L314.761 10.7163C312.919 10.79 311.183 11.1465 309.555 11.7878L309.848 12.5322ZM315.171 11.1841L315.675 8.26813L314.887 8.13187L314.383 11.0479L315.171 11.1841ZM315.281 8.6H317.513V7.8H315.281V8.6ZM317.119 8.13187L316.615 11.0479L317.403 11.1841L317.907 8.26813L317.119 8.13187ZM316.98 11.5149C319.52 11.7031 321.432 12.3818 322.763 13.5092L323.28 12.8988C321.778 11.6262 319.682 10.9129 317.039 10.7171L316.98 11.5149ZM322.763 13.5092C324.075 14.6212 324.745 16.1698 324.745 18.208H325.545C325.545 15.9742 324.8 14.1867 323.28 12.8988L322.763 13.5092ZM324.745 18.208C324.745 18.4039 324.723 18.7595 324.675 19.2878L325.472 19.3602C325.52 18.8325 325.545 18.4441 325.545 18.208H324.745ZM325.073 18.924H316.469V19.724H325.073V18.924ZM311.929 18.748C311.929 19.4325 312.33 19.985 312.971 20.4128L313.415 19.7472C312.905 19.407 312.729 19.0715 312.729 18.748H311.929ZM313.587 20.149L314.091 17.269L313.303 17.131L312.799 20.011L313.587 20.149ZM313.631 16.8054C313.132 16.8888 312.706 17.0904 312.393 17.4349L312.985 17.9731C313.152 17.7896 313.399 17.6552 313.763 17.5946L313.631 16.8054ZM312.393 17.4349C312.073 17.7874 311.929 18.2386 311.929 18.748H312.729C312.729 18.3934 312.826 18.1486 312.985 17.9731L312.393 17.4349ZM315.573 29.404C315.573 28.6849 315 28.1391 314.209 27.7188L313.834 28.4252C314.578 28.8209 314.773 29.1631 314.773 29.404H315.573ZM313.627 28.0033L313.087 31.0993L313.875 31.2367L314.415 28.1407L313.627 28.0033ZM313.538 31.564C314.114 31.4817 314.606 31.2572 314.988 30.8748L314.422 30.3092C314.181 30.5508 313.857 30.7103 313.425 30.772L313.538 31.564ZM314.988 30.8748C315.382 30.4809 315.573 29.9798 315.573 29.404H314.773C314.773 29.7882 314.652 30.0791 314.422 30.3092L314.988 30.8748ZM348.979 20.26L349.372 20.3305L349.373 20.3258L348.979 20.26ZM347.107 24.652L347.428 24.8901L347.43 24.8873L347.107 24.652ZM343.255 27.748L343.082 27.387L343.08 27.3881L343.255 27.748ZM334.615 28.9V28.5C334.421 28.5 334.255 28.6391 334.221 28.83L334.615 28.9ZM333.175 37V37.4C333.369 37.4 333.535 37.2609 333.568 37.07L333.175 37ZM325.183 37L324.789 36.9305C324.768 37.0469 324.8 37.1665 324.876 37.2571C324.952 37.3477 325.064 37.4 325.183 37.4V37ZM329.683 11.512V11.112C329.489 11.112 329.322 11.2513 329.289 11.4425L329.683 11.512ZM347.035 13.348L347.296 13.0454L347.035 13.348ZM340.879 20.26L341.272 20.3326L341.273 20.3258L340.879 20.26ZM336.559 17.92V17.52C336.365 17.52 336.199 17.6592 336.165 17.8503L336.559 17.92ZM335.731 22.6L335.337 22.5303C335.316 22.6468 335.348 22.7664 335.424 22.857C335.5 22.9477 335.612 23 335.731 23V22.6ZM348.585 20.1895C348.308 21.738 347.708 23.1457 346.783 24.4167L347.43 24.8873C348.426 23.5183 349.074 21.998 349.372 20.3305L348.585 20.1895ZM346.785 24.4139C345.868 25.6521 344.638 26.6442 343.082 27.3871L343.427 28.1089C345.088 27.3158 346.425 26.2439 347.428 24.8901L346.785 24.4139ZM343.08 27.3881C341.559 28.1255 339.797 28.5 337.783 28.5V29.3C339.897 29.3 341.782 28.9065 343.429 28.1079L343.08 27.3881ZM337.783 28.5H334.615V29.3H337.783V28.5ZM334.221 28.83L332.781 36.93L333.568 37.07L335.008 28.97L334.221 28.83ZM333.175 36.6H325.183V37.4H333.175V36.6ZM325.577 37.0695L330.077 11.5815L329.289 11.4425L324.789 36.9305L325.577 37.0695ZM329.683 11.912H340.843V11.112H329.683V11.912ZM340.843 11.912C343.501 11.912 345.456 12.5125 346.773 13.6506L347.296 13.0454C345.781 11.7355 343.608 11.112 340.843 11.112V11.912ZM346.773 13.6506C348.088 14.7874 348.759 16.3499 348.759 18.388H349.559C349.559 16.1541 348.813 14.3566 347.296 13.0454L346.773 13.6506ZM348.759 18.388C348.759 18.8874 348.702 19.4884 348.584 20.1942L349.373 20.3258C349.496 19.5916 349.559 18.9446 349.559 18.388H348.759ZM337.999 23C338.877 23 339.624 22.7896 340.195 22.3254C340.768 21.8602 341.116 21.1791 341.272 20.3326L340.485 20.1874C340.354 20.9009 340.078 21.3898 339.69 21.7046C339.302 22.0204 338.752 22.2 337.999 22.2V23ZM341.273 20.3258C341.321 20.0381 341.351 19.8047 341.351 19.648H340.551C340.551 19.7313 340.532 19.9059 340.484 20.1942L341.273 20.3258ZM341.351 19.648C341.351 18.986 341.143 18.425 340.672 18.0417C340.217 17.6713 339.579 17.52 338.827 17.52V18.32C339.491 18.32 339.915 18.4567 340.167 18.6623C340.404 18.855 340.551 19.158 340.551 19.648H341.351ZM338.827 17.52H336.559V18.32H338.827V17.52ZM336.165 17.8503L335.337 22.5303L336.125 22.6697L336.953 17.9897L336.165 17.8503ZM335.731 23H337.999V22.2H335.731V23ZM372.358 20.26L372.751 20.3305L372.752 20.3258L372.358 20.26ZM370.486 24.652L370.807 24.8901L370.809 24.8873L370.486 24.652ZM366.634 27.748L366.461 27.387L366.459 27.3881L366.634 27.748ZM357.994 28.9V28.5C357.8 28.5 357.634 28.6391 357.6 28.83L357.994 28.9ZM356.554 37V37.4C356.747 37.4 356.913 37.2609 356.947 37.07L356.554 37ZM348.562 37L348.168 36.9305C348.147 37.0469 348.179 37.1665 348.255 37.2571C348.331 37.3477 348.443 37.4 348.562 37.4V37ZM353.062 11.512V11.112C352.867 11.112 352.701 11.2513 352.668 11.4425L353.062 11.512ZM370.414 13.348L370.675 13.0454L370.414 13.348ZM364.258 20.26L364.651 20.3326L364.652 20.3258L364.258 20.26ZM359.938 17.92V17.52C359.743 17.52 359.577 17.6592 359.544 17.8503L359.938 17.92ZM359.11 22.6L358.716 22.5303C358.695 22.6468 358.727 22.7664 358.803 22.857C358.879 22.9477 358.991 23 359.11 23V22.6ZM371.964 20.1895C371.686 21.738 371.086 23.1457 370.162 24.4167L370.809 24.8873C371.805 23.5183 372.453 21.998 372.751 20.3305L371.964 20.1895ZM370.164 24.4139C369.247 25.6521 368.016 26.6442 366.461 27.3871L366.806 28.1089C368.467 27.3158 369.804 26.2439 370.807 24.8901L370.164 24.4139ZM366.459 27.3881C364.938 28.1255 363.175 28.5 361.162 28.5V29.3C363.276 29.3 365.161 28.9065 366.808 28.1079L366.459 27.3881ZM361.162 28.5H357.994V29.3H361.162V28.5ZM357.6 28.83L356.16 36.93L356.947 37.07L358.387 28.97L357.6 28.83ZM356.554 36.6H348.562V37.4H356.554V36.6ZM348.955 37.0695L353.455 11.5815L352.668 11.4425L348.168 36.9305L348.955 37.0695ZM353.062 11.912H364.222V11.112H353.062V11.912ZM364.222 11.912C366.88 11.912 368.835 12.5125 370.152 13.6506L370.675 13.0454C369.16 11.7355 366.987 11.112 364.222 11.112V11.912ZM370.152 13.6506C371.467 14.7874 372.138 16.3499 372.138 18.388H372.938C372.938 16.1541 372.192 14.3566 370.675 13.0454L370.152 13.6506ZM372.138 18.388C372.138 18.8874 372.081 19.4884 371.963 20.1942L372.752 20.3258C372.874 19.5916 372.938 18.9446 372.938 18.388H372.138ZM361.378 23C362.256 23 363.003 22.7896 363.574 22.3254C364.146 21.8602 364.495 21.1791 364.651 20.3326L363.864 20.1874C363.732 20.9009 363.457 21.3898 363.069 21.7046C362.681 22.0204 362.131 22.2 361.378 22.2V23ZM364.652 20.3258C364.7 20.0381 364.73 19.8047 364.73 19.648H363.93C363.93 19.7313 363.911 19.9059 363.863 20.1942L364.652 20.3258ZM364.73 19.648C364.73 18.986 364.522 18.425 364.051 18.0417C363.596 17.6713 362.957 17.52 362.206 17.52V18.32C362.87 18.32 363.293 18.4567 363.546 18.6623C363.783 18.855 363.93 19.158 363.93 19.648H364.73ZM362.206 17.52H359.938V18.32H362.206V17.52ZM359.544 17.8503L358.716 22.5303L359.503 22.6697L360.331 17.9897L359.544 17.8503ZM359.11 23H361.378V22.2H359.11V23ZM396.456 11.512L396.85 11.5814C396.871 11.465 396.839 11.3454 396.763 11.2549C396.687 11.1643 396.575 11.112 396.456 11.112V11.512ZM395.34 17.848V18.248C395.535 18.248 395.701 18.1086 395.734 17.9174L395.34 17.848ZM388.572 17.848V17.448C388.378 17.448 388.212 17.5873 388.179 17.7784L388.572 17.848ZM385.188 37V37.4C385.383 37.4 385.549 37.2607 385.582 37.0696L385.188 37ZM377.196 37L376.803 36.9304C376.782 37.0469 376.814 37.1665 376.89 37.2571C376.966 37.3477 377.078 37.4 377.196 37.4V37ZM380.58 17.848L380.974 17.9176C380.995 17.8011 380.963 17.6815 380.887 17.5909C380.811 17.5003 380.699 17.448 380.58 17.448V17.848ZM373.884 17.848L373.491 17.7786C373.47 17.895 373.502 18.0146 373.578 18.1051C373.654 18.1957 373.766 18.248 373.884 18.248V17.848ZM375 11.512V11.112C374.806 11.112 374.64 11.2514 374.607 11.4426L375 11.512ZM396.062 11.4426L394.947 17.7786L395.734 17.9174L396.85 11.5814L396.062 11.4426ZM395.34 17.448H388.572V18.248H395.34V17.448ZM388.179 17.7784L384.795 36.9304L385.582 37.0696L388.966 17.9176L388.179 17.7784ZM385.188 36.6H377.196V37.4H385.188V36.6ZM377.59 37.0696L380.974 17.9176L380.187 17.7784L376.803 36.9304L377.59 37.0696ZM380.58 17.448H373.884V18.248H380.58V17.448ZM374.278 17.9174L375.394 11.5814L374.607 11.4426L373.491 17.7786L374.278 17.9174ZM375 11.912H396.456V11.112H375V11.912ZM409.676 9.82L410.066 9.90964C410.093 9.7909 410.065 9.66618 409.989 9.57086C409.913 9.47553 409.798 9.42 409.676 9.42V9.82ZM405.752 26.884V27.284C405.938 27.284 406.1 27.1553 406.142 26.9736L405.752 26.884ZM398.912 26.884L398.515 26.8362C398.501 26.9498 398.537 27.0638 398.613 27.1494C398.689 27.235 398.798 27.284 398.912 27.284V26.884ZM400.964 9.82V9.42C400.762 9.42 400.591 9.57125 400.567 9.77224L400.964 9.82ZM397.544 36.388L397.283 36.691L397.288 36.6953L397.544 36.388ZM397.184 31.708L396.851 31.4861L396.846 31.494L397.184 31.708ZM399.128 30.016L399.307 30.3738L399.311 30.3717L399.128 30.016ZM404.78 30.304L404.513 30.6019L404.519 30.607L404.78 30.304ZM405.14 34.984L405.475 35.2032L405.478 35.198L405.14 34.984ZM403.232 36.676L403.411 37.0339L403.419 37.0295L403.232 36.676ZM409.286 9.73035L405.362 26.7944L406.142 26.9736L410.066 9.90964L409.286 9.73035ZM405.752 26.484H398.912V27.284H405.752V26.484ZM399.309 26.9318L401.361 9.86776L400.567 9.77224L398.515 26.8362L399.309 26.9318ZM400.964 10.22H409.676V9.42H400.964V10.22ZM400.496 36.888C399.31 36.888 398.427 36.6035 397.8 36.0807L397.288 36.6953C398.101 37.3725 399.186 37.688 400.496 37.688V36.888ZM397.805 36.085C397.202 35.5648 396.9 34.8976 396.9 34.048H396.1C396.1 35.1184 396.494 36.0112 397.283 36.691L397.805 36.085ZM396.9 34.048C396.9 33.2849 397.106 32.579 397.522 31.922L396.846 31.494C396.35 32.277 396.1 33.1311 396.1 34.048H396.9ZM397.517 31.9299C397.956 31.271 398.55 30.7524 399.307 30.3738L398.949 29.6582C398.074 30.0956 397.372 30.705 396.851 31.4861L397.517 31.9299ZM399.311 30.3717C400.091 29.9708 400.951 29.768 401.9 29.768V28.968C400.833 28.968 399.845 29.1972 398.945 29.6603L399.311 30.3717ZM401.9 29.768C403.057 29.768 403.911 30.0618 404.513 30.6018L405.047 30.0062C404.257 29.2982 403.191 28.968 401.9 28.968V29.768ZM404.519 30.607C405.122 31.1272 405.424 31.7944 405.424 32.644H406.224C406.224 31.5736 405.83 30.6808 405.041 30.001L404.519 30.607ZM405.424 32.644C405.424 33.4071 405.218 34.113 404.802 34.77L405.478 35.198C405.974 34.415 406.224 33.5609 406.224 32.644H405.424ZM404.805 34.7648C404.39 35.3983 403.808 35.9186 403.045 36.3225L403.419 37.0295C404.288 36.5694 404.978 35.9617 405.475 35.2032L404.805 34.7648ZM403.053 36.3182C402.298 36.6956 401.449 36.888 400.496 36.888V37.688C401.56 37.688 402.534 37.4724 403.411 37.0338L403.053 36.3182Z" fill="white"/>
<path d="M11.779 37.252C8.65896 37.252 6.16296 36.628 4.29096 35.38C2.44296 34.132 1.51896 32.308 1.51896 29.908C1.51896 29.668 1.54296 29.308 1.59096 28.828H10.087C10.015 29.572 10.123 30.124 10.411 30.484C10.723 30.844 11.227 31.024 11.923 31.024C12.355 31.024 12.715 30.916 13.003 30.7C13.291 30.484 13.435 30.172 13.435 29.764C13.435 29.188 13.147 28.708 12.571 28.324C12.019 27.94 11.119 27.484 9.87096 26.956C8.50296 26.38 7.37496 25.828 6.48696 25.3C5.62296 24.772 4.86696 24.052 4.21896 23.14C3.57096 22.228 3.24696 21.088 3.24696 19.72C3.24696 17.92 3.69096 16.372 4.57896 15.076C5.49096 13.756 6.75096 12.76 8.35896 12.088C9.96696 11.416 11.803 11.08 13.867 11.08C15.715 11.08 17.359 11.368 18.799 11.944C20.263 12.52 21.403 13.36 22.219 14.464C23.059 15.544 23.479 16.828 23.479 18.316C23.479 18.508 23.455 18.844 23.407 19.324H14.803C14.851 19.036 14.875 18.844 14.875 18.748C14.875 18.292 14.743 17.944 14.479 17.704C14.215 17.44 13.855 17.308 13.399 17.308C12.991 17.308 12.655 17.428 12.391 17.668C12.127 17.908 11.995 18.22 11.995 18.604C11.995 19.132 12.271 19.6 12.823 20.008C13.375 20.392 14.251 20.872 15.451 21.448C16.819 22.096 17.947 22.708 18.835 23.284C19.747 23.86 20.527 24.628 21.175 25.588C21.823 26.524 22.147 27.676 22.147 29.044C22.147 30.604 21.727 32.008 20.887 33.256C20.071 34.504 18.883 35.488 17.323 36.208C15.763 36.904 13.915 37.252 11.779 37.252ZM48.4486 11.512L47.3326 17.848H40.5646L37.1806 37H29.1886L32.5726 17.848H25.8766L26.9926 11.512H48.4486ZM63.1442 33.148H54.6482L52.7042 37H44.3162L58.1402 11.512H67.3562L72.1442 37H63.7202L63.1442 33.148ZM62.2802 27.136L61.2362 20.044L57.6722 27.136H62.2802ZM90.34 11.512C93.076 11.512 95.152 12.124 96.568 13.348C97.984 14.572 98.692 16.204 98.692 18.244C98.692 18.844 98.644 19.384 98.548 19.864C98.236 21.592 97.492 23.116 96.316 24.436C95.14 25.732 93.616 26.668 91.744 27.244L95.56 37H86.776L83.572 27.856L81.952 37H73.96L78.46 11.512H90.34ZM84.508 22.528H87.676C88.444 22.528 89.044 22.36 89.476 22.024C89.932 21.664 90.232 21.112 90.376 20.368C90.4 20.248 90.412 20.092 90.412 19.9C90.412 19.372 90.244 18.964 89.908 18.676C89.572 18.364 89.08 18.208 88.432 18.208H85.264L84.508 22.528ZM122.593 11.512L121.477 17.848H114.709L111.325 37H103.333L106.717 17.848H100.021L101.137 11.512H122.593ZM137.754 17.848L137.214 21.016H145.134L144.054 27.028H136.134L135.486 30.628H144.486L143.37 37H126.378L130.878 11.512H147.87L146.754 17.848H137.754ZM163.41 33.148H154.914L152.97 37H144.582L158.406 11.512H167.622L172.41 37H163.986L163.41 33.148ZM162.546 27.136L161.502 20.044L157.938 27.136H162.546ZM190.606 11.512C193.342 11.512 195.418 12.124 196.834 13.348C198.25 14.572 198.958 16.204 198.958 18.244C198.958 18.844 198.91 19.384 198.814 19.864C198.502 21.592 197.758 23.116 196.582 24.436C195.406 25.732 193.882 26.668 192.01 27.244L195.826 37H187.042L183.838 27.856L182.218 37H174.226L178.726 11.512H190.606ZM184.774 22.528H187.942C188.71 22.528 189.31 22.36 189.742 22.024C190.198 21.664 190.498 21.112 190.642 20.368C190.666 20.248 190.678 20.092 190.678 19.9C190.678 19.372 190.51 18.964 190.174 18.676C189.838 18.364 189.346 18.208 188.698 18.208H185.53L184.774 22.528ZM222.787 37H214.795L208.603 24.184L206.335 37H198.343L202.843 11.512H210.835L216.991 24.544L219.295 11.512H227.287L222.787 37ZM238.889 11.512L234.389 37H226.397L230.897 11.512H238.889ZM262.443 37H254.451L248.259 24.184L245.991 37H237.999L242.499 11.512H250.491L256.647 24.544L258.951 11.512H266.943L262.443 37ZM267.602 24.22C268.034 21.7 268.946 19.456 270.338 17.488C271.73 15.52 273.494 13.996 275.63 12.916C277.766 11.812 280.142 11.26 282.758 11.26C284.99 11.26 286.886 11.632 288.446 12.376C290.03 13.096 291.206 14.128 291.974 15.472C292.766 16.816 293.126 18.4 293.054 20.224H284.63C284.414 19.72 284.042 19.336 283.514 19.072C282.986 18.784 282.314 18.64 281.498 18.64C279.962 18.64 278.678 19.144 277.646 20.152C276.638 21.16 275.99 22.516 275.702 24.22C275.582 24.94 275.522 25.528 275.522 25.984C275.522 28.768 277.142 30.16 280.382 30.16C282.23 30.16 283.85 29.416 285.242 27.928H278.87L279.842 22.276H292.838L291.434 30.268C289.994 32.164 288.182 33.796 285.998 35.164C283.814 36.508 281.234 37.18 278.258 37.18C275.954 37.18 273.986 36.76 272.354 35.92C270.722 35.08 269.474 33.904 268.61 32.392C267.77 30.856 267.35 29.068 267.35 27.028C267.35 26.068 267.434 25.132 267.602 24.22ZM407.676 9.82L403.752 26.884H396.912L398.964 9.82H407.676ZM398.496 37.288C397.248 37.288 396.264 36.988 395.544 36.388C394.848 35.788 394.5 35.008 394.5 34.048C394.5 33.208 394.728 32.428 395.184 31.708C395.664 30.988 396.312 30.424 397.128 30.016C397.968 29.584 398.892 29.368 399.9 29.368C401.124 29.368 402.084 29.68 402.78 30.304C403.476 30.904 403.824 31.684 403.824 32.644C403.824 33.484 403.596 34.264 403.14 34.984C402.684 35.68 402.048 36.244 401.232 36.676C400.416 37.084 399.504 37.288 398.496 37.288Z" fill="#00F59B"/>
<path d="M314.469 19.324C314.541 18.436 314.349 17.812 313.893 17.452L313.281 20.98L314.361 21.34C315.873 21.82 317.133 22.3 318.141 22.78C319.149 23.236 320.013 23.896 320.733 24.76C321.477 25.624 321.849 26.728 321.849 28.072C321.849 28.336 321.801 28.804 321.705 29.476C321.441 30.916 320.817 32.212 319.833 33.364C318.849 34.516 317.553 35.44 315.945 36.136C314.337 36.832 312.489 37.204 310.401 37.252L309.897 40.132H307.665L308.169 37.18C305.649 36.94 303.645 36.208 302.157 34.984C300.693 33.76 299.961 32.068 299.961 29.908C299.961 29.668 299.985 29.308 300.033 28.828H308.529C308.433 29.812 308.685 30.484 309.285 30.844L309.933 27.316C308.133 26.812 306.705 26.356 305.649 25.948C304.617 25.516 303.681 24.856 302.841 23.968C302.001 23.056 301.581 21.844 301.581 20.332C301.581 19.828 301.629 19.336 301.725 18.856C302.013 17.296 302.685 15.952 303.741 14.824C304.797 13.672 306.117 12.784 307.701 12.16C309.285 11.536 310.977 11.188 312.777 11.116L313.281 8.2H315.513L315.009 11.116C317.601 11.308 319.605 12.004 321.021 13.204C322.437 14.404 323.145 16.072 323.145 18.208C323.145 18.424 323.121 18.796 323.073 19.324H314.469ZM310.329 18.748C310.329 19.252 310.617 19.696 311.193 20.08L311.697 17.2C311.265 17.272 310.929 17.44 310.689 17.704C310.449 17.968 310.329 18.316 310.329 18.748ZM313.173 29.404C313.173 28.924 312.789 28.48 312.021 28.072L311.481 31.168C311.985 31.096 312.393 30.904 312.705 30.592C313.017 30.28 313.173 29.884 313.173 29.404ZM346.979 20.26C346.691 21.868 346.067 23.332 345.107 24.652C344.147 25.948 342.863 26.98 341.255 27.748C339.671 28.516 337.847 28.9 335.783 28.9H332.615L331.175 37H323.183L327.683 11.512H338.843C341.555 11.512 343.619 12.124 345.035 13.348C346.451 14.572 347.159 16.252 347.159 18.388C347.159 18.916 347.099 19.54 346.979 20.26ZM335.999 22.6C337.631 22.6 338.591 21.82 338.879 20.26C338.927 19.972 338.951 19.768 338.951 19.648C338.951 18.496 338.243 17.92 336.827 17.92H334.559L333.731 22.6H335.999ZM370.358 20.26C370.07 21.868 369.446 23.332 368.486 24.652C367.526 25.948 366.242 26.98 364.634 27.748C363.05 28.516 361.226 28.9 359.162 28.9H355.994L354.554 37H346.562L351.062 11.512H362.222C364.934 11.512 366.998 12.124 368.414 13.348C369.83 14.572 370.538 16.252 370.538 18.388C370.538 18.916 370.478 19.54 370.358 20.26ZM359.378 22.6C361.01 22.6 361.97 21.82 362.258 20.26C362.306 19.972 362.33 19.768 362.33 19.648C362.33 18.496 361.622 17.92 360.206 17.92H357.938L357.11 22.6H359.378ZM394.456 11.512L393.34 17.848H386.572L383.188 37H375.196L378.58 17.848H371.884L373 11.512H394.456Z" fill="#FFE34E"/>
</svg>
