<svg width="140" height="40" viewBox="0 0 140 40" fill="none" xmlns="http://www.w3.org/2000/svg">
<path d="M32.9916 10.65C32.9916 10.7 32.9424 10.75 32.9424 10.75C32.8932 15.15 32.7949 19.55 32.7457 23.95C32.7457 24.3 32.8932 24.4 33.1882 24.35C34.0733 24.35 35.0074 24.35 35.8925 24.35C36.2858 24.35 36.4333 24.2 36.4333 23.8C36.4333 22.35 36.4825 20.9 36.4333 19.5C36.4333 19.1 36.5316 19 36.925 19C39.1375 19 41.3009 19 43.5135 19.05C43.956 19.05 44.1035 18.9 44.1035 18.45C44.1035 16.5 44.1526 14.5 44.2018 12.55C44.2018 11.9 44.2018 11.3 44.2018 10.6H32.9916V10.65ZM40.4651 13C40.4159 14.2 40.4651 15.4 40.4159 16.65C40.4159 16.8 40.4159 17 40.3667 17.2C39.1375 17.2 38.0067 17.2 36.8267 17.2C36.7283 17.2 36.5316 17 36.5316 16.85C36.5316 15.45 36.5316 14.05 36.5316 12.6C36.7775 12.6 36.925 12.55 37.1217 12.55C38.105 12.55 39.0392 12.55 40.0226 12.55C40.3176 12.55 40.4651 12.6 40.4651 13ZM79.7993 14.85C78.4717 14.85 77.1934 14.85 75.8658 14.85C75.7183 14.85 75.5217 14.95 75.4233 15.05C74.5383 15.9 73.7025 16.75 72.8666 17.55C72.7191 17.7 72.5716 17.8 72.3749 18V10.75C71.3916 10.75 70.4574 10.8 69.5232 10.75C69.0315 10.75 68.9332 10.9 68.9332 11.4C68.9332 13.65 68.884 15.95 68.884 18.2C68.884 20.15 68.8349 22.15 68.8349 24.1C68.8349 24.3 68.7365 24.6 69.0807 24.6C70.1132 24.6 71.1949 24.6 72.3258 24.6V19.7C73.4566 21.1 74.4891 22.5 75.4233 23.95C75.7675 24.45 76.1117 24.65 76.7017 24.65C77.685 24.6 78.7176 24.65 79.8484 24.65C78.5209 22.7 77.2917 20.9 76.0625 19.05C77.39 17.7 78.6684 16.4 79.9959 15.1C79.8484 14.95 79.7993 14.9 79.7993 14.85ZM48.8727 21.25C48.8236 20.85 49.0203 20.7 49.4136 20.7C51.0853 20.75 52.7078 20.75 54.3795 20.75C54.7237 20.75 55.1171 20.75 55.5596 20.75C55.5596 18.8 55.5596 16.9 55.5596 15C55.5596 14.9 55.3137 14.7 55.1662 14.7C54.3795 14.65 53.5929 14.7 52.8062 14.7C50.5445 14.7 48.2827 14.7 46.021 14.65C45.6277 14.65 45.4802 14.75 45.4802 15.2C45.5293 15.5 45.4802 15.85 45.4802 16.15C45.431 18.75 45.431 21.3 45.3818 23.9C45.3818 24.2 45.3818 24.4 45.7752 24.4C48.7744 24.4 51.8228 24.45 54.822 24.45C54.9695 24.45 55.1662 24.35 55.2154 24.25C55.4612 23.8 55.6579 23.3 55.9529 22.7H48.8727C48.8727 22.15 48.9219 21.7 48.8727 21.25ZM48.9219 16.5C49.9053 16.5 50.7903 16.5 51.7245 16.5C51.8228 16.5 52.0195 16.7 52.0195 16.85C52.0687 17.4 52.0195 17.95 52.0195 18.5C52.0195 18.8 51.9211 18.9 51.6261 18.9C50.8395 18.9 50.0528 18.9 49.2661 18.85C49.1678 18.85 48.9711 18.65 48.9711 18.55C48.9219 17.9 48.9219 17.25 48.9219 16.5ZM85.011 13.4C85.011 12.7 85.011 12.7 85.7486 12.7C88.0594 12.7 90.4195 12.75 92.7304 12.75C92.927 12.75 93.222 12.7 93.2712 12.6C93.5171 12.1 93.7137 11.6 93.9596 11H81.3726V18.5C81.471 18.5 81.6185 18.5 81.7168 18.55C84.2243 18.6 86.6827 18.6 89.1903 18.6C89.5836 18.6 89.7311 18.65 89.7311 19.1C89.682 20.2 89.682 21.3 89.7311 22.35C89.7311 22.7 89.6328 22.8 89.2886 22.8C88.6003 22.8 87.9611 22.8 87.2728 22.8C85.4044 22.8 83.5852 22.8 81.7168 22.75C81.5201 22.75 81.2251 22.7 81.2251 23.05C81.2251 23.55 81.2251 24.05 81.2251 24.55C81.3726 24.55 81.471 24.6 81.5693 24.6C85.3552 24.65 89.1411 24.65 92.9762 24.7C93.3696 24.7 93.4187 24.55 93.4187 24.2C93.4187 22.75 93.4679 21.25 93.4679 19.8C93.4679 18.8 93.4679 17.8 93.4679 16.75C93.2221 16.75 93.0254 16.75 92.8779 16.75C90.4687 16.75 88.0103 16.7 85.6011 16.7C85.2077 16.7 85.0602 16.6 85.0602 16.15C85.011 15.25 85.011 14.3 85.011 13.4ZM61.4597 16.6C63.0822 16.6 64.7539 16.6 66.3765 16.6C66.524 16.6 66.819 16.55 66.8681 16.45C67.114 15.95 67.2615 15.45 67.4582 14.9C67.3106 14.85 67.2615 14.85 67.2123 14.85C64.0164 14.85 60.8697 14.8 57.6738 14.75C57.2804 14.75 57.2804 15 57.2804 15.25C57.2313 17.55 57.2313 19.85 57.1821 22.15C57.1821 22.9 57.1821 23.65 57.1821 24.35C57.2804 24.4 57.2804 24.4 57.3296 24.4C60.3288 24.4 63.2789 24.45 66.2781 24.45C66.4256 24.45 66.5731 24.3 66.6715 24.2C66.9173 23.75 67.0648 23.3 67.3106 22.7C66.9665 22.7 66.7698 22.65 66.5731 22.65C64.8031 22.65 63.0331 22.65 61.3122 22.65C60.8697 22.65 60.673 22.55 60.7222 22.05C60.7713 20.7 60.7713 19.4 60.7713 18.05C60.7713 17.55 60.7713 17.05 60.7713 16.5C61.0663 16.6 61.263 16.6 61.4597 16.6ZM123.313 24.8H126.902C126.951 20.25 127 15.65 127.099 11.1H123.46C123.411 15.65 123.362 20.2 123.313 24.8ZM135.457 11.15C135.359 11.15 135.162 11.4 135.162 11.55C135.162 12.75 135.162 13.95 135.162 15.2C134.867 15.2 134.67 15.2 134.425 15.2C132.556 15.2 130.688 15.2 128.819 15.15C128.475 15.15 128.328 15.2 128.328 15.6C128.328 18.5 128.279 21.4 128.229 24.3C128.229 24.8 128.377 24.9 128.819 24.9C131.868 24.9 134.916 24.9 137.965 24.9C138.112 24.9 138.26 24.9 138.456 24.85C138.506 20.25 138.555 15.7 138.604 11.1C137.522 11.1 136.49 11.1 135.457 11.15ZM135.064 17.65C135.064 19.3 135.015 21 135.015 22.65C135.015 23 134.916 23.15 134.523 23.15C133.638 23.15 132.704 23.15 131.819 23.15C131.819 21.15 131.819 19.35 131.819 17.5C131.819 17.1 131.917 16.95 132.31 16.95C133.195 17 134.08 16.95 135.015 16.95C135.064 17.25 135.064 17.45 135.064 17.65ZM104.776 15.05C102.957 15.05 101.138 15.05 99.2697 15C99.073 15 98.9255 15 98.6797 14.95C98.6797 14.7 98.6797 14.5 98.6797 14.25C98.6797 13.3 98.6797 12.3 98.7288 11.35C98.7288 11 98.6305 10.85 98.2372 10.85C97.3521 10.85 96.5163 10.85 95.6313 10.85C95.2871 10.85 95.1888 10.95 95.1888 11.3C95.1888 12.05 95.1888 12.75 95.1888 13.5C95.1396 15.8 95.1396 18.1 95.0904 20.4C95.0904 21.8 95.0904 23.15 95.0904 24.65C96.0738 24.65 97.0571 24.65 98.0405 24.65C98.483 24.65 98.5813 24.5 98.5813 24.1C98.5813 22 98.6305 19.95 98.6305 17.85C98.6305 17.5 98.6305 17.15 98.6305 16.75H101.728V24.65C102.711 24.65 103.695 24.6 104.678 24.65C105.17 24.65 105.268 24.5 105.268 24C105.268 21.2 105.317 18.4 105.366 15.6C105.416 15.2 105.317 15 104.776 15.05ZM115.003 21.15H121.641C121.641 19.5 121.641 17.95 121.641 16.35C121.641 15.15 121.641 15.15 120.461 15.1C117.658 15.1 114.856 15.05 112.053 15.05C111.758 15.05 111.512 15 111.512 15.45C111.512 18.4 111.463 21.4 111.414 24.35C111.414 24.65 111.463 24.8 111.807 24.8C114.807 24.8 117.855 24.8 120.854 24.8C121.002 24.8 121.149 24.75 121.198 24.7C121.444 24.2 121.69 23.7 121.936 23.1H114.954V21.15H115.003ZM115.053 16.95C116.036 16.95 116.97 16.95 117.904 16.95C117.953 16.95 118.101 17.15 118.101 17.25C118.101 17.85 118.101 18.4 118.101 19C118.101 19.1 117.904 19.3 117.806 19.3C116.921 19.3 116.036 19.3 115.053 19.3V16.95ZM109.939 15.1C108.857 15.05 107.825 15.1 106.645 15.1V24.75H110.136C110.136 23.3 110.136 21.85 110.136 20.4C110.136 18.8 110.185 17.2 110.185 15.55C110.185 15.4 110.037 15.1 109.939 15.1ZM109.939 11C108.956 10.95 108.022 10.95 107.038 11C106.94 11 106.743 11.2 106.743 11.3C106.743 12.15 106.743 13.05 106.743 14.05C107.825 14.05 108.907 14.05 109.939 14.05C110.037 14.05 110.234 13.85 110.234 13.75C110.283 12.95 110.283 12.2 110.283 11.4C110.283 11.2 110.087 11 109.939 11Z" fill="white"/>
<path d="M25.4689 6.6C20.4046 4.6 16.3237 3 14.4553 3C12.587 3 8.45688 4.6 3.44177 6.6C1.22923 6.6 0.737549 8.6 0.737549 8.6C0.737549 8.6 1.03256 17.65 1.27839 20.6C1.5734 24.6 3.39261 26.3 3.39261 26.3L5.90016 29.05L14.5045 36.65L23.0597 29L25.5673 26.25C25.5673 26.25 27.3373 24.55 27.6815 20.55C27.9273 17.6 28.2223 8.55 28.2223 8.55C28.2223 8.55 27.6323 6.6 25.4689 6.6Z" fill="white"/>
<path d="M21.9288 20.65C22.3222 21.05 23.2564 22.95 23.3547 23.5C23.453 24.05 23.6497 24.25 23.2564 24.75C22.3222 25.7 20.1588 26.85 18.4871 27.5C20.2571 25.6 19.618 24.45 17.7496 24C14.5537 23.25 13.2753 21.45 12.6853 19.05C12.0953 16.65 11.4561 16.65 10.6203 16.5C9.68608 16.4 8.94856 16.8 5.35932 18.3C4.52346 19.7 3.93345 19.6 3.93345 19.6C2.80259 19.6 2.9501 18.5 3.0976 18.25C3.39261 17.7 3.88428 17.55 4.4743 17.55C5.06431 17.55 5.35932 17.9 5.35932 17.9C5.35932 17.9 5.60515 17.85 10.0794 15.65C10.2761 15.1 11.0136 13.1 13.0786 13.1C15.1437 13.1 17.0121 15.1 18.4871 15.1C21.388 11 24.7806 8.45 24.7806 8.45L25.5181 10.65L28.1731 8.8C28.1731 8.65 28.1731 8.55 28.1731 8.55C28.1731 8.55 27.6323 6.55 25.4689 6.55C20.4046 4.6 16.3237 3 14.4553 3C12.587 3 8.45688 4.6 3.44177 6.6C1.22923 6.6 0.737549 8.6 0.737549 8.6C0.737549 8.6 1.03256 17.65 1.27839 20.6C1.5734 24.6 3.39261 26.3 3.39261 26.3L5.90016 29.05L14.5045 36.65L23.0597 29L25.5673 26.25C25.5673 26.25 27.3373 24.55 27.6815 20.55C27.7306 20 27.7798 19.2 27.829 18.25C26.4523 19.65 23.5022 20.65 21.9288 20.65Z" fill="url(#paint0_linear_6208_1051)"/>
<defs>
<linearGradient id="paint0_linear_6208_1051" x1="0.727764" y1="19.7964" x2="28.1738" y2="19.7964" gradientUnits="userSpaceOnUse">
<stop offset="0.4523" stop-color="#00A0E3"/>
<stop offset="0.5615" stop-color="#00579D"/>
</linearGradient>
</defs>
</svg>
