<svg width="29" height="28" viewBox="0 0 29 28" fill="none" xmlns="http://www.w3.org/2000/svg">
<path d="M19.5647 11.8503C19.6553 7.29608 12.7376 7.92198 14.5164 -0.000488281C14.5164 -0.000488281 9.87166 1.82777 10.687 7.43609C10.967 9.36317 10.2917 10.8044 10.2917 10.8044C9.60813 10.9444 8.54576 9.58553 8.91635 7.4855C8.91635 7.4855 6.47867 9.30552 6.47867 11.6444C6.47867 13.9832 7.60692 16.4621 7.60692 16.4621C4.79865 15.8527 5.07865 12.0644 5.07865 12.0644C5.07865 12.0644 3.2998 14.4444 3.2998 18.9327C3.2998 22.4245 7.23633 27.9999 13.5858 27.9999C19.9353 27.9999 25.0331 23.0751 25.0331 18.6939C25.0331 16.775 24.3825 14.2962 22.9742 12.9456C22.9742 12.9456 23.1636 16.775 21.2695 16.5939C21.2695 16.5939 22.8342 11.595 21.1954 9.30552C21.1954 9.30552 20.4048 11.7761 19.5647 11.8503Z" fill="url(#paint0_linear_5707_4446)"/>
<path d="M19.5737 8.41605C21.4184 5.01483 16.8478 4.54541 16.8396 2.45361C16.8396 2.45361 16.0325 4.61129 17.9596 6.08543C19.5325 7.27956 19.5737 8.41605 19.5737 8.41605Z" fill="url(#paint1_linear_5707_4446)"/>
<path d="M9.87124 1.91016C9.17123 2.60193 10.1348 5.45962 7.94415 6.58787C7.94415 6.58787 7.20296 3.45018 9.87124 1.91016Z" fill="url(#paint2_linear_5707_4446)"/>
<path opacity="0.5" d="M4.741 13.2097C4.13158 14.2556 3.2998 16.1909 3.2998 18.9333C3.2998 21.9969 7.20339 27.6299 13.5858 27.6299C19.82 27.6299 24.6625 22.8287 24.6625 18.7027C24.6625 17.2121 24.2507 15.3098 23.3366 13.9591C23.2707 14.8074 23.0648 15.9603 22.4307 16.5615C22.1013 16.8745 21.6895 17.0145 21.2365 16.9651L20.7753 16.9239L20.9154 16.4874C20.9318 16.4462 22.126 12.5427 21.2612 10.2285C20.9154 11.0767 20.3224 12.1721 19.5977 12.2297L19.1859 12.2626L19.1942 11.8509C19.2271 10.1461 18.1812 9.24025 16.9706 8.19435C15.2412 6.69551 13.2894 4.99901 14.0058 0.691895C12.8035 1.40014 10.4646 3.35193 11.0493 7.37905C11.3458 9.39672 10.6458 10.8956 10.6211 10.9615L10.5387 11.1344L10.3576 11.1673C10.0117 11.2332 9.64931 11.0932 9.31989 10.7803C8.87518 10.3438 8.47164 9.52026 8.45517 8.40024C7.77987 9.09201 6.84927 10.2861 6.84927 11.645C6.84927 13.8768 7.93634 16.2815 7.94458 16.3062L8.24929 16.9815L7.52457 16.8251C5.63043 16.4133 4.92218 14.6509 4.741 13.2097Z" fill="url(#paint3_linear_5707_4446)"/>
<path d="M16.8383 2.45361C16.6736 3.69716 17.1677 5.48425 17.9583 6.08543C18.683 6.6372 19.4983 7.58427 19.5642 8.41605C20.7995 5.99484 19.0618 5.09718 18.0653 4.74306C17.6453 4.59482 16.8712 3.7301 16.8383 2.45361Z" fill="url(#paint4_radial_5707_4446)"/>
<path d="M13.0423 2.09961C10.3081 6.38202 13.8576 10.9033 12.0293 13.6127C10.2011 16.3222 8.34809 13.8186 8.22456 12.1221C8.22456 12.1221 8.24103 17.6069 10.9505 19.7728C13.6599 21.9387 5.73746 21.4693 4.65039 18.8257C4.65039 18.8257 4.65039 27.6294 13.5858 27.6294C22.5212 27.6294 24.0118 19.4351 24.0118 19.4351C24.0118 19.4351 20.7589 22.2105 18.5929 20.0446C18.5929 20.0446 20.2153 17.2034 20.6271 14.288C20.6271 14.288 19.5071 14.9963 17.7859 14.7245C17.7859 14.7245 18.7412 10.6315 16.7894 9.28912C14.2858 7.56792 12.1693 3.46669 13.0423 2.09961Z" fill="url(#paint5_linear_5707_4446)"/>
<path d="M13.7256 7.13965C12.2926 9.02556 15.0844 13.868 12.1526 15.7868C10.5302 16.8492 9.59965 15.5727 9.59965 15.5727C9.59965 15.5727 10.0361 17.5327 11.782 19.2786C13.5279 21.0245 9.15493 23.3881 5.60547 20.3328C5.60547 20.3328 6.82431 27.6705 15.0844 26.4352C24.201 25.0764 23.5257 18.2986 23.5257 18.2986C23.5257 18.2986 21.0551 22.1857 17.5386 20.3245C17.5386 20.3245 19.7539 17.2363 19.7539 15.4656C19.7539 15.4656 18.2551 16.3551 16.5421 15.4986C16.5421 15.4986 17.3574 11.3809 16.3856 10.7632C14.055 9.27262 13.7256 7.13965 13.7256 7.13965Z" fill="url(#paint6_linear_5707_4446)"/>
<path opacity="0.5" d="M19.5647 11.8503C19.6553 7.29608 12.7376 7.92198 14.5164 -0.000488281C14.5164 -0.000488281 9.87166 1.82777 10.687 7.43609C10.967 9.36317 10.2917 10.8044 10.2917 10.8044C9.60813 10.9444 8.54576 9.58553 8.91635 7.4855C8.91635 7.4855 6.47867 9.30552 6.47867 11.6444C6.47867 13.9832 7.60692 16.4621 7.60692 16.4621C4.79865 15.8527 5.07865 12.0644 5.07865 12.0644C5.07865 12.0644 3.2998 14.4444 3.2998 18.9327C3.2998 22.4245 7.23633 27.9999 13.5858 27.9999C19.9353 27.9999 25.0331 23.0751 25.0331 18.6939C25.0331 16.775 24.3825 14.2962 22.9742 12.9456C22.9742 12.9456 23.1636 16.775 21.2695 16.5939C21.2695 16.5939 22.8342 11.595 21.1954 9.30552C21.1954 9.30552 20.4048 11.7761 19.5647 11.8503Z" fill="url(#paint7_radial_5707_4446)"/>
<path opacity="0.5" d="M19.5647 11.8503C19.6553 7.29608 12.7376 7.92198 14.5164 -0.000488281C14.5164 -0.000488281 9.87166 1.82777 10.687 7.43609C10.967 9.36317 10.2917 10.8044 10.2917 10.8044C9.60813 10.9444 8.54576 9.58553 8.91635 7.4855C8.91635 7.4855 6.47867 9.30552 6.47867 11.6444C6.47867 13.9832 7.60692 16.4621 7.60692 16.4621C4.79865 15.8527 5.07865 12.0644 5.07865 12.0644C5.07865 12.0644 3.2998 14.4444 3.2998 18.9327C3.2998 22.4245 7.23633 27.9999 13.5858 27.9999C19.9353 27.9999 25.0331 23.0751 25.0331 18.6939C25.0331 16.775 24.3825 14.2962 22.9742 12.9456C22.9742 12.9456 23.1636 16.775 21.2695 16.5939C21.2695 16.5939 22.8342 11.595 21.1954 9.30552C21.1954 9.30552 20.4048 11.7761 19.5647 11.8503Z" fill="url(#paint8_radial_5707_4446)"/>
<path d="M3.86035 17.0221C4.04977 21.6751 7.87923 27.2504 13.8664 27.2504C19.8535 27.2504 22.843 20.9339 23.0324 17.2362C23.0324 17.2362 21.9124 19.4103 19.3841 19.8468C16.8558 20.2833 19.557 15.4985 17.7864 12.6655C17.7864 12.6655 16.2217 17.5985 13.9981 17.7797C11.7746 17.9609 9.88867 14.5185 9.88867 12.6655C9.88867 12.6655 8.52159 16.0009 8.85924 18.6527C9.37808 22.6798 3.86035 17.0221 3.86035 17.0221Z" fill="url(#paint9_radial_5707_4446)"/>
<path opacity="0.5" d="M19.5647 11.8503C19.6553 7.29608 12.7376 7.92198 14.5164 -0.000488281C14.5164 -0.000488281 9.87166 1.82777 10.687 7.43609C10.967 9.36317 10.2917 10.8044 10.2917 10.8044C9.60813 10.9444 8.54576 9.58553 8.91635 7.4855C8.91635 7.4855 6.47867 9.30552 6.47867 11.6444C6.47867 13.9832 7.60692 16.4621 7.60692 16.4621C4.79865 15.8527 5.07865 12.0644 5.07865 12.0644C5.07865 12.0644 3.2998 14.4444 3.2998 18.9327C3.2998 22.4245 7.23633 27.9999 13.5858 27.9999C19.9353 27.9999 25.0331 23.0751 25.0331 18.6939C25.0331 16.775 24.3825 14.2962 22.9742 12.9456C22.9742 12.9456 23.1636 16.775 21.2695 16.5939C21.2695 16.5939 22.8342 11.595 21.1954 9.30552C21.1954 9.30552 20.4048 11.7761 19.5647 11.8503Z" fill="url(#paint10_radial_5707_4446)"/>
<path opacity="0.5" d="M19.5737 8.41605C21.4184 5.01483 16.8478 4.54541 16.8396 2.45361C16.8396 2.45361 16.0325 4.61129 17.9596 6.08543C19.5325 7.27956 19.5737 8.41605 19.5737 8.41605Z" fill="url(#paint11_radial_5707_4446)"/>
<path d="M9.87124 1.91016C9.17946 2.60193 9.62417 4.78432 7.94415 6.58787C7.94415 6.58787 7.20296 3.45018 9.87124 1.91016Z" fill="url(#paint12_radial_5707_4446)"/>
<path opacity="0.5" d="M9.87124 1.91016C9.17123 2.60193 10.1348 5.45962 7.94415 6.58787C7.94415 6.58787 7.20296 3.45018 9.87124 1.91016Z" fill="url(#paint13_radial_5707_4446)"/>
<path opacity="0.5" d="M19.5647 11.8503C19.6553 7.29608 12.7376 7.92198 14.5164 -0.000488281C14.5164 -0.000488281 9.87166 1.82777 10.687 7.43609C10.967 9.36317 10.2917 10.8044 10.2917 10.8044C9.60813 10.9444 8.54576 9.58553 8.91635 7.4855C8.91635 7.4855 6.47867 9.30552 6.47867 11.6444C6.47867 13.9832 7.60692 16.4621 7.60692 16.4621C4.79865 15.8527 5.07865 12.0644 5.07865 12.0644C5.07865 12.0644 3.2998 14.4444 3.2998 18.9327C3.2998 22.4245 7.23633 27.9999 13.5858 27.9999C19.9353 27.9999 25.0331 23.0751 25.0331 18.6939C25.0331 16.775 24.3825 14.2962 22.9742 12.9456C22.9742 12.9456 23.1636 16.775 21.2695 16.5939C21.2695 16.5939 22.8342 11.595 21.1954 9.30552C21.1954 9.30552 20.4048 11.7761 19.5647 11.8503Z" fill="url(#paint14_radial_5707_4446)"/>
<path opacity="0.25" d="M19.5647 11.8503C19.6553 7.29608 12.7376 7.92198 14.5164 -0.000488281C14.5164 -0.000488281 9.87166 1.82777 10.687 7.43609C10.967 9.36317 10.2917 10.8044 10.2917 10.8044C9.60813 10.9444 8.54576 9.58553 8.91635 7.4855C8.91635 7.4855 6.47867 9.30552 6.47867 11.6444C6.47867 13.9832 7.60692 16.4621 7.60692 16.4621C4.79865 15.8527 5.07865 12.0644 5.07865 12.0644C5.07865 12.0644 3.2998 14.4444 3.2998 18.9327C3.2998 22.4245 7.23633 27.9999 13.5858 27.9999C19.9353 27.9999 25.0331 23.0751 25.0331 18.6939C25.0331 16.775 24.3825 14.2962 22.9742 12.9456C22.9742 12.9456 23.1636 16.775 21.2695 16.5939C21.2695 16.5939 22.8342 11.595 21.1954 9.30552C21.1954 9.30552 20.4048 11.7761 19.5647 11.8503Z" fill="url(#paint15_radial_5707_4446)"/>
<path opacity="0.25" d="M19.5647 11.8503C19.6553 7.29608 12.7376 7.92198 14.5164 -0.000488281C14.5164 -0.000488281 9.87166 1.82777 10.687 7.43609C10.967 9.36317 10.2917 10.8044 10.2917 10.8044C9.60813 10.9444 8.54576 9.58553 8.91635 7.4855C8.91635 7.4855 6.47867 9.30552 6.47867 11.6444C6.47867 13.9832 7.60692 16.4621 7.60692 16.4621C4.79865 15.8527 5.07865 12.0644 5.07865 12.0644C5.07865 12.0644 3.2998 14.4444 3.2998 18.9327C3.2998 22.4245 7.23633 27.9999 13.5858 27.9999C19.9353 27.9999 25.0331 23.0751 25.0331 18.6939C25.0331 16.775 24.3825 14.2962 22.9742 12.9456C22.9742 12.9456 23.1636 16.775 21.2695 16.5939C21.2695 16.5939 22.8342 11.595 21.1954 9.30552C21.1954 9.30552 20.4048 11.7761 19.5647 11.8503Z" fill="url(#paint16_radial_5707_4446)"/>
<path opacity="0.25" d="M19.5647 11.8503C19.6553 7.29608 12.7376 7.92198 14.5164 -0.000488281C14.5164 -0.000488281 9.87166 1.82777 10.687 7.43609C10.967 9.36317 10.2917 10.8044 10.2917 10.8044C9.60813 10.9444 8.54576 9.58553 8.91635 7.4855C8.91635 7.4855 6.47867 9.30552 6.47867 11.6444C6.47867 13.9832 7.60692 16.4621 7.60692 16.4621C4.79865 15.8527 5.07865 12.0644 5.07865 12.0644C5.07865 12.0644 3.2998 14.4444 3.2998 18.9327C3.2998 22.4245 7.23633 27.9999 13.5858 27.9999C19.9353 27.9999 25.0331 23.0751 25.0331 18.6939C25.0331 16.775 24.3825 14.2962 22.9742 12.9456C22.9742 12.9456 23.1636 16.775 21.2695 16.5939C21.2695 16.5939 22.8342 11.595 21.1954 9.30552C21.1954 9.30552 20.4048 11.7761 19.5647 11.8503Z" fill="url(#paint17_radial_5707_4446)"/>
<defs>
<linearGradient id="paint0_linear_5707_4446" x1="15.5591" y1="28.7738" x2="10.5106" y2="-7.81211" gradientUnits="userSpaceOnUse">
<stop stop-color="#FF0000"/>
<stop offset="0.2317" stop-color="#FF1500"/>
<stop offset="0.7367" stop-color="#FF3D00"/>
<stop offset="0.9987" stop-color="#FF4C00"/>
</linearGradient>
<linearGradient id="paint1_linear_5707_4446" x1="21.4756" y1="27.9575" x2="16.4271" y2="-8.62847" gradientUnits="userSpaceOnUse">
<stop stop-color="#FF0000"/>
<stop offset="0.2317" stop-color="#FF1500"/>
<stop offset="0.7367" stop-color="#FF3D00"/>
<stop offset="0.9987" stop-color="#FF4C00"/>
</linearGradient>
<linearGradient id="paint2_linear_5707_4446" x1="12.3468" y1="29.2171" x2="7.29828" y2="-7.36887" gradientUnits="userSpaceOnUse">
<stop stop-color="#FF0000"/>
<stop offset="0.2317" stop-color="#FF1500"/>
<stop offset="0.7367" stop-color="#FF3D00"/>
<stop offset="0.9987" stop-color="#FF4C00"/>
</linearGradient>
<linearGradient id="paint3_linear_5707_4446" x1="15.4231" y1="22.5424" x2="4.39121" y2="-8.96388" gradientUnits="userSpaceOnUse">
<stop stop-color="#FF8000"/>
<stop offset="0.6388" stop-color="#FF5B00"/>
<stop offset="0.9987" stop-color="#FF4C00"/>
</linearGradient>
<radialGradient id="paint4_radial_5707_4446" cx="0" cy="0" r="1" gradientUnits="userSpaceOnUse" gradientTransform="translate(20.1473 -3.09918) scale(14.7011 14.7011)">
<stop offset="0.00134333" stop-color="#FFED1C" stop-opacity="0.6"/>
<stop offset="0.9477" stop-color="#FFED1C" stop-opacity="0.0264782"/>
<stop offset="0.9914" stop-color="#FFED1C" stop-opacity="0"/>
</radialGradient>
<linearGradient id="paint5_linear_5707_4446" x1="11.1392" y1="1.51745" x2="15.1282" y2="23.8928" gradientUnits="userSpaceOnUse">
<stop stop-color="#FF8000"/>
<stop offset="0.022669" stop-color="#FE7F02" stop-opacity="0.9773"/>
<stop offset="0.6663" stop-color="#ED582A" stop-opacity="0.3337"/>
<stop offset="1" stop-color="#E74939" stop-opacity="0"/>
</linearGradient>
<linearGradient id="paint6_linear_5707_4446" x1="14.2366" y1="25.6964" x2="15.0988" y2="9.98541" gradientUnits="userSpaceOnUse">
<stop stop-color="#FFBC47"/>
<stop offset="0.1869" stop-color="#FFB137" stop-opacity="0.8131"/>
<stop offset="0.7223" stop-color="#FF940F" stop-opacity="0.2777"/>
<stop offset="1" stop-color="#FF8900" stop-opacity="0"/>
</linearGradient>
<radialGradient id="paint7_radial_5707_4446" cx="0" cy="0" r="1" gradientUnits="userSpaceOnUse" gradientTransform="translate(14.0225 21.4564) scale(11.3721 9.23186)">
<stop offset="0.00134333" stop-color="#FFBC47"/>
<stop offset="0.2941" stop-color="#FFBF4B" stop-opacity="0.7068"/>
<stop offset="0.5624" stop-color="#FEC656" stop-opacity="0.4382"/>
<stop offset="0.8201" stop-color="#FCD368" stop-opacity="0.1801"/>
<stop offset="1" stop-color="#FBE07A" stop-opacity="0"/>
</radialGradient>
<radialGradient id="paint8_radial_5707_4446" cx="0" cy="0" r="1" gradientUnits="userSpaceOnUse" gradientTransform="translate(14.0225 20.989) scale(11.0217 8.94739)">
<stop offset="0.00134333" stop-color="white"/>
<stop offset="1" stop-color="white" stop-opacity="0"/>
</radialGradient>
<radialGradient id="paint9_radial_5707_4446" cx="0" cy="0" r="1" gradientUnits="userSpaceOnUse" gradientTransform="translate(9.19024 23.0219) scale(13.5393 15.7639)">
<stop offset="0.00134333" stop-color="#FFED1C" stop-opacity="0.6"/>
<stop offset="0.9477" stop-color="#FFED1C" stop-opacity="0.0264782"/>
<stop offset="0.9914" stop-color="#FFED1C" stop-opacity="0"/>
</radialGradient>
<radialGradient id="paint10_radial_5707_4446" cx="0" cy="0" r="1" gradientUnits="userSpaceOnUse" gradientTransform="translate(14.0231 20.9878) rotate(92.8876) scale(4.27908 3.47357)">
<stop offset="0.00134333" stop-color="white"/>
<stop offset="1" stop-color="white" stop-opacity="0"/>
</radialGradient>
<radialGradient id="paint11_radial_5707_4446" cx="0" cy="0" r="1" gradientUnits="userSpaceOnUse" gradientTransform="translate(16.3892 2.4458) scale(4.8571 4.85711)">
<stop offset="0.00134333" stop-color="#FFED1C"/>
<stop offset="0.1997" stop-color="#FFEE2B" stop-opacity="0.8013"/>
<stop offset="0.5839" stop-color="#FFF254" stop-opacity="0.4167"/>
<stop offset="1" stop-color="#FFF686" stop-opacity="0"/>
</radialGradient>
<radialGradient id="paint12_radial_5707_4446" cx="0" cy="0" r="1" gradientUnits="userSpaceOnUse" gradientTransform="translate(8.37896 4.78308) rotate(-56.4116) scale(3.93435 0.893507)">
<stop offset="0.00134333" stop-color="#FFED1C" stop-opacity="0.6"/>
<stop offset="0.9477" stop-color="#FFED1C" stop-opacity="0.0264782"/>
<stop offset="0.9914" stop-color="#FFED1C" stop-opacity="0"/>
</radialGradient>
<radialGradient id="paint13_radial_5707_4446" cx="0" cy="0" r="1" gradientUnits="userSpaceOnUse" gradientTransform="translate(9.1581 1.69791) rotate(95.0573) scale(3.53521 1.42246)">
<stop offset="0.00134333" stop-color="#FFED1C"/>
<stop offset="0.1997" stop-color="#FFEE2B" stop-opacity="0.8013"/>
<stop offset="0.5839" stop-color="#FFF254" stop-opacity="0.4167"/>
<stop offset="1" stop-color="#FFF686" stop-opacity="0"/>
</radialGradient>
<radialGradient id="paint14_radial_5707_4446" cx="0" cy="0" r="1" gradientUnits="userSpaceOnUse" gradientTransform="translate(15.3092 1.82258) scale(15.1556)">
<stop offset="0.00134333" stop-color="#FF4C00"/>
<stop offset="0.135" stop-color="#FF5B0C" stop-opacity="0.8661"/>
<stop offset="0.3941" stop-color="#FF842C" stop-opacity="0.6067"/>
<stop offset="0.7491" stop-color="#FFC45F" stop-opacity="0.2512"/>
<stop offset="1" stop-color="#FFF686" stop-opacity="0"/>
</radialGradient>
<radialGradient id="paint15_radial_5707_4446" cx="0" cy="0" r="1" gradientUnits="userSpaceOnUse" gradientTransform="translate(22.2024 14.101) scale(8.04435)">
<stop offset="0.00134333" stop-color="#FFED1C"/>
<stop offset="0.1997" stop-color="#FFEE2B" stop-opacity="0.8013"/>
<stop offset="0.5839" stop-color="#FFF254" stop-opacity="0.4167"/>
<stop offset="1" stop-color="#FFF686" stop-opacity="0"/>
</radialGradient>
<radialGradient id="paint16_radial_5707_4446" cx="0" cy="0" r="1" gradientUnits="userSpaceOnUse" gradientTransform="translate(5.73539 16.968) scale(8.57425)">
<stop offset="0.00134333" stop-color="#FFED1C"/>
<stop offset="0.1997" stop-color="#FFEE2B" stop-opacity="0.8013"/>
<stop offset="0.5839" stop-color="#FFF254" stop-opacity="0.4167"/>
<stop offset="1" stop-color="#FFF686" stop-opacity="0"/>
</radialGradient>
<radialGradient id="paint17_radial_5707_4446" cx="0" cy="0" r="1" gradientUnits="userSpaceOnUse" gradientTransform="translate(13.8945 15.2351) rotate(86.1102) scale(14.687 8.92823)">
<stop stop-color="#FF4C00" stop-opacity="0"/>
<stop offset="0.9874" stop-color="#FF4C00" stop-opacity="0.9888"/>
<stop offset="0.9987" stop-color="#FF4C00"/>
</radialGradient>
</defs>
</svg>
