<svg width="26" height="30" viewBox="0 0 26 30" fill="none" xmlns="http://www.w3.org/2000/svg">
<path d="M12.8811 0.5C13.9612 0.5 14.8333 1.37209 14.8333 2.4522V4.40441H10.9209V2.4522C10.9289 1.37209 11.801 0.5 12.8811 0.5Z" fill="url(#paint0_linear_616_613)"/>
<path d="M12.8814 0.5C12.7134 0.5 12.5614 0.524002 12.4014 0.556006C13.2495 0.772028 13.8815 1.54011 13.8815 2.4522V4.40441H14.8336V2.4522C14.8416 1.37209 13.9615 0.5 12.8814 0.5Z" fill="url(#paint1_radial_616_613)"/>
<path d="M25.4984 23.8064C25.5384 22.5023 24.6423 21.4942 23.0821 19.67C21.522 17.8458 21.362 17.7338 20.8819 11.5011C20.4579 6.02857 18.0416 4.24439 15.1373 3.34829C14.4092 3.12427 13.6492 3.02026 12.8891 3.02026C12.129 3.02026 11.3689 3.12427 10.6408 3.34829C7.72854 4.25239 5.32029 6.03657 4.89625 11.5091C4.4162 17.7418 4.24818 17.8458 2.69602 19.678C1.14386 21.5102 0.231767 22.5023 0.271771 23.8064H25.4984Z" fill="url(#paint2_radial_616_613)"/>
<path d="M2.97606 19.342C2.88805 19.446 2.79204 19.558 2.69603 19.678C1.13587 21.5022 0.231778 22.5023 0.271782 23.8065H25.4904C25.5304 22.5023 24.6343 21.4942 23.0741 19.67C22.9701 19.55 22.8821 19.446 22.7941 19.334C20.1778 18.4219 16.6975 17.8619 12.8811 17.8619C9.06469 17.8619 5.59233 18.4219 2.97606 19.342Z" fill="url(#paint3_radial_616_613)"/>
<path d="M12.8808 27.8548C19.8447 27.8548 25.4901 27.0524 25.4901 26.0626C25.4901 25.0728 19.8447 24.2704 12.8808 24.2704C5.91686 24.2704 0.271484 25.0728 0.271484 26.0626C0.271484 27.0524 5.91686 27.8548 12.8808 27.8548Z" fill="url(#paint4_linear_616_613)"/>
<path d="M12.8808 22.0143C5.92007 22.0143 0.271484 22.8224 0.271484 23.8065V26.0627C0.271484 25.0706 5.92007 24.2705 12.8808 24.2705C19.8495 24.2705 25.4901 25.0706 25.4901 26.0627V23.8065C25.4981 22.8224 19.8495 22.0143 12.8808 22.0143Z" fill="url(#paint5_linear_616_613)"/>
<path d="M25.498 23.8064C25.538 22.5023 24.6419 21.4942 23.0817 19.67C21.5216 17.8458 21.3615 17.7338 20.8815 11.5011C20.4574 6.02857 18.0412 4.24439 15.1369 3.34829C14.4088 3.12427 13.6487 3.02026 12.8887 3.02026C17.6572 3.93235 17.4171 8.77285 17.4171 12.7573C17.4171 16.7417 18.2652 17.9578 20.6815 19.2859C22.2096 20.126 22.4817 22.3103 22.4737 23.8064H25.498Z" fill="url(#paint6_linear_616_613)"/>
<path d="M15.6016 26.4546C16.0976 28.2788 17.3137 29.5349 18.3298 29.2629C19.3459 28.9909 19.77 27.2867 19.2739 25.4625C19.1779 25.1105 19.0579 24.7904 18.9219 24.4864C17.8498 24.4064 16.6817 24.3424 15.4495 24.3024C15.3455 24.9345 15.3935 25.6865 15.6016 26.4546Z" fill="url(#paint7_radial_616_613)"/>
<path d="M18.9139 24.4864C17.8418 24.4064 16.6737 24.3424 15.4416 24.3024C15.3776 24.7184 15.3776 25.1905 15.4416 25.6785C17.3698 25.1025 19.466 26.0546 19.466 27.0467C19.466 27.0867 19.466 27.1187 19.474 27.1427C19.498 26.6226 19.434 26.0466 19.2739 25.4545C19.1779 25.1185 19.0579 24.7904 18.9139 24.4864Z" fill="url(#paint8_linear_616_613)"/>
<path d="M25.4984 23.8064C25.5384 22.5023 24.6423 21.4942 23.0821 19.67C21.522 17.8458 21.362 17.7338 20.8819 11.5011C20.4579 6.02857 18.0416 4.24439 15.1373 3.34829C14.4092 3.12427 13.6492 3.02026 12.8891 3.02026C12.129 3.02026 11.3689 3.12427 10.6408 3.34829C7.72854 4.25239 5.32029 6.03657 4.89625 11.5091C4.4162 17.7418 4.24818 17.8458 2.69602 19.678C1.14386 21.5102 0.231767 22.5023 0.271771 23.8064H25.4984Z" fill="url(#paint9_radial_616_613)"/>
<path d="M25.4984 23.8064C25.5384 22.5023 24.6423 21.4942 23.0821 19.67C21.522 17.8458 21.362 17.7338 20.8819 11.5011C20.4579 6.02857 18.0416 4.24439 15.1373 3.34829C14.4092 3.12427 13.6492 3.02026 12.8891 3.02026C12.129 3.02026 11.3689 3.12427 10.6408 3.34829C7.72854 4.25239 5.32029 6.03657 4.89625 11.5091C4.4162 17.7418 4.24818 17.8458 2.69602 19.678C1.14386 21.5102 0.231767 22.5023 0.271771 23.8064H25.4984Z" fill="url(#paint10_radial_616_613)"/>
<path d="M12.8808 22.0143C5.92007 22.0143 0.271484 22.8224 0.271484 23.8065V26.0627C0.271484 25.0706 5.92007 24.2705 12.8808 24.2705C19.8495 24.2705 25.4901 25.0706 25.4901 26.0627V23.8065C25.4981 22.8224 19.8495 22.0143 12.8808 22.0143Z" fill="url(#paint11_linear_616_613)"/>
<defs>
<linearGradient id="paint0_linear_616_613" x1="15.8568" y1="6.72535" x2="9.41071" y2="-1.1711" gradientUnits="userSpaceOnUse">
<stop stop-color="#A3541E"/>
<stop offset="0.5525" stop-color="#FCCE38"/>
<stop offset="0.9996" stop-color="#FF9D00"/>
</linearGradient>
<radialGradient id="paint1_radial_616_613" cx="0" cy="0" r="1" gradientUnits="userSpaceOnUse" gradientTransform="translate(12.2807 2.83358) scale(3.01364 3.01365)">
<stop offset="0.4543" stop-color="#C86F34" stop-opacity="0"/>
<stop offset="0.6679" stop-color="#C66D33" stop-opacity="0.4456"/>
<stop offset="0.7838" stop-color="#BE672E" stop-opacity="0.6874"/>
<stop offset="0.876" stop-color="#B05E26" stop-opacity="0.8797"/>
<stop offset="0.9336" stop-color="#A3541E"/>
</radialGradient>
<radialGradient id="paint2_radial_616_613" cx="0" cy="0" r="1" gradientUnits="userSpaceOnUse" gradientTransform="translate(10.0391 7.92733) rotate(99.5904) scale(20.5404 15.0408)">
<stop stop-color="#FCCE38"/>
<stop offset="0.3638" stop-color="#FCCE38"/>
<stop offset="1" stop-color="#C86F34"/>
</radialGradient>
<radialGradient id="paint3_radial_616_613" cx="0" cy="0" r="1" gradientUnits="userSpaceOnUse" gradientTransform="translate(10.2249 23.3322) rotate(1.33185) scale(23.6286 5.50238)">
<stop stop-color="#FBE07A"/>
<stop offset="0.2187" stop-color="#FBDE73" stop-opacity="0.7813"/>
<stop offset="0.5269" stop-color="#FBD961" stop-opacity="0.4731"/>
<stop offset="0.8866" stop-color="#FCD143" stop-opacity="0.1134"/>
<stop offset="1" stop-color="#FCCE38" stop-opacity="0"/>
</radialGradient>
<linearGradient id="paint4_linear_616_613" x1="14.1008" y1="21.1653" x2="7.97703" y2="45.8215" gradientUnits="userSpaceOnUse">
<stop stop-color="#3C2200"/>
<stop offset="0.9996" stop-color="#FF9D00"/>
</linearGradient>
<linearGradient id="paint5_linear_616_613" x1="22.2973" y1="25.5052" x2="-1.26994" y2="22.9672" gradientUnits="userSpaceOnUse">
<stop stop-color="#A3541E"/>
<stop offset="0.5525" stop-color="#FCCE38"/>
<stop offset="0.9996" stop-color="#FF9D00"/>
</linearGradient>
<linearGradient id="paint6_linear_616_613" x1="25.8044" y1="11.8754" x2="12.3225" y2="15.0137" gradientUnits="userSpaceOnUse">
<stop stop-color="#A3541E"/>
<stop offset="0.1203" stop-color="#B05E26" stop-opacity="0.8797"/>
<stop offset="0.3126" stop-color="#BE672E" stop-opacity="0.6874"/>
<stop offset="0.5544" stop-color="#C66D33" stop-opacity="0.4456"/>
<stop offset="1" stop-color="#C86F34" stop-opacity="0"/>
</linearGradient>
<radialGradient id="paint7_radial_616_613" cx="0" cy="0" r="1" gradientUnits="userSpaceOnUse" gradientTransform="translate(18.9821 24.9628) scale(8.45134 8.45136)">
<stop stop-color="#A3541E"/>
<stop offset="0.5525" stop-color="#FCCE38"/>
<stop offset="0.9996" stop-color="#FF9D00"/>
</radialGradient>
<linearGradient id="paint8_linear_616_613" x1="20.4508" y1="23.4475" x2="12.2857" y2="29.6787" gradientUnits="userSpaceOnUse">
<stop stop-color="#3C2200"/>
<stop offset="0.9996" stop-color="#FF9D00"/>
</linearGradient>
<radialGradient id="paint9_radial_616_613" cx="0" cy="0" r="1" gradientUnits="userSpaceOnUse" gradientTransform="translate(9.31913 9.64761) rotate(99.5904) scale(8.19359 3.43449)">
<stop stop-color="#FBE07A" stop-opacity="0.75"/>
<stop offset="0.0803394" stop-color="#FBE387" stop-opacity="0.6897"/>
<stop offset="0.5173" stop-color="#FDF2C7" stop-opacity="0.362"/>
<stop offset="0.8357" stop-color="#FFFBF0" stop-opacity="0.1233"/>
<stop offset="1" stop-color="white" stop-opacity="0"/>
</radialGradient>
<radialGradient id="paint10_radial_616_613" cx="0" cy="0" r="1" gradientUnits="userSpaceOnUse" gradientTransform="translate(9.31913 9.64761) rotate(99.5904) scale(8.19359 3.43449)">
<stop stop-color="#FBE07A" stop-opacity="0.75"/>
<stop offset="0.0803394" stop-color="#FBE387" stop-opacity="0.6897"/>
<stop offset="0.5173" stop-color="#FDF2C7" stop-opacity="0.362"/>
<stop offset="0.8357" stop-color="#FFFBF0" stop-opacity="0.1233"/>
<stop offset="1" stop-color="white" stop-opacity="0"/>
</radialGradient>
<linearGradient id="paint11_linear_616_613" x1="22.2973" y1="25.5052" x2="-1.26994" y2="22.9672" gradientUnits="userSpaceOnUse">
<stop stop-color="#A3541E"/>
<stop offset="0.5525" stop-color="#FCCE38"/>
<stop offset="0.9996" stop-color="#FF9D00"/>
</linearGradient>
</defs>
</svg>
